<svg width="480" height="672" viewBox="0 0 480 672" fill="none" xmlns="http://www.w3.org/2000/svg">
<path fill-rule="evenodd" clip-rule="evenodd" d="M-80.0361 -406.919C23.3939 -393.441 99.6006 -320.695 186.066 -268.399C266.365 -219.833 352.368 -179.42 410.523 -110.22C473.041 -35.8287 533.823 49.0535 530.899 141.924C527.99 234.292 460.437 314.383 394.898 386.036C335.787 450.663 251.052 486.171 173.423 532.752C89.8335 582.909 20.303 662.411 -80.0361 671.02C-181.863 679.757 -277.646 628.515 -363.365 578.81C-446.145 530.808 -527.742 472.446 -563.733 390.54C-598.25 311.99 -564.768 225.852 -555.341 141.924C-546.814 66.0102 -535.041 -6.34167 -510.931 -79.5524C-480.503 -171.947 -477.534 -281.65 -395.266 -344.152C-311.943 -407.456 -188.42 -421.043 -80.0361 -406.919Z" fill="#9D78FC"/>
</svg>
