<svg width="488" height="324" viewBox="0 0 488 324" fill="none" xmlns="http://www.w3.org/2000/svg">
<path d="M178.483 193.575C178.898 193.575 179.234 193.959 179.234 194.433C179.234 194.89 178.921 195.263 178.527 195.289L178.483 195.291L158.379 195.29V212.294L190.294 212.294C190.694 212.294 191.021 212.651 191.044 213.101L191.045 213.152C191.045 213.609 190.732 213.982 190.338 214.008L190.294 214.01L179.234 214.009V231.013L200.249 231.013C200.664 231.013 201 231.398 201 231.871C201 232.328 200.687 232.702 200.293 232.728L200.249 232.729L158.379 232.729V249.732L182.909 249.732C183.309 249.732 183.636 250.089 183.659 250.539L183.66 250.59C183.66 251.047 183.347 251.42 182.953 251.446L182.909 251.448H135.751C135.336 251.448 135 251.063 135 250.589C135 250.133 135.313 249.759 135.707 249.733L135.751 249.732L156.877 249.731V232.729L135.751 232.729C135.351 232.729 135.024 232.372 135.001 231.921L135 231.871C135 231.707 135.04 231.554 135.11 231.423V213.599C135.04 213.469 135 213.316 135 213.152C135 212.695 135.313 212.321 135.707 212.295L135.751 212.294L156.877 212.293V195.29H142.184C141.784 195.29 141.457 194.933 141.434 194.483L141.433 194.433C141.433 193.976 141.746 193.602 142.14 193.576L142.184 193.575H178.483ZM177.732 214.01H136.613V231.013H177.732V214.01Z" fill="black" fill-opacity="0.08"/>
<path d="M323.716 150.669H63.2838C61.4702 150.669 60 152.346 60 154.416V158.451C60 160.52 61.4702 162.198 63.2838 162.198H323.716C325.53 162.198 327 160.52 327 158.451V154.416C327 152.346 325.53 150.669 323.716 150.669Z" fill="#F0F1FF"/>
<path d="M149.926 150.669H63.2838C61.4702 150.669 60 152.346 60 154.416V158.451C60 160.52 61.4702 162.198 63.2838 162.198H149.926C151.74 162.198 153.21 160.52 153.21 158.451V154.416C153.21 152.346 151.74 150.669 149.926 150.669Z" fill="#BACCFF"/>
<path d="M303 161.645H243V320.296H303V161.645Z" fill="#C7D2F2"/>
<path d="M141 161.645H81V320.296H141V161.645Z" fill="#C7D2F2"/>
<path d="M272.96 0H127.04C124.257 0 122 2.57469 122 5.75073V121.053C122 124.229 124.257 126.804 127.04 126.804H272.96C275.743 126.804 278 124.229 278 121.053V5.75073C278 2.57469 275.743 0 272.96 0Z" fill="#FF0057"/>
<path d="M271.951 6.90088H128.552V109.264H271.951V6.90088Z" fill="white"/>
<path d="M271 5.98682H128.002V107.763H271V5.98682Z" fill="#FBFDFF"/>
<mask id="mask0_204_1702" style="mask-type:luminance" maskUnits="userSpaceOnUse" x="128" y="5" width="143" height="103">
<path d="M270.998 5.98706H128V107.763H270.998V5.98706Z" fill="white"/>
</mask>
<g mask="url(#mask0_204_1702)">
<path fill-rule="evenodd" clip-rule="evenodd" d="M206.629 67.071C206.629 67.071 204.941 79.129 206.577 82.7226C207.879 85.5841 215.564 89.4976 215.564 89.4976L216.94 97.8977L188.408 101.23C185.106 100.396 173.155 96.9125 176.97 91.4671C180.785 86.0217 188.866 84.5201 190.179 82.1065C192.702 77.4725 193.163 68.0528 193.093 64.4946C193.093 63.6108 206.629 67.071 206.629 67.071Z" fill="#FFD099"/>
<path fill-rule="evenodd" clip-rule="evenodd" d="M183.125 85.5098C186.498 86.2697 198.151 95.4129 205.301 94.5335C208.915 94.0893 211.868 87.0679 211.982 86.9109C212.059 86.8052 215.644 88.9318 218.713 91.1471L218.714 91.1388C218.733 91.1565 218.755 91.1753 218.78 91.1951C218.916 91.294 219.052 91.393 219.186 91.492C220.861 92.6632 225.711 95.9238 227.344 104.954C228.007 108.617 232.291 122.328 236.075 133.42C233.109 138.595 229.856 138.751 221.254 138.755L220.44 138.755C218.412 138.755 199.682 139.781 178.907 138.755C170.247 138.328 162.84 137.899 160.96 130.676C159.931 126.723 163.986 109.324 163.706 106.915C162.872 99.7379 167.397 94.752 168.973 93.2688C174.236 88.3138 182.564 85.3837 183.125 85.5098Z" fill="#FF0057"/>
<path fill-rule="evenodd" clip-rule="evenodd" d="M224.893 114.84C225.494 117.564 225.501 119.861 225.386 122.657C225.096 127.605 224.448 127.234 223.419 133.172C222.896 136.196 222.603 138.033 222.436 138.509C222.209 139.154 222.276 137.342 222.91 133.069C223.541 128.208 224.201 128.752 224.608 123.898C225.014 119.044 224.872 118.366 224.184 114.776C223.56 111.614 222.586 108.802 221.75 105.695C221.702 105.262 220.736 102.547 221.226 102.95C222.365 106.917 223.975 110.793 224.893 114.84Z" fill="#090E2B"/>
<path fill-rule="evenodd" clip-rule="evenodd" d="M184.983 106.743C184.208 114.555 183.055 122.317 181.545 129.989C181.32 130.606 179.6 139.04 179.523 137.555C179.513 137.361 179.548 136.975 179.583 136.784C180.916 129.574 182.297 121.666 183.44 114.416L184.624 106.687C184.656 106.439 185.012 106.478 184.983 106.743Z" fill="#090E2B"/>
<path fill-rule="evenodd" clip-rule="evenodd" d="M181.318 31.3292C177.705 21.0934 180.004 14.3051 188.215 10.9644C200.53 5.95339 210.229 8.59406 211.47 20.4101C213.461 39.3628 187.515 48.8904 181.318 31.3292Z" fill="#090E2B"/>
<path fill-rule="evenodd" clip-rule="evenodd" d="M200.397 66.9989C177.037 66.9989 158.132 62.4869 158.132 44.4704C158.132 26.4542 171.503 16.6758 196.547 12.4873C221.591 8.29869 239.558 7.22972 239.558 31.031C239.558 49.0475 223.758 66.9989 200.397 66.9989Z" fill="#090E2B"/>
<path fill-rule="evenodd" clip-rule="evenodd" d="M136.95 70.7824C147.057 63.3811 159.352 67.6032 165.894 64.957C176.527 60.6564 175.092 47.1079 185.11 42.0545C187.831 32.2823 195.492 27.4021 206.801 27.4021C224.547 27.4021 225.041 43.6079 225.477 46.339C227.076 56.3742 223.754 75.9251 227.11 82.6446C232.744 93.9263 230.14 101.291 227.202 103.982C224.035 106.883 214.82 104.227 212.821 102.342C209.006 98.7461 205.156 97.335 205.156 85.412C203.164 81.933 203.047 80.903 203.497 76.6796C204.038 71.5982 204.547 67.0014 194.933 64.957C195.715 73.743 196.998 79.7927 193.405 84.2408C189.811 88.6889 186.203 88.6889 181.771 90.3658C172.458 93.8892 169.337 123.716 140.924 111.228C125.691 104.755 126.844 78.1838 136.95 70.7824Z" fill="#E3E4E6"/>
<path fill-rule="evenodd" clip-rule="evenodd" d="M222.661 48.2858C224.918 58.8099 224.125 65.9985 222.11 70.5408C219.739 75.8877 217.729 78.4165 213.58 78.5825C205.575 78.9027 200.546 75.5241 197.718 72.5843C194.739 69.4874 193.739 65.8628 192.914 63.5155C192.811 63.2215 192.717 62.9078 192.631 62.5782L192.716 62.5538C189.897 63.3915 185.11 60.582 185.11 53.9852C185.11 51.0608 189.186 47.4361 191.897 50.8594C191.931 50.0705 191.965 49.5952 191.965 49.5952C193.86 40.9728 204.627 36.0576 211.545 34.981C223.524 33.1165 220.404 37.7617 222.661 48.2858Z" fill="#FFD099"/>
<path fill-rule="evenodd" clip-rule="evenodd" d="M191.372 54.6383C190.649 52.9893 188.91 51.9675 187.408 53.1213C187.068 53.3823 187.526 53.561 187.67 53.5427C189.454 53.2771 190.163 53.8321 190.749 54.9862C190.188 55.1426 189.628 55.7101 189.557 56.351C189.513 56.7444 189.632 57.9088 189.896 57.5415C190.079 57.2876 189.677 55.5557 191.006 55.7138C191.026 55.7189 191.044 55.7201 191.063 55.7221C191.125 55.893 191.626 56.247 191.841 55.9502C191.972 55.7689 191.701 55.3921 191.372 54.6383Z" fill="#090E2B"/>
<path fill-rule="evenodd" clip-rule="evenodd" d="M210.032 27.4297C202.978 28.0103 192.9 36.5896 191.279 42.8791C191.004 43.9446 191.256 49.4865 191.856 50.7386C192.654 52.4057 192.567 56.2069 194.945 56.6478C199.139 57.4245 194.83 50.3288 195.466 48.4748C197.864 41.484 205.472 45.9244 210.032 44.3417C216.275 42.1747 218.588 40.634 218.748 40.3581C219.558 43.8963 223.925 50.6698 225.438 51.9904C225.93 52.4195 225.267 44.7319 223.688 38.5119C222.733 34.7479 216.737 26.8776 210.032 27.4297Z" fill="#E3E4E6"/>
<path fill-rule="evenodd" clip-rule="evenodd" d="M190.621 70.9513C187.697 70.9513 185.319 68.2457 185.319 64.9202C185.319 63.1629 185.988 61.4707 187.16 60.3228C187.352 60.5467 187.583 60.7951 187.754 60.9618C186.749 61.9464 186.073 63.4127 186.073 64.9202C186.073 67.7728 188.113 70.0937 190.621 70.0937C193.128 70.0937 195.168 67.7728 195.168 64.9202C195.168 62.0679 193.128 59.7471 190.621 59.7471C190.412 59.7471 190.244 59.555 190.244 59.3182C190.244 59.0812 190.412 58.8894 190.621 58.8894C193.544 58.8894 195.922 61.5948 195.922 64.9202C195.922 68.2457 193.544 70.9513 190.621 70.9513Z" fill="white"/>
<path fill-rule="evenodd" clip-rule="evenodd" d="M201.845 76.251C200.816 75.553 198.722 74.2574 198.305 73.5113C198.087 73.1227 198.86 73.635 199.26 73.9782C199.792 74.4347 201.992 75.7813 204.706 77.2337C204.941 77.3596 206.452 78.082 206.49 78.1787C206.525 78.2691 206.373 78.4259 206.194 78.399C204.993 78.2168 202.979 77.0203 201.845 76.251Z" fill="#090E2B"/>
<path fill-rule="evenodd" clip-rule="evenodd" d="M199.367 46.6767C199.813 44.3945 205.687 43.5945 208.272 45.3616C209.166 45.9657 210.825 47.6253 209.356 48.5287C208.968 48.7208 208.591 48.5238 208.272 48.2897C204.749 45.5046 199.056 48.2676 199.367 46.6767Z" fill="#090E2B"/>
<path fill-rule="evenodd" clip-rule="evenodd" d="M204.133 50.8025C202.804 51.2313 201.665 52.4464 201.559 53.4533C201.495 54.0616 203.593 55.5222 205.617 55.6357C208.28 55.7847 209.622 54.144 209.617 53.6197C209.438 52.033 207.832 49.6092 204.133 50.8025Z" fill="white"/>
<path fill-rule="evenodd" clip-rule="evenodd" d="M208.251 51.7051C206.205 49.9457 203.035 51.0921 201.559 53.453C201.474 53.5753 201.499 53.2674 201.558 53.1271C202.27 51.4269 203.555 50.6244 205.045 50.2745C205.941 50.0638 206.777 50.0466 207.651 50.492C207.989 50.6639 208.586 51.1876 209.048 51.78C209.408 52.2417 209.711 53.0333 209.294 52.7534C208.968 52.5341 208.523 51.9386 208.251 51.7051Z" fill="#090E2B"/>
<path fill-rule="evenodd" clip-rule="evenodd" d="M205.591 54.7092C206.728 54.7092 207.651 53.752 207.651 52.571C207.651 51.3903 206.728 50.4329 205.591 50.4329C204.453 50.4329 203.531 51.3903 203.531 52.571C203.531 53.752 204.453 54.7092 205.591 54.7092Z" fill="#090E2B"/>
<path fill-rule="evenodd" clip-rule="evenodd" d="M220.323 46.3002C221.166 46.7255 222.288 48.1373 221.354 48.1373C220.42 48.1373 218.397 47.8358 217.04 48.4725C216.566 48.6103 216.207 48.874 215.731 48.9383C214.649 49.1782 214.06 47.7031 214.826 46.8113C215.691 45.8038 218.61 45.3262 220.323 46.3002Z" fill="#090E2B"/>
<path fill-rule="evenodd" clip-rule="evenodd" d="M219.367 55.5548C220.717 55.1977 221.727 53.8054 221.612 52.7651C221.39 51.3865 219.056 50.5063 217.749 51.259C216.455 52.0044 215.645 53.6696 215.749 54.3272C215.9 54.7823 217.988 55.9199 219.367 55.5548Z" fill="white"/>
<path fill-rule="evenodd" clip-rule="evenodd" d="M218.251 54.8038C219.14 54.8038 219.861 54.0165 219.861 53.0456C219.861 52.0744 219.353 51.1567 218.251 51.2874C217.367 51.392 216.641 52.0744 216.641 53.0456C216.641 54.0165 217.362 54.8038 218.251 54.8038Z" fill="#090E2B"/>
<path fill-rule="evenodd" clip-rule="evenodd" d="M215.798 53.3834C216.308 51.2181 218.611 50.1045 220.431 51.1297C220.688 51.2818 221.104 51.6232 221.415 52.0354C221.702 52.4156 221.665 52.6149 221.548 52.5755C221.354 52.5097 220.943 52.0909 220.61 51.9108C218.923 51.0008 217.169 51.5114 215.885 53.6467C215.821 53.7573 215.762 53.5083 215.798 53.3834Z" fill="#090E2B"/>
<path fill-rule="evenodd" clip-rule="evenodd" d="M215.932 61.5883C215.687 62.9945 214.168 63.1313 213.179 62.8126C212.375 62.5536 212.167 62.0207 212.438 61.8499C212.882 61.5715 214.302 62.346 214.826 61.6066C215.761 60.2882 212.892 55.4405 213.804 56.2195C215.008 57.2489 216.096 60.6498 215.932 61.5883Z" fill="#090E2B"/>
<path fill-rule="evenodd" clip-rule="evenodd" d="M216.598 67.3757C216.405 67.5411 215.952 68.2233 215.494 68.6565C214.464 69.6308 212.787 69.8547 211.8 69.6308C209.943 69.2098 209.14 67.8321 208.649 67.4549C208.158 67.0776 209.079 66.5931 209.784 66.6642C210.489 66.7354 210.962 66.9682 212.308 67.6266C213.176 68.0515 215.139 67.4549 215.694 67.0776C216.752 66.3579 217.069 66.9726 216.598 67.3757Z" fill="#090E2B"/>
</g>
<path d="M216.003 126.803H186.013V143.193H216.003V126.803Z" fill="#F67A49"/>
<path fill-rule="evenodd" clip-rule="evenodd" d="M171.9 143.193H229.865C231.953 143.193 233.645 145.124 233.645 147.506V150.669H168.12V147.506C168.12 145.124 169.813 143.193 171.9 143.193Z" fill="#FFB201"/>
<path fill-rule="evenodd" clip-rule="evenodd" d="M386.933 214.173L389.235 263.724H354.548L356.851 214.173H352.955L351.554 263.724H351.44V267.447H351.449L349.926 321.294H351.873L354.375 267.447H389.409L391.911 321.294H393.858L390.829 214.173H386.933Z" fill="#8E2420"/>
<path fill-rule="evenodd" clip-rule="evenodd" d="M397.236 207.704L371.414 206.549C371.324 206.545 371.234 206.545 371.144 206.55L346.757 207.696C344.661 207.794 343 210.072 343 212.848V215.605C343 218.453 344.744 220.761 346.896 220.761H397.104C399.256 220.761 401 218.453 401 215.605V212.856C401 210.077 399.335 207.798 397.236 207.704Z" fill="#FF0057"/>
<path d="M40.2233 321.838L202.176 321.982C202.665 321.982 203.062 322.434 203.062 322.992C203.062 323.53 202.69 323.97 202.223 323.998L202.174 324L40.2219 323.856C39.7322 323.855 39.3359 323.403 39.3359 322.846C39.3359 322.307 39.7076 321.867 40.1746 321.839L40.2233 321.838Z" fill="#090E2B"/>
<path d="M227.69 321.838L438.282 321.982C438.772 321.982 439.168 322.434 439.168 322.991C439.168 323.53 438.797 323.97 438.329 323.998L438.281 324L227.689 323.856C227.199 323.855 226.803 323.403 226.803 322.846C226.803 322.307 227.174 321.868 227.641 321.839L227.69 321.838Z" fill="#090E2B"/>
<path d="M40.2233 321.838L202.176 321.982C202.665 321.982 203.062 322.434 203.062 322.992C203.062 323.53 202.69 323.97 202.223 323.998L202.174 324L40.2219 323.856C39.7322 323.855 39.3359 323.403 39.3359 322.846C39.3359 322.307 39.7076 321.867 40.1746 321.839L40.2233 321.838Z" fill="#090E2B"/>
<path fill-rule="evenodd" clip-rule="evenodd" d="M167 162.055C167 162.055 165.08 178.932 136.442 199.374C128.623 204.935 125.015 210.789 122.322 216.219C119.745 217.167 115.879 218.377 113.53 218.181C113.53 218.181 117.053 219.326 120.862 219.326C117.167 227.339 113.475 234.012 99.7 236.694C99.7 236.694 85.1702 226.739 96.5189 198.066C99.4973 201.009 103.364 206.57 103.364 206.57C102.905 202.285 99.4686 197.379 97.7505 195.155C97.7787 195.122 97.7787 195.09 97.8075 195.057C106.142 177.199 122.18 176.577 137.616 175.498C137.444 177.885 136.929 181.451 135.583 184.198C135.583 184.198 139.678 180.666 140.938 175.236C143.487 175.04 146.007 174.779 148.47 174.386C155.572 173.274 163.133 168.793 167 162.055Z" fill="#9D78FC"/>
<path d="M2.61915 166.344C6.54392 165.683 11.1832 165.577 16.3146 166.378C23.3872 167.482 30.5058 170.198 37.4462 174.88C37.5298 174.936 37.5768 175.042 37.5693 175.15L37.5647 175.187L35.7784 184.94L39.7623 176.879C39.8289 176.744 39.9755 176.695 40.0937 176.762L40.1204 176.78C42.5521 178.607 44.9517 180.706 47.343 183.104C56.3119 192.077 61.8428 201.292 64.5756 210.39C66.4484 216.625 66.8102 222.025 66.3064 226.229C66.2854 226.405 66.2636 226.569 66.2413 226.722L66.2077 226.944L66.1738 227.148L66.1398 227.334L66.1104 227.478L66.1005 227.511L66.0907 227.535L66.0762 227.563L66.0592 227.588L66.0399 227.611L66.0265 227.625L66.0017 227.645L65.9753 227.661L65.9723 227.663C65.9628 227.668 65.9542 227.672 65.9454 227.675L65.9187 227.683L65.8907 227.688L65.8624 227.689L65.8297 227.686L65.8002 227.679L65.7714 227.667L65.7504 227.656L65.726 227.64L65.717 227.632C64.6623 226.737 63.5922 225.957 62.4749 225.262L62.2162 225.103L61.9741 224.957C61.9338 224.933 61.8935 224.91 61.8532 224.886L61.6116 224.745L61.3696 224.608C61.3293 224.585 61.2888 224.562 61.2483 224.54L61.0048 224.406L60.7595 224.274L60.5118 224.144C60.4703 224.123 60.4287 224.101 60.387 224.08L60.1348 223.953C60.0925 223.931 60.05 223.91 60.0074 223.889L59.7495 223.763L59.487 223.638L59.2195 223.513C59.1744 223.493 59.1291 223.472 59.0836 223.451L58.8073 223.327C58.7608 223.306 58.7139 223.285 58.6668 223.264L58.3806 223.139L58.0871 223.013L57.7856 222.886L57.4758 222.758L56.9939 222.563L56.6605 222.431L56.3166 222.296L55.7802 222.089L55.4079 221.947L52.1306 220.711L51.0212 220.285L50.2428 219.981L49.486 219.677L48.9431 219.451L48.5005 219.26L48.137 219.099L47.6635 218.881L47.4128 218.763L47.1447 218.634L46.871 218.5L46.5889 218.361L46.2956 218.214L45.8291 217.977L45.6651 217.894C41.7598 215.9 37.9155 213.32 33.7474 209.76C33.6214 209.653 33.6132 209.444 33.7228 209.323L33.748 209.299L38.8365 204.979L32.345 208.307C32.2713 208.345 32.1868 208.34 32.1177 208.295L32.089 208.273L31.8113 208.029L31.4431 207.697L31.1142 207.394L30.7393 207.045C28.8159 205.241 26.8304 203.103 24.8438 200.747L24.4023 200.22C23.6666 199.335 22.9314 198.422 22.1998 197.486L21.7612 196.922C21.6882 196.827 21.6153 196.732 21.5423 196.637L21.1054 196.065C21.0326 195.969 20.96 195.874 20.8873 195.777L20.4523 195.198L20.0187 194.614L19.5867 194.027C19.5148 193.928 19.443 193.83 19.3713 193.731L18.942 193.138C18.8706 193.039 18.7993 192.94 18.7281 192.84L18.3018 192.242C18.2309 192.142 18.1602 192.042 18.0895 191.941L17.6665 191.339L17.246 190.733C17.1761 190.632 17.1064 190.531 17.0367 190.43L16.6201 189.821C16.4817 189.618 16.3438 189.415 16.2063 189.211L15.7955 188.599L15.3877 187.985C15.32 187.883 15.2525 187.781 15.185 187.678L14.7822 187.064C14.7153 186.961 14.6486 186.858 14.5821 186.756L14.1845 186.14C14.0526 185.935 13.9212 185.73 13.7906 185.525L13.4005 184.909L13.0145 184.294L12.6325 183.679L12.29 183.131L11.9503 182.592C11.8939 182.503 11.8376 182.414 11.7815 182.325L11.4459 181.799L11.113 181.282L10.7829 180.774L10.4556 180.274L10.1311 179.783L9.80931 179.3L9.49033 178.826L9.17412 178.36L8.86071 177.903L8.5501 177.455L8.24228 177.015C8.19121 176.942 8.14026 176.87 8.08943 176.798L7.78582 176.37L7.48503 175.951C7.43513 175.882 7.38535 175.813 7.33569 175.744L7.03913 175.337L6.74539 174.939C6.69666 174.873 6.64806 174.807 6.59958 174.742L6.31008 174.356L6.02342 173.977L5.73961 173.607L5.45864 173.244L5.18052 172.89L4.90525 172.544L4.63285 172.205L4.36331 171.874C4.31863 171.82 4.27406 171.766 4.22962 171.712L3.96439 171.393L3.70204 171.082L3.44256 170.778C3.39956 170.728 3.35668 170.678 3.31391 170.629L3.05284 170.33C2.96695 170.233 2.8822 170.137 2.79857 170.044L2.55112 169.77C2.46977 169.68 2.38956 169.593 2.31049 169.508L2.0767 169.258L1.84977 169.019C1.81252 168.98 1.77556 168.942 1.73888 168.904L1.52227 168.684L1.31255 168.474L1.10975 168.277C1.07652 168.245 1.04359 168.213 1.01094 168.182L0.827508 168.009L0.664079 167.859C0.637876 167.835 0.61219 167.812 0.587024 167.79L0.442254 167.662C0.419164 167.642 0.396595 167.623 0.374547 167.604L0.242034 167.493L0.144694 167.415L0.115356 167.392C-0.0683139 167.257 -0.0240761 166.937 0.187221 166.872L0.351525 166.826L0.568804 166.768L0.733589 166.727L0.821907 166.706C0.95048 166.675 1.08446 166.644 1.22376 166.613L1.50945 166.552L1.8092 166.492L2.12287 166.432L2.45031 166.373C2.50603 166.364 2.56231 166.354 2.61915 166.344Z" fill="#9D78FC"/>
<path fill-rule="evenodd" clip-rule="evenodd" d="M83.5563 236.409C83.5563 236.409 70.0499 231.838 60.5055 212.12C63.7567 211.043 65.8545 208.551 65.8545 208.551C63.547 209.294 59.3516 209.605 59.3516 209.605C39.4971 181.126 49.5108 133.706 49.5108 133.706C51.7134 139.959 62.6617 148.903 71.5346 162.055C70.3181 163.277 66.0405 168.228 64.9707 170.168C64.9707 170.168 69.7777 165.957 72.3367 164.543C80.476 176.713 86.6189 191.849 88.9682 203.78C94.0868 229.941 83.5563 236.409 83.5563 236.409Z" fill="#9D78FC"/>
<path fill-rule="evenodd" clip-rule="evenodd" d="M53.7459 151.105C57.0385 161.377 60.5034 171.582 64.2779 181.634C66.1775 186.653 68.1416 191.645 70.3689 196.477C70.6522 197.078 70.9184 197.69 71.2154 198.281L72.1173 200.048C72.7132 201.226 73.3499 202.396 73.9639 203.571C75.1567 205.949 76.3304 208.343 77.3553 210.826C79.455 215.759 81.0975 220.959 82.1779 226.311C82.7264 228.984 83.1448 231.687 83.529 234.389C83.7271 235.736 83.9066 237.092 84.0694 238.455C84.2136 239.816 84.3568 241.177 84.4732 242.541C84.9602 247.99 85.304 253.45 85.6378 258.91C85.9629 264.371 86.2513 269.833 86.5074 275.3C86.517 275.498 86.3834 275.668 86.21 275.678C86.036 275.689 85.8878 275.536 85.8783 275.338V275.336C85.6388 269.874 85.3665 264.412 85.0585 258.954C84.7414 253.497 84.4142 248.039 83.9444 242.601C83.8325 241.241 83.6943 239.885 83.5547 238.53C83.3974 237.182 83.2234 235.832 83.0289 234.481C82.6538 231.782 82.2454 229.092 81.7085 226.435C80.6523 221.117 79.0386 215.954 76.9656 211.039C75.9543 208.567 74.7927 206.178 73.612 203.805C73.0015 202.629 72.3769 201.472 71.7785 200.28L70.8756 198.497C70.5781 197.901 70.313 197.286 70.0306 196.682C67.8094 191.821 65.8579 186.816 63.9719 181.784C60.2236 171.707 56.7889 161.486 53.5256 151.195C53.5035 151.126 53.5352 151.049 53.5957 151.024C53.6567 150.998 53.7243 151.035 53.7459 151.105Z" fill="black"/>
<path fill-rule="evenodd" clip-rule="evenodd" d="M14.793 173.848L38.6721 192.742C42.6553 195.897 46.4474 199.372 50.0011 203.14C50.903 204.066 51.7535 205.055 52.6282 206.014C53.4666 207.014 54.3377 207.98 55.1443 209.016C56.806 211.035 58.3471 213.181 59.8328 215.373C61.3014 217.582 62.65 219.895 63.8816 222.29C65.0678 224.714 66.1315 227.222 66.9029 229.873C67.098 230.532 67.2457 231.205 67.4196 231.871C67.5779 232.541 67.776 233.201 67.9001 233.879C68.1647 235.232 68.4818 236.573 68.7026 237.935C69.1912 240.65 69.602 243.38 69.9741 246.115C71.4265 257.066 72.3103 268.092 72.9384 279.139C72.9495 279.337 72.8179 279.509 72.6445 279.522C72.4706 279.534 72.3209 279.384 72.3093 279.185V279.184V279.178C71.7199 268.156 70.873 257.129 69.4614 246.204C69.0999 243.475 68.6991 240.751 68.2217 238.048C68.0064 236.69 67.6959 235.358 67.4373 234.011C67.3163 233.335 67.1222 232.683 66.9679 232.018C66.798 231.359 66.6533 230.688 66.4633 230.038C65.7146 227.43 64.6705 224.942 63.5035 222.536C62.291 220.157 60.9606 217.855 59.5082 215.653C58.0381 213.468 56.5126 211.327 54.8645 209.309C54.066 208.274 53.2014 207.309 52.3695 206.309C51.5014 205.349 50.6575 204.361 49.7621 203.434C46.2327 199.663 42.4657 196.183 38.5022 193.018L14.6882 174.021C14.6463 173.988 14.6357 173.923 14.665 173.875C14.6937 173.827 14.7512 173.815 14.793 173.848Z" fill="black"/>
<path fill-rule="evenodd" clip-rule="evenodd" d="M154.523 178.297C146.413 184.153 138.255 189.922 130.116 195.726L124.02 200.078C122.029 201.553 120.16 203.266 118.357 205.049C116.544 206.823 114.855 208.758 113.202 210.724C112.408 211.743 111.573 212.719 110.825 213.783L109.676 215.35L108.588 216.973C107.126 219.128 105.834 221.422 104.611 223.758C104.318 224.35 104.048 224.956 103.765 225.555C103.496 226.161 103.181 226.743 102.95 227.369L102.219 229.23L101.855 230.16L101.551 231.117L100.944 233.032C100.733 233.668 100.619 234.337 100.451 234.988C100.299 235.644 100.134 236.293 99.992 236.956L99.6053 238.96L98.0959 246.992C96.1393 257.714 94.266 268.46 92.4944 279.224C92.4626 279.419 92.2988 279.549 92.1274 279.513C91.9565 279.477 91.8431 279.289 91.8743 279.093C93.6287 268.317 95.4456 257.556 97.4299 246.832L98.9474 238.795L99.3371 236.788C99.4798 236.12 99.6497 235.453 99.8044 234.786C99.9758 234.123 100.094 233.441 100.309 232.795L100.928 230.847L101.238 229.874L101.608 228.929L102.353 227.042C102.588 226.405 102.907 225.817 103.181 225.203C103.468 224.596 103.743 223.981 104.04 223.382C105.28 221.018 106.59 218.699 108.068 216.523L109.17 214.886L110.33 213.304C111.087 212.231 111.93 211.246 112.732 210.219C114.402 208.238 116.106 206.288 117.938 204.499C119.762 202.701 121.645 200.977 123.681 199.471C125.723 198.003 127.77 196.598 129.814 195.159C137.996 189.441 146.162 183.688 154.373 178.022C154.44 177.976 154.527 178 154.568 178.076C154.608 178.152 154.588 178.25 154.523 178.297Z" fill="black"/>
<mask id="mask1_204_1702" style="mask-type:luminance" maskUnits="userSpaceOnUse" x="54" y="256" width="56" height="66">
<path fill-rule="evenodd" clip-rule="evenodd" d="M54 256.437H110V321.294H54V256.437Z" fill="white"/>
</mask>
<g mask="url(#mask1_204_1702)">
<path fill-rule="evenodd" clip-rule="evenodd" d="M72.2104 321.294H91.7916C98.7639 321.294 104.595 320.385 105.261 312.504L110.001 256.437H54.001L58.74 312.504C59.4061 320.385 65.2376 321.294 72.2104 321.294Z" fill="#F0F1FF"/>
</g>
<path fill-rule="evenodd" clip-rule="evenodd" d="M340.679 278.2C340.679 278.2 343.252 298.956 344.303 307.825C345.362 316.769 326.522 308.063 326.522 308.063C326.522 308.063 329.918 302.536 329.97 301.021C330.021 299.507 324.221 281.781 324.221 281.781L340.679 278.2Z" fill="#CA8F67"/>
<path fill-rule="evenodd" clip-rule="evenodd" d="M302.941 163.746C293.693 168.573 284.347 180.76 292.516 203.605C300.686 226.45 319.91 281.745 322.932 284.232C325.953 286.72 341.889 281.781 341.889 281.781C341.889 281.781 340.146 258.559 336.683 235.725C334.148 219.005 328.802 206.813 328.802 206.813C328.802 206.813 371.804 213.82 382.48 205.596C396.493 194.801 386.118 165.711 378.064 162.11C367.71 157.48 320.547 154.556 302.941 163.746Z" fill="#090E2B"/>
<path fill-rule="evenodd" clip-rule="evenodd" d="M303.426 317.751C304.777 312.972 314.575 309.816 321.65 307.427C324.032 306.622 327.359 302.648 328.904 302.696C331.153 302.766 328.949 308.11 336.476 307.644C338.469 307.521 338.611 305.126 342.941 304.581C343.645 304.492 344.72 304.336 345.649 306.246C346.167 307.311 348.287 316.924 346.206 320.843C331.634 321.273 316.645 320.848 303.698 320.711C302.434 320.697 303.08 318.974 303.426 317.751Z" fill="#FFB201"/>
<path fill-rule="evenodd" clip-rule="evenodd" d="M279.375 281.781C279.375 281.781 276.726 297.398 274.954 299.938C273.181 302.478 263.982 305.337 263.57 306.906C263.157 308.475 283.176 312.149 283.176 312.149L295.424 283.127L279.375 281.781Z" fill="#CA8F67"/>
<path fill-rule="evenodd" clip-rule="evenodd" d="M245.475 316.891C246.827 312.112 256.625 308.956 263.7 306.567C266.082 305.762 269.409 301.788 270.954 301.836C273.202 301.906 270.998 307.25 278.526 306.785C280.518 306.662 280.661 304.266 284.991 303.721C285.695 303.632 286.77 303.477 287.699 305.386C288.217 306.451 290.337 316.064 288.256 319.984C273.684 320.414 258.694 319.989 245.748 319.851C244.483 319.837 245.13 318.114 245.475 316.891Z" fill="#FFB201"/>
<path fill-rule="evenodd" clip-rule="evenodd" d="M262.384 309.98C261.459 307.853 261.054 307.483 261.449 307.148C262.392 306.347 267.184 308.822 267.561 310.294C267.843 311.397 264.652 308.204 262.104 307.727C263.148 308.816 264.121 312.155 263.094 311.489C258.088 308.248 257.299 309 257.293 308.879C257.263 308.306 259.157 307.842 262.384 309.98Z" fill="#FFB201"/>
<path fill-rule="evenodd" clip-rule="evenodd" d="M398.501 185.806C395.499 203.555 381.651 209.932 369.635 209.402C351.279 208.592 332.568 199.283 326.243 196.172C326.801 200.75 323.822 226.781 318.849 238.828C313.875 250.875 297.68 287.116 297.68 287.116C297.68 287.116 279.406 287.239 278.625 282.173C278.111 278.841 295.266 185.763 300.941 169.646C304.2 160.391 314.747 156.397 336.442 154.291C358.231 152.176 389.995 156.076 389.995 156.076C389.995 156.076 401.502 168.056 398.501 185.806Z" fill="#090E2B"/>
<path fill-rule="evenodd" clip-rule="evenodd" d="M320.334 311.127C319.409 309 319.004 308.63 319.399 308.295C320.342 307.494 325.134 309.968 325.511 311.44C325.793 312.543 322.602 309.35 320.054 308.874C321.098 309.963 322.072 313.301 321.044 312.636C316.039 309.394 315.249 310.146 315.243 310.026C315.213 309.453 317.108 308.989 320.334 311.127Z" fill="#FFB201"/>
<path fill-rule="evenodd" clip-rule="evenodd" d="M306.506 322.575L341.582 323.282C343.928 323.389 347.438 322.467 347.778 320.241C348.032 318.577 347.468 314.956 347.351 314.715C346.534 313.036 339.571 314.452 337.542 320.122C324.744 321.217 302.95 320.146 302.95 320.146C302.95 320.146 302.622 322.347 306.506 322.575Z" fill="#090E2B"/>
<path fill-rule="evenodd" clip-rule="evenodd" d="M248.582 321.542L283.658 322.249C286.004 322.356 289.515 321.434 289.854 319.208C290.108 317.545 289.544 313.923 289.427 313.682C288.61 312.003 281.647 313.42 279.619 319.089C266.821 320.184 245.026 319.113 245.026 319.113C245.026 319.113 244.699 321.314 248.582 321.542Z" fill="#090E2B"/>
<path fill-rule="evenodd" clip-rule="evenodd" d="M267.32 27.2549C267.32 27.2549 266.691 25.6638 266.156 24.5732C265.449 23.1334 266.014 21.4636 267.415 23.6633C267.793 24.2569 275.131 33.5726 276.919 35.2955C290.391 48.276 306.54 63.2909 310.302 65.3264C315.566 68.174 324.587 69.7471 329.164 74.3901C331.387 76.6446 322.838 95.2476 322.838 95.2476C322.838 95.2476 308.808 87.9395 304.328 84.7346C298.754 80.7459 282.111 57.1591 272.447 42.122C270.298 38.7797 266.265 38.2548 264.83 33.5137C263.947 30.5957 267.32 27.2549 267.32 27.2549Z" fill="#CA8F67"/>
<path fill-rule="evenodd" clip-rule="evenodd" d="M362.027 63.9897C362.027 63.9897 362.812 70.683 362.189 72.012C361.885 72.6596 359.792 74.9745 351.859 76.2263C350.975 77.2913 355.197 87.9837 356.845 89.7589C358.492 91.5345 363.782 92.4811 373.842 83.3681C383.903 74.2548 382.451 74.3729 382.451 74.3729C382.451 74.3729 376.813 74.2335 375.501 71.8875C375.042 71.065 374.533 58.5038 375.646 54.7131C376.76 50.9223 362.027 63.9897 362.027 63.9897Z" fill="#CA8F67"/>
<path fill-rule="evenodd" clip-rule="evenodd" d="M406.217 93.8062C406.217 93.8062 426.364 116.242 431.382 121.973C435.204 126.337 454.838 147.824 467.076 160.619C470.912 164.629 476.487 166.716 480.324 169.113C482.088 170.214 488.475 174.067 487.972 175.376C487.537 176.508 479.719 175.21 477.563 176.199C479.597 178.464 479.202 180.596 475.705 179.344C470.875 177.614 468.673 172.435 464.774 169.353C460.024 165.598 425.568 145.236 416.41 135.016C409.691 127.519 393.626 117.225 393.626 117.225L406.217 93.8062Z" fill="#CA8F67"/>
<path fill-rule="evenodd" clip-rule="evenodd" d="M400.018 123.974C396.113 120.383 388.495 114.269 388.495 114.269C388.495 114.269 404.34 165.174 401.07 171.097C400.182 172.706 392.487 166.333 381.19 164.349C362.621 161.089 341.64 159.123 343.645 152.443C349.357 133.409 344.177 106.501 344.177 106.501L321.877 97.562C319.307 92.0929 316.66 69.4876 319.997 68.1618C320.878 67.8117 345.442 74.7104 345.442 74.7104C345.442 74.7104 355.252 73.9539 355.856 74.3257C356.46 74.6974 357.867 84.8626 359.838 85.3348C365.343 86.6545 382.345 73.369 382.345 73.369C382.345 73.369 390.69 74.893 395.226 79.3699C398.336 82.4389 419.869 106.812 419.869 106.812C419.869 106.812 403.923 127.564 400.018 123.974Z" fill="#FFB201"/>
<path fill-rule="evenodd" clip-rule="evenodd" d="M388.58 114.497C388.138 113.486 384.848 109.962 382.832 108.045C381.162 106.455 380.367 105.971 382.801 108.939C383.681 109.846 387.94 115.215 388.58 114.497Z" fill="black"/>
<path fill-rule="evenodd" clip-rule="evenodd" d="M343.717 98.1328C343.647 98.4003 343.555 103.599 344.104 106.27C344.149 106.491 344.176 106.75 344.234 106.776C344.573 106.924 344.376 102.389 344.226 100.155C344.04 97.3956 343.835 97.6799 343.717 98.1328Z" fill="black"/>
<path fill-rule="evenodd" clip-rule="evenodd" d="M351.119 23.6547C351.119 23.6547 350.625 20.9959 346.995 21.2975C341.124 21.7849 340.065 28.3247 341.411 34.7322C342.36 39.2457 343.628 42.8018 343.228 45.3021C342.463 50.0919 340.296 50.3166 338.623 55.5705C335.968 63.9124 342.651 64.5206 342.716 66.0177C343.028 73.272 345.11 76.6093 348.77 78.1963C354.165 80.5364 359.828 77.4702 362.692 71.7643C365.089 66.9868 362.692 61.7461 362.692 61.7461L349.556 47.2991L351.119 23.6547Z" fill="#090E2B"/>
<path fill-rule="evenodd" clip-rule="evenodd" d="M351.956 20.6854C351.956 20.6854 348.11 22.8445 346.295 28.893C345.274 32.294 345.664 36.4707 345.096 42.3561C343.685 56.9675 347.46 68.3682 354.475 68.0951C362.805 67.7705 370.013 62.0919 374.012 58.7904C378.011 55.4883 378.745 51.3646 378.785 44.8356C378.826 38.3066 378.617 24.2739 374.925 23.8611C371.232 23.4486 359.44 14.2076 351.956 20.6854Z" fill="#CA8F67"/>
<path fill-rule="evenodd" clip-rule="evenodd" d="M376.562 47.8477C376.556 50.0928 368.707 56.0419 372.88 64.4293C370.047 67.792 370.846 81.0338 383.03 79.1526C388.377 87.3147 399.712 83.9719 398.402 75.2294C401.75 74.4866 403.389 68.2427 402.922 64.7139C401.709 55.5699 394.076 54.4319 394.076 54.4319C395.034 43.9265 386.641 46.418 387.807 39.1863C388.96 32.0359 387.702 22.1198 381.109 20.9561C380.21 10.679 368.583 6.04628 360.418 10.9328C358.491 8.91786 345.33 6.55527 345.606 20.3205C345.699 24.9948 348.879 31.2549 353.511 32.3236C356.779 33.0781 362.575 31.7631 364.562 34.547C367.281 38.3552 367.744 39.2901 371.871 41.694C373.472 42.6255 374.604 41.694 374.604 41.694C374.604 41.694 376.577 42.3395 376.562 47.8477Z" fill="#090E2B"/>
<path fill-rule="evenodd" clip-rule="evenodd" d="M374.663 50.1299C376.435 51.3143 378.858 49.8326 380.262 48.7526C383.305 46.4122 383.187 42.6185 380.744 40.5723C378.958 39.0774 376.468 39.3787 374.208 41.5578C372.261 43.4359 372.661 48.7918 374.663 50.1299Z" fill="#CA8F67"/>
<path fill-rule="evenodd" clip-rule="evenodd" d="M379.314 42.5852C378.048 42.3206 376.627 42.5109 375.727 44.0294C375.315 44.7233 375.308 45.514 375.095 46.3089C375.072 46.3957 375.317 46.6014 375.663 45.6454C376.113 44.4029 376.928 43.6197 377.636 43.2794C378.559 42.8367 379.669 43.1357 379.836 42.9514C380.009 42.7593 379.456 42.6148 379.314 42.5852Z" fill="black"/>
<path fill-rule="evenodd" clip-rule="evenodd" d="M375.854 45.2685C376.495 44.8918 377.715 45.5652 377.765 45.421C377.92 44.9746 376.275 44.1953 375.734 44.6974C375.338 45.0662 375.399 45.5362 375.854 45.2685Z" fill="black"/>
<path fill-rule="evenodd" clip-rule="evenodd" d="M369.988 61.8136C369.768 61.9228 368.598 62.693 368.083 63.0063C367.137 63.5813 366.186 64.1489 365.223 64.6673C364.727 64.9358 363.533 65.4115 363.693 65.5711C364.003 65.8773 366.687 64.7324 368.386 63.4541C369.289 62.7747 370.364 61.6275 369.988 61.8136Z" fill="#090E2B"/>
<path fill-rule="evenodd" clip-rule="evenodd" d="M368.121 36.3902C367.673 34.0912 361.775 33.2854 359.18 35.0654C358.283 35.674 356.616 37.3457 358.092 38.2557C358.482 38.4492 358.86 38.2508 359.18 38.015C362.717 35.2095 368.434 37.9927 368.121 36.3902Z" fill="#090E2B"/>
<path fill-rule="evenodd" clip-rule="evenodd" d="M363.336 40.5463C364.67 40.9783 365.814 42.2022 365.92 43.2165C365.985 43.8293 363.878 45.3006 361.846 45.4149C359.172 45.565 357.825 43.9122 357.83 43.3841C358.01 41.7858 359.622 39.3443 363.336 40.5463Z" fill="white"/>
<path fill-rule="evenodd" clip-rule="evenodd" d="M359.201 41.4554C361.256 39.6831 364.438 40.8379 365.92 43.2161C366.005 43.3393 365.981 43.0292 365.922 42.8878C365.207 41.1751 363.917 40.3668 362.421 40.0143C361.521 39.802 360.681 39.7848 359.804 40.2334C359.464 40.4065 358.865 40.9341 358.401 41.5308C358.04 41.9959 357.736 42.7933 358.154 42.5114C358.481 42.2905 358.928 41.6906 359.201 41.4554Z" fill="#090E2B"/>
<path fill-rule="evenodd" clip-rule="evenodd" d="M361.872 44.4815C360.73 44.4815 359.804 43.5173 359.804 42.3276C359.804 41.1383 360.73 40.1738 361.872 40.1738C363.014 40.1738 363.94 41.1383 363.94 42.3276C363.94 43.5173 363.014 44.4815 361.872 44.4815Z" fill="#090E2B"/>
<path fill-rule="evenodd" clip-rule="evenodd" d="M347.082 36.0106C346.236 36.4391 345.109 37.8611 346.047 37.8611C346.985 37.8611 349.016 37.5575 350.378 38.1988C350.854 38.3376 351.215 38.6033 351.692 38.6681C352.779 38.9097 353.37 37.4238 352.602 36.5255C351.733 35.5106 348.802 35.0295 347.082 36.0106Z" fill="#090E2B"/>
<path fill-rule="evenodd" clip-rule="evenodd" d="M348.041 45.3336C346.686 44.9739 345.672 43.5715 345.787 42.5235C346.01 41.1349 348.353 40.2482 349.665 41.0064C350.965 41.7572 351.779 43.4347 351.674 44.097C351.522 44.5555 349.426 45.7014 348.041 45.3336Z" fill="white"/>
<path fill-rule="evenodd" clip-rule="evenodd" d="M349.163 44.5765C348.27 44.5765 347.546 43.7834 347.546 42.8054C347.546 41.8271 348.056 40.9027 349.163 41.0343C350.051 41.1397 350.779 41.8271 350.779 42.8054C350.779 43.7834 350.055 44.5765 349.163 44.5765Z" fill="#090E2B"/>
<path fill-rule="evenodd" clip-rule="evenodd" d="M351.625 43.1456C351.113 40.9645 348.802 39.8428 346.974 40.8755C346.716 41.0287 346.298 41.3725 345.985 41.7878C345.698 42.1708 345.735 42.3715 345.853 42.3318C346.048 42.2656 346.46 41.8437 346.794 41.6622C348.488 40.7456 350.249 41.2599 351.539 43.4109C351.602 43.5223 351.662 43.2715 351.625 43.1456Z" fill="#090E2B"/>
<path fill-rule="evenodd" clip-rule="evenodd" d="M350.786 56.7443C352.949 57.0323 351.197 59.7752 352.317 60.1396C355.185 61.0725 358.299 59.9405 358.802 57.0323C359.099 55.3159 358.213 55.5235 357.505 55.5951C356.798 55.6668 353.302 55.8143 351.425 55.8143C349.604 55.8143 350.519 56.7087 350.786 56.7443Z" fill="#090E2B"/>
<path fill-rule="evenodd" clip-rule="evenodd" d="M353.374 47.2957C353.276 47.2957 352.624 48.5691 352.385 49.0163C351.623 50.4405 350.784 52.0351 352.023 52.9519C352.624 53.3962 354.511 52.7078 354.511 52.185C354.511 51.3895 352.788 52.788 352.383 51.9805C352.145 51.5693 353.035 49.4833 353.374 48.2464C353.563 47.5561 353.472 47.2957 353.374 47.2957Z" fill="#090E2B"/>
<path fill-rule="evenodd" clip-rule="evenodd" d="M356.027 43.2464C356.093 47.8736 359.4 51.6013 363.47 51.6013C367.581 51.6013 370.914 47.7979 370.914 43.106C370.914 38.4139 367.581 34.6104 363.47 34.6104C359.4 34.6104 356.093 38.3383 356.027 42.9655L356.026 43.106L356.027 43.2464ZM357.036 42.9845C357.093 38.9847 359.952 35.7623 363.47 35.7623C367.024 35.7623 369.905 39.0501 369.905 43.106C369.905 47.1617 367.024 50.4493 363.47 50.4493C359.952 50.4493 357.093 47.2271 357.036 43.2274L357.036 43.106L357.036 42.9845Z" fill="#FFB201"/>
<path fill-rule="evenodd" clip-rule="evenodd" d="M340.887 41.7924C340.946 45.949 343.917 49.2977 347.573 49.2977C351.266 49.2977 354.26 45.881 354.26 41.6662C354.26 37.4514 351.266 34.0347 347.573 34.0347C343.917 34.0347 340.946 37.3834 340.887 41.54L340.886 41.6662L340.887 41.7924ZM341.896 41.559C341.946 38.0298 344.469 35.1866 347.573 35.1866C350.709 35.1866 353.251 38.0876 353.251 41.6662C353.251 45.2448 350.709 48.1458 347.573 48.1458C344.469 48.1458 341.946 45.3025 341.896 41.7733L341.896 41.6662L341.896 41.559Z" fill="#FFB201"/>
<path fill-rule="evenodd" clip-rule="evenodd" d="M353.539 38.4885C353.268 38.5635 353.1 38.8948 353.165 39.2284C353.229 39.5621 353.502 39.7719 353.773 39.6969C354.79 39.4158 356.214 39.8119 356.7 39.9524C357.186 40.0929 357.388 39.9251 357.474 39.6011C357.56 39.2771 357.397 38.8791 357.132 38.7696C356.866 38.6601 354.704 38.1667 353.539 38.4885Z" fill="#FFB201"/>
</svg>
