<svg width="77" height="88" viewBox="0 0 77 88" fill="none" xmlns="http://www.w3.org/2000/svg">
<path fill-rule="evenodd" clip-rule="evenodd" d="M76.3567 44.1639C76.3567 68.3549 59.3744 87.9657 38.4249 87.9657C17.4774 87.9657 0.495117 68.3549 0.495117 44.1639C0.495117 19.9728 17.4774 0.362061 38.4249 0.362061C59.3744 0.362061 76.3567 19.9728 76.3567 44.1639Z" fill="#C7D2F2"/>
<path fill-rule="evenodd" clip-rule="evenodd" d="M72.2428 44.1635C72.2428 65.731 57.1027 83.2152 38.4251 83.2152C19.7485 83.2152 4.6084 65.731 4.6084 44.1635C4.6084 22.596 19.7485 5.11182 38.4251 5.11182C57.1027 5.11182 72.2428 22.596 72.2428 44.1635Z" fill="#F9FAFA"/>
<path fill-rule="evenodd" clip-rule="evenodd" d="M41.2572 44.1635C41.2572 45.9688 39.9895 47.4331 38.4249 47.4331C36.8614 47.4331 35.5937 45.9688 35.5937 44.1635C35.5937 42.357 36.8614 40.8927 38.4249 40.8927C39.9895 40.8927 41.2572 42.357 41.2572 44.1635Z" fill="#C7D2F2"/>
<path fill-rule="evenodd" clip-rule="evenodd" d="M37.7832 13.6823H39.1441V6.53857H37.7832V13.6823Z" fill="#C7D2F2"/>
<path fill-rule="evenodd" clip-rule="evenodd" d="M37.7832 81.83H39.1441V74.6863H37.7832V81.83Z" fill="#C7D2F2"/>
<path fill-rule="evenodd" clip-rule="evenodd" d="M64.8789 44.9698H71.0642V43.3979H64.8789V44.9698Z" fill="#C7D2F2"/>
<path fill-rule="evenodd" clip-rule="evenodd" d="M5.86328 44.9698H12.0496V43.3979H5.86328V44.9698Z" fill="#C7D2F2"/>
<path fill-rule="evenodd" clip-rule="evenodd" d="M37.7168 43.032L38.4778 18.2666L39.2398 43.032H37.7168Z" fill="#C7D2F2"/>
<path fill-rule="evenodd" clip-rule="evenodd" d="M37.5956 44.6054L22.9824 26.4578L38.6728 43.3629L37.5956 44.6054Z" fill="#C7D2F2"/>
</svg>
