<svg width="50" height="50" viewBox="0 0 50 50" fill="none" xmlns="http://www.w3.org/2000/svg">
<path d="M11.15 12.8999L12.5 18.6499L11.15 24.3749L16.175 27.4749L19.25 32.4999L25 31.1499L30.75 32.4999L33.825 27.4749L38.85 24.3749L37.5 18.6499L38.85 12.8999L33.85 9.7999L30.75 4.7749L25 6.1499L19.275 4.7999L16.15 9.7999L11.15 12.8999ZM25.025 28.7499C22.3728 28.7499 19.8293 27.6963 17.9539 25.821C16.0786 23.9456 15.025 21.4021 15.025 18.7499C15.025 16.0977 16.0786 13.5542 17.9539 11.6788C19.8293 9.80347 22.3728 8.7499 25.025 8.7499C30.525 8.7499 35 13.2249 35 18.7249C35 24.2749 30.525 28.7499 25.025 28.7499ZM24.975 26.2499C20.825 26.2499 17.5 22.8999 17.5 18.7499C17.5 14.6249 20.825 11.2499 24.975 11.2499C29.125 11.2499 32.5 14.6249 32.5 18.7499C32.5 22.8999 29.125 26.2499 24.975 26.2499ZM34.575 28.9999L31.375 34.5999L26.175 33.4249L32.5 47.9999L36 42.4999H42.25L34.575 28.9999ZM15.325 29.1749L18.45 34.7999L23.775 33.5249L17.5 47.9999L14 42.4999H7.75L15.325 29.1749Z" fill="#FF0057"/>
</svg>
