<svg width="50" height="50" viewBox="0 0 50 50" fill="none" xmlns="http://www.w3.org/2000/svg">
<g id="dashicons:awards">
<path id="Vector" d="M11.15 12.9L12.5 18.65L11.15 24.375L16.175 27.475L19.25 32.5L25 31.15L30.75 32.5L33.825 27.475L38.85 24.375L37.5 18.65L38.85 12.9L33.85 9.80002L30.75 4.77502L25 6.15002L19.275 4.80002L16.15 9.80002L11.15 12.9ZM25.025 28.75C22.3728 28.75 19.8293 27.6965 17.9539 25.8211C16.0786 23.9457 15.025 21.4022 15.025 18.75C15.025 16.0979 16.0786 13.5543 17.9539 11.679C19.8293 9.80359 22.3728 8.75002 25.025 8.75002C30.525 8.75002 35 13.225 35 18.725C35 24.275 30.525 28.75 25.025 28.75ZM24.975 26.25C20.825 26.25 17.5 22.9 17.5 18.75C17.5 14.625 20.825 11.25 24.975 11.25C29.125 11.25 32.5 14.625 32.5 18.75C32.5 22.9 29.125 26.25 24.975 26.25ZM34.575 29L31.375 34.6L26.175 33.425L32.5 48L36 42.5H42.25L34.575 29ZM15.325 29.175L18.45 34.8L23.775 33.525L17.5 48L14 42.5H7.75L15.325 29.175Z" fill="black"/>
</g>
</svg>
