<svg width="44" height="44" viewBox="0 0 44 44" fill="none" xmlns="http://www.w3.org/2000/svg">
<path d="M29.8462 17.9299C30.0891 17.6693 30.2213 17.3245 30.215 16.9683C30.2087 16.6121 30.0644 16.2722 29.8125 16.0203C29.5606 15.7684 29.2207 15.6241 28.8645 15.6178C28.5083 15.6115 28.1635 15.7437 27.9028 15.9866L19.7078 24.1816L17.0055 21.4793C16.7449 21.2364 16.4001 21.1042 16.0439 21.1105C15.6877 21.1167 15.3478 21.261 15.0959 21.513C14.8439 21.7649 14.6996 22.1048 14.6934 22.461C14.6871 22.8172 14.8193 23.162 15.0622 23.4226L18.7362 27.0966C18.994 27.3541 19.3435 27.4987 19.7078 27.4987C20.0722 27.4987 20.4217 27.3541 20.6795 27.0966L29.8462 17.9299ZM11.4578 5.49994C9.8776 5.49994 8.36207 6.12769 7.24467 7.24509C6.12726 8.3625 5.49951 9.87802 5.49951 11.4583V32.5416C5.49951 34.1219 6.12726 35.6374 7.24467 36.7548C8.36207 37.8722 9.8776 38.4999 11.4578 38.4999H32.5412C34.1214 38.4999 35.637 37.8722 36.7544 36.7548C37.8718 35.6374 38.4995 34.1219 38.4995 32.5416V11.4583C38.4995 9.87802 37.8718 8.3625 36.7544 7.24509C35.637 6.12769 34.1214 5.49994 32.5412 5.49994H11.4578ZM8.24951 11.4583C8.24951 9.68727 9.68685 8.24994 11.4578 8.24994H32.5412C34.3122 8.24994 35.7495 9.68727 35.7495 11.4583V32.5416C35.7495 33.3925 35.4115 34.2086 34.8098 34.8102C34.2081 35.4119 33.3921 35.7499 32.5412 35.7499H11.4578C10.6069 35.7499 9.79089 35.4119 9.18921 34.8102C8.58753 34.2086 8.24951 33.3925 8.24951 32.5416V11.4583Z" fill="#C51230"/>
</svg>
