<svg width="44" height="44" viewBox="0 0 44 44" fill="none" xmlns="http://www.w3.org/2000/svg">
<path d="M29.8462 17.9301C30.0891 17.6694 30.2213 17.3247 30.215 16.9684C30.2087 16.6122 30.0644 16.2723 29.8125 16.0204C29.5606 15.7685 29.2207 15.6242 28.8645 15.6179C28.5083 15.6116 28.1635 15.7438 27.9028 15.9867L19.7078 24.1817L17.0055 21.4794C16.7449 21.2365 16.4001 21.1043 16.0439 21.1106C15.6877 21.1169 15.3478 21.2612 15.0959 21.5131C14.8439 21.765 14.6996 22.1049 14.6934 22.4611C14.6871 22.8173 14.8193 23.1621 15.0622 23.4227L18.7362 27.0967C18.994 27.3542 19.3435 27.4989 19.7078 27.4989C20.0722 27.4989 20.4217 27.3542 20.6795 27.0967L29.8462 17.9301ZM11.4578 5.50006C9.8776 5.50006 8.36207 6.12781 7.24467 7.24522C6.12726 8.36262 5.49951 9.87815 5.49951 11.4584V32.5417C5.49951 34.122 6.12726 35.6375 7.24467 36.7549C8.36207 37.8723 9.8776 38.5001 11.4578 38.5001H32.5412C34.1214 38.5001 35.637 37.8723 36.7544 36.7549C37.8718 35.6375 38.4995 34.122 38.4995 32.5417V11.4584C38.4995 9.87815 37.8718 8.36262 36.7544 7.24522C35.637 6.12781 34.1214 5.50006 32.5412 5.50006H11.4578ZM8.24951 11.4584C8.24951 9.68739 9.68685 8.25006 11.4578 8.25006H32.5412C34.3122 8.25006 35.7495 9.68739 35.7495 11.4584V32.5417C35.7495 33.3926 35.4115 34.2087 34.8098 34.8104C34.2081 35.412 33.3921 35.7501 32.5412 35.7501H11.4578C10.6069 35.7501 9.79089 35.412 9.18921 34.8104C8.58753 34.2087 8.24951 33.3926 8.24951 32.5417V11.4584Z" fill="#9D78FC"/>
</svg>
