<svg width="139" height="468" viewBox="0 0 139 468" fill="none" xmlns="http://www.w3.org/2000/svg">
<path fill-rule="evenodd" clip-rule="evenodd" d="M82.3312 442.358C82.3312 456.517 76.5875 468 69.5004 468C62.4133 468 56.6697 456.517 56.6697 442.358C56.6697 428.195 62.4133 416.712 69.5004 416.712C76.5875 416.712 82.3312 428.195 82.3312 442.358Z" fill="#FFB201"/>
<path fill-rule="evenodd" clip-rule="evenodd" d="M68.7881 349.041H70.5701V0H68.7881V349.041Z" fill="#090E2B"/>
<path fill-rule="evenodd" clip-rule="evenodd" d="M66.4733 329.286C60.1208 354.432 42.391 408.467 0.83467 446.896C-0.548824 448.178 -0.112723 452.329 1.41041 452.329H137.59C139.113 452.329 139.549 448.178 138.164 446.896C96.6072 408.467 78.8796 354.432 72.525 329.286C71.2618 324.284 67.7386 324.284 66.4733 329.286Z" fill="#FF0057"/>
</svg>
