<svg width="336" height="121" viewBox="0 0 336 121" fill="none" xmlns="http://www.w3.org/2000/svg">
<path d="M143.136 43H126.101V14.3066L143.136 14.3066V20.5281H133.853V25.0421H142.45V31.2636H133.853V36.6804H143.136V43ZM165.765 43L164.352 37.6224H155.03L153.578 43H145.06L154.421 14.1888H164.764L174.244 43H165.765ZM162.743 31.2636L161.507 26.5533C161.376 26.043 161.186 25.3168 160.937 24.3748C160.689 23.4196 160.44 22.4383 160.192 21.4309C159.956 20.4103 159.773 19.5729 159.642 18.9187C159.524 19.5729 159.354 20.3841 159.132 21.3524C158.922 22.3075 158.7 23.2561 158.464 24.1982C158.242 25.1402 158.046 25.9253 157.876 26.5533L156.639 31.2636H162.743ZM196.127 34.286C196.127 35.843 195.735 37.3215 194.949 38.7215C194.164 40.1084 192.941 41.2337 191.279 42.0972C189.631 42.9608 187.498 43.3925 184.881 43.3925C183.573 43.3925 182.421 43.3336 181.427 43.2159C180.446 43.0981 179.53 42.9084 178.679 42.6467C177.829 42.372 176.946 42.0187 176.03 41.5869V34.6785C177.587 35.4636 179.157 36.0654 180.74 36.4841C182.323 36.8897 183.756 37.0925 185.038 37.0925C185.81 37.0925 186.438 37.0009 186.922 36.8178C187.42 36.6346 187.786 36.386 188.021 36.072C188.257 35.7449 188.375 35.372 188.375 34.9533C188.375 34.4561 188.198 34.0374 187.845 33.6972C187.505 33.3439 186.955 32.9776 186.196 32.5981C185.437 32.2187 184.436 31.7477 183.193 31.1851C182.134 30.6879 181.172 30.1776 180.308 29.6542C179.458 29.1309 178.725 28.5355 178.11 27.8682C177.508 27.1879 177.044 26.3963 176.717 25.4935C176.39 24.5907 176.226 23.5243 176.226 22.2944C176.226 20.4496 176.678 18.9056 177.58 17.6626C178.496 16.4066 179.765 15.4645 181.388 14.8365C183.023 14.2084 184.907 13.8944 187.04 13.8944C188.911 13.8944 190.592 14.1038 192.084 14.5225C193.589 14.9411 194.936 15.4187 196.127 15.9552L193.752 21.9411C192.522 21.3785 191.312 20.9337 190.121 20.6066C188.931 20.2664 187.825 20.0963 186.805 20.0963C186.137 20.0963 185.588 20.1813 185.156 20.3514C184.737 20.5084 184.423 20.7243 184.214 20.9991C184.018 21.2739 183.92 21.5879 183.92 21.9411C183.92 22.386 184.09 22.7851 184.43 23.1383C184.783 23.4916 185.365 23.8776 186.177 24.2963C187.001 24.7019 188.12 25.2318 189.533 25.886C190.933 26.514 192.123 27.1944 193.105 27.9271C194.086 28.6467 194.832 29.5168 195.342 30.5374C195.865 31.5449 196.127 32.7944 196.127 34.286ZM210.807 24.9439L215.753 14.3066L224.153 14.3066L214.713 31.7935V43H206.902V32.029L197.462 14.3066H205.901L210.807 24.9439Z" fill="white"/>
<path d="M126.101 101.515V72.8212H133.853V95.2539H144.903V101.515H126.101ZM166.531 101.515H149.495V72.8212H166.531V79.0427H157.248V83.5567H165.844V89.7782H157.248V95.195H166.531V101.515ZM189.16 101.515L187.747 96.1371L178.424 96.1371L176.972 101.515H168.454L177.816 72.7035H188.159L197.638 101.515H189.16ZM186.137 89.7782L184.901 85.0679C184.77 84.5577 184.58 83.8315 184.332 82.8894C184.083 81.9343 183.835 80.953 183.586 79.9455C183.35 78.925 183.167 78.0876 183.036 77.4334C182.919 78.0876 182.749 78.8988 182.526 79.867C182.317 80.8221 182.094 81.7707 181.859 82.7128C181.636 83.6549 181.44 84.4399 181.27 85.0679L180.034 89.7782H186.137ZM210.16 72.8212C212.763 72.8212 214.929 73.1418 216.656 73.7829C218.383 74.4109 219.678 75.353 220.542 76.6091C221.419 77.8651 221.857 79.4287 221.857 81.2997C221.857 82.4642 221.661 83.524 221.268 84.4792C220.876 85.4343 220.313 86.2913 219.58 87.0502C218.861 87.796 217.997 88.4502 216.99 89.0128L225.35 101.515H216.558L210.474 91.0735H208.511V101.515H200.759V72.8212H210.16ZM210.042 78.6894H208.511V85.2446H209.963C211.154 85.2446 212.129 84.9829 212.888 84.4595C213.647 83.9362 214.026 83.0006 214.026 81.653C214.026 80.724 213.712 79.9978 213.084 79.4745C212.456 78.9511 211.442 78.6894 210.042 78.6894ZM255.28 101.515H245.114L234.634 81.2997H234.457C234.522 81.9147 234.581 82.6539 234.634 83.5175C234.686 84.381 234.732 85.2642 234.771 86.167C234.81 87.0567 234.83 87.8614 234.83 88.581V101.515H227.961V72.8212H238.088L248.529 92.7614H248.647C248.607 92.1334 248.568 91.4072 248.529 90.5829C248.49 89.7455 248.45 88.9016 248.411 88.0511C248.385 87.2006 248.372 86.4483 248.372 85.7941V72.8212H255.28V101.515ZM261.482 101.515V72.8212H269.274V101.515H261.482ZM302.815 101.515H292.648L282.168 81.2997H281.991C282.057 81.9147 282.116 82.6539 282.168 83.5175C282.22 84.381 282.266 85.2642 282.305 86.167C282.345 87.0567 282.364 87.8614 282.364 88.581V101.515H275.495V72.8212H285.622L296.063 92.7614H296.181C296.142 92.1334 296.103 91.4072 296.063 90.5829C296.024 89.7455 295.985 88.9016 295.946 88.0511C295.919 87.2006 295.906 86.4483 295.906 85.7941V72.8212H302.815V101.515ZM320.537 84.7147H332.921V100.18C331.443 100.69 329.748 101.109 327.838 101.436C325.928 101.75 323.926 101.907 321.833 101.907C319.072 101.907 316.651 101.371 314.571 100.298C312.49 99.2249 310.868 97.596 309.704 95.4109C308.539 93.2128 307.957 90.439 307.957 87.0894C307.957 84.0801 308.533 81.4829 309.684 79.2978C310.835 77.0997 312.53 75.4053 314.767 74.2147C317.018 73.0109 319.772 72.4091 323.03 72.4091C324.822 72.4091 326.523 72.5792 328.133 72.9193C329.742 73.2595 331.142 73.6913 332.333 74.2147L329.879 80.2988C328.846 79.7885 327.773 79.4091 326.661 79.1605C325.548 78.8988 324.351 78.7679 323.069 78.7679C321.355 78.7679 319.975 79.1539 318.928 79.9259C317.894 80.6978 317.142 81.7315 316.671 83.0268C316.2 84.3091 315.964 85.7287 315.964 87.2857C315.964 89.0651 316.213 90.5698 316.71 91.7997C317.22 93.0165 317.96 93.9455 318.928 94.5866C319.909 95.2147 321.093 95.5287 322.48 95.5287C322.938 95.5287 323.494 95.496 324.148 95.4305C324.816 95.3651 325.319 95.2866 325.66 95.195V90.7006H320.537V84.7147Z" fill="#C51230"/>
<path d="M4.44922 49.5049L35.5984 31.7749L66.7475 49.5049L35.5984 67.2348L4.44922 49.5049Z" stroke="white" stroke-width="4.44988" stroke-linecap="round" stroke-linejoin="round"/>
<path d="M15.5745 56.1541V73.8841L35.5989 84.9653M35.5989 84.9653L55.6233 73.8841V56.1541M35.5989 84.9653V67.2353M66.748 73.8841V49.5054" stroke="white" stroke-width="4.44988" stroke-linecap="round" stroke-linejoin="round"/>
<rect x="95" y="13.9453" width="3" height="87.6562" rx="1.5" fill="white"/>
</svg>
