<svg width="672" height="440" viewBox="0 0 672 440" fill="none" xmlns="http://www.w3.org/2000/svg">
<path fill-rule="evenodd" clip-rule="evenodd" d="M197.481 61.4686H347.317V0.593719H197.481V61.4686Z" fill="white"/>
<path d="M347.317 0H197.482C197.154 0 196.889 0.265809 196.889 0.593702V61.4686C196.889 61.7965 197.154 62.0623 197.482 62.0623H347.317C347.645 62.0623 347.911 61.7965 347.911 61.4686V0.593702C347.911 0.265809 347.645 0 347.317 0ZM346.724 1.18711V60.8746H198.076V1.18711H346.724Z" fill="#141414"/>
<path fill-rule="evenodd" clip-rule="evenodd" d="M210.216 48.3793H246.407V12.4604H210.216V48.3793Z" fill="#FF4B33"/>
<path d="M291.351 40.4565C292.662 40.4565 293.725 41.5197 293.725 42.8313C293.725 44.1181 292.702 45.1659 291.425 45.205L291.351 45.2061H255.824C254.513 45.2061 253.45 44.1428 253.45 42.8313C253.45 41.5445 254.473 40.4967 255.75 40.4576L255.824 40.4565H291.351ZM306.853 28.4937C308.164 28.4937 309.227 29.557 309.227 30.8685C309.227 32.1554 308.204 33.2031 306.927 33.2422L306.853 33.2434H255.824C254.513 33.2434 253.45 32.1801 253.45 30.8685C253.45 29.5817 254.473 28.5339 255.75 28.4949L255.824 28.4937H306.853ZM322.673 16.531C323.984 16.531 325.047 17.5942 325.047 18.9058C325.047 20.1926 324.024 21.2404 322.747 21.2795L322.673 21.2806H255.824C254.513 21.2806 253.45 20.2174 253.45 18.9058C253.45 17.619 254.473 16.5712 255.75 16.5321L255.824 16.531H322.673Z" fill="#D3E2F2"/>
<path fill-rule="evenodd" clip-rule="evenodd" d="M197.481 137.916H347.317V77.0406H197.481V137.916Z" fill="white"/>
<path d="M347.317 76.4469H197.482C197.154 76.4469 196.889 76.7127 196.889 77.0406V137.916C196.889 138.243 197.154 138.509 197.482 138.509H347.317C347.645 138.509 347.911 138.243 347.911 137.916V77.0406C347.911 76.7127 347.645 76.4469 347.317 76.4469ZM346.724 77.634V137.322H198.076V77.634H346.724Z" fill="#141414"/>
<path fill-rule="evenodd" clip-rule="evenodd" d="M210.216 124.826H246.407V88.9072H210.216V124.826Z" fill="#13D6C3"/>
<path d="M291.351 116.903C292.662 116.903 293.725 117.966 293.725 119.278C293.725 120.565 292.702 121.613 291.425 121.652L291.351 121.653H255.824C254.513 121.653 253.45 120.59 253.45 119.278C253.45 117.991 254.473 116.943 255.75 116.904L255.824 116.903H291.351ZM306.853 104.941C308.164 104.941 309.227 106.004 309.227 107.315C309.227 108.602 308.204 109.65 306.927 109.689L306.853 109.69H255.824C254.513 109.69 253.45 108.627 253.45 107.315C253.45 106.028 254.473 104.981 255.75 104.942L255.824 104.941H306.853ZM322.673 92.9778C323.984 92.9778 325.047 94.041 325.047 95.3526C325.047 96.6394 324.024 97.6872 322.747 97.7263L322.673 97.7274H255.824C254.513 97.7274 253.45 96.6642 253.45 95.3526C253.45 94.0658 254.473 93.018 255.75 92.9789L255.824 92.9778H322.673Z" fill="#D3E2F2"/>
<g opacity="0.553">
<path fill-rule="evenodd" clip-rule="evenodd" d="M197.481 214.362H347.317V153.487H197.481V214.362Z" fill="white"/>
<path d="M347.317 152.894H197.482C197.154 152.894 196.889 153.159 196.889 153.487V214.362C196.889 214.69 197.154 214.956 197.482 214.956H347.317C347.645 214.956 347.911 214.69 347.911 214.362V153.487C347.911 153.159 347.645 152.894 347.317 152.894ZM346.724 154.081V213.768H198.076V154.081H346.724Z" fill="#141414"/>
<path fill-rule="evenodd" clip-rule="evenodd" d="M210.216 201.273H246.407V165.354H210.216V201.273Z" fill="#02BAD3"/>
<path d="M291.351 193.35C292.662 193.35 293.725 194.413 293.725 195.725C293.725 197.012 292.702 198.06 291.425 198.099L291.351 198.1H255.824C254.513 198.1 253.45 197.037 253.45 195.725C253.45 194.438 254.473 193.39 255.75 193.351L255.824 193.35H291.351ZM306.853 181.387C308.164 181.387 309.227 182.451 309.227 183.762C309.227 185.049 308.204 186.097 306.927 186.136L306.853 186.137H255.824C254.513 186.137 253.45 185.074 253.45 183.762C253.45 182.475 254.473 181.428 255.75 181.389L255.824 181.387H306.853ZM322.673 169.425C323.984 169.425 325.047 170.488 325.047 171.799C325.047 173.086 324.024 174.134 322.747 174.173L322.673 174.174H255.824C254.513 174.174 253.45 173.111 253.45 171.799C253.45 170.513 254.473 169.465 255.75 169.426L255.824 169.425H322.673Z" fill="#D3E2F2"/>
</g>
<g opacity="0.162">
<path fill-rule="evenodd" clip-rule="evenodd" d="M197.481 290.809H347.317V229.934H197.481V290.809Z" fill="white"/>
<path d="M347.317 229.341H197.482C197.154 229.341 196.889 229.607 196.889 229.934V290.809C196.889 291.137 197.154 291.403 197.482 291.403H347.317C347.645 291.403 347.911 291.137 347.911 290.809V229.934C347.911 229.607 347.645 229.341 347.317 229.341ZM346.724 230.528V290.215H198.076V230.528H346.724Z" fill="#141414"/>
<path fill-rule="evenodd" clip-rule="evenodd" d="M210.216 277.72H246.407V241.801H210.216V277.72Z" fill="#FFC81A"/>
<path d="M291.351 269.797C292.662 269.797 293.725 270.86 293.725 272.172C293.725 273.459 292.702 274.507 291.425 274.546L291.351 274.547H255.824C254.513 274.547 253.45 273.484 253.45 272.172C253.45 270.885 254.473 269.837 255.75 269.798L255.824 269.797H291.351ZM306.853 257.834C308.164 257.834 309.227 258.898 309.227 260.209C309.227 261.496 308.204 262.544 306.927 262.583L306.853 262.584H255.824C254.513 262.584 253.45 261.521 253.45 260.209C253.45 258.922 254.473 257.875 255.75 257.836L255.824 257.834H306.853ZM322.673 245.872C323.984 245.872 325.047 246.935 325.047 248.247C325.047 249.533 324.024 250.581 322.747 250.62L322.673 250.621H255.824C254.513 250.621 253.45 249.558 253.45 248.247C253.45 246.96 254.473 245.912 255.75 245.873L255.824 245.872H322.673Z" fill="#D3E2F2"/>
</g>
<path fill-rule="evenodd" clip-rule="evenodd" d="M382.039 61.4686H531.874V0.593719H382.039V61.4686Z" fill="white"/>
<path d="M531.875 0H382.04C381.712 0 381.446 0.265809 381.446 0.593702V61.4686C381.446 61.7965 381.712 62.0623 382.04 62.0623H531.875C532.203 62.0623 532.469 61.7965 532.469 61.4686V0.593702C532.469 0.265809 532.203 0 531.875 0ZM531.281 1.18711V60.8746H382.633V1.18711H531.281Z" fill="#141414"/>
<path fill-rule="evenodd" clip-rule="evenodd" d="M394.773 48.3793H430.964V12.4604H394.773V48.3793Z" fill="#FFC81A"/>
<path d="M475.909 40.4565C477.22 40.4565 478.283 41.5197 478.283 42.8313C478.283 44.1181 477.26 45.1659 475.983 45.205L475.909 45.2061H440.382C439.071 45.2061 438.008 44.1428 438.008 42.8313C438.008 41.5445 439.031 40.4967 440.308 40.4576L440.382 40.4565H475.909ZM491.41 28.4937C492.722 28.4937 493.785 29.557 493.785 30.8685C493.785 32.1554 492.761 33.2031 491.484 33.2422L491.41 33.2434H440.382C439.071 33.2434 438.008 32.1801 438.008 30.8685C438.008 29.5817 439.031 28.5339 440.308 28.4949L440.382 28.4937H491.41ZM507.23 16.531C508.542 16.531 509.605 17.5942 509.605 18.9058C509.605 20.1926 508.581 21.2404 507.304 21.2795L507.23 21.2806H440.382C439.071 21.2806 438.008 20.2174 438.008 18.9058C438.008 17.619 439.031 16.5712 440.308 16.5321L440.382 16.531H507.23Z" fill="#D3E2F2"/>
<path fill-rule="evenodd" clip-rule="evenodd" d="M382.039 137.916H531.874V77.0406H382.039V137.916Z" fill="white"/>
<path d="M531.875 76.4469H382.04C381.712 76.4469 381.446 76.7127 381.446 77.0406V137.916C381.446 138.243 381.712 138.509 382.04 138.509H531.875C532.203 138.509 532.469 138.243 532.469 137.916V77.0406C532.469 76.7127 532.203 76.4469 531.875 76.4469ZM531.281 77.634V137.322H382.633V77.634H531.281Z" fill="#141414"/>
<path fill-rule="evenodd" clip-rule="evenodd" d="M394.773 124.826H430.964V88.9072H394.773V124.826Z" fill="#FFC81A"/>
<path d="M475.909 116.903C477.22 116.903 478.283 117.966 478.283 119.278C478.283 120.565 477.26 121.613 475.983 121.652L475.909 121.653H440.382C439.071 121.653 438.008 120.59 438.008 119.278C438.008 117.991 439.031 116.943 440.308 116.904L440.382 116.903H475.909ZM491.41 104.941C492.722 104.941 493.785 106.004 493.785 107.315C493.785 108.602 492.761 109.65 491.484 109.689L491.41 109.69H440.382C439.071 109.69 438.008 108.627 438.008 107.315C438.008 106.028 439.031 104.981 440.308 104.942L440.382 104.941H491.41ZM507.23 92.9778C508.542 92.9778 509.605 94.041 509.605 95.3526C509.605 96.6394 508.581 97.6872 507.304 97.7263L507.23 97.7274H440.382C439.071 97.7274 438.008 96.6642 438.008 95.3526C438.008 94.0658 439.031 93.018 440.308 92.9789L440.382 92.9778H507.23Z" fill="#D3E2F2"/>
<g opacity="0.553">
<path fill-rule="evenodd" clip-rule="evenodd" d="M382.039 214.362H531.874V153.487H382.039V214.362Z" fill="white"/>
<path d="M531.875 152.894H382.04C381.712 152.894 381.446 153.159 381.446 153.487V214.362C381.446 214.69 381.712 214.956 382.04 214.956H531.875C532.203 214.956 532.469 214.69 532.469 214.362V153.487C532.469 153.159 532.203 152.894 531.875 152.894ZM531.281 154.081V213.768H382.633V154.081H531.281Z" fill="#141414"/>
<path fill-rule="evenodd" clip-rule="evenodd" d="M394.773 201.273H430.964V165.354H394.773V201.273Z" fill="#FFC81A"/>
<path d="M475.909 193.35C477.22 193.35 478.283 194.413 478.283 195.725C478.283 197.012 477.26 198.059 475.983 198.099L475.909 198.1H440.382C439.071 198.1 438.008 197.036 438.008 195.725C438.008 194.438 439.031 193.39 440.308 193.351L440.382 193.35H475.909ZM491.41 181.387C492.722 181.387 493.785 182.451 493.785 183.762C493.785 185.049 492.761 186.097 491.484 186.136L491.41 186.137H440.382C439.071 186.137 438.008 185.074 438.008 183.762C438.008 182.475 439.031 181.428 440.308 181.388L440.382 181.387H491.41ZM507.23 169.425C508.542 169.425 509.605 170.488 509.605 171.799C509.605 173.086 508.581 174.134 507.304 174.173L507.23 174.174H440.382C439.071 174.174 438.008 173.111 438.008 171.799C438.008 170.513 439.031 169.465 440.308 169.426L440.382 169.425H507.23Z" fill="#D3E2F2"/>
</g>
<g opacity="0.162">
<path fill-rule="evenodd" clip-rule="evenodd" d="M382.039 290.809H531.874V229.934H382.039V290.809Z" fill="white"/>
<path d="M531.875 229.341H382.04C381.712 229.341 381.446 229.607 381.446 229.934V290.809C381.446 291.137 381.712 291.403 382.04 291.403H531.875C532.203 291.403 532.469 291.137 532.469 290.809V229.934C532.469 229.607 532.203 229.341 531.875 229.341ZM531.281 230.528V290.215H382.633V230.528H531.281Z" fill="#141414"/>
<path fill-rule="evenodd" clip-rule="evenodd" d="M394.773 277.72H430.964V241.801H394.773V277.72Z" fill="#FFC81A"/>
<path d="M475.909 269.797C477.22 269.797 478.283 270.86 478.283 272.172C478.283 273.459 477.26 274.507 475.983 274.546L475.909 274.547H440.382C439.071 274.547 438.008 273.484 438.008 272.172C438.008 270.885 439.031 269.837 440.308 269.798L440.382 269.797H475.909ZM491.41 257.834C492.722 257.834 493.785 258.898 493.785 260.209C493.785 261.496 492.761 262.544 491.484 262.583L491.41 262.584H440.382C439.071 262.584 438.008 261.521 438.008 260.209C438.008 258.922 439.031 257.875 440.308 257.836L440.382 257.834H491.41ZM507.23 245.872C508.542 245.872 509.605 246.935 509.605 248.247C509.605 249.533 508.581 250.581 507.304 250.62L507.23 250.621H440.382C439.071 250.621 438.008 249.558 438.008 248.247C438.008 246.96 439.031 245.912 440.308 245.873L440.382 245.872H507.23Z" fill="#D3E2F2"/>
</g>
<path fill-rule="evenodd" clip-rule="evenodd" d="M60.9989 365.763C60.9989 365.763 42.0594 336.623 60.1293 310.158C72.982 291.333 87.8326 289.058 90.7866 287.436C108.483 277.717 96.9334 339.298 60.9989 365.763Z" fill="#FF4B33"/>
<path fill-rule="evenodd" clip-rule="evenodd" d="M59.5143 398.413C59.3019 398.413 59.094 398.311 58.9672 398.121C58.4983 397.419 58.3236 385.678 60.1465 370.668C61.8591 356.566 65.81 335.718 74.9052 316.475C75.0605 316.147 75.4516 316.008 75.7797 316.162C76.1075 316.316 76.248 316.707 76.093 317.035C67.185 335.882 63.2607 356.305 61.5376 370.119C59.5915 385.718 59.9278 396.573 60.1212 397.508C60.2384 397.791 60.1432 398.127 59.8779 398.303C59.7659 398.378 59.6395 398.413 59.5143 398.413Z" fill="#141414"/>
<path fill-rule="evenodd" clip-rule="evenodd" d="M19.1251 324.706C22.9256 324.218 31.2018 327.009 39.3745 338.979C50.8647 355.808 48.1322 376.476 39.1585 378.469L39.3698 378.419C41.2364 390.469 40.4276 397.585 40.0701 398.121C39.9437 398.311 39.7355 398.413 39.523 398.413C39.3979 398.413 39.2715 398.378 39.1595 398.303C38.8896 398.124 38.7956 397.779 38.9227 397.492C39.0784 396.896 39.7352 391.105 38.4416 381.185C38.3379 380.39 38.2192 379.552 38.0834 378.671L38.0815 378.675C12.5779 382.764 10.3275 325.833 19.1251 324.706Z" fill="#141414"/>
<path fill-rule="evenodd" clip-rule="evenodd" d="M112.775 378.469C103.801 376.476 101.069 355.808 112.559 338.979C120.732 327.009 129.008 324.218 132.809 324.706C141.728 325.848 139.291 384.357 112.775 378.469Z" fill="#FF4B33"/>
<path fill-rule="evenodd" clip-rule="evenodd" d="M113.753 398.413C113.878 398.413 114.005 398.378 114.117 398.303C114.387 398.124 114.481 397.779 114.354 397.492C114.198 396.896 113.541 391.105 114.835 381.185C116.002 372.232 119.069 357.775 127.049 339.741C127.196 339.409 127.046 339.022 126.714 338.876C126.384 338.729 125.995 338.879 125.848 339.21C110.389 374.147 112.552 397.14 113.206 398.121C113.333 398.311 113.541 398.413 113.753 398.413Z" fill="#141414"/>
<path fill-rule="evenodd" clip-rule="evenodd" d="M626.418 313.722C626.418 313.722 622.823 295.083 635.964 289.366C649.106 283.648 651.164 275.088 659.299 272.932C667.218 270.832 679.073 284.973 663.043 300.208C647.014 315.442 640.652 321.579 626.418 313.722Z" fill="#FF4B33"/>
<path fill-rule="evenodd" clip-rule="evenodd" d="M610.714 351.139C610.675 351.139 610.636 351.135 610.596 351.128C610.239 351.063 610.002 350.722 610.067 350.365C616.847 313.23 644.629 294.484 653.759 288.323C655.138 287.393 656.227 286.658 656.591 286.294C656.848 286.038 657.264 286.038 657.52 286.294C657.777 286.55 657.777 286.965 657.52 287.222C657.067 287.675 656.044 288.365 654.494 289.41C645.477 295.495 618.04 314.009 611.36 350.6C611.302 350.917 611.026 351.139 610.714 351.139Z" fill="#141414"/>
<path fill-rule="evenodd" clip-rule="evenodd" d="M594.318 242.26C587.881 243.883 584.988 253.246 590.935 264.17C594.013 269.824 591.87 272.944 591.274 276.648C589.328 288.723 593.734 290.426 594.227 293.684C594.721 296.942 592.252 303.937 592.652 308.177C593.485 316.999 601.712 326.455 612.645 317.998C622.043 310.727 621.855 294.58 618.309 291.146C614.763 287.713 613.874 288.66 616.643 281.211C618.809 275.385 617.594 267.751 613.478 264.232C610.122 261.364 608.146 262.734 608.293 255.212C608.427 248.288 604.32 239.738 594.318 242.26Z" fill="#FF4B33"/>
<path fill-rule="evenodd" clip-rule="evenodd" d="M603.484 346.23C603.463 346.23 603.441 346.229 603.419 346.227C603.058 346.192 602.794 345.871 602.83 345.51C608.85 284.091 598.49 254.912 598.385 254.624C598.26 254.284 598.435 253.907 598.776 253.783C599.115 253.659 599.493 253.833 599.618 254.173C599.728 254.471 602.312 261.639 604.183 276.551C605.906 290.278 607.296 313.407 604.137 345.638C604.104 345.977 603.818 346.23 603.484 346.23Z" fill="#141414"/>
<path fill-rule="evenodd" clip-rule="evenodd" d="M549.486 273.962C546.043 277.536 547.782 287.375 554.87 289.866C559.415 291.463 558.937 295.067 560.024 297.654C563.57 306.089 567.04 305.429 568.644 307.303C570.247 309.177 569.835 315.494 571.385 318.277C574.619 324.084 585.181 326.098 588.774 316.409C591.863 308.08 589.938 299.291 582.928 296.176C579.57 294.684 578.536 295.823 577.642 289.947C576.747 284.071 573.647 280.173 569.641 279.566C566.375 279.07 566.057 280.935 562.344 277.32C558.631 273.704 554.839 268.409 549.486 273.962Z" fill="#FF4B33"/>
<path fill-rule="evenodd" clip-rule="evenodd" d="M591.365 342.982C591.059 342.982 590.786 342.768 590.722 342.457C590.654 342.126 583.678 309.021 558.775 283.766C558.52 283.508 558.523 283.092 558.782 282.838C559.04 282.584 559.456 282.587 559.711 282.845C572.874 296.194 580.953 311.613 585.412 322.198C590.245 333.668 591.992 342.111 592.009 342.195C592.082 342.55 591.852 342.897 591.496 342.969C591.453 342.978 591.408 342.982 591.365 342.982Z" fill="#141414"/>
<path fill-rule="evenodd" clip-rule="evenodd" d="M639.979 338.18H565.397V350.69H570.805L579.117 408.036H626.259L634.571 350.69H639.979V338.18Z" fill="white"/>
<path fill-rule="evenodd" clip-rule="evenodd" d="M566.053 350.034H639.321V338.836H566.053V350.034ZM625.69 407.38H579.684L571.563 351.346H633.811L625.69 407.38ZM639.977 337.524H565.396C565.033 337.524 564.739 337.817 564.739 338.18V350.69C564.739 351.052 565.033 351.346 565.396 351.346H570.236L578.465 408.13C578.512 408.453 578.789 408.692 579.115 408.692H626.258C626.584 408.692 626.861 408.453 626.908 408.13L635.138 351.346H639.977C640.34 351.346 640.634 351.052 640.634 350.69V338.18C640.634 337.817 640.34 337.524 639.977 337.524Z" fill="#141414"/>
<path d="M1 398.615H670.925" stroke="#141414" stroke-width="1.67671" stroke-linecap="round"/>
<path fill-rule="evenodd" clip-rule="evenodd" d="M557.884 396.646L554.511 428.075L537.981 427.07L534.902 397.103L557.884 396.646Z" fill="white"/>
<path fill-rule="evenodd" clip-rule="evenodd" d="M535.834 399.34L538.611 426.365L553.891 427.293L556.892 399.336C556.932 398.961 557.231 398.678 557.586 398.678C558.003 398.678 558.327 399.064 558.28 399.505L555.204 428.159C555.163 428.536 554.863 428.818 554.511 428.818C554.497 428.818 554.484 428.817 554.47 428.816L537.941 427.812C537.6 427.791 537.324 427.512 537.286 427.151L534.445 399.502C534.4 399.062 534.724 398.678 535.14 398.678C535.496 398.678 535.795 398.963 535.834 399.34Z" fill="#141414"/>
<path fill-rule="evenodd" clip-rule="evenodd" d="M520.891 384.507L519.601 425.352L500.839 426.969L492.526 396.234L520.891 384.507Z" fill="white"/>
<path fill-rule="evenodd" clip-rule="evenodd" d="M493.727 397.993L501.353 426.185L518.924 424.671L520.108 389.14C520.124 388.676 520.538 388.342 520.966 388.449C521.291 388.53 521.516 388.841 521.504 389.192L520.299 425.376C520.287 425.75 520.011 426.055 519.658 426.086L500.895 427.703C500.876 427.705 500.857 427.706 500.838 427.706C500.529 427.706 500.253 427.49 500.167 427.172L492.384 398.397C492.261 397.94 492.573 397.481 493.023 397.459C493.347 397.443 493.638 397.664 493.727 397.993Z" fill="#141414"/>
<path fill-rule="evenodd" clip-rule="evenodd" d="M521.888 422.724C521.803 422.372 521.475 422.15 521.135 422.214C520.812 422.275 520.404 422.357 519.922 422.455C516.973 423.053 510.836 424.296 505.02 424.301H505.004C501.578 424.301 500.565 422.877 498.519 421.085C498.357 420.943 498.139 420.892 497.933 420.947C487.951 423.683 478.739 426.097 473.394 429.849C472.455 430.509 469.067 433.388 469.653 435.424C469.924 436.365 470.889 436.843 472.521 436.843C478.479 436.843 491.317 436.878 502.643 436.909C511.807 436.934 519.721 436.956 522.701 436.956C523.016 436.956 523.3 436.805 523.502 436.533C524.675 434.944 522.764 426.346 521.888 422.724Z" fill="#9D78FC"/>
<path fill-rule="evenodd" clip-rule="evenodd" d="M522.581 440H471.077C470.221 440 469.527 439.27 469.527 438.369V437.83C469.527 436.929 470.221 436.198 471.077 436.198H522.581C523.437 436.198 524.131 436.929 524.131 437.83V438.369C524.131 439.27 523.437 440 522.581 440Z" fill="#141414"/>
<path fill-rule="evenodd" clip-rule="evenodd" d="M485.704 427.898C485.443 427.898 485.193 427.743 485.074 427.478C483.978 425.056 481.872 425.649 481.636 425.725C481.268 425.842 480.878 425.626 480.764 425.241C480.65 424.854 480.851 424.445 481.218 424.322C482.412 423.923 485.018 423.938 486.334 426.847C486.5 427.213 486.352 427.652 486.004 427.826C485.907 427.875 485.805 427.898 485.704 427.898Z" fill="#141414"/>
<path fill-rule="evenodd" clip-rule="evenodd" d="M491.871 426.127C491.61 426.127 491.36 425.973 491.241 425.708C490.144 423.285 488.039 423.878 487.803 423.955C487.435 424.072 487.045 423.856 486.931 423.47C486.817 423.084 487.019 422.674 487.385 422.552C488.58 422.153 491.186 422.168 492.501 425.076C492.667 425.443 492.519 425.881 492.171 426.056C492.074 426.104 491.972 426.127 491.871 426.127Z" fill="#141414"/>
<path fill-rule="evenodd" clip-rule="evenodd" d="M555.909 420.441C555.909 420.441 565.589 429.195 560.983 435.888C554.881 437.689 540.297 439.363 533.822 436.123C529.283 433.851 536.461 420.27 536.461 420.27C543.768 421.039 549.104 420.672 555.909 420.441Z" fill="#9D78FC"/>
<path fill-rule="evenodd" clip-rule="evenodd" d="M531.928 437.428C531.996 438.741 533.322 439.557 534.728 439.557H559.794C561.274 439.557 562.27 438.162 562.008 436.663C561.747 435.164 561.312 435.293 560.327 435.293L534.728 435.434C533.677 435.434 531.853 435.973 531.928 437.428Z" fill="#141414"/>
<path fill-rule="evenodd" clip-rule="evenodd" d="M554.401 430.306C554.651 430.306 554.889 430.155 554.999 429.901C555.149 429.554 555.004 429.144 554.675 428.986C554.412 428.86 548.166 425.922 541.198 428.057C540.85 428.163 540.65 428.547 540.751 428.913C540.852 429.28 541.217 429.492 541.565 429.384C548.052 427.398 554.07 430.215 554.13 430.244C554.218 430.286 554.31 430.306 554.401 430.306Z" fill="#141414"/>
<path fill-rule="evenodd" clip-rule="evenodd" d="M552.394 425.723C552.65 425.723 552.893 425.565 553 425.301C553.141 424.95 552.986 424.545 552.652 424.395C552.443 424.302 547.485 422.132 543.133 424.328C542.806 424.493 542.668 424.907 542.825 425.251C542.982 425.595 543.374 425.74 543.701 425.575C547.51 423.652 552.093 425.648 552.139 425.669C552.222 425.705 552.309 425.723 552.394 425.723Z" fill="#141414"/>
<path fill-rule="evenodd" clip-rule="evenodd" d="M583.715 279.857C575.873 352.644 578.073 405.625 578.073 405.625C562.24 408.248 546.702 408.258 531.693 403.598L528.073 250.375L509.354 297.617C509.354 297.617 530.998 378.77 527.243 385.579C523.487 392.389 490.679 406.436 481.863 401.165C478.216 398.984 458.529 331.766 459.438 292.754C459.913 272.347 494.228 215.997 496.547 201.049C507.584 199.687 567.71 201.049 567.71 201.049C567.71 201.049 590.185 219.814 583.715 279.857Z" fill="#141414"/>
<path fill-rule="evenodd" clip-rule="evenodd" d="M529.513 210.568C528.104 211.607 524.964 213.633 519.726 215.56C517.853 216.249 516.853 216.144 516.566 215.844C516.372 215.642 516.464 215.225 516.536 214.995C517.103 213.185 520.164 210.344 524.438 209.715C525.962 209.492 527.704 209.859 529.513 210.568ZM534.637 209.137C535.618 209.137 536.761 209.723 537.714 210.213C541.656 212.235 544.891 216.643 545.188 218.764C544.392 218.444 542.605 217.146 541.003 215.982C538.39 214.083 535.26 211.809 532.12 210.222C532.68 209.796 533.302 209.47 534.001 209.234C534.202 209.167 534.416 209.137 534.637 209.137ZM535.877 225.908C535.956 225.908 536.037 225.893 536.115 225.861C536.453 225.722 536.621 225.319 536.489 224.962C534.916 220.677 532.691 214.437 531.836 211.634C534.854 213.2 537.882 215.4 540.26 217.127C543.83 219.721 545.11 220.593 545.992 220.102C546.191 219.991 546.523 219.709 546.523 219.062C546.523 216.153 542.367 211.056 538.287 208.962C536.909 208.255 535.192 207.375 533.603 207.911C532.5 208.282 531.569 208.844 530.772 209.586C528.502 208.594 526.265 208.043 524.257 208.339C519.65 209.017 516.079 212.033 515.289 214.558C514.897 215.808 515.343 216.521 515.644 216.834C516.443 217.667 517.962 217.68 520.158 216.872C523.933 215.483 526.642 214.054 528.441 212.942C527.088 215.841 526.304 219.789 525.478 224.587C525.413 224.964 525.65 225.326 526.007 225.395C526.361 225.463 526.705 225.214 526.771 224.836C527.855 218.532 528.845 214.405 530.547 211.912C531.647 215.592 534.842 224.315 535.265 225.465C535.366 225.74 535.614 225.908 535.877 225.908Z" fill="white"/>
<path fill-rule="evenodd" clip-rule="evenodd" d="M479.752 221.74C478.133 227.004 472.924 245.231 474.208 250.649C475.828 257.491 476.621 262.277 474.321 263.032C471.757 263.872 470.188 260.289 469.114 259.711C468.717 259.498 468.124 260.369 466.617 262.235C463.549 266.034 460.745 268.821 458.699 267.518C457.173 266.547 458.385 264.517 458.385 264.517C458.385 264.517 455.471 268.572 452.955 267.544C451.752 267.052 450.987 266.178 452.708 263.45C451.359 265.476 448.885 266.295 447.75 264.751C447.406 264.284 446.798 263.266 448.396 260.397C446.421 262.292 444.805 259.241 445.496 257.09C447.106 252.07 451.096 249.446 454.319 244.482C457.254 239.964 460.893 218.782 460.893 218.782" fill="white"/>
<path fill-rule="evenodd" clip-rule="evenodd" d="M445.128 256.898C446.681 251.512 451.894 248.345 454.391 243.556C456.627 239.265 459.1 224.566 460.205 218.664C460.355 217.79 461.733 217.986 461.581 218.9C460.154 226.866 458.765 234.854 456.096 242.525C455.415 244.51 454.11 246.222 452.801 247.827C450.379 250.82 447.496 253.418 446.237 257.101C445.68 258.13 446.271 261.26 447.843 260.033C448.541 259.097 452.937 252.965 454.031 254.444C454.179 254.71 454.083 255.045 453.817 255.192C451.746 256.562 450.316 258.882 448.863 260.866C446.441 264.741 449.582 266.586 452.202 263.117C452.797 262.37 456.99 255.937 457.794 257.126C457.992 257.34 457.977 257.675 457.761 257.87C455.999 259.605 454.591 261.735 453.214 263.784C452.792 264.457 452.3 265.32 452.309 266.075C452.314 266.466 452.636 266.74 453.012 266.909C454.049 267.416 455.082 266.841 456.017 266.118C457.329 265.449 461.83 258.357 462.815 259.503C463.017 259.718 463.004 260.057 462.785 260.254C461.346 261.634 460.075 263.303 458.87 264.908C458.467 265.688 458.307 266.722 459.209 267.087C461.418 267.821 464.05 264.15 465.424 262.662C466.057 261.9 466.745 261.016 467.372 260.236C467.853 259.69 468.53 258.656 469.46 259.139C470.89 260.09 471.664 262.238 473.452 262.461C474.676 262.537 474.978 261.439 474.998 260.312C474.993 257.125 473.978 253.962 473.26 250.861C472.894 249.191 473.023 247.468 473.175 245.891C474.18 237.547 476.531 229.497 479.084 221.536C479.349 220.721 480.672 221.058 480.419 221.946C478.302 229.878 475.594 237.811 474.655 245.969C474.51 247.662 474.486 249.454 474.879 251.019C475.342 253.901 478.328 262.745 474.358 263.738C471.927 264.42 470.345 261.946 468.972 260.445C466.525 262.997 463.73 267.868 459.999 268.452C458.833 268.529 457.553 267.779 457.365 266.56C456.373 267.458 455.219 268.302 453.79 268.313C452.408 268.32 450.853 267.213 451.124 265.695C448.128 267.313 445.972 264.394 447.117 261.631C444.887 261.263 444.686 258.631 445.128 256.898Z" fill="#141414"/>
<path fill-rule="evenodd" clip-rule="evenodd" d="M640.959 102.672C642.983 101.589 643.578 106.222 641.275 109.808C644.294 107.387 651.546 101.485 654.046 102.894C656.572 104.317 652.815 108.394 652.815 108.394C655.393 107.213 658.478 105.542 659.227 107.553C660.035 109.719 655.644 112.355 655.644 112.355C658.907 111.316 659.869 111.603 660.299 112.927C660.987 115.046 656.61 117.184 656.61 117.184C658.676 116.946 660.397 119.095 655.344 122.416C649.77 126.08 638.218 134.142 629.04 145.677C627.729 147.324 612.52 143.824 603.146 135.532C621.501 122.679 638.341 104.073 640.959 102.672Z" fill="white"/>
<path fill-rule="evenodd" clip-rule="evenodd" d="M607.091 131.792C620.197 122.034 632.746 109.023 640.628 102.056C643.567 100.986 643.864 104.683 643.081 107.49C647.794 103.844 652.193 101.048 654.388 102.286C656.082 103.202 655.759 105.218 654.904 106.677C659.143 104.425 661.902 107.707 658.472 111.032C659.715 110.99 660.552 111.447 660.962 112.712C661.518 114.423 659.837 115.969 658.464 116.904C660.055 118.309 659.842 120.14 655.727 122.999C645.77 129.543 637.483 136.7 631.094 144.27C624.317 145.581 651.468 123.247 654.959 121.834C657.991 119.794 658.993 117.919 656.767 117.873L652.374 119.655C651.798 119.897 651.4 119.018 651.96 118.746C651.965 118.742 656.298 116.562 656.302 116.558C657.552 115.945 660.011 114.305 659.634 113.142C659.443 112.556 659.245 111.951 655.923 112.998L650.116 116.303C649.518 116.653 648.964 115.729 649.555 115.368C651.505 113.797 658.926 110.594 658.572 107.796C657.782 106.391 654.826 108.375 653.138 109.013L647.461 112.341C647.217 112.483 646.901 112.412 646.745 112.174C646.583 111.928 646.652 111.597 646.899 111.436L652.354 107.862C653.224 106.749 655.142 104.513 653.702 103.501C651.672 102.358 644.34 108.243 641.93 110.177C641.551 110.725 641.253 111.592 641.285 112.25C642.003 114.833 641.712 118.286 639.342 119.948C638.972 120.198 638.548 119.636 638.908 119.354C639.038 119.248 639.21 119.163 639.267 119.007C639.335 118.82 641.425 116.139 640.387 113.649C640.112 112.987 639.703 112.245 639.889 111.546C640.015 110.776 640.304 110.102 640.686 109.431C642.287 107.043 642.532 103.017 641.289 103.287C633.568 110.344 621.005 123.106 607.935 132.903C607.238 133.454 606.348 132.333 607.091 131.792Z" fill="#141414"/>
<path fill-rule="evenodd" clip-rule="evenodd" d="M510.787 110.667C510.909 111.201 511.086 111.765 511.348 112.342C511.458 112.585 511.697 112.728 511.947 112.728C512.038 112.728 512.13 112.709 512.218 112.669C512.548 112.52 512.695 112.131 512.545 111.801C512.137 110.902 511.964 110.03 511.901 109.306C511.698 96.3697 555.862 92.8187 557.246 111.065C557.047 111.857 556.711 112.775 556.148 113.413C555.909 113.685 555.935 114.1 556.208 114.34C556.332 114.449 556.487 114.503 556.641 114.503C556.824 114.503 557.005 114.428 557.135 114.281C557.639 113.708 557.993 112.992 558.244 112.29C562.555 113.28 568.226 115.184 572.243 118.089C581.316 124.647 589.849 136.219 592.358 139.77C591.472 140.583 590.61 141.418 589.784 142.284C588.825 143.287 587.903 144.31 587.012 145.385C586.854 145.576 586.88 145.858 587.071 146.016C587.255 146.168 587.526 146.148 587.686 145.975L587.693 145.967C588.607 144.972 589.576 144 590.564 143.066C591.383 142.29 593.099 140.837 593.099 140.837L622.588 118.787L644.163 142.789C644.163 142.789 609.159 177.318 593.033 178.239C585.103 178.692 577.139 171.33 570.698 166.118C572.676 188.85 572.178 206.606 572.178 206.606L494.976 206.197C494.976 206.197 498.652 183.349 500.361 161.387C500.495 159.665 496.091 177.949 496.091 177.949L483.757 237.003L453.711 228.373C453.711 228.373 471.079 157.04 473.348 149.161C482.774 116.434 505.368 112.757 505.442 112.582C505.442 112.582 508.293 111.365 510.787 110.667Z" fill="#9D78FC"/>
<path fill-rule="evenodd" clip-rule="evenodd" d="M541.98 89.555C541.98 89.555 542.007 100.629 542.007 106.237C542.007 110.364 545.577 109.374 550.607 111.058C549.441 116.883 545.962 120.681 531.043 120.9C521.609 121.039 517.863 118.127 516.048 112.084C521.157 109.667 524.428 110.364 524.428 106.237C524.428 100.629 524.455 89.555 524.455 89.555" fill="white"/>
<path fill-rule="evenodd" clip-rule="evenodd" d="M515.916 111.806C516.972 111.296 518.063 110.863 519.163 110.48C520.255 110.089 521.384 109.77 522.348 109.268C522.822 109.011 523.235 108.696 523.509 108.29C523.783 107.882 523.893 107.371 523.957 106.85C523.962 106.574 523.988 106.327 523.979 106.029L523.969 105.162L523.95 103.427L523.798 89.5535C523.798 89.549 523.798 89.5404 523.798 89.5358C523.804 89.1736 524.102 88.8842 524.465 88.89C524.828 88.8957 525.117 89.1943 525.112 89.5568L524.914 103.428L524.889 105.162L524.877 106.029C524.879 106.309 524.844 106.638 524.828 106.94C524.739 107.556 524.587 108.204 524.196 108.758C523.807 109.308 523.258 109.689 522.712 109.967C521.603 110.504 520.478 110.78 519.387 111.143C518.292 111.494 517.22 111.889 516.179 112.36L516.177 112.361C516.025 112.43 515.847 112.366 515.774 112.216C515.7 112.063 515.764 111.88 515.916 111.806Z" fill="#141414"/>
<path fill-rule="evenodd" clip-rule="evenodd" d="M541.972 88.9048C542.335 88.9009 542.632 89.1912 542.636 89.5538C542.688 94.1439 542.696 98.7343 542.674 103.324L542.668 105.046C542.671 105.608 542.651 106.229 542.679 106.709C542.714 107.213 542.832 107.671 543.074 108.017C543.306 108.369 543.69 108.626 544.159 108.825C545.108 109.213 546.258 109.414 547.379 109.671C548.509 109.923 549.647 110.23 550.746 110.642C550.959 110.723 551.079 110.956 551.013 111.178C550.944 111.411 550.699 111.544 550.467 111.475C549.387 111.158 548.286 110.931 547.164 110.732C546.603 110.63 546.037 110.538 545.46 110.425C544.885 110.311 544.296 110.184 543.699 109.95C543.401 109.83 543.101 109.684 542.814 109.489C542.527 109.294 542.26 109.039 542.049 108.746C541.616 108.154 541.444 107.456 541.384 106.824C541.349 106.501 541.35 106.183 541.348 105.907L541.342 105.046L541.331 103.325C541.293 98.7356 541.286 94.1465 541.323 89.5567C541.326 89.2004 541.614 88.9087 541.972 88.9048Z" fill="#141414"/>
<path fill-rule="evenodd" clip-rule="evenodd" d="M521.832 127.853C521.832 126.396 523.015 125.214 524.474 125.214C525.933 125.214 527.116 126.396 527.116 127.853C527.116 129.084 526.272 130.116 525.131 130.408V141.928C525.131 142.29 524.836 142.584 524.474 142.584C524.111 142.584 523.817 142.29 523.817 141.928V130.408C522.676 130.116 521.832 129.084 521.832 127.853Z" fill="white"/>
<path fill-rule="evenodd" clip-rule="evenodd" d="M538.034 127.539C538.034 126.081 539.217 124.899 540.676 124.899C542.135 124.899 543.318 126.081 543.318 127.539C543.318 128.77 542.474 129.801 541.333 130.093V149.831C541.333 150.193 541.039 150.487 540.676 150.487C540.314 150.487 540.019 150.193 540.019 149.831V130.093C538.878 129.801 538.034 128.77 538.034 127.539Z" fill="white"/>
<path fill-rule="evenodd" clip-rule="evenodd" d="M517.531 77.1381C517.751 61.3635 533.588 60.0934 541.041 61.7999C547.165 63.2018 553.842 68.4757 553.142 78.7474C556.82 78.4213 558.751 80.1648 558.751 82.6407C558.751 85.1171 558.156 87.5123 553.601 87.5123C553.16 95.0569 548.321 108.657 529.452 106.233C519.826 104.997 517.351 90.0225 517.531 77.1381Z" fill="white"/>
<path fill-rule="evenodd" clip-rule="evenodd" d="M538.272 52.0388C533.763 48.0569 530.437 47.7567 524.494 49.6932C512.555 53.5828 512.623 62.6301 515.255 72.3434C516.574 77.216 509.502 85.3128 518.017 93.0464C518.144 93.1616 518.276 93.2873 518.411 93.4198C520.008 100.113 523.182 106.089 529.367 106.884C530.883 107.079 532.338 107.176 533.732 107.176C539.112 107.176 543.58 105.728 547.052 102.852C547.767 102.26 548.41 101.631 548.99 100.977C552.081 99.9437 554.783 98.0057 556.632 94.5974C557.896 92.2675 558.944 91.7324 559.933 91.2744C563.177 93.9166 561.165 101.503 567.147 104.649C569.208 105.732 575.24 106.197 575.757 100.128C578.286 102.046 581.11 101.224 583.579 99.2298C586.049 97.235 586.91 93.4946 585.562 90.6221C584.214 87.7496 580.785 86.0192 577.671 86.64C579.039 84.6419 578.46 81.6775 576.643 80.0757C574.826 78.4743 572.069 78.1885 569.803 79.0471C568.118 79.6856 565.715 80.2575 564.129 81.3891C563.563 77.9654 561.824 74.7635 561.666 71.7643C561.649 71.4415 561.605 71.1334 561.549 70.8312C561.331 67.2172 560.904 61.3941 557.154 56.4235C551.847 49.3874 542.701 50.6191 538.272 52.0388ZM534.716 61.9007C535.746 72.1276 548.102 79.728 553.2 79.4192C553.609 79.4271 554.001 79.4077 554.385 79.3762C555.564 79.4346 556.511 79.7647 557.158 80.3559C557.771 80.9157 558.094 81.7057 558.094 82.6408C558.094 84.7738 557.747 86.8559 553.601 86.8559C553.253 86.8559 552.965 87.1269 552.945 87.474C552.818 89.6414 551.958 97.083 546.214 101.841C542.134 105.221 536.522 106.48 529.535 105.582C525.436 105.056 522.376 101.782 520.439 95.85C518.448 89.7546 518.115 82.315 518.188 77.1475C518.258 72.078 519.993 68.1746 523.343 65.5456C526.446 63.1104 530.715 62.0448 534.716 61.9007ZM554.801 81.7524C553.199 81.5939 553.577 82.8377 554.267 83.2564C554.639 83.4818 555.258 83.1448 555.355 82.9513C555.632 82.3978 555.13 81.7849 554.801 81.7524Z" fill="#141414"/>
<path fill-rule="evenodd" clip-rule="evenodd" d="M559.731 91.332C561.986 90.7073 563.449 88.2728 564.003 85.7448C564.582 83.8723 564.28 82.0839 563.953 80.573C569.235 77.5932 567.577 88.24 566.189 90.5203C565.321 93.9929 559.033 96.6363 559.731 91.332Z" fill="#9D78FC"/>
<path fill-rule="evenodd" clip-rule="evenodd" d="M532.05 95.2782C530.627 95.0725 529.365 95.6565 529.231 96.5828C529.097 97.5086 530.142 98.426 531.564 98.6317C532.987 98.8374 534.249 98.2531 534.383 97.3272C534.517 96.4013 533.473 95.4836 532.05 95.2782ZM531.733 86.372C531.535 86.3894 531.382 86.5466 531.363 86.7379C531.309 87.3071 531.254 87.876 531.172 88.4131C531.152 88.5463 531.127 88.6769 531.099 88.7964C531.087 88.8505 531.069 88.9092 531.053 88.9555C530.996 88.985 530.939 89.0142 530.883 89.049C530.732 89.1412 530.583 89.2527 530.445 89.3879C530.168 89.6474 529.923 90.0474 529.897 90.5084C529.867 90.97 530.071 91.4051 530.349 91.6912C530.63 91.9838 530.979 92.162 531.33 92.2535C531.506 92.3008 531.685 92.3221 531.86 92.3303C532.035 92.331 532.213 92.3552 532.372 92.2473C532.583 92.1046 532.638 91.8185 532.495 91.6085C532.461 91.558 532.418 91.5166 532.37 91.4848L532.283 91.427C532.155 91.3424 532.046 91.3847 531.933 91.3581C531.822 91.3427 531.714 91.3207 531.615 91.2833C531.415 91.2148 531.241 91.1039 531.132 90.9716C531.018 90.8401 530.977 90.7026 530.992 90.5865C531.007 90.4703 531.075 90.3384 531.223 90.2137C531.293 90.1511 531.379 90.0923 531.475 90.0395C531.522 90.0113 531.572 89.9851 531.625 89.9611L531.664 89.9421L531.693 89.9276C531.739 89.9043 531.787 89.8751 531.826 89.8446C531.961 89.7298 531.998 89.6474 532.04 89.5736C532.163 89.3115 532.166 89.1586 532.195 88.988C532.215 88.8242 532.226 88.6691 532.233 88.5162C532.258 87.9079 532.225 87.3248 532.173 86.7411C532.154 86.5177 531.957 86.3524 531.733 86.372ZM542.157 84.839C542.023 83.9131 541.235 83.2606 540.397 83.3816C539.559 83.5027 538.989 84.3518 539.123 85.2777C539.257 86.2036 540.045 86.8562 540.883 86.7351C541.72 86.614 542.291 85.7653 542.157 84.839ZM525.668 82.8153C524.83 82.6943 524.042 83.3468 523.908 84.2727C523.774 85.199 524.344 86.0477 525.182 86.1688C526.02 86.2899 526.808 85.6373 526.942 84.7114C527.076 83.7852 526.506 82.9364 525.668 82.8153ZM540.615 77.0701C540.07 77.0678 539.627 77.5071 539.624 78.0511C539.622 78.5951 540.061 79.038 540.606 79.0403C540.63 79.0406 540.655 79.0397 540.678 79.038C541.559 78.9773 542.461 79.2204 543.28 79.7192C543.691 79.9652 544.079 80.2736 544.435 80.6267C544.789 80.982 545.122 81.3679 545.486 81.7576L545.497 81.7694C545.708 81.9942 546.06 82.0063 546.285 81.7963C546.452 81.6405 546.502 81.4053 546.43 81.2028C546.23 80.6421 545.919 80.124 545.542 79.6509C545.167 79.1758 544.736 78.7319 544.24 78.3454C543.745 77.9583 543.179 77.6407 542.566 77.4136C541.953 77.1862 541.288 77.073 540.623 77.0701H540.615ZM526.577 76.7507C526.517 76.7488 526.452 76.753 526.394 76.7612C525.832 76.8449 525.265 76.9368 524.693 77.067C524.122 77.1986 523.546 77.3846 522.982 77.6461C522.422 77.9086 521.866 78.2547 521.423 78.7173C520.976 79.175 520.646 79.7207 520.438 80.2794C520.318 80.6033 520.483 80.9628 520.807 81.0833C521.084 81.1856 521.386 81.0806 521.544 80.8467L521.55 80.8372C522.097 80.0251 522.731 79.4398 523.6 79.1311C524.033 78.9775 524.51 78.9017 525.001 78.8519C525.492 78.8023 526 78.7918 526.514 78.8079C527.082 78.8253 527.557 78.3791 527.575 77.8111C527.592 77.2432 527.146 76.7681 526.577 76.7507Z" fill="#141414"/>
<path fill-rule="evenodd" clip-rule="evenodd" d="M539.988 93.2313C539.185 92.8569 538.605 94.1024 539.406 94.4757C540.21 94.8501 540.789 93.605 539.988 93.2313ZM543.091 94.4176C544.369 94.201 542.959 92.551 542.518 93.6042C542.242 94.0206 542.566 94.6102 543.091 94.4176ZM524.765 91.2701C523.955 91.2635 523.943 92.5221 524.755 92.529C525.566 92.5359 525.578 91.2773 524.765 91.2701ZM541.369 90.8932C540.883 90.6668 540.531 91.4208 541.017 91.6469C541.503 91.8732 541.854 91.1196 541.369 90.8932ZM538.957 90.0611C538.294 89.7523 537.815 90.7806 538.477 91.089C539.14 91.3978 539.619 90.3698 538.957 90.0611ZM522.976 90.2533C523.027 89.208 521.208 90.0178 522.181 90.7002C522.539 91.067 523.04 90.7064 522.976 90.2533ZM526.588 88.9862C525.919 88.9806 525.909 90.02 526.58 90.0256C527.249 90.0315 527.259 88.9921 526.588 88.9862ZM524.155 88.0004C523.664 87.9961 523.656 88.7586 524.148 88.7625C524.639 88.7668 524.646 88.0046 524.155 88.0004Z" fill="#9D78FC"/>
<path fill-rule="evenodd" clip-rule="evenodd" d="M525.378 86.3529C528.437 86.3529 530.744 83.9732 530.744 80.8176C530.744 77.6704 528.285 75.11 525.263 75.11C522.125 75.11 519.666 77.5179 519.666 80.5918C519.666 83.7147 522.282 86.3529 525.378 86.3529ZM542.448 88.5469C545.514 88.5469 548.104 85.5819 548.104 82.0729C548.104 78.8424 545.39 76.2147 542.054 76.2147C538.88 76.2147 536.297 79.0393 536.297 82.5115C536.297 85.783 539.114 88.5469 542.448 88.5469ZM525.263 73.7976C528.142 73.7976 530.602 75.6602 531.59 78.2778C532.81 78.1879 534.99 78.4713 535.94 78.6967C537.166 76.4302 539.447 74.9023 542.054 74.9023C546.115 74.9023 549.418 78.119 549.418 82.0729C549.418 86.3664 546.291 89.8593 542.448 89.8593C538.402 89.8593 534.984 86.4943 534.984 82.5115C534.984 81.5971 535.134 80.7201 535.411 79.9071C534.598 79.745 532.839 79.561 531.942 79.5613C532.014 79.9694 532.057 80.3881 532.057 80.8176C532.057 84.6576 529.123 87.6653 525.378 87.6653C521.57 87.6653 518.353 84.426 518.353 80.5918C518.353 76.782 521.388 73.7976 525.263 73.7976Z" fill="#9D78FC"/>
<path fill-rule="evenodd" clip-rule="evenodd" d="M117.153 335.238L94.4863 416.407H104.19L137.346 335.238H117.153Z" fill="#FF8333"/>
<path fill-rule="evenodd" clip-rule="evenodd" d="M210.239 335.238L246.957 416.551H253.162L230.925 335.238H210.239Z" fill="#FF8333"/>
<path fill-rule="evenodd" clip-rule="evenodd" d="M231.584 336.276H114.914C114.619 336.276 114.356 336.092 114.257 335.815C113.952 334.968 83.5729 250.684 68.6873 209.042C67.106 204.619 68.4089 200.835 72.0063 199.402C78.5343 196.803 93.1926 202.415 104.735 228.546L133.626 303.034H231.584C231.97 303.034 232.283 303.347 232.283 303.732V335.578C232.283 335.964 231.97 336.276 231.584 336.276Z" fill="#141414"/>
<path fill-rule="evenodd" clip-rule="evenodd" d="M115.405 334.88H230.885V304.43H133.147C132.859 304.43 132.6 304.253 132.496 303.984L103.444 229.08C92.9037 205.219 79.016 198.112 72.5233 200.698C69.6427 201.846 68.6769 204.863 70.0028 208.572C84.3145 248.609 112.949 328.067 115.405 334.88Z" fill="white"/>
<path fill-rule="evenodd" clip-rule="evenodd" d="M245.903 385.389L250.356 402.006L273.51 403.933L272.232 387.814" fill="white"/>
<path fill-rule="evenodd" clip-rule="evenodd" d="M273.511 404.589C273.493 404.589 273.475 404.588 273.456 404.587L250.302 402.66C250.123 402.645 249.959 402.558 249.846 402.419C249.734 402.28 249.682 402.101 249.705 401.924L245.252 385.306C245.298 384.946 245.633 384.692 245.987 384.738C246.346 384.784 246.601 385.112 246.555 385.471L251.094 401.409L273.048 403.236L271.609 387.609C271.722 387.265 272.092 387.077 272.437 387.19C272.782 387.303 272.97 387.674 272.857 388.018L274.135 404.137C274.046 404.409 273.792 404.589 273.511 404.589Z" fill="#141414"/>
<path fill-rule="evenodd" clip-rule="evenodd" d="M249.41 401.108C249.495 400.774 249.823 400.563 250.162 400.624C250.485 400.682 250.894 400.76 251.375 400.853C254.325 401.42 260.462 402.6 266.278 402.605H266.293C269.72 402.605 272.733 401.669 274.778 399.967C274.941 399.832 275.158 399.784 275.364 399.837C285.346 402.433 292.559 404.309 297.904 407.871C298.843 408.497 302.231 411.23 301.645 413.162C301.374 414.056 300.409 414.509 298.777 414.509C292.819 414.509 279.981 414.542 268.655 414.572C259.491 414.596 251.576 414.616 248.597 414.616C248.282 414.616 247.998 414.474 247.796 414.215C246.623 412.707 248.534 404.546 249.41 401.108Z" fill="#FF8333"/>
<path fill-rule="evenodd" clip-rule="evenodd" d="M248.716 417.506H300.22C301.076 417.506 301.77 416.813 301.77 415.957V415.446C301.77 414.59 301.076 413.898 300.22 413.898H248.716C247.86 413.898 247.166 414.59 247.166 415.446V415.957C247.166 416.813 247.86 417.506 248.716 417.506Z" fill="#141414"/>
<path fill-rule="evenodd" clip-rule="evenodd" d="M285.593 406.019C285.854 406.019 286.104 405.872 286.224 405.621C287.319 403.322 289.425 403.884 289.662 403.957C290.029 404.068 290.419 403.863 290.533 403.497C290.647 403.13 290.445 402.741 290.08 402.625C288.886 402.247 286.279 402.26 284.963 405.021C284.797 405.369 284.944 405.785 285.293 405.951C285.39 405.997 285.492 406.019 285.593 406.019Z" fill="#141414"/>
<path fill-rule="evenodd" clip-rule="evenodd" d="M279.425 404.339C279.686 404.339 279.937 404.192 280.057 403.941C281.152 401.641 283.258 402.204 283.494 402.276C283.862 402.388 284.252 402.183 284.366 401.816C284.48 401.45 284.278 401.061 283.912 400.945C282.717 400.566 280.111 400.58 278.796 403.341C278.63 403.689 278.778 404.105 279.126 404.271C279.223 404.317 279.325 404.339 279.425 404.339Z" fill="#141414"/>
<path fill-rule="evenodd" clip-rule="evenodd" d="M191.112 385.719L188.997 402.336L212.151 404.263L217.441 388.144" fill="white"/>
<path fill-rule="evenodd" clip-rule="evenodd" d="M212.152 404.919C212.134 404.919 212.116 404.918 212.097 404.917L188.943 402.99C188.764 402.975 188.6 402.888 188.487 402.749C188.375 402.61 188.323 402.431 188.346 402.254L190.461 385.636C190.507 385.276 190.842 385.022 191.196 385.068C191.555 385.114 191.81 385.442 191.764 385.801L189.736 401.739L211.689 403.566L216.818 387.939C216.931 387.595 217.301 387.407 217.646 387.52C217.991 387.633 218.179 388.004 218.066 388.348L212.776 404.467C212.687 404.739 212.433 404.919 212.152 404.919Z" fill="#141414"/>
<path fill-rule="evenodd" clip-rule="evenodd" d="M188.051 401.438C188.135 401.104 188.464 400.893 188.803 400.954C189.126 401.012 189.535 401.09 190.016 401.183C192.965 401.75 199.103 402.93 204.919 402.935H204.934C208.36 402.935 211.374 401.998 213.419 400.297C213.581 400.162 213.799 400.114 214.004 400.167C223.987 402.763 231.199 404.639 236.544 408.201C237.484 408.827 240.872 411.56 240.286 413.492C240.014 414.386 239.05 414.839 237.418 414.839C231.459 414.839 218.622 414.872 207.296 414.902C198.131 414.925 190.217 414.946 187.237 414.946C186.922 414.946 186.638 414.803 186.437 414.545C185.264 413.037 187.174 404.876 188.051 401.438Z" fill="#FF8333"/>
<path fill-rule="evenodd" clip-rule="evenodd" d="M187.356 417.836H238.861C239.717 417.836 240.41 417.143 240.41 416.287V415.776C240.41 414.92 239.717 414.227 238.861 414.227H187.356C186.501 414.227 185.807 414.92 185.807 415.776V416.287C185.807 417.143 186.501 417.836 187.356 417.836Z" fill="#141414"/>
<path fill-rule="evenodd" clip-rule="evenodd" d="M224.234 406.349C224.495 406.349 224.746 406.202 224.865 405.951C225.961 403.652 228.066 404.214 228.303 404.287C228.67 404.398 229.061 404.193 229.175 403.827C229.289 403.46 229.087 403.071 228.721 402.955C227.527 402.576 224.92 402.59 223.604 405.351C223.438 405.699 223.586 406.115 223.935 406.281C224.031 406.327 224.134 406.349 224.234 406.349Z" fill="#141414"/>
<path fill-rule="evenodd" clip-rule="evenodd" d="M218.066 404.668C218.327 404.668 218.578 404.522 218.697 404.27C219.793 401.971 221.898 402.534 222.135 402.606C222.502 402.718 222.893 402.512 223.007 402.146C223.121 401.78 222.919 401.391 222.553 401.275C221.358 400.896 218.751 400.91 217.436 403.671C217.27 404.019 217.418 404.435 217.767 404.601C217.863 404.647 217.965 404.668 218.066 404.668Z" fill="#141414"/>
<path fill-rule="evenodd" clip-rule="evenodd" d="M229.6 263.438H191.944C181.971 263.438 217.436 308.003 217.436 308.003C217.608 312.127 218.087 386.52 218.087 386.52C242.241 391.479 261.875 392.904 278.434 390.268C278.434 390.268 269.755 325.745 262.567 288.684C258.844 269.492 243.03 263.438 229.6 263.438Z" fill="#141414"/>
<g style="mix-blend-mode:overlay">
<path fill-rule="evenodd" clip-rule="evenodd" d="M249.988 386.38C250.349 386.319 250.683 386.565 250.742 386.922L251.374 390.808C251.432 391.166 251.189 391.503 250.831 391.561C250.795 391.568 250.76 391.57 250.725 391.57C250.409 391.57 250.13 391.341 250.078 391.019L249.445 387.133C249.387 386.775 249.63 386.439 249.988 386.38ZM248.723 378.608C249.081 378.548 249.419 378.792 249.477 379.15L250.109 383.036C250.167 383.394 249.924 383.731 249.566 383.789C249.531 383.796 249.495 383.798 249.46 383.798C249.144 383.798 248.865 383.569 248.813 383.247L248.18 379.361C248.122 379.003 248.365 378.666 248.723 378.608ZM247.458 370.836C247.816 370.775 248.154 371.02 248.212 371.378L248.844 375.264C248.902 375.622 248.659 375.959 248.301 376.017C248.266 376.023 248.23 376.025 248.195 376.025C247.879 376.025 247.6 375.797 247.548 375.475L246.916 371.589C246.858 371.231 247.101 370.894 247.458 370.836ZM246.194 363.063C246.552 363.004 246.889 363.248 246.947 363.605L247.58 367.492C247.638 367.85 247.395 368.187 247.037 368.245C247.001 368.251 246.966 368.253 246.931 368.253C246.614 368.253 246.336 368.025 246.283 367.703L245.651 363.816C245.593 363.458 245.836 363.121 246.194 363.063ZM244.929 355.291C245.287 355.232 245.624 355.476 245.682 355.833L246.315 359.719C246.373 360.077 246.13 360.414 245.772 360.472C245.736 360.478 245.701 360.481 245.666 360.481C245.35 360.481 245.071 360.252 245.018 359.93L244.386 356.044C244.328 355.686 244.571 355.349 244.929 355.291ZM243.664 347.519C244.022 347.458 244.36 347.703 244.418 348.061L245.05 351.947C245.108 352.305 244.865 352.642 244.507 352.7C244.472 352.706 244.436 352.709 244.401 352.709C244.085 352.709 243.806 352.48 243.754 352.158L243.121 348.272C243.063 347.914 243.306 347.577 243.664 347.519ZM242.4 339.747C242.76 339.686 243.095 339.931 243.153 340.289L243.785 344.175C243.844 344.533 243.601 344.87 243.243 344.928C243.207 344.934 243.172 344.936 243.137 344.936C242.82 344.936 242.541 344.707 242.489 344.386L241.857 340.5C241.799 340.142 242.042 339.805 242.4 339.747ZM241.135 331.974C241.492 331.914 241.83 332.159 241.888 332.516L242.52 336.403C242.579 336.76 242.336 337.097 241.978 337.155C241.942 337.162 241.907 337.164 241.872 337.164C241.555 337.164 241.277 336.935 241.224 336.613L240.592 332.727C240.534 332.369 240.777 332.032 241.135 331.974ZM239.87 324.202C240.231 324.141 240.565 324.386 240.623 324.744L241.256 328.63C241.314 328.988 241.071 329.325 240.713 329.383C240.677 329.389 240.642 329.392 240.607 329.392C240.29 329.392 240.012 329.163 239.959 328.841L239.327 324.955C239.269 324.597 239.512 324.26 239.87 324.202ZM238.605 316.43C238.967 316.372 239.301 316.614 239.359 316.972L239.991 320.858C240.05 321.216 239.807 321.553 239.449 321.611C239.413 321.617 239.377 321.619 239.342 321.619C239.026 321.619 238.747 321.391 238.695 321.069L238.062 317.182C238.004 316.825 238.247 316.488 238.605 316.43ZM237.34 308.657C237.701 308.599 238.036 308.842 238.094 309.199L238.726 313.086C238.785 313.443 238.542 313.781 238.184 313.839C238.148 313.845 238.113 313.847 238.077 313.847C237.761 313.847 237.482 313.619 237.43 313.296L236.798 309.41C236.74 309.052 236.983 308.715 237.34 308.657Z" fill="white" fill-opacity="0.8"/>
</g>
<path fill-rule="evenodd" clip-rule="evenodd" d="M204.115 263.439H128.031C128.031 263.439 120.335 290.853 135.968 305.847C150.377 319.668 183.308 314.723 190.203 313.504L191.335 306.386C191.392 306.028 191.733 305.784 192.087 305.84C192.445 305.897 192.69 306.234 192.633 306.592L191.465 313.935C190.915 322.444 180.627 392.426 180.627 392.426C200.275 398.185 225.601 398.721 238.757 396.174C238.757 396.174 238.998 330.466 236.361 290.023C235.225 272.616 221.377 263.439 204.115 263.439Z" fill="#0B379B"/>
<g style="mix-blend-mode:overlay">
<path fill-rule="evenodd" clip-rule="evenodd" d="M199.274 392.699C199.636 392.729 199.905 393.046 199.875 393.407L199.712 395.369C199.683 395.712 199.396 395.97 199.058 395.97C199.04 395.97 199.021 395.97 199.003 395.968C198.641 395.938 198.373 395.62 198.403 395.259L198.566 393.299C198.595 392.938 198.911 392.666 199.274 392.699ZM199.89 385.084C200.252 385.113 200.522 385.429 200.493 385.79C200.376 387.243 200.27 388.562 200.176 389.723C200.148 390.066 199.861 390.326 199.522 390.326C199.504 390.326 199.487 390.326 199.468 390.324C199.107 390.295 198.837 389.978 198.867 389.616C198.961 388.456 199.067 387.138 199.184 385.686C199.212 385.325 199.527 385.059 199.89 385.084ZM200.51 377.221C200.872 377.249 201.142 377.565 201.114 377.926C201.007 379.296 200.904 380.61 200.805 381.858C200.778 382.202 200.491 382.463 200.151 382.463C200.134 382.463 200.117 382.462 200.099 382.461C199.737 382.432 199.467 382.116 199.496 381.755C199.594 380.508 199.697 379.194 199.804 377.824C199.832 377.462 200.147 377.197 200.51 377.221ZM201.112 369.358C201.474 369.385 201.745 369.701 201.717 370.062C201.616 371.405 201.515 372.718 201.418 373.994C201.392 374.338 201.104 374.6 200.763 374.6C200.747 374.6 200.73 374.599 200.713 374.598C200.351 374.57 200.08 374.255 200.108 373.893C200.206 372.618 200.306 371.306 200.407 369.963C200.435 369.601 200.754 369.33 201.112 369.358ZM201.696 361.496C202.057 361.522 202.329 361.837 202.303 362.198C202.206 363.527 202.109 364.839 202.012 366.13C201.986 366.475 201.698 366.738 201.358 366.738C201.342 366.738 201.325 366.737 201.308 366.736C200.946 366.709 200.675 366.394 200.702 366.032C200.799 364.742 200.896 363.43 200.992 362.103C201.019 361.741 201.332 361.472 201.696 361.496ZM202.258 353.632C202.621 353.657 202.893 353.971 202.868 354.333C202.775 355.652 202.682 356.964 202.588 358.266C202.563 358.611 202.275 358.875 201.934 358.875C201.918 358.875 201.902 358.874 201.886 358.873C201.524 358.847 201.252 358.533 201.278 358.171C201.371 356.871 201.465 355.559 201.557 354.241C201.583 353.88 201.902 353.611 202.258 353.632ZM202.797 345.766C203.159 345.789 203.433 346.102 203.408 346.464C203.321 347.775 203.231 349.089 203.141 350.4C203.117 350.746 202.829 351.011 202.486 351.011C202.471 351.011 202.456 351.011 202.44 351.01C202.079 350.985 201.805 350.672 201.831 350.31C201.921 349 202.01 347.687 202.098 346.376C202.122 346.015 202.43 345.734 202.797 345.766ZM203.305 337.903C203.667 337.926 203.942 338.238 203.919 338.599C203.837 339.902 203.754 341.215 203.668 342.534C203.645 342.882 203.356 343.148 203.013 343.148C202.998 343.148 202.984 343.148 202.97 343.147C202.608 343.123 202.333 342.811 202.357 342.449C202.443 341.132 202.527 339.819 202.608 338.517C202.631 338.156 202.949 337.882 203.305 337.903ZM203.773 330.033C204.135 330.053 204.412 330.364 204.391 330.725C204.318 332.019 204.241 333.333 204.161 334.663C204.14 335.011 203.851 335.28 203.506 335.28C203.493 335.28 203.479 335.279 203.466 335.278C203.104 335.257 202.828 334.946 202.85 334.584C202.93 333.256 203.006 331.943 203.08 330.651C203.1 330.289 203.407 330.016 203.773 330.033ZM204.184 322.159C204.546 322.177 204.825 322.485 204.808 322.847C204.746 324.127 204.679 325.442 204.608 326.787C204.589 327.137 204.3 327.408 203.953 327.408C203.941 327.408 203.93 327.408 203.917 327.407C203.555 327.388 203.277 327.079 203.296 326.718C203.368 325.375 203.434 324.061 203.496 322.783C203.513 322.421 203.82 322.145 204.184 322.159ZM204.502 314.28C204.865 314.292 205.149 314.595 205.137 314.957C205.095 316.212 205.044 317.531 204.987 318.903C204.972 319.256 204.681 319.532 204.331 319.532C204.322 319.532 204.313 319.532 204.303 319.531C203.941 319.516 203.659 319.21 203.674 318.848C203.732 317.48 203.782 316.165 203.824 314.914C203.836 314.552 204.145 314.263 204.502 314.28ZM204.624 306.393C204.986 306.393 205.28 306.686 205.281 307.047L205.282 307.583C205.282 308.596 205.269 309.748 205.244 311.006C205.237 311.364 204.945 311.649 204.588 311.649H204.575C204.212 311.642 203.924 311.342 203.931 310.98C203.956 309.73 203.969 308.587 203.969 307.583L203.968 307.052C203.966 306.69 204.259 306.395 204.622 306.393H204.624ZM202.262 299.388C202.487 299.103 202.9 299.056 203.184 299.281C203.781 299.753 204.262 300.227 204.615 300.692C204.81 300.96 205.019 301.442 205.149 303.064C205.178 303.425 204.908 303.741 204.547 303.77C204.529 303.772 204.511 303.773 204.494 303.773C204.155 303.773 203.867 303.512 203.84 303.169C203.729 301.788 203.573 301.497 203.555 301.469C203.282 301.108 202.878 300.713 202.369 300.309C202.085 300.084 202.036 299.672 202.262 299.388ZM195.226 295.85C195.363 295.515 195.747 295.355 196.083 295.493C197.446 296.053 198.671 296.609 199.724 297.145C200.047 297.31 200.175 297.705 200.011 298.028C199.895 298.255 199.664 298.386 199.425 298.386C199.324 298.386 199.223 298.363 199.127 298.314C198.106 297.794 196.914 297.253 195.583 296.706C195.248 296.569 195.088 296.185 195.226 295.85ZM187.785 293.22C187.897 292.875 188.266 292.687 188.612 292.798C189.944 293.23 191.207 293.659 192.368 294.074C192.709 294.196 192.887 294.572 192.765 294.913C192.669 295.181 192.416 295.348 192.146 295.348C192.073 295.348 191.998 295.336 191.925 295.31C190.777 294.899 189.526 294.474 188.207 294.046C187.861 293.935 187.673 293.564 187.785 293.22ZM180.221 290.962C180.32 290.613 180.683 290.411 181.032 290.51C182.355 290.886 183.633 291.259 184.83 291.619C185.178 291.723 185.374 292.09 185.27 292.437C185.184 292.72 184.924 292.904 184.642 292.904C184.578 292.904 184.515 292.895 184.452 292.876C183.261 292.517 181.989 292.146 180.673 291.773C180.324 291.674 180.121 291.311 180.221 290.962ZM172.602 288.905C172.694 288.555 173.052 288.346 173.404 288.437C174.67 288.769 175.947 289.108 177.221 289.454C177.571 289.549 177.778 289.909 177.682 290.259C177.603 290.551 177.338 290.743 177.049 290.743C176.992 290.743 176.934 290.736 176.877 290.72C175.606 290.376 174.334 290.037 173.07 289.707C172.72 289.614 172.51 289.256 172.602 288.905ZM164.952 286.954C165.04 286.602 165.397 286.389 165.749 286.478C166.995 286.792 168.276 287.116 169.578 287.448C169.929 287.538 170.141 287.895 170.052 288.247C169.976 288.543 169.709 288.74 169.416 288.74C169.362 288.74 169.307 288.733 169.253 288.72C167.952 288.388 166.673 288.064 165.428 287.751C165.076 287.662 164.863 287.306 164.952 286.954ZM157.297 285.02C157.387 284.669 157.744 284.457 158.096 284.548C159.296 284.855 160.577 285.179 161.92 285.516C162.272 285.605 162.485 285.961 162.397 286.313C162.322 286.61 162.054 286.809 161.76 286.809C161.707 286.809 161.653 286.802 161.6 286.789C160.254 286.451 158.971 286.127 157.769 285.819C157.418 285.729 157.206 285.371 157.297 285.02ZM149.704 282.841C149.822 282.499 150.195 282.316 150.538 282.433C151.429 282.737 152.656 283.101 154.287 283.546C154.637 283.642 154.843 284.003 154.748 284.352C154.668 284.644 154.404 284.836 154.115 284.836C154.058 284.836 153.999 284.828 153.941 284.812C152.283 284.36 151.031 283.988 150.114 283.675C149.771 283.557 149.587 283.184 149.704 282.841ZM151.847 264.962C152.208 264.919 152.536 265.171 152.581 265.531C152.597 265.658 152.97 268.692 152.365 272.081C151.621 276.253 149.702 279.108 146.794 280.414C146.933 280.525 147.069 280.639 147.211 280.742C147.505 280.955 147.57 281.366 147.357 281.659C147.228 281.835 147.028 281.929 146.825 281.929C146.691 281.929 146.556 281.889 146.44 281.804C145.356 281.018 144.369 280.049 143.506 278.922C143.286 278.634 143.341 278.222 143.629 278.002C143.917 277.782 144.329 277.837 144.549 278.124C144.91 278.595 145.296 279.031 145.7 279.438C152.609 276.995 151.292 265.809 151.278 265.695C151.232 265.336 151.488 265.008 151.847 264.962ZM140.544 270.803C140.895 270.711 141.254 270.919 141.347 271.27C141.687 272.555 142.116 273.767 142.62 274.873C142.771 275.203 142.626 275.592 142.296 275.742C142.207 275.783 142.114 275.802 142.023 275.802C141.774 275.802 141.536 275.659 141.425 275.418C140.89 274.245 140.436 272.962 140.077 271.605C139.984 271.255 140.193 270.896 140.544 270.803ZM139.826 264.957C140.185 264.957 140.478 265.246 140.483 265.605C140.483 265.612 140.493 266.348 140.63 267.497C140.672 267.857 140.415 268.183 140.055 268.226C140.028 268.229 140.002 268.23 139.977 268.23C139.648 268.23 139.365 267.985 139.325 267.651C139.189 266.501 139.171 265.748 139.169 265.635L139.169 265.621C139.165 265.259 139.455 264.961 139.818 264.957H139.826Z" fill="white" fill-opacity="0.8"/>
</g>
<path fill-rule="evenodd" clip-rule="evenodd" d="M127.89 263.053C127.434 259.347 124.074 234.93 123.292 221.119C117.721 222.293 116.951 196.973 124.155 180.756C135.631 154.921 175.026 162.999 175.026 162.999C175.026 162.999 186.796 162.448 198.415 171.949C203.609 176.196 209.329 185.679 212.174 196.092C211.283 198.972 201.869 211.881 198.436 214.077C203.742 239.825 207.941 263.053 207.941 263.053C207.941 263.053 139.54 264.121 127.89 263.053Z" fill="#FF8333"/>
<path fill-rule="evenodd" clip-rule="evenodd" d="M207.165 262.751C206.416 258.482 202.523 237.156 197.794 214.209C197.739 213.943 197.854 213.671 198.083 213.524C201.4 211.402 210.357 199.062 211.487 196.07C208.789 186.329 203.384 176.858 198 172.457C186.728 163.24 175.172 163.648 175.057 163.654C175.002 163.655 174.948 163.652 174.895 163.641C174.797 163.622 164.989 161.654 153.934 162.845C147.474 163.541 141.859 165.163 137.244 167.667C131.513 170.776 127.311 175.27 124.756 181.022C121.955 187.327 120.105 195.744 119.68 204.117C119.3 211.585 120.15 217.763 121.846 219.856C122.402 220.543 122.861 220.541 123.157 220.477C123.345 220.438 123.54 220.482 123.692 220.598C123.844 220.715 123.938 220.891 123.949 221.082C124.624 233.009 127.404 252.151 128.45 260.222C128.565 261.11 128.658 261.832 128.725 262.353C140.843 263.243 199.784 262.992 207.165 262.751ZM128.08 263.617C127.772 263.589 127.526 263.35 127.488 263.044C127.427 262.545 127.308 261.632 127.147 260.391C126.118 252.45 123.414 233.887 122.675 221.802C122.107 221.741 121.451 221.455 120.824 220.682C118.908 218.316 117.966 211.943 118.368 204.051C118.801 195.523 120.692 186.936 123.555 180.49C128.348 169.7 138.815 163.147 153.825 161.537C164.544 160.387 174.107 162.152 175.079 162.34C176.241 162.3 187.53 162.199 198.832 171.441C204.445 176.031 210.062 185.868 212.808 195.919C212.841 196.039 212.839 196.166 212.802 196.285C211.953 199.031 203.047 211.447 199.167 214.367C204.374 239.675 208.547 263.029 208.589 263.269C208.622 263.456 208.572 263.648 208.451 263.796C208.332 263.943 208.154 264.031 207.964 264.037C205.721 264.113 162.731 263.906 140.068 263.906C134.603 263.906 130.325 263.823 128.08 263.617Z" fill="#141414"/>
<path fill-rule="evenodd" clip-rule="evenodd" d="M158.803 152.91C158.803 152.91 158.357 164.209 153.684 165.823C152.413 172.174 161.028 176.51 167.576 176.203C180.252 175.609 176.307 165.257 175.435 165.228C175.461 163.931 176.161 154.225 176.161 154.225L158.803 152.91Z" fill="white"/>
<path fill-rule="evenodd" clip-rule="evenodd" d="M154.307 166.323C154.08 167.983 154.596 169.557 155.843 171.006C158.262 173.818 163.182 175.714 167.543 175.506C171.899 175.302 174.7 173.853 175.642 171.316C176.527 168.934 175.552 166.351 175.159 165.87C174.906 165.761 174.731 165.507 174.736 165.215C174.758 164.104 175.252 157.129 175.414 154.868L159.457 153.66C159.272 156.186 158.36 164.437 154.307 166.323ZM166.909 176.916C162.335 176.916 157.33 174.876 154.784 171.916C153.174 170.047 152.557 167.892 152.999 165.686C153.048 165.443 153.221 165.245 153.456 165.164C156.915 163.969 157.984 155.893 158.105 152.883C158.112 152.693 158.196 152.515 158.338 152.389C158.48 152.263 158.668 152.202 158.855 152.214L176.213 153.529C176.596 153.558 176.884 153.892 176.857 154.275C176.85 154.366 176.243 162.784 176.146 164.9C176.906 165.719 177.388 167.725 177.399 169.146C177.413 171.137 176.73 172.874 175.422 174.17C173.76 175.816 171.131 176.735 167.608 176.9C167.376 176.911 167.143 176.916 166.909 176.916Z" fill="#141414"/>
<path fill-rule="evenodd" clip-rule="evenodd" d="M212.15 195.991L194.134 198.513L196.123 210.13C196.123 210.13 170.196 207.621 161.29 204.675C156.808 203.192 151.014 204.843 148.745 209.503C147.544 211.969 148.318 218.384 148.318 218.384C148.318 218.384 156.669 218.27 159.055 218.27C159.299 218.27 159.614 218.352 159.99 218.499L148.001 218.627L147.4 201.337L119.176 201.694C119.176 201.694 113.816 238.931 135.267 244.728C154.813 250.011 178.428 232.133 180.274 230.704C189.446 235.473 200.349 239.214 210.616 236.596C223.601 233.284 212.68 197.459 212.15 195.991Z" fill="white"/>
<path fill-rule="evenodd" clip-rule="evenodd" d="M214.525 232.566C213.554 234.399 212.222 235.509 210.453 235.96C194.582 240.008 177.326 228.7 167.015 221.944C163.605 219.709 161.517 218.364 160.143 217.853C160.14 217.849 160.135 217.845 160.132 217.841L160.11 217.841C159.701 217.692 159.352 217.613 159.054 217.613C157.064 217.613 150.865 217.693 148.907 217.719C148.707 215.653 148.509 211.487 149.335 209.79C151.063 206.244 155.929 203.593 161.084 205.298C169.932 208.225 194.854 210.666 196.048 210.782L200.339 211.353C200.368 211.357 200.397 211.359 200.426 211.359C200.75 211.359 201.032 211.119 201.076 210.789C201.124 210.43 200.872 210.1 200.512 210.052L196.689 209.543L194.895 199.069L211.696 196.717C212.26 198.519 213.969 204.454 215.141 211.25C216.857 221.2 216.644 228.571 214.525 232.566ZM142.87 245.038C140.358 245.038 137.862 244.75 135.439 244.095C126.828 241.768 121.577 233.99 119.832 220.976C118.698 212.522 119.5 204.487 119.756 202.342L146.766 202.001L147.344 218.649C147.357 219.006 147.653 219.279 148.008 219.283L159.882 219.156C161.231 219.724 163.616 221.285 166.295 223.041C169.84 225.364 174.193 228.214 179.036 230.811C174.977 233.785 158.584 245.039 142.87 245.038ZM212.767 195.768C212.662 195.476 212.367 195.299 212.059 195.341L194.655 197.778L192.469 186.956C192.397 186.6 192.049 186.37 191.695 186.442C191.339 186.514 191.109 186.86 191.181 187.215L193.488 198.634L195.331 209.391C190.772 208.926 169.323 206.641 161.496 204.052C159.133 203.27 156.389 203.312 153.969 204.167C151.476 205.048 149.484 206.721 148.32 208.898L148.06 201.42C148.063 201.392 148.067 201.364 148.067 201.335L147.836 187.981C147.831 187.619 147.546 187.324 147.168 187.337C146.806 187.343 146.517 187.642 146.523 188.004L146.742 200.689L119.168 201.037C118.844 201.042 118.572 201.28 118.526 201.6C118.512 201.694 117.189 211.116 118.526 221.124C120.319 234.535 126.049 242.917 135.096 245.362C137.64 246.049 140.25 246.346 142.859 246.346C151.232 246.346 159.595 243.293 165.749 240.323C173.083 236.783 178.702 232.712 180.325 231.49C187.393 235.142 195.414 238.127 203.455 238.127C205.903 238.127 208.353 237.85 210.779 237.231C212.896 236.691 214.547 235.328 215.686 233.181C221.323 222.551 212.86 196.023 212.767 195.768Z" fill="#141414"/>
<path fill-rule="evenodd" clip-rule="evenodd" d="M182.183 134.883C179.791 120.268 172.644 119.84 159.302 120.842C153.037 121.312 145.217 126.98 145.917 137.252C142.256 135.851 140.203 138.157 140.327 140.913C140.438 143.386 141.559 146.645 146.114 146.645C146.555 154.19 151.484 166.344 166.965 166.344C182.772 166.344 184.257 147.557 182.183 134.883Z" fill="white"/>
<path fill-rule="evenodd" clip-rule="evenodd" d="M177.409 161.183C170.826 169.049 155.866 165.869 150.847 158.176C148.168 154.939 146.785 148.787 146.769 146.607C146.767 146.259 146.461 145.989 146.113 145.989C141.199 146.286 139.56 140.235 142.182 137.984C143.413 137.058 145.103 137.368 146.355 138.084C146.541 138.191 151.512 137.785 154.689 128.263C160.881 131.864 172.495 133.628 180.553 130.631C183.115 140.103 183.391 153.945 177.409 161.183ZM147.476 115.293C150.544 104.334 168.365 101.659 174.906 109.39C182.145 106.029 191.448 107.007 192.711 114.896C193.453 121.476 187.989 127.058 181.762 130.12C184.497 140.085 184.807 154.292 178.41 162.033C169.92 172.177 151.457 165.334 148.045 156.077C144.496 155.18 142.717 152.597 141.319 148.14C135.907 145.483 127.174 126.167 140.049 116.956C142.394 115.398 145.008 114.816 147.476 115.293ZM144.13 140.084C143.159 140.05 143.159 142.751 144.13 142.717C145.101 142.751 145.101 140.05 144.13 140.084Z" fill="#141414"/>
<path fill-rule="evenodd" clip-rule="evenodd" d="M167.807 156.305C169.23 156.099 170.492 156.683 170.626 157.609C170.76 158.535 169.716 159.452 168.293 159.658C166.87 159.864 165.608 159.28 165.474 158.354C165.34 157.428 166.384 156.51 167.807 156.305ZM168.124 147.398C168.323 147.416 168.476 147.573 168.494 147.764C168.548 148.334 168.604 148.902 168.685 149.44C168.706 149.573 168.73 149.703 168.759 149.823C168.77 149.877 168.788 149.936 168.805 149.982C168.861 150.011 168.918 150.041 168.974 150.075C169.126 150.168 169.274 150.279 169.413 150.414C169.689 150.674 169.934 151.074 169.961 151.535C169.991 151.996 169.786 152.431 169.508 152.718C169.227 153.01 168.879 153.188 168.527 153.28C168.351 153.327 168.173 153.349 167.997 153.357C167.823 153.357 167.644 153.382 167.485 153.274C167.275 153.131 167.22 152.845 167.363 152.635C167.397 152.584 167.439 152.543 167.487 152.511L167.575 152.453C167.702 152.369 167.812 152.411 167.924 152.385C168.035 152.369 168.144 152.347 168.242 152.31C168.442 152.241 168.616 152.13 168.726 151.998C168.839 151.867 168.88 151.729 168.865 151.613C168.851 151.497 168.783 151.365 168.635 151.24C168.564 151.178 168.479 151.119 168.382 151.066C168.335 151.038 168.286 151.011 168.233 150.988L168.194 150.969L168.164 150.954C168.118 150.931 168.07 150.902 168.032 150.871C167.897 150.756 167.86 150.674 167.817 150.6C167.695 150.338 167.692 150.185 167.662 150.014C167.642 149.851 167.632 149.695 167.624 149.543C167.599 148.934 167.633 148.351 167.684 147.768C167.703 147.544 167.901 147.379 168.124 147.398ZM157.701 145.865C157.835 144.94 158.623 144.287 159.46 144.408C160.298 144.529 160.868 145.378 160.734 146.304C160.6 147.23 159.813 147.883 158.975 147.762C158.137 147.64 157.567 146.792 157.701 145.865ZM174.19 143.842C175.027 143.721 175.815 144.373 175.949 145.299C176.083 146.225 175.513 147.074 174.675 147.195C173.838 147.316 173.05 146.664 172.915 145.738C172.781 144.812 173.352 143.963 174.19 143.842ZM159.243 138.097C159.787 138.094 160.231 138.534 160.233 139.078C160.235 139.622 159.796 140.064 159.251 140.067C159.228 140.067 159.202 140.066 159.179 140.064C158.299 140.004 157.396 140.247 156.577 140.746C156.166 140.992 155.779 141.3 155.423 141.653C155.068 142.008 154.735 142.394 154.371 142.784L154.36 142.796C154.15 143.021 153.797 143.033 153.572 142.823C153.405 142.667 153.356 142.432 153.427 142.229C153.627 141.669 153.938 141.15 154.315 140.677C154.69 140.202 155.122 139.758 155.617 139.372C156.112 138.985 156.678 138.667 157.291 138.44C157.904 138.213 158.57 138.099 159.234 138.097H159.243ZM173.28 137.777C173.341 137.775 173.406 137.779 173.463 137.788C174.026 137.871 174.592 137.963 175.164 138.093C175.736 138.225 176.312 138.411 176.876 138.673C177.436 138.935 177.992 139.281 178.435 139.744C178.882 140.201 179.212 140.747 179.419 141.306C179.539 141.63 179.374 141.989 179.05 142.11C178.774 142.212 178.471 142.107 178.313 141.873L178.307 141.864C177.76 141.052 177.127 140.466 176.257 140.158C175.825 140.004 175.347 139.928 174.857 139.878C174.366 139.829 173.857 139.818 173.344 139.834C172.775 139.852 172.3 139.405 172.283 138.838C172.265 138.27 172.712 137.795 173.28 137.777Z" fill="#141414"/>
<path fill-rule="evenodd" clip-rule="evenodd" d="M159.87 154.258C160.673 153.883 161.252 155.129 160.451 155.502C159.648 155.876 159.068 154.631 159.87 154.258ZM156.766 155.444C155.488 155.227 156.899 153.577 157.339 154.631C157.616 155.047 157.292 155.637 156.766 155.444ZM175.092 152.296C175.903 152.29 175.915 153.548 175.102 153.555C174.292 153.562 174.28 152.304 175.092 152.296ZM158.489 151.92C158.975 151.693 159.326 152.447 158.841 152.673C158.354 152.9 158.003 152.146 158.489 151.92ZM160.901 151.087C161.564 150.779 162.042 151.807 161.381 152.115C160.717 152.424 160.239 151.396 160.901 151.087ZM176.882 151.28C176.83 150.234 178.649 151.044 177.677 151.727C177.318 152.093 176.818 151.733 176.882 151.28ZM173.269 150.013C173.939 150.007 173.949 151.046 173.278 151.052C172.609 151.058 172.599 150.018 173.269 150.013ZM175.703 149.027C176.194 149.022 176.201 149.785 175.709 149.789C175.218 149.793 175.211 149.031 175.703 149.027Z" fill="#FF8333"/>
<path fill-rule="evenodd" clip-rule="evenodd" d="M174.481 147.379C171.422 147.379 169.115 144.999 169.115 141.844C169.115 138.697 171.573 136.136 174.596 136.136C177.734 136.136 180.192 138.544 180.192 141.618C180.192 144.741 177.576 147.379 174.481 147.379ZM157.411 149.573C154.344 149.573 151.754 146.608 151.754 143.099C151.754 139.869 154.468 137.241 157.804 137.241C160.979 137.241 163.561 140.066 163.561 143.538C163.561 146.809 160.744 149.573 157.411 149.573ZM174.596 134.824C171.716 134.824 169.256 136.686 168.268 139.304C167.049 139.214 164.868 139.498 163.918 139.723C162.693 137.457 160.412 135.929 157.804 135.929C153.744 135.929 150.44 139.145 150.44 143.099C150.44 147.393 153.567 150.886 157.411 150.886C161.456 150.886 164.875 147.521 164.875 143.538C164.875 142.623 164.724 141.746 164.448 140.933C165.261 140.771 167.019 140.587 167.916 140.588C167.844 140.996 167.801 141.414 167.801 141.844C167.801 145.684 170.735 148.692 174.481 148.692C178.289 148.692 181.506 145.452 181.506 141.618C181.506 137.808 178.47 134.824 174.596 134.824Z" fill="#FF8333"/>
<path fill-rule="evenodd" clip-rule="evenodd" d="M169.804 159.627C169.351 157.98 168.597 158.769 168.376 159.963C168.178 161.028 167.916 161.807 165.491 161.598C164.215 161.488 161.299 160.28 161.571 155.766C162.59 155.448 164.917 155.448 167.793 155.418C170.739 155.387 174.248 154.484 174.832 154.996C175.299 157.057 174.789 160.77 172.577 161.035C171.5 161.164 170.291 161.396 169.804 159.627ZM168.481 151.58C160.031 151.771 159.679 154.59 159.313 157.079C158.924 159.723 158.807 163.598 159.332 165.249C159.76 166.595 163.251 169.398 168.885 169.164C174.519 168.929 176.489 167.711 177.499 165.693C178.212 164.266 177.377 155.72 177.259 154.782C177.142 153.843 176.235 151.404 168.481 151.58Z" fill="#141414"/>
</svg>
