<svg width="550" height="359" viewBox="0 0 550 359" fill="none" xmlns="http://www.w3.org/2000/svg">
<path fill-rule="evenodd" clip-rule="evenodd" d="M161.704 50.1529H284.256V0.484497H161.704V50.1529Z" fill="white"/>
<path d="M284.257 0.00012207H161.705C161.437 0.00012207 161.22 0.216998 161.22 0.484529V50.1529C161.22 50.4204 161.437 50.6373 161.705 50.6373H284.257C284.525 50.6373 284.743 50.4204 284.743 50.1529V0.484529C284.743 0.216998 284.525 0.00012207 284.257 0.00012207ZM283.772 0.968693V49.6683H162.191V0.968693H283.772Z" fill="#141414"/>
<path fill-rule="evenodd" clip-rule="evenodd" d="M172.12 39.4732H201.721V10.1666H172.12V39.4732Z" fill="#FF4B33"/>
<path d="M238.482 33.0089C239.554 33.0089 240.424 33.8764 240.424 34.9465C240.424 35.9965 239.587 36.8514 238.542 36.8833L238.482 36.8842H209.424C208.351 36.8842 207.482 36.0167 207.482 34.9465C207.482 33.8966 208.319 33.0417 209.363 33.0098L209.424 33.0089H238.482ZM251.161 23.2484C252.233 23.2484 253.102 24.1159 253.102 25.186C253.102 26.236 252.266 27.0909 251.221 27.1227L251.161 27.1237H209.424C208.351 27.1237 207.482 26.2562 207.482 25.186C207.482 24.1361 208.319 23.2812 209.363 23.2493L209.424 23.2484H251.161ZM264.1 13.4879C265.173 13.4879 266.042 14.3554 266.042 15.4255C266.042 16.4755 265.205 17.3304 264.161 17.3622L264.1 17.3632H209.424C208.351 17.3632 207.482 16.4957 207.482 15.4255C207.482 14.3756 208.319 13.5207 209.363 13.4888L209.424 13.4879H264.1Z" fill="#D3E2F2"/>
<path fill-rule="evenodd" clip-rule="evenodd" d="M161.704 112.527H284.256V62.8583H161.704V112.527Z" fill="white"/>
<path d="M284.257 62.3738H161.705C161.437 62.3738 161.22 62.5907 161.22 62.8582V112.527C161.22 112.794 161.437 113.011 161.705 113.011H284.257C284.525 113.011 284.743 112.794 284.743 112.527V62.8582C284.743 62.5907 284.525 62.3738 284.257 62.3738ZM283.772 63.3424V112.042H162.191V63.3424H283.772Z" fill="#141414"/>
<path fill-rule="evenodd" clip-rule="evenodd" d="M172.12 101.847H201.721V72.5403H172.12V101.847Z" fill="#13D6C3"/>
<path d="M238.482 95.3826C239.554 95.3826 240.424 96.2501 240.424 97.3202C240.424 98.3701 239.587 99.225 238.542 99.2569L238.482 99.2578H209.424C208.351 99.2578 207.482 98.3903 207.482 97.3202C207.482 96.2703 208.319 95.4154 209.363 95.3835L209.424 95.3826H238.482ZM251.161 85.6221C252.233 85.6221 253.102 86.4896 253.102 87.5597C253.102 88.6096 252.266 89.4645 251.221 89.4964L251.161 89.4973H209.424C208.351 89.4973 207.482 88.6298 207.482 87.5597C207.482 86.5098 208.319 85.6549 209.363 85.623L209.424 85.6221H251.161ZM264.1 75.8616C265.173 75.8616 266.042 76.7291 266.042 77.7992C266.042 78.8491 265.205 79.704 264.161 79.7359L264.1 79.7368H209.424C208.351 79.7368 207.482 78.8693 207.482 77.7992C207.482 76.7493 208.319 75.8944 209.363 75.8625L209.424 75.8616H264.1Z" fill="#D3E2F2"/>
<g opacity="0.553">
<path fill-rule="evenodd" clip-rule="evenodd" d="M161.704 174.9H284.256V125.232H161.704V174.9Z" fill="white"/>
<path d="M284.257 124.747H161.705C161.437 124.747 161.22 124.964 161.22 125.232V174.9C161.22 175.168 161.437 175.385 161.705 175.385H284.257C284.525 175.385 284.743 175.168 284.743 174.9V125.232C284.743 124.964 284.525 124.747 284.257 124.747ZM283.772 125.716V174.416H162.191V125.716H283.772Z" fill="#141414"/>
<path fill-rule="evenodd" clip-rule="evenodd" d="M172.12 164.221H201.721V134.914H172.12V164.221Z" fill="#02BAD3"/>
<path d="M238.482 157.756C239.554 157.756 240.424 158.624 240.424 159.694C240.424 160.744 239.587 161.599 238.542 161.631L238.482 161.631H209.424C208.351 161.631 207.482 160.764 207.482 159.694C207.482 158.644 208.319 157.789 209.363 157.757L209.424 157.756H238.482ZM251.161 147.996C252.233 147.996 253.102 148.863 253.102 149.933C253.102 150.983 252.266 151.838 251.221 151.87L251.161 151.871H209.424C208.351 151.871 207.482 151.003 207.482 149.933C207.482 148.883 208.319 148.029 209.363 147.997L209.424 147.996H251.161ZM264.1 138.235C265.173 138.235 266.042 139.103 266.042 140.173C266.042 141.223 265.205 142.078 264.161 142.11L264.1 142.11H209.424C208.351 142.11 207.482 141.243 207.482 140.173C207.482 139.123 208.319 138.268 209.363 138.236L209.424 138.235H264.1Z" fill="#D3E2F2"/>
</g>
<g opacity="0.162">
<path fill-rule="evenodd" clip-rule="evenodd" d="M161.704 237.274H284.256V187.606H161.704V237.274Z" fill="white"/>
<path d="M284.257 187.121H161.705C161.437 187.121 161.22 187.338 161.22 187.606V237.274C161.22 237.542 161.437 237.759 161.705 237.759H284.257C284.525 237.759 284.743 237.542 284.743 237.274V187.606C284.743 187.338 284.525 187.121 284.257 187.121ZM283.772 188.09V236.789H162.191V188.09H283.772Z" fill="#141414"/>
<path fill-rule="evenodd" clip-rule="evenodd" d="M172.12 226.594H201.721V197.288H172.12V226.594Z" fill="#FFC81A"/>
<path d="M238.482 220.13C239.554 220.13 240.424 220.998 240.424 222.068C240.424 223.118 239.587 223.973 238.542 224.004L238.482 224.005H209.424C208.351 224.005 207.482 223.138 207.482 222.068C207.482 221.018 208.319 220.163 209.363 220.131L209.424 220.13H238.482ZM251.161 210.37C252.233 210.37 253.102 211.237 253.102 212.307C253.102 213.357 252.266 214.212 251.221 214.244L251.161 214.245H209.424C208.351 214.245 207.482 213.377 207.482 212.307C207.482 211.257 208.319 210.402 209.363 210.371L209.424 210.37H251.161ZM264.1 200.609C265.173 200.609 266.042 201.477 266.042 202.547C266.042 203.597 265.205 204.452 264.161 204.483L264.1 204.484H209.424C208.351 204.484 207.482 203.617 207.482 202.547C207.482 201.497 208.319 200.642 209.363 200.61L209.424 200.609H264.1Z" fill="#D3E2F2"/>
</g>
<path fill-rule="evenodd" clip-rule="evenodd" d="M312.656 50.1529H435.208V0.484497H312.656V50.1529Z" fill="white"/>
<path d="M435.209 0.00012207H312.657C312.389 0.00012207 312.172 0.216998 312.172 0.484529V50.1529C312.172 50.4204 312.389 50.6373 312.657 50.6373H435.209C435.477 50.6373 435.695 50.4204 435.695 50.1529V0.484529C435.695 0.216998 435.477 0.00012207 435.209 0.00012207ZM434.724 0.968693V49.6683H313.143V0.968693H434.724Z" fill="#141414"/>
<path fill-rule="evenodd" clip-rule="evenodd" d="M323.072 39.4732H352.673V10.1666H323.072V39.4732Z" fill="#FFC81A"/>
<path d="M389.434 33.0089C390.506 33.0089 391.376 33.8764 391.376 34.9465C391.376 35.9965 390.539 36.8514 389.494 36.8833L389.434 36.8842H360.376C359.303 36.8842 358.434 36.0167 358.434 34.9465C358.434 33.8966 359.271 33.0417 360.315 33.0098L360.376 33.0089H389.434ZM402.112 23.2484C403.185 23.2484 404.054 24.1159 404.054 25.186C404.054 26.236 403.217 27.0909 402.173 27.1227L402.112 27.1237H360.376C359.303 27.1237 358.434 26.2562 358.434 25.186C358.434 24.1361 359.271 23.2812 360.315 23.2493L360.376 23.2484H402.112ZM415.052 13.4879C416.124 13.4879 416.994 14.3554 416.994 15.4255C416.994 16.4755 416.157 17.3304 415.112 17.3622L415.052 17.3632H360.376C359.303 17.3632 358.434 16.4957 358.434 15.4255C358.434 14.3756 359.271 13.5207 360.315 13.4888L360.376 13.4879H415.052Z" fill="#D3E2F2"/>
<path fill-rule="evenodd" clip-rule="evenodd" d="M312.656 112.527H435.208V62.8583H312.656V112.527Z" fill="white"/>
<path d="M435.209 62.3738H312.657C312.389 62.3738 312.172 62.5907 312.172 62.8582V112.527C312.172 112.794 312.389 113.011 312.657 113.011H435.209C435.477 113.011 435.695 112.794 435.695 112.527V62.8582C435.695 62.5907 435.477 62.3738 435.209 62.3738ZM434.724 63.3424V112.042H313.143V63.3424H434.724Z" fill="#141414"/>
<path fill-rule="evenodd" clip-rule="evenodd" d="M323.072 101.847H352.673V72.5403H323.072V101.847Z" fill="#FFC81A"/>
<path d="M389.434 95.3826C390.506 95.3826 391.376 96.2501 391.376 97.3202C391.376 98.3701 390.539 99.225 389.494 99.2569L389.434 99.2578H360.376C359.303 99.2578 358.434 98.3903 358.434 97.3202C358.434 96.2703 359.271 95.4154 360.315 95.3835L360.376 95.3826H389.434ZM402.112 85.6221C403.185 85.6221 404.054 86.4896 404.054 87.5597C404.054 88.6096 403.217 89.4645 402.173 89.4964L402.112 89.4973H360.376C359.303 89.4973 358.434 88.6298 358.434 87.5597C358.434 86.5098 359.271 85.6549 360.315 85.623L360.376 85.6221H402.112ZM415.052 75.8616C416.124 75.8616 416.994 76.7291 416.994 77.7992C416.994 78.8491 416.157 79.704 415.112 79.7359L415.052 79.7368H360.376C359.303 79.7368 358.434 78.8693 358.434 77.7992C358.434 76.7493 359.271 75.8944 360.315 75.8625L360.376 75.8616H415.052Z" fill="#D3E2F2"/>
<g opacity="0.553">
<path fill-rule="evenodd" clip-rule="evenodd" d="M312.656 174.9H435.208V125.232H312.656V174.9Z" fill="white"/>
<path d="M435.209 124.747H312.657C312.389 124.747 312.172 124.964 312.172 125.232V174.9C312.172 175.168 312.389 175.385 312.657 175.385H435.209C435.477 175.385 435.695 175.168 435.695 174.9V125.232C435.695 124.964 435.477 124.747 435.209 124.747ZM434.724 125.716V174.416H313.143V125.716H434.724Z" fill="#141414"/>
<path fill-rule="evenodd" clip-rule="evenodd" d="M323.072 164.22H352.673V134.914H323.072V164.22Z" fill="#FFC81A"/>
<path d="M389.434 157.756C390.506 157.756 391.376 158.624 391.376 159.694C391.376 160.744 390.539 161.599 389.494 161.631L389.434 161.631H360.376C359.303 161.631 358.434 160.764 358.434 159.694C358.434 158.644 359.271 157.789 360.315 157.757L360.376 157.756H389.434ZM402.112 147.996C403.185 147.996 404.054 148.863 404.054 149.933C404.054 150.983 403.217 151.838 402.173 151.87L402.112 151.871H360.376C359.303 151.871 358.434 151.003 358.434 149.933C358.434 148.883 359.271 148.028 360.315 147.997L360.376 147.996H402.112ZM415.052 138.235C416.124 138.235 416.994 139.103 416.994 140.173C416.994 141.223 416.157 142.078 415.112 142.109L415.052 142.11H360.376C359.303 142.11 358.434 141.243 358.434 140.173C358.434 139.123 359.271 138.268 360.315 138.236L360.376 138.235H415.052Z" fill="#D3E2F2"/>
</g>
<g opacity="0.162">
<path fill-rule="evenodd" clip-rule="evenodd" d="M312.656 237.274H435.208V187.606H312.656V237.274Z" fill="white"/>
<path d="M435.209 187.121H312.657C312.389 187.121 312.172 187.338 312.172 187.606V237.274C312.172 237.542 312.389 237.759 312.657 237.759H435.209C435.477 237.759 435.695 237.542 435.695 237.274V187.606C435.695 187.338 435.477 187.121 435.209 187.121ZM434.724 188.09V236.789H313.143V188.09H434.724Z" fill="#141414"/>
<path fill-rule="evenodd" clip-rule="evenodd" d="M323.072 226.594H352.673V197.288H323.072V226.594Z" fill="#FFC81A"/>
<path d="M389.434 220.13C390.506 220.13 391.376 220.998 391.376 222.068C391.376 223.118 390.539 223.973 389.494 224.004L389.434 224.005H360.376C359.303 224.005 358.434 223.138 358.434 222.068C358.434 221.018 359.271 220.163 360.315 220.131L360.376 220.13H389.434ZM402.112 210.37C403.185 210.37 404.054 211.237 404.054 212.307C404.054 213.357 403.217 214.212 402.173 214.244L402.112 214.245H360.376C359.303 214.245 358.434 213.377 358.434 212.307C358.434 211.257 359.271 210.402 360.315 210.371L360.376 210.37H402.112ZM415.052 200.609C416.124 200.609 416.994 201.477 416.994 202.547C416.994 203.597 416.157 204.452 415.112 204.483L415.052 204.484H360.376C359.303 204.484 358.434 203.617 358.434 202.547C358.434 201.497 359.271 200.642 360.315 200.61L360.376 200.609H415.052Z" fill="#D3E2F2"/>
</g>
<path fill-rule="evenodd" clip-rule="evenodd" d="M50.0738 298.429C50.0738 298.429 34.5829 274.654 49.3625 253.061C59.8749 237.702 72.0214 235.845 74.4375 234.521C88.9119 226.592 79.4651 276.836 50.0738 298.429Z" fill="#FF4B33"/>
<path fill-rule="evenodd" clip-rule="evenodd" d="M48.8596 325.069C48.6858 325.069 48.5157 324.986 48.4121 324.831C48.0285 324.258 47.8856 314.678 49.3766 302.431C50.7773 290.926 54.0088 273.916 61.4479 258.215C61.575 257.947 61.8949 257.834 62.1632 257.959C62.4313 258.086 62.5462 258.405 62.4194 258.672C55.1335 274.049 51.9237 290.713 50.5144 301.984C48.9227 314.711 49.1977 323.568 49.3559 324.33C49.4518 324.562 49.3739 324.835 49.1569 324.979C49.0653 325.04 48.9619 325.069 48.8596 325.069Z" fill="#141414"/>
<path fill-rule="evenodd" clip-rule="evenodd" d="M15.8247 264.93C18.9332 264.533 25.7024 266.81 32.387 276.576C41.7849 290.307 39.5499 307.17 32.2102 308.796L32.3831 308.755C33.9098 318.587 33.2483 324.393 32.9559 324.831C32.8525 324.986 32.6822 325.069 32.5084 325.069C32.4061 325.069 32.3027 325.04 32.2111 324.979C31.9903 324.833 31.9135 324.551 32.0174 324.318C32.1447 323.831 32.6819 319.106 31.6239 311.013C31.5391 310.364 31.442 309.68 31.331 308.961L31.3294 308.965C10.4696 312.301 8.62903 265.85 15.8247 264.93Z" fill="#141414"/>
<path fill-rule="evenodd" clip-rule="evenodd" d="M92.4222 308.796C85.0825 307.17 82.8475 290.307 92.2455 276.576C98.9301 266.81 105.699 264.533 108.808 264.93C116.103 265.863 114.11 313.601 92.4222 308.796Z" fill="#FF4B33"/>
<path fill-rule="evenodd" clip-rule="evenodd" d="M93.2223 325.069C93.3246 325.069 93.428 325.04 93.5196 324.979C93.7404 324.833 93.8172 324.551 93.7132 324.318C93.5859 323.831 93.0487 319.106 94.1067 311.013C95.0619 303.708 97.57 291.912 104.097 277.198C104.217 276.927 104.095 276.611 103.823 276.492C103.553 276.372 103.235 276.494 103.115 276.765C90.4702 305.27 92.24 324.031 92.7748 324.831C92.8782 324.986 93.0485 325.069 93.2223 325.069Z" fill="#141414"/>
<path fill-rule="evenodd" clip-rule="evenodd" d="M512.537 255.969C512.537 255.969 509.597 240.761 520.345 236.096C531.094 231.431 532.777 224.447 539.431 222.688C545.908 220.975 555.604 232.512 542.493 244.942C529.383 257.372 524.179 262.38 512.537 255.969Z" fill="#FF4B33"/>
<path fill-rule="evenodd" clip-rule="evenodd" d="M499.693 286.497C499.661 286.497 499.628 286.495 499.596 286.489C499.304 286.436 499.11 286.157 499.163 285.866C504.708 255.568 527.432 240.272 534.899 235.246C536.027 234.486 536.918 233.887 537.216 233.59C537.426 233.381 537.766 233.381 537.976 233.59C538.186 233.799 538.186 234.138 537.976 234.347C537.605 234.716 536.768 235.28 535.501 236.133C528.126 241.097 505.684 256.203 500.221 286.058C500.173 286.317 499.947 286.497 499.693 286.497Z" fill="#141414"/>
<path fill-rule="evenodd" clip-rule="evenodd" d="M486.282 197.662C481.017 198.986 478.651 206.626 483.515 215.538C486.033 220.152 484.28 222.698 483.792 225.72C482.201 235.572 485.804 236.961 486.208 239.62C486.611 242.278 484.592 247.985 484.919 251.444C485.601 258.642 492.33 266.358 501.272 259.457C508.958 253.525 508.805 240.35 505.904 237.549C503.004 234.747 502.277 235.52 504.542 229.443C506.314 224.689 505.32 218.461 501.953 215.59C499.208 213.249 497.592 214.367 497.712 208.23C497.822 202.58 494.463 195.605 486.282 197.662Z" fill="#FF4B33"/>
<path fill-rule="evenodd" clip-rule="evenodd" d="M493.779 282.492C493.761 282.492 493.743 282.492 493.726 282.49C493.431 282.461 493.215 282.199 493.244 281.905C498.168 231.793 489.694 207.985 489.608 207.751C489.506 207.473 489.65 207.165 489.928 207.064C490.206 206.962 490.515 207.105 490.617 207.382C490.706 207.626 492.82 213.474 494.351 225.64C495.76 236.841 496.897 255.712 494.313 282.009C494.286 282.286 494.052 282.492 493.779 282.492Z" fill="#141414"/>
<path fill-rule="evenodd" clip-rule="evenodd" d="M449.614 223.528C446.797 226.444 448.22 234.472 454.017 236.504C457.735 237.807 457.343 240.748 458.233 242.859C461.132 249.741 463.971 249.203 465.283 250.731C466.594 252.26 466.257 257.415 467.525 259.685C470.17 264.423 478.808 266.067 481.747 258.161C484.274 251.365 482.699 244.195 476.966 241.653C474.219 240.436 473.374 241.365 472.642 236.571C471.91 231.777 469.375 228.596 466.099 228.1C463.427 227.696 463.167 229.218 460.13 226.268C457.093 223.318 453.991 218.997 449.614 223.528Z" fill="#FF4B33"/>
<path fill-rule="evenodd" clip-rule="evenodd" d="M483.867 279.842C483.616 279.842 483.393 279.668 483.341 279.414C483.285 279.143 477.58 252.133 457.211 231.527C457.002 231.317 457.005 230.978 457.216 230.77C457.428 230.563 457.768 230.565 457.976 230.776C468.742 241.668 475.35 254.248 478.998 262.884C482.951 272.243 484.38 279.132 484.394 279.2C484.453 279.49 484.265 279.773 483.974 279.832C483.938 279.839 483.902 279.842 483.867 279.842Z" fill="#141414"/>
<path fill-rule="evenodd" clip-rule="evenodd" d="M523.628 275.924H462.627V286.131H467.051L473.849 332.92H512.407L519.205 286.131H523.628V275.924Z" fill="white"/>
<path fill-rule="evenodd" clip-rule="evenodd" d="M463.164 285.596H523.09V276.46H463.164V285.596ZM511.941 332.385H474.313L467.67 286.666H518.584L511.941 332.385ZM523.627 275.389H462.626C462.33 275.389 462.089 275.628 462.089 275.924V286.131C462.089 286.427 462.33 286.666 462.626 286.666H466.585L473.316 332.997C473.354 333.26 473.581 333.456 473.848 333.456H512.406C512.673 333.456 512.899 333.26 512.938 332.997L519.669 286.666H523.627C523.924 286.666 524.164 286.427 524.164 286.131V275.924C524.164 275.628 523.924 275.389 523.627 275.389Z" fill="#141414"/>
<path d="M1 325.234H548.939" stroke="#141414" stroke-width="1.86401" stroke-linecap="round"/>
<path fill-rule="evenodd" clip-rule="evenodd" d="M456.482 323.627L453.723 349.27L440.203 348.451L437.685 324L456.482 323.627Z" fill="white"/>
<path fill-rule="evenodd" clip-rule="evenodd" d="M438.447 325.825L440.718 347.875L453.216 348.632L455.671 325.822C455.704 325.516 455.948 325.285 456.238 325.285C456.579 325.285 456.844 325.6 456.806 325.96L454.29 349.339C454.257 349.647 454.011 349.876 453.723 349.876C453.712 349.876 453.701 349.876 453.69 349.875L440.171 349.056C439.892 349.039 439.666 348.811 439.635 348.517L437.311 325.957C437.275 325.598 437.539 325.285 437.879 325.285C438.171 325.285 438.416 325.518 438.447 325.825Z" fill="#141414"/>
<path fill-rule="evenodd" clip-rule="evenodd" d="M426.225 313.723L425.17 347.048L409.824 348.368L403.025 323.291L426.225 313.723Z" fill="white"/>
<path fill-rule="evenodd" clip-rule="evenodd" d="M404.007 324.726L410.245 347.729L424.616 346.493L425.585 317.503C425.597 317.124 425.936 316.852 426.287 316.939C426.552 317.005 426.736 317.259 426.727 317.546L425.741 347.068C425.731 347.373 425.505 347.622 425.216 347.647L409.87 348.967C409.855 348.969 409.839 348.97 409.823 348.97C409.571 348.97 409.345 348.793 409.275 348.533L402.909 325.056C402.808 324.683 403.063 324.309 403.431 324.29C403.696 324.277 403.935 324.458 404.007 324.726Z" fill="#141414"/>
<path fill-rule="evenodd" clip-rule="evenodd" d="M427.04 344.904C426.971 344.618 426.702 344.436 426.425 344.488C426.161 344.538 425.826 344.605 425.433 344.685C423.02 345.173 418.001 346.187 413.243 346.191H413.231C410.429 346.191 409.6 345.03 407.927 343.568C407.794 343.451 407.616 343.41 407.448 343.455C399.283 345.687 391.748 347.656 387.377 350.718C386.608 351.256 383.837 353.605 384.317 355.266C384.538 356.035 385.328 356.424 386.662 356.424C391.536 356.424 402.036 356.452 411.299 356.478C418.795 356.498 425.268 356.516 427.706 356.516C427.963 356.516 428.196 356.394 428.36 356.171C429.32 354.875 427.757 347.86 427.04 344.904Z" fill="#9D78FC"/>
<path fill-rule="evenodd" clip-rule="evenodd" d="M427.607 359H385.482C384.781 359 384.214 358.404 384.214 357.669V357.229C384.214 356.494 384.781 355.898 385.482 355.898H427.607C428.307 355.898 428.875 356.494 428.875 357.229V357.669C428.875 358.404 428.307 359 427.607 359Z" fill="#141414"/>
<path fill-rule="evenodd" clip-rule="evenodd" d="M397.446 349.126C397.232 349.126 397.027 349 396.93 348.784C396.033 346.807 394.311 347.291 394.118 347.353C393.817 347.449 393.498 347.273 393.405 346.958C393.311 346.642 393.476 346.308 393.776 346.208C394.752 345.883 396.885 345.895 397.961 348.268C398.096 348.567 397.976 348.925 397.691 349.067C397.612 349.107 397.528 349.126 397.446 349.126Z" fill="#141414"/>
<path fill-rule="evenodd" clip-rule="evenodd" d="M402.49 347.681C402.276 347.681 402.071 347.555 401.974 347.339C401.077 345.363 399.355 345.846 399.162 345.909C398.861 346.005 398.542 345.828 398.449 345.513C398.355 345.198 398.521 344.864 398.82 344.764C399.798 344.439 401.929 344.451 403.005 346.824C403.14 347.123 403.02 347.48 402.735 347.623C402.656 347.663 402.572 347.681 402.49 347.681Z" fill="#141414"/>
<path fill-rule="evenodd" clip-rule="evenodd" d="M454.867 343.042C454.867 343.042 462.784 350.184 459.017 355.645C454.026 357.115 442.098 358.48 436.801 355.836C433.089 353.983 438.96 342.902 438.96 342.902C444.937 343.529 449.301 343.23 454.867 343.042Z" fill="#9D78FC"/>
<path fill-rule="evenodd" clip-rule="evenodd" d="M435.252 356.901C435.308 357.973 436.392 358.639 437.543 358.639H458.044C459.255 358.639 460.069 357.5 459.855 356.277C459.641 355.054 459.286 355.159 458.48 355.159L437.543 355.275C436.683 355.275 435.191 355.715 435.252 356.901Z" fill="#141414"/>
<path fill-rule="evenodd" clip-rule="evenodd" d="M453.633 351.091C453.838 351.091 454.033 350.968 454.123 350.76C454.246 350.477 454.127 350.143 453.857 350.014C453.642 349.911 448.534 347.513 442.834 349.255C442.549 349.342 442.386 349.655 442.469 349.955C442.552 350.253 442.85 350.426 443.134 350.338C448.44 348.718 453.362 351.017 453.412 351.04C453.484 351.074 453.559 351.091 453.633 351.091Z" fill="#141414"/>
<path fill-rule="evenodd" clip-rule="evenodd" d="M451.992 347.351C452.201 347.351 452.4 347.222 452.487 347.007C452.603 346.721 452.476 346.39 452.203 346.268C452.032 346.192 447.977 344.422 444.417 346.213C444.15 346.348 444.037 346.685 444.165 346.966C444.293 347.247 444.614 347.366 444.882 347.231C447.997 345.662 451.746 347.29 451.783 347.307C451.851 347.337 451.922 347.351 451.992 347.351Z" fill="#141414"/>
<path fill-rule="evenodd" clip-rule="evenodd" d="M477.609 228.338C471.195 287.725 472.995 330.953 472.995 330.953C460.045 333.093 447.336 333.101 435.06 329.299L432.099 204.283L416.789 242.828C416.789 242.828 434.492 309.042 431.42 314.598C428.349 320.154 401.515 331.615 394.304 327.315C391.321 325.535 375.219 270.691 375.962 238.86C376.351 222.21 404.417 176.234 406.313 164.038C415.341 162.927 464.519 164.038 464.519 164.038C464.519 164.038 482.901 179.348 477.609 228.338Z" fill="#141414"/>
<path fill-rule="evenodd" clip-rule="evenodd" d="M433.277 171.805C432.125 172.652 429.557 174.305 425.273 175.877C423.74 176.44 422.922 176.354 422.687 176.109C422.529 175.944 422.604 175.604 422.663 175.416C423.127 173.94 425.63 171.622 429.126 171.109C430.373 170.926 431.798 171.226 433.277 171.805ZM437.468 170.637C438.27 170.637 439.205 171.115 439.985 171.514C443.209 173.165 445.855 176.761 446.098 178.492C445.447 178.23 443.986 177.171 442.675 176.222C440.538 174.673 437.977 172.817 435.409 171.522C435.867 171.174 436.376 170.909 436.948 170.716C437.112 170.661 437.287 170.637 437.468 170.637ZM438.483 184.321C438.547 184.321 438.613 184.308 438.677 184.282C438.953 184.169 439.091 183.84 438.983 183.548C437.696 180.053 435.876 174.961 435.177 172.675C437.646 173.952 440.122 175.747 442.067 177.156C444.987 179.273 446.034 179.984 446.756 179.583C446.918 179.493 447.19 179.263 447.19 178.735C447.19 176.362 443.791 172.202 440.454 170.494C439.326 169.917 437.922 169.199 436.622 169.636C435.721 169.939 434.959 170.398 434.307 171.003C432.45 170.194 430.62 169.744 428.978 169.986C425.21 170.539 422.29 173 421.643 175.06C421.323 176.08 421.687 176.661 421.933 176.917C422.587 177.597 423.829 177.607 425.626 176.948C428.713 175.815 430.929 174.649 432.4 173.742C431.294 176.107 430.652 179.328 429.977 183.242C429.924 183.55 430.117 183.845 430.409 183.902C430.699 183.957 430.981 183.754 431.034 183.446C431.921 178.302 432.73 174.935 434.123 172.901C435.023 175.904 437.636 183.02 437.982 183.959C438.064 184.183 438.267 184.32 438.483 184.321Z" fill="white"/>
<path fill-rule="evenodd" clip-rule="evenodd" d="M392.577 180.92C391.253 185.215 386.993 200.086 388.042 204.507C389.367 210.09 390.016 213.995 388.135 214.61C386.038 215.296 384.755 212.372 383.876 211.901C383.552 211.727 383.067 212.437 381.834 213.96C379.325 217.06 377.031 219.334 375.357 218.27C374.11 217.478 375.1 215.822 375.1 215.822C375.1 215.822 372.717 219.13 370.66 218.292C369.676 217.89 369.049 217.177 370.457 214.952C369.354 216.604 367.331 217.273 366.402 216.013C366.121 215.632 365.624 214.801 366.93 212.46C365.315 214.007 363.994 211.518 364.559 209.762C365.875 205.667 369.139 203.525 371.775 199.475C374.175 195.789 377.152 178.506 377.152 178.506" fill="white"/>
<path fill-rule="evenodd" clip-rule="evenodd" d="M364.258 209.605C365.528 205.211 369.791 202.627 371.834 198.719C373.663 195.219 375.685 183.225 376.589 178.41C376.712 177.697 377.839 177.857 377.715 178.603C376.548 185.103 375.412 191.619 373.228 197.879C372.672 199.498 371.604 200.895 370.534 202.204C368.553 204.647 366.195 206.767 365.165 209.771C364.709 210.611 365.192 213.165 366.478 212.163C367.049 211.4 370.645 206.397 371.54 207.603C371.661 207.82 371.582 208.094 371.365 208.214C369.671 209.331 368.501 211.225 367.312 212.843C365.331 216.005 367.9 217.51 370.043 214.679C370.531 214.07 373.96 208.822 374.617 209.792C374.779 209.966 374.767 210.239 374.59 210.399C373.149 211.814 371.998 213.552 370.872 215.224C370.526 215.773 370.123 216.477 370.131 217.093C370.135 217.412 370.399 217.635 370.706 217.774C371.554 218.187 372.399 217.718 373.164 217.129C374.237 216.583 377.919 210.796 378.724 211.731C378.89 211.906 378.878 212.183 378.7 212.344C377.523 213.469 376.483 214.832 375.497 216.141C375.168 216.777 375.037 217.621 375.775 217.919C377.581 218.518 379.735 215.523 380.858 214.308C381.376 213.687 381.938 212.965 382.451 212.329C382.844 211.884 383.399 211.04 384.159 211.434C385.328 212.21 385.961 213.962 387.424 214.145C388.426 214.206 388.672 213.311 388.689 212.391C388.684 209.791 387.855 207.21 387.267 204.68C386.968 203.318 387.073 201.912 387.198 200.625C388.02 193.817 389.942 187.249 392.031 180.753C392.247 180.088 393.329 180.363 393.123 181.088C391.391 187.56 389.176 194.032 388.408 200.688C388.289 202.07 388.27 203.532 388.591 204.809C388.97 207.16 391.413 214.376 388.165 215.186C386.177 215.743 384.883 213.724 383.76 212.5C381.758 214.581 379.472 218.556 376.421 219.033C375.467 219.095 374.42 218.483 374.267 217.489C373.455 218.221 372.511 218.91 371.343 218.919C370.212 218.925 368.94 218.021 369.162 216.783C366.711 218.103 364.948 215.722 365.885 213.468C364.061 213.167 363.896 211.02 364.258 209.605Z" fill="#141414"/>
<path fill-rule="evenodd" clip-rule="evenodd" d="M524.43 83.771C526.085 82.8873 526.572 86.6677 524.688 89.5934C527.158 87.6178 533.089 82.8024 535.134 83.9519C537.2 85.1135 534.127 88.4396 534.127 88.4396C536.236 87.4764 538.759 86.1128 539.372 87.7532C540.032 89.5211 536.441 91.6713 536.441 91.6713C539.11 90.8243 539.897 91.0582 540.248 92.1381C540.811 93.8675 537.232 95.6118 537.232 95.6118C538.921 95.4174 540.329 97.1706 536.196 99.8808C531.637 102.87 522.188 109.448 514.681 118.859C513.609 120.203 501.169 117.347 493.502 110.582C508.515 100.095 522.288 84.9143 524.43 83.771Z" fill="white"/>
<path fill-rule="evenodd" clip-rule="evenodd" d="M496.729 107.53C507.449 99.5684 517.713 88.9528 524.16 83.2688C526.563 82.3958 526.806 85.4123 526.165 87.7024C530.021 84.7269 533.619 82.4459 535.414 83.4562C536.8 84.2036 536.536 85.8486 535.836 87.0388C539.303 85.2013 541.559 87.8788 538.754 90.5922C539.771 90.558 540.455 90.9309 540.791 91.9626C541.245 93.3586 539.871 94.62 538.747 95.3832C540.049 96.5292 539.875 98.0233 536.509 100.356C528.365 105.696 521.587 111.535 516.362 117.712C510.818 118.781 533.025 100.558 535.881 99.4054C538.361 97.7414 539.181 96.2109 537.36 96.1735L533.766 97.6279C533.296 97.8252 532.97 97.108 533.428 96.8858C533.432 96.8831 536.976 95.1037 536.98 95.1005C538.002 94.6007 540.013 93.2622 539.704 92.3138C539.549 91.8354 539.387 91.3415 536.669 92.1963L531.919 94.8925C531.431 95.1787 530.978 94.4241 531.461 94.1301C533.056 92.8478 539.126 90.2346 538.836 87.9522C538.19 86.8056 535.772 88.4239 534.391 88.9448L529.748 91.6601C529.549 91.776 529.29 91.7179 529.163 91.5235C529.03 91.3228 529.087 91.0532 529.288 90.9215L533.75 88.0054C534.462 87.0974 536.03 85.2728 534.853 84.4477C533.193 83.5148 527.195 88.3165 525.224 89.8943C524.914 90.3417 524.67 91.0486 524.697 91.5856C525.284 93.6932 525.046 96.511 523.107 97.8664C522.805 98.0706 522.458 97.6121 522.752 97.3819C522.859 97.2957 523 97.2263 523.046 97.0992C523.102 96.9463 524.811 94.7592 523.963 92.7276C523.737 92.1874 523.403 91.5822 523.555 91.0117C523.658 90.3829 523.894 89.8333 524.207 89.2861C525.516 87.3375 525.717 84.0523 524.7 84.2727C518.385 90.0306 508.109 100.444 497.419 108.437C496.85 108.886 496.121 107.972 496.729 107.53Z" fill="#141414"/>
<path fill-rule="evenodd" clip-rule="evenodd" d="M417.961 90.2945C418.061 90.7298 418.206 91.1903 418.42 91.6614C418.51 91.859 418.705 91.976 418.91 91.976C418.984 91.976 419.059 91.9604 419.131 91.928C419.401 91.806 419.521 91.4888 419.399 91.2194C419.065 90.486 418.924 89.7749 418.872 89.1841C418.706 78.6291 454.828 75.7318 455.96 90.619C455.797 91.2652 455.523 92.014 455.062 92.5352C454.867 92.7571 454.888 93.0955 455.111 93.2909C455.213 93.3803 455.339 93.4242 455.466 93.4242C455.615 93.4242 455.763 93.3629 455.869 93.2427C456.281 92.7758 456.571 92.1912 456.777 91.6183C460.303 92.426 464.941 93.9802 468.227 96.3499C475.647 101.701 482.626 111.142 484.679 114.04C483.954 114.703 483.249 115.384 482.574 116.091C481.789 116.909 481.035 117.744 480.306 118.621C480.177 118.777 480.198 119.007 480.354 119.136C480.505 119.26 480.726 119.244 480.858 119.102L480.863 119.096C481.611 118.284 482.403 117.491 483.211 116.729C483.881 116.096 485.285 114.911 485.285 114.911L509.404 96.9193L527.051 116.503C527.051 116.503 498.42 144.676 485.231 145.427C478.745 145.796 472.231 139.79 466.962 135.537C468.581 154.085 468.173 168.572 468.173 168.572L405.029 168.238C405.029 168.238 408.035 149.596 409.434 131.677C409.543 130.273 405.941 145.191 405.941 145.191L395.853 193.373L371.278 186.332C371.278 186.332 385.483 128.131 387.339 121.702C395.049 94.9999 413.529 91.9998 413.589 91.8571C413.589 91.8571 415.921 90.8637 417.961 90.2945Z" fill="#9D78FC"/>
<path fill-rule="evenodd" clip-rule="evenodd" d="M443.474 73.0688C443.474 73.0688 443.496 82.1039 443.496 86.68C443.496 90.0474 446.416 89.2392 450.53 90.6133C449.577 95.366 446.731 98.4646 434.529 98.6434C426.812 98.7567 423.748 96.3814 422.264 91.4501C426.443 89.4785 429.118 90.0474 429.118 86.68C429.118 82.1039 429.14 73.0688 429.14 73.0688" fill="white"/>
<path fill-rule="evenodd" clip-rule="evenodd" d="M422.156 91.224C423.019 90.8075 423.912 90.4544 424.812 90.1417C425.705 89.8224 426.628 89.5622 427.417 89.1529C427.804 88.9433 428.142 88.6865 428.366 88.3549C428.591 88.0221 428.681 87.605 428.733 87.1797C428.737 86.9545 428.758 86.753 428.751 86.5099L428.743 85.8024L428.727 84.3873L428.603 73.0677C428.603 73.0639 428.603 73.057 428.603 73.0532C428.607 72.7577 428.852 72.5216 429.148 72.5263C429.445 72.5309 429.682 72.7745 429.677 73.0704L429.515 84.3876L429.495 85.8024L429.485 86.5099C429.487 86.7385 429.459 87.0073 429.446 87.2533C429.372 87.7563 429.248 88.2845 428.928 88.7369C428.61 89.1855 428.161 89.4963 427.714 89.7228C426.807 90.1613 425.887 90.3867 424.995 90.683C424.099 90.9692 423.222 91.2912 422.371 91.6759L422.369 91.6767C422.245 91.7324 422.099 91.6802 422.04 91.5581C421.98 91.4337 422.032 91.2843 422.156 91.224Z" fill="#141414"/>
<path fill-rule="evenodd" clip-rule="evenodd" d="M443.468 72.5387C443.764 72.5355 444.008 72.7724 444.011 73.0682C444.053 76.8133 444.06 80.5587 444.041 84.3038L444.036 85.7084C444.039 86.1667 444.022 86.6734 444.046 87.0656C444.074 87.4765 444.171 87.8505 444.369 88.1324C444.559 88.4194 444.873 88.6292 445.256 88.7917C446.032 89.1082 446.973 89.2723 447.89 89.4821C448.814 89.688 449.745 89.9378 450.644 90.274C450.818 90.3401 450.916 90.5304 450.863 90.7114C450.806 90.9015 450.606 91.0099 450.415 90.9537C449.532 90.6951 448.632 90.5098 447.714 90.3473C447.256 90.2643 446.792 90.1891 446.321 90.097C445.85 90.0044 445.368 89.9008 444.88 89.7094C444.636 89.6117 444.391 89.4928 444.156 89.3333C443.921 89.1743 443.703 88.966 443.53 88.7272C443.176 88.244 443.035 87.6752 442.986 87.1588C442.958 86.8959 442.959 86.636 442.957 86.4106L442.952 85.7087L442.943 84.3043C442.912 80.5597 442.907 76.8154 442.936 73.0706C442.939 72.7799 443.175 72.5419 443.468 72.5387Z" fill="#141414"/>
<path fill-rule="evenodd" clip-rule="evenodd" d="M426.994 104.317C426.994 103.127 427.962 102.163 429.156 102.163C430.349 102.163 431.317 103.127 431.317 104.317C431.317 105.321 430.626 106.163 429.693 106.401V115.8C429.693 116.096 429.452 116.335 429.156 116.335C428.859 116.335 428.618 116.096 428.618 115.8V106.401C427.685 106.163 426.994 105.321 426.994 104.317Z" fill="white"/>
<path fill-rule="evenodd" clip-rule="evenodd" d="M440.247 104.06C440.247 102.871 441.214 101.907 442.408 101.907C443.601 101.907 444.569 102.871 444.569 104.06C444.569 105.065 443.878 105.906 442.945 106.144V122.248C442.945 122.544 442.704 122.784 442.408 122.784C442.111 122.784 441.87 122.544 441.87 122.248V106.144C440.937 105.906 440.247 105.065 440.247 104.06Z" fill="white"/>
<path fill-rule="evenodd" clip-rule="evenodd" d="M423.477 62.9379C423.657 50.0672 436.61 49.031 442.706 50.4233C447.714 51.5671 453.176 55.8701 452.604 64.251C455.612 63.9849 457.191 65.4074 457.191 67.4275C457.191 69.4481 456.705 71.4023 452.979 71.4023C452.618 77.558 448.661 88.6546 433.227 86.6769C425.354 85.6682 423.33 73.4504 423.477 62.9379Z" fill="white"/>
<path fill-rule="evenodd" clip-rule="evenodd" d="M440.442 42.459C436.753 39.2103 434.033 38.9653 429.172 40.5453C419.407 43.7188 419.463 51.1006 421.615 59.0258C422.694 63.0014 416.91 69.6077 423.874 75.9176C423.978 76.0116 424.086 76.1141 424.197 76.2222C425.503 81.683 428.099 86.5594 433.158 87.2078C434.397 87.3665 435.588 87.446 436.728 87.446C441.129 87.446 444.783 86.2647 447.623 83.9178C448.207 83.4354 448.733 82.9219 449.207 82.3881C451.736 81.5452 453.946 79.9639 455.458 77.183C456.492 75.2821 457.349 74.8455 458.158 74.4718C460.811 76.6275 459.166 82.8175 464.059 85.3839C465.744 86.2682 470.678 86.6472 471.1 81.6953C473.169 83.2606 475.479 82.59 477.498 80.9626C479.518 79.335 480.223 76.2833 479.12 73.9396C478.018 71.5959 475.213 70.184 472.666 70.6905C473.785 69.0602 473.311 66.6416 471.825 65.3347C470.339 64.028 468.084 63.7949 466.231 64.4954C464.853 65.0164 462.888 65.483 461.59 66.4063C461.127 63.6128 459.704 61.0004 459.575 58.5533C459.561 58.2899 459.525 58.0386 459.48 57.792C459.302 54.8433 458.952 50.0922 455.885 46.0366C451.544 40.2958 444.064 41.3007 440.442 42.459ZM437.532 50.5055C438.375 58.8497 448.481 65.0509 452.651 64.799C452.985 64.8054 453.306 64.7896 453.62 64.7639C454.584 64.8116 455.36 65.0809 455.889 65.5633C456.389 66.02 456.654 66.6646 456.654 67.4275C456.654 69.1678 456.37 70.8667 452.979 70.8667C452.694 70.8667 452.459 71.0878 452.443 71.371C452.339 73.1394 451.635 79.2111 446.937 83.0935C443.6 85.8511 439.01 86.8782 433.295 86.1458C429.943 85.7164 427.44 83.0448 425.855 78.2051C424.227 73.2318 423.955 67.1617 424.014 62.9455C424.071 58.8093 425.49 55.6244 428.231 53.4794C430.769 51.4925 434.26 50.623 437.532 50.5055ZM453.961 66.7027C452.65 66.5734 452.959 67.5882 453.524 67.9298C453.828 68.1137 454.334 67.8388 454.413 67.6808C454.64 67.2292 454.229 66.7292 453.961 66.7027Z" fill="#141414"/>
<path fill-rule="evenodd" clip-rule="evenodd" d="M457.993 74.5187C459.837 74.009 461.034 72.0227 461.487 69.9601C461.961 68.4324 461.713 66.9731 461.446 65.7404C465.766 63.3091 464.41 71.996 463.275 73.8565C462.565 76.6898 457.422 78.8466 457.993 74.5187Z" fill="#9D78FC"/>
<path fill-rule="evenodd" clip-rule="evenodd" d="M435.352 77.7385C434.189 77.5706 433.156 78.0472 433.047 78.8029C432.937 79.5583 433.791 80.3068 434.955 80.4746C436.119 80.6425 437.151 80.1657 437.261 79.4103C437.37 78.6548 436.516 77.9061 435.352 77.7385ZM435.093 70.4718C434.931 70.486 434.805 70.6143 434.791 70.7703C434.746 71.2348 434.701 71.699 434.634 72.1372C434.617 72.2459 434.598 72.3524 434.574 72.4499C434.565 72.494 434.55 72.542 434.537 72.5797C434.49 72.6038 434.444 72.6276 434.398 72.656C434.274 72.7312 434.153 72.8222 434.039 72.9325C433.813 73.1443 433.613 73.4706 433.591 73.8467C433.566 74.2234 433.734 74.5783 433.961 74.8118C434.191 75.0506 434.476 75.1959 434.764 75.2706C434.908 75.3092 435.053 75.3266 435.197 75.3333C435.34 75.3338 435.486 75.3536 435.616 75.2655C435.788 75.1491 435.833 74.9156 435.716 74.7443C435.688 74.7031 435.653 74.6694 435.614 74.6434L435.543 74.5963C435.438 74.5272 435.349 74.5617 435.257 74.5401C435.166 74.5275 435.077 74.5095 434.996 74.479C434.833 74.4231 434.691 74.3326 434.601 74.2247C434.508 74.1174 434.475 74.0052 434.487 73.9104C434.499 73.8157 434.555 73.7081 434.675 73.6063C434.733 73.5552 434.803 73.5073 434.882 73.4642C434.921 73.4412 434.961 73.4197 435.005 73.4002L435.036 73.3847L435.06 73.3729C435.098 73.3539 435.137 73.3301 435.169 73.3052C435.279 73.2115 435.309 73.1443 435.344 73.084C435.444 72.8702 435.447 72.7454 435.471 72.6062C435.487 72.4726 435.496 72.346 435.502 72.2213C435.522 71.7249 435.495 71.2492 435.453 70.773C435.437 70.5907 435.276 70.4558 435.093 70.4718ZM443.619 69.2211C443.509 68.4656 442.865 67.9332 442.179 68.0319C441.494 68.1307 441.028 68.8235 441.137 69.579C441.247 70.3344 441.891 70.8669 442.577 70.7681C443.262 70.6693 443.728 69.9768 443.619 69.2211ZM430.132 67.5699C429.447 67.4711 428.803 68.0036 428.693 68.759C428.583 69.5147 429.05 70.2073 429.735 70.306C430.42 70.4048 431.064 69.8724 431.174 69.1169C431.284 68.3612 430.817 67.6687 430.132 67.5699ZM442.357 62.8823C441.912 62.8804 441.549 63.2389 441.547 63.6827C441.546 64.1266 441.905 64.488 442.35 64.4898C442.37 64.4901 442.391 64.4893 442.409 64.488C443.129 64.4384 443.868 64.6368 444.537 65.0437C444.874 65.2445 445.191 65.4961 445.482 65.7842C445.772 66.0741 446.044 66.3889 446.342 66.7069L446.351 66.7165C446.523 66.8999 446.811 66.9098 446.995 66.7385C447.132 66.6113 447.172 66.4194 447.114 66.2542C446.95 65.7967 446.696 65.374 446.388 64.988C446.081 64.6004 445.728 64.2382 445.323 63.9228C444.918 63.607 444.455 63.3478 443.953 63.1626C443.452 62.9771 442.908 62.8847 442.364 62.8823H442.357ZM430.876 62.6217C430.827 62.6201 430.773 62.6236 430.726 62.6303C430.266 62.6986 429.803 62.7735 429.335 62.8798C428.867 62.9871 428.396 63.1389 427.935 63.3523C427.477 63.5664 427.022 63.8489 426.66 64.2263C426.295 64.5997 426.025 65.0449 425.855 65.5008C425.757 65.765 425.892 66.0584 426.157 66.1567C426.383 66.2402 426.63 66.1545 426.759 65.9637L426.764 65.9559C427.212 65.2934 427.73 64.8158 428.441 64.5639C428.795 64.4386 429.186 64.3768 429.587 64.3361C429.988 64.2956 430.404 64.2871 430.824 64.3002C431.289 64.3144 431.678 63.9503 431.692 63.4869C431.706 63.0235 431.341 62.6359 430.876 62.6217Z" fill="#141414"/>
<path fill-rule="evenodd" clip-rule="evenodd" d="M441.845 76.0684C441.188 75.763 440.714 76.7792 441.369 77.0838C442.026 77.3893 442.5 76.3734 441.845 76.0684ZM444.383 77.0364C445.428 76.8597 444.275 75.5134 443.914 76.3727C443.688 76.7124 443.953 77.1935 444.383 77.0364ZM429.394 74.4683C428.731 74.4629 428.721 75.4898 429.385 75.4954C430.049 75.5011 430.058 74.4742 429.394 74.4683ZM442.974 74.1608C442.576 73.9761 442.289 74.5913 442.686 74.7757C443.084 74.9604 443.371 74.3455 442.974 74.1608ZM441.001 73.4819C440.459 73.23 440.068 74.0689 440.609 74.3206C441.151 74.5725 441.543 73.7338 441.001 73.4819ZM427.93 73.6387C427.972 72.7858 426.485 73.4465 427.28 74.0033C427.573 74.3026 427.982 74.0084 427.93 73.6387ZM430.885 72.6048C430.337 72.6003 430.329 73.4484 430.878 73.4529C431.425 73.4577 431.433 72.6097 430.885 72.6048ZM428.895 71.8005C428.493 71.797 428.487 72.4191 428.889 72.4224C429.291 72.4258 429.297 71.804 428.895 71.8005Z" fill="#9D78FC"/>
<path fill-rule="evenodd" clip-rule="evenodd" d="M429.895 70.4562C432.397 70.4562 434.284 68.5146 434.284 65.9399C434.284 63.3721 432.273 61.283 429.801 61.283C427.234 61.283 425.223 63.2477 425.223 65.7557C425.223 68.3037 427.363 70.4562 429.895 70.4562ZM443.857 72.2463C446.365 72.2463 448.483 69.8271 448.483 66.9641C448.483 64.3283 446.263 62.1844 443.535 62.1844C440.938 62.1844 438.826 64.489 438.826 67.322C438.826 69.9912 441.13 72.2463 443.857 72.2463ZM429.801 60.2122C432.156 60.2122 434.168 61.7319 434.976 63.8676C435.974 63.7943 437.757 64.0256 438.534 64.2095C439.537 62.3602 441.402 61.1136 443.535 61.1136C446.856 61.1136 449.558 63.7381 449.558 66.9641C449.558 70.4672 447 73.3171 443.857 73.3171C440.548 73.3171 437.752 70.5716 437.752 67.322C437.752 66.5759 437.875 65.8604 438.101 65.197C437.436 65.0648 435.997 64.9146 435.264 64.9149C435.323 65.2479 435.358 65.5895 435.358 65.9399C435.358 69.073 432.958 71.527 429.895 71.527C426.78 71.527 424.149 68.884 424.149 65.7557C424.149 62.6472 426.632 60.2122 429.801 60.2122Z" fill="#9D78FC"/>
<path fill-rule="evenodd" clip-rule="evenodd" d="M96.0025 273.524L77.4636 339.75H85.4004L112.519 273.524H96.0025Z" fill="#FF8333"/>
<path fill-rule="evenodd" clip-rule="evenodd" d="M172.139 273.524L202.171 339.868H207.246L189.058 273.524H172.139Z" fill="#FF8333"/>
<path fill-rule="evenodd" clip-rule="evenodd" d="M189.598 274.371H94.1714C93.9306 274.371 93.7155 274.22 93.6338 273.995C93.3844 273.304 68.5373 204.536 56.3621 170.56C55.0688 166.95 56.1344 163.863 59.0768 162.694C64.4161 160.573 76.4053 165.152 85.846 186.473L109.476 247.248H189.598C189.913 247.248 190.169 247.504 190.169 247.818V273.802C190.169 274.116 189.913 274.371 189.598 274.371Z" fill="#141414"/>
<path fill-rule="evenodd" clip-rule="evenodd" d="M94.573 273.232H189.026V248.387H109.085C108.849 248.387 108.637 248.243 108.552 248.024L84.7902 186.909C76.1691 167.44 64.8102 161.641 59.4997 163.752C57.1436 164.688 56.3537 167.15 57.4382 170.176C69.1439 202.843 92.5645 267.673 94.573 273.232Z" fill="white"/>
<path fill-rule="evenodd" clip-rule="evenodd" d="M201.309 314.442L204.952 328L223.889 329.573L222.844 316.421" fill="white"/>
<path fill-rule="evenodd" clip-rule="evenodd" d="M223.89 330.108C223.875 330.108 223.86 330.107 223.845 330.106L204.907 328.534C204.761 328.522 204.626 328.451 204.534 328.338C204.442 328.224 204.4 328.078 204.419 327.933L200.777 314.375C200.814 314.081 201.088 313.874 201.377 313.911C201.672 313.949 201.88 314.217 201.843 314.51L205.555 327.514L223.512 329.004L222.334 316.254C222.426 315.973 222.729 315.82 223.012 315.912C223.294 316.004 223.447 316.306 223.355 316.588L224.4 329.739C224.328 329.961 224.12 330.108 223.89 330.108Z" fill="#141414"/>
<path fill-rule="evenodd" clip-rule="evenodd" d="M204.178 327.268C204.247 326.996 204.515 326.823 204.793 326.873C205.057 326.92 205.391 326.984 205.785 327.06C208.197 327.522 213.217 328.485 217.974 328.489H217.986C220.789 328.489 223.254 327.725 224.926 326.337C225.059 326.227 225.237 326.188 225.405 326.23C233.57 328.349 239.469 329.88 243.841 332.786C244.609 333.297 247.38 335.526 246.901 337.103C246.679 337.832 245.89 338.202 244.555 338.202C239.682 338.202 229.182 338.229 219.918 338.253C212.423 338.272 205.95 338.289 203.512 338.289C203.255 338.289 203.022 338.173 202.858 337.962C201.898 336.731 203.461 330.073 204.178 327.268Z" fill="#FF8333"/>
<path fill-rule="evenodd" clip-rule="evenodd" d="M203.61 340.647H245.736C246.436 340.647 247.003 340.081 247.003 339.383V338.966C247.003 338.268 246.436 337.703 245.736 337.703H203.61C202.91 337.703 202.342 338.268 202.342 338.966V339.383C202.342 340.081 202.91 340.647 203.61 340.647Z" fill="#141414"/>
<path fill-rule="evenodd" clip-rule="evenodd" d="M233.772 331.275C233.985 331.275 234.19 331.155 234.288 330.95C235.184 329.074 236.906 329.533 237.1 329.592C237.4 329.683 237.719 329.516 237.813 329.217C237.906 328.918 237.741 328.6 237.442 328.506C236.465 328.197 234.333 328.208 233.256 330.461C233.121 330.745 233.242 331.084 233.527 331.219C233.606 331.257 233.689 331.275 233.772 331.275Z" fill="#141414"/>
<path fill-rule="evenodd" clip-rule="evenodd" d="M228.727 329.903C228.941 329.903 229.146 329.784 229.244 329.579C230.14 327.703 231.862 328.162 232.055 328.221C232.356 328.312 232.675 328.144 232.769 327.846C232.862 327.546 232.697 327.229 232.397 327.134C231.42 326.826 229.288 326.837 228.212 329.089C228.077 329.373 228.198 329.713 228.483 329.848C228.562 329.886 228.645 329.903 228.727 329.903Z" fill="#141414"/>
<path fill-rule="evenodd" clip-rule="evenodd" d="M156.495 314.712L154.765 328.27L173.703 329.842L178.03 316.69" fill="white"/>
<path fill-rule="evenodd" clip-rule="evenodd" d="M173.704 330.377C173.689 330.377 173.674 330.377 173.659 330.375L154.721 328.803C154.575 328.791 154.44 328.72 154.348 328.607C154.256 328.493 154.214 328.347 154.233 328.202L155.962 314.644C156 314.35 156.274 314.143 156.563 314.18C156.857 314.218 157.066 314.486 157.028 314.779L155.369 327.783L173.325 329.273L177.52 316.523C177.612 316.242 177.915 316.089 178.197 316.181C178.479 316.273 178.633 316.576 178.541 316.857L174.214 330.009C174.141 330.23 173.934 330.377 173.704 330.377Z" fill="#141414"/>
<path fill-rule="evenodd" clip-rule="evenodd" d="M153.991 327.537C154.06 327.265 154.329 327.093 154.607 327.142C154.871 327.189 155.205 327.253 155.598 327.329C158.011 327.792 163.031 328.754 167.788 328.758H167.8C170.603 328.758 173.067 327.994 174.74 326.606C174.873 326.496 175.051 326.457 175.219 326.5C183.384 328.618 189.283 330.149 193.655 333.055C194.423 333.566 197.194 335.795 196.715 337.372C196.493 338.101 195.704 338.471 194.369 338.471C189.495 338.471 178.996 338.498 169.732 338.522C162.236 338.542 155.763 338.558 153.326 338.558C153.068 338.558 152.836 338.442 152.671 338.231C151.712 337 153.275 330.342 153.991 327.537Z" fill="#FF8333"/>
<path fill-rule="evenodd" clip-rule="evenodd" d="M153.423 340.916H195.549C196.249 340.916 196.817 340.35 196.817 339.653V339.235C196.817 338.537 196.249 337.972 195.549 337.972H153.423C152.723 337.972 152.156 338.537 152.156 339.235V339.653C152.156 340.35 152.723 340.916 153.423 340.916Z" fill="#141414"/>
<path fill-rule="evenodd" clip-rule="evenodd" d="M183.586 331.544C183.8 331.544 184.004 331.424 184.102 331.219C184.998 329.343 186.72 329.802 186.914 329.861C187.214 329.952 187.534 329.785 187.627 329.486C187.72 329.187 187.555 328.869 187.256 328.775C186.279 328.466 184.147 328.477 183.071 330.73C182.935 331.014 183.056 331.353 183.341 331.488C183.42 331.526 183.504 331.544 183.586 331.544Z" fill="#141414"/>
<path fill-rule="evenodd" clip-rule="evenodd" d="M178.541 330.173C178.754 330.173 178.959 330.053 179.057 329.848C179.954 327.972 181.675 328.431 181.869 328.49C182.169 328.581 182.489 328.414 182.582 328.115C182.675 327.816 182.51 327.498 182.211 327.404C181.233 327.095 179.102 327.106 178.026 329.359C177.89 329.643 178.011 329.982 178.296 330.117C178.375 330.155 178.459 330.173 178.541 330.173Z" fill="#141414"/>
<path fill-rule="evenodd" clip-rule="evenodd" d="M187.975 214.942H157.176C149.018 214.942 178.026 251.302 178.026 251.302C178.166 254.667 178.558 315.365 178.558 315.365C198.314 319.412 214.373 320.574 227.917 318.424C227.917 318.424 220.818 265.778 214.938 235.54C211.894 219.881 198.959 214.942 187.975 214.942Z" fill="#141414"/>
<g style="mix-blend-mode:overlay">
<path fill-rule="evenodd" clip-rule="evenodd" d="M204.65 315.251C204.946 315.201 205.219 315.402 205.267 315.694L205.784 318.864C205.831 319.156 205.633 319.431 205.34 319.479C205.311 319.484 205.282 319.486 205.253 319.486C204.994 319.486 204.766 319.299 204.724 319.036L204.206 315.866C204.159 315.574 204.357 315.299 204.65 315.251ZM203.616 308.91C203.908 308.861 204.185 309.06 204.232 309.352L204.749 312.523C204.797 312.815 204.598 313.09 204.305 313.137C204.276 313.142 204.247 313.144 204.219 313.144C203.96 313.144 203.732 312.958 203.689 312.695L203.172 309.524C203.124 309.232 203.323 308.957 203.616 308.91ZM202.581 302.568C202.874 302.519 203.15 302.719 203.198 303.011L203.715 306.181C203.762 306.473 203.564 306.748 203.271 306.796C203.242 306.801 203.213 306.803 203.184 306.803C202.925 306.803 202.697 306.616 202.654 306.353L202.137 303.183C202.09 302.891 202.289 302.616 202.581 302.568ZM201.547 296.227C201.84 296.178 202.116 296.377 202.163 296.669L202.68 299.84C202.728 300.132 202.529 300.407 202.237 300.454C202.207 300.459 202.178 300.461 202.15 300.461C201.891 300.461 201.663 300.275 201.62 300.012L201.103 296.841C201.055 296.549 201.254 296.274 201.547 296.227ZM200.512 289.885C200.805 289.837 201.081 290.036 201.129 290.328L201.646 293.498C201.694 293.79 201.495 294.065 201.202 294.113C201.173 294.118 201.144 294.12 201.115 294.12C200.856 294.12 200.628 293.933 200.586 293.67L200.068 290.5C200.021 290.208 200.22 289.933 200.512 289.885ZM199.478 283.544C199.77 283.494 200.047 283.694 200.094 283.986L200.611 287.157C200.659 287.449 200.46 287.724 200.168 287.771C200.138 287.776 200.109 287.778 200.081 287.778C199.822 287.778 199.594 287.592 199.551 287.329L199.034 284.158C198.986 283.866 199.185 283.591 199.478 283.544ZM198.444 277.202C198.739 277.153 199.012 277.353 199.06 277.645L199.577 280.815C199.625 281.107 199.426 281.382 199.133 281.43C199.104 281.435 199.075 281.437 199.047 281.437C198.788 281.437 198.56 281.25 198.517 280.987L198 277.817C197.952 277.525 198.151 277.25 198.444 277.202ZM197.409 270.861C197.702 270.812 197.978 271.011 198.025 271.303L198.543 274.474C198.59 274.766 198.392 275.041 198.099 275.088C198.07 275.093 198.041 275.095 198.012 275.095C197.753 275.095 197.525 274.909 197.482 274.646L196.965 271.475C196.918 271.183 197.116 270.908 197.409 270.861ZM196.375 264.519C196.67 264.469 196.943 264.67 196.991 264.962L197.508 268.132C197.556 268.424 197.357 268.699 197.064 268.747C197.035 268.752 197.006 268.754 196.978 268.754C196.719 268.754 196.491 268.567 196.448 268.304L195.931 265.134C195.883 264.842 196.082 264.567 196.375 264.519ZM195.34 258.178C195.636 258.131 195.909 258.328 195.957 258.62L196.474 261.791C196.522 262.083 196.323 262.358 196.03 262.405C196.001 262.41 195.972 262.412 195.943 262.412C195.684 262.412 195.456 262.226 195.414 261.963L194.896 258.792C194.849 258.5 195.047 258.225 195.34 258.178ZM194.306 251.836C194.6 251.789 194.875 251.987 194.922 252.279L195.439 255.45C195.487 255.741 195.288 256.017 194.996 256.064C194.966 256.069 194.937 256.071 194.908 256.071C194.65 256.071 194.422 255.884 194.379 255.621L193.862 252.451C193.814 252.159 194.013 251.884 194.306 251.836Z" fill="white" fill-opacity="0.8"/>
</g>
<path fill-rule="evenodd" clip-rule="evenodd" d="M167.13 214.942H104.9C104.9 214.942 98.6054 237.309 111.392 249.544C123.178 260.82 150.112 256.785 155.751 255.791L156.678 249.983C156.724 249.691 157.003 249.492 157.292 249.538C157.585 249.585 157.785 249.859 157.739 250.151L156.783 256.142C156.334 263.085 147.919 320.184 147.919 320.184C163.99 324.883 184.704 325.32 195.464 323.242C195.464 323.242 195.661 269.631 193.504 236.633C192.576 222.43 181.249 214.942 167.13 214.942Z" fill="#0B379B"/>
<g style="mix-blend-mode:overlay">
<path fill-rule="evenodd" clip-rule="evenodd" d="M163.171 320.407C163.467 320.431 163.687 320.69 163.662 320.984L163.529 322.585C163.506 322.865 163.271 323.076 162.994 323.076C162.979 323.076 162.964 323.075 162.949 323.074C162.653 323.049 162.434 322.79 162.459 322.496L162.592 320.897C162.616 320.602 162.874 320.38 163.171 320.407ZM163.675 314.193C163.971 314.217 164.191 314.475 164.168 314.77C164.072 315.955 163.986 317.031 163.908 317.979C163.886 318.259 163.651 318.471 163.374 318.471C163.359 318.471 163.345 318.47 163.33 318.469C163.034 318.445 162.814 318.187 162.838 317.892C162.915 316.945 163.002 315.87 163.097 314.685C163.12 314.39 163.378 314.173 163.675 314.193ZM164.182 307.778C164.478 307.801 164.699 308.058 164.676 308.353C164.588 309.471 164.504 310.543 164.423 311.561C164.401 311.842 164.166 312.055 163.888 312.055C163.874 312.055 163.86 312.054 163.846 312.053C163.55 312.03 163.329 311.772 163.352 311.477C163.433 310.46 163.517 309.388 163.604 308.27C163.627 307.975 163.885 307.759 164.182 307.778ZM164.674 301.363C164.97 301.385 165.191 301.642 165.169 301.937C165.086 303.033 165.004 304.104 164.924 305.145C164.903 305.426 164.667 305.639 164.389 305.639C164.375 305.639 164.362 305.639 164.348 305.638C164.052 305.615 163.83 305.358 163.853 305.063C163.933 304.022 164.015 302.952 164.098 301.856C164.12 301.561 164.381 301.34 164.674 301.363ZM165.151 294.948C165.447 294.969 165.67 295.226 165.648 295.521C165.568 296.605 165.489 297.676 165.41 298.729C165.389 299.01 165.154 299.225 164.875 299.225C164.862 299.225 164.848 299.224 164.834 299.223C164.539 299.201 164.317 298.944 164.339 298.649C164.418 297.596 164.497 296.526 164.576 295.443C164.598 295.148 164.854 294.928 165.151 294.948ZM165.612 288.532C165.908 288.552 166.131 288.808 166.11 289.103C166.034 290.179 165.958 291.25 165.881 292.312C165.861 292.594 165.625 292.809 165.346 292.809C165.333 292.809 165.32 292.809 165.307 292.808C165.011 292.787 164.788 292.53 164.81 292.235C164.886 291.174 164.962 290.104 165.038 289.028C165.059 288.734 165.32 288.515 165.612 288.532ZM166.052 282.113C166.348 282.133 166.572 282.388 166.552 282.683C166.48 283.753 166.407 284.825 166.334 285.895C166.314 286.177 166.078 286.393 165.798 286.393C165.786 286.393 165.773 286.393 165.761 286.392C165.465 286.372 165.241 286.116 165.262 285.821C165.336 284.752 165.409 283.681 165.48 282.611C165.5 282.317 165.752 282.088 166.052 282.113ZM166.468 275.698C166.764 275.717 166.989 275.971 166.97 276.266C166.903 277.33 166.835 278.401 166.764 279.477C166.746 279.76 166.509 279.978 166.229 279.978C166.217 279.978 166.205 279.977 166.193 279.977C165.897 279.957 165.673 279.703 165.692 279.407C165.762 278.332 165.831 277.262 165.898 276.199C165.916 275.905 166.177 275.681 166.468 275.698ZM166.85 269.277C167.147 269.294 167.373 269.547 167.356 269.842C167.296 270.897 167.233 271.97 167.168 273.055C167.151 273.339 166.914 273.558 166.632 273.558C166.621 273.558 166.61 273.558 166.599 273.557C166.303 273.539 166.077 273.286 166.095 272.99C166.161 271.907 166.223 270.836 166.284 269.781C166.3 269.486 166.551 269.263 166.85 269.277ZM167.187 262.853C167.483 262.867 167.711 263.118 167.697 263.414C167.646 264.458 167.592 265.531 167.534 266.628C167.518 266.914 167.281 267.135 166.998 267.135C166.988 267.135 166.979 267.135 166.969 267.135C166.672 267.119 166.445 266.867 166.461 266.572C166.519 265.476 166.574 264.405 166.624 263.362C166.638 263.066 166.889 262.841 167.187 262.853ZM167.447 256.424C167.743 256.434 167.976 256.681 167.966 256.976C167.932 258.001 167.89 259.076 167.843 260.196C167.831 260.484 167.593 260.709 167.307 260.709C167.299 260.709 167.292 260.709 167.284 260.709C166.988 260.696 166.758 260.447 166.77 260.151C166.817 259.035 166.858 257.962 166.892 256.941C166.902 256.646 167.154 256.41 167.447 256.424ZM167.547 249.989C167.843 249.989 168.083 250.228 168.084 250.523L168.085 250.959C168.085 251.786 168.074 252.726 168.054 253.753C168.048 254.045 167.809 254.278 167.517 254.278H167.506C167.209 254.272 166.974 254.027 166.98 253.731C167 252.712 167.011 251.779 167.011 250.959L167.01 250.526C167.009 250.231 167.248 249.99 167.545 249.989H167.547ZM165.615 244.273C165.799 244.041 166.136 244.002 166.369 244.186C166.857 244.571 167.25 244.958 167.539 245.338C167.699 245.556 167.869 245.949 167.976 247.273C168 247.567 167.779 247.825 167.484 247.849C167.469 247.85 167.454 247.851 167.44 247.851C167.163 247.851 166.928 247.638 166.905 247.358C166.814 246.232 166.687 245.994 166.673 245.971C166.449 245.677 166.119 245.354 165.702 245.025C165.47 244.842 165.43 244.505 165.615 244.273ZM159.86 241.387C159.972 241.114 160.286 240.983 160.561 241.095C161.676 241.552 162.678 242.006 163.539 242.444C163.803 242.578 163.908 242.9 163.773 243.164C163.678 243.349 163.49 243.456 163.294 243.456C163.212 243.456 163.129 243.437 163.051 243.397C162.215 242.973 161.24 242.531 160.152 242.085C159.878 241.973 159.747 241.66 159.86 241.387ZM153.773 239.241C153.865 238.96 154.167 238.806 154.45 238.897C155.539 239.249 156.573 239.599 157.522 239.938C157.801 240.038 157.947 240.344 157.847 240.622C157.768 240.841 157.561 240.977 157.341 240.977C157.281 240.977 157.22 240.968 157.16 240.946C156.221 240.611 155.198 240.264 154.119 239.915C153.836 239.824 153.682 239.522 153.773 239.241ZM147.587 237.398C147.668 237.114 147.965 236.949 148.25 237.03C149.332 237.336 150.378 237.641 151.357 237.935C151.641 238.02 151.802 238.319 151.717 238.602C151.647 238.833 151.433 238.983 151.203 238.983C151.151 238.983 151.099 238.975 151.048 238.96C150.073 238.668 149.033 238.365 147.957 238.06C147.671 237.979 147.506 237.683 147.587 237.398ZM141.355 235.72C141.43 235.434 141.723 235.264 142.011 235.338C143.047 235.609 144.091 235.886 145.133 236.168C145.419 236.245 145.589 236.539 145.511 236.825C145.446 237.063 145.229 237.22 144.993 237.22C144.946 237.22 144.899 237.214 144.852 237.201C143.812 236.92 142.772 236.644 141.739 236.374C141.452 236.299 141.28 236.006 141.355 235.72ZM135.098 234.129C135.17 233.842 135.462 233.667 135.75 233.74C136.77 233.996 137.817 234.26 138.882 234.532C139.169 234.605 139.343 234.897 139.269 235.183C139.207 235.425 138.989 235.586 138.749 235.586C138.705 235.586 138.66 235.58 138.616 235.569C137.552 235.298 136.506 235.034 135.488 234.779C135.2 234.706 135.026 234.415 135.098 234.129ZM128.837 232.551C128.91 232.264 129.203 232.091 129.491 232.165C130.472 232.416 131.52 232.68 132.618 232.955C132.906 233.028 133.081 233.318 133.008 233.605C132.947 233.848 132.728 234.01 132.488 234.01C132.444 234.01 132.4 234.005 132.356 233.994C131.256 233.718 130.207 233.454 129.224 233.202C128.937 233.129 128.763 232.837 128.837 232.551ZM122.627 230.773C122.723 230.493 123.028 230.344 123.309 230.439C124.038 230.688 125.041 230.985 126.376 231.348C126.662 231.426 126.83 231.72 126.752 232.005C126.687 232.243 126.471 232.4 126.234 232.4C126.188 232.4 126.14 232.394 126.093 232.381C124.736 232.012 123.712 231.708 122.962 231.453C122.681 231.357 122.531 231.053 122.627 230.773ZM124.38 216.185C124.675 216.15 124.943 216.356 124.98 216.649C124.993 216.753 125.298 219.228 124.804 221.993C124.195 225.397 122.625 227.726 120.247 228.792C120.36 228.883 120.472 228.976 120.588 229.06C120.828 229.234 120.881 229.569 120.707 229.808C120.602 229.952 120.438 230.029 120.272 230.029C120.163 230.029 120.052 229.995 119.957 229.926C119.071 229.285 118.264 228.494 117.557 227.575C117.377 227.34 117.422 227.004 117.658 226.825C117.893 226.645 118.231 226.689 118.41 226.924C118.705 227.308 119.022 227.664 119.352 227.996C125.003 226.002 123.926 216.876 123.914 216.783C123.877 216.49 124.086 216.222 124.38 216.185ZM115.134 220.951C115.422 220.876 115.715 221.046 115.791 221.331C116.07 222.38 116.42 223.369 116.833 224.271C116.956 224.54 116.837 224.858 116.567 224.981C116.495 225.014 116.419 225.029 116.345 225.029C116.141 225.029 115.946 224.913 115.856 224.716C115.418 223.759 115.046 222.712 114.753 221.605C114.677 221.32 114.848 221.027 115.134 220.951ZM114.547 216.181C114.841 216.181 115.081 216.416 115.084 216.709C115.084 216.716 115.093 217.315 115.205 218.253C115.24 218.547 115.029 218.813 114.735 218.848C114.713 218.85 114.692 218.851 114.671 218.851C114.402 218.851 114.17 218.651 114.138 218.379C114.026 217.44 114.012 216.827 114.01 216.734L114.01 216.723C114.007 216.427 114.244 216.184 114.541 216.181H114.547Z" fill="white" fill-opacity="0.8"/>
</g>
<path fill-rule="evenodd" clip-rule="evenodd" d="M104.785 214.628C104.411 211.604 101.664 191.681 101.024 180.413C96.4673 181.371 95.8377 160.712 101.73 147.48C111.116 126.402 143.338 132.992 143.338 132.992C143.338 132.992 152.965 132.543 162.468 140.295C166.716 143.76 171.394 151.497 173.721 159.993C172.993 162.343 165.293 172.875 162.486 174.667C166.825 195.675 170.26 214.628 170.26 214.628C170.26 214.628 114.314 215.499 104.785 214.628Z" fill="#FF8333"/>
<path fill-rule="evenodd" clip-rule="evenodd" d="M169.625 214.381C169.012 210.898 165.828 193.498 161.96 174.775C161.915 174.558 162.01 174.336 162.197 174.217C164.91 172.485 172.236 162.416 173.16 159.976C170.953 152.028 166.532 144.3 162.129 140.709C152.91 133.189 143.457 133.522 143.364 133.527C143.319 133.528 143.275 133.525 143.231 133.516C143.151 133.5 135.129 131.895 126.086 132.867C120.803 133.435 116.211 134.758 112.436 136.801C107.748 139.338 104.312 143.004 102.222 147.698C99.931 152.842 98.4174 159.71 98.0696 166.541C97.7591 172.634 98.4545 177.675 99.8413 179.383C100.297 179.943 100.672 179.941 100.914 179.89C101.068 179.858 101.227 179.894 101.351 179.988C101.476 180.083 101.552 180.227 101.561 180.383C102.114 190.114 104.387 205.733 105.243 212.318C105.337 213.042 105.414 213.631 105.468 214.056C115.379 214.782 163.588 214.578 169.625 214.381ZM104.94 215.088C104.689 215.065 104.487 214.87 104.456 214.62C104.406 214.213 104.309 213.468 104.178 212.455C103.336 205.976 101.124 190.831 100.52 180.97C100.055 180.92 99.5181 180.687 99.0059 180.056C97.4384 178.126 96.6683 172.927 96.9965 166.487C97.3511 159.529 98.8977 152.523 101.24 147.263C105.16 138.46 113.721 133.113 125.997 131.799C134.765 130.861 142.586 132.301 143.381 132.455C144.332 132.422 153.565 132.34 162.809 139.88C167.401 143.625 171.994 151.651 174.24 159.852C174.267 159.95 174.266 160.054 174.235 160.151C173.541 162.391 166.257 172.521 163.084 174.904C167.342 195.553 170.756 214.607 170.79 214.804C170.816 214.956 170.776 215.113 170.677 215.233C170.579 215.353 170.434 215.425 170.279 215.431C168.444 215.492 133.282 215.324 114.746 215.324C110.276 215.324 106.777 215.256 104.94 215.088Z" fill="#141414"/>
<path fill-rule="evenodd" clip-rule="evenodd" d="M130.069 124.761C130.069 124.761 129.704 133.98 125.882 135.297C124.843 140.478 131.889 144.016 137.244 143.766C147.612 143.281 144.386 134.835 143.673 134.812C143.693 133.753 144.266 125.834 144.266 125.834L130.069 124.761Z" fill="white"/>
<path fill-rule="evenodd" clip-rule="evenodd" d="M126.392 135.704C126.206 137.059 126.628 138.343 127.648 139.526C129.627 141.82 133.65 143.367 137.217 143.197C140.781 143.03 143.072 141.848 143.842 139.779C144.565 137.835 143.768 135.727 143.447 135.335C143.239 135.246 143.096 135.039 143.101 134.8C143.119 133.894 143.523 128.203 143.655 126.358L130.604 125.372C130.452 127.434 129.707 134.166 126.392 135.704ZM136.699 144.348C132.958 144.348 128.864 142.683 126.781 140.268C125.465 138.743 124.961 136.985 125.322 135.185C125.362 134.987 125.504 134.825 125.695 134.759C128.525 133.784 129.399 127.195 129.498 124.738C129.504 124.584 129.573 124.439 129.688 124.336C129.804 124.233 129.958 124.183 130.112 124.193L144.309 125.266C144.622 125.29 144.858 125.562 144.835 125.875C144.83 125.948 144.334 132.817 144.254 134.544C144.875 135.212 145.27 136.849 145.279 138.008C145.29 139.632 144.732 141.05 143.662 142.107C142.303 143.45 140.152 144.2 137.271 144.335C137.081 144.343 136.89 144.348 136.699 144.348Z" fill="#141414"/>
<path fill-rule="evenodd" clip-rule="evenodd" d="M173.702 159.911L158.966 161.969L160.594 171.447C160.594 171.447 139.387 169.4 132.103 166.996C128.437 165.786 123.698 167.133 121.842 170.936C120.86 172.947 121.493 178.181 121.493 178.181C121.493 178.181 128.323 178.088 130.275 178.088C130.474 178.088 130.732 178.155 131.04 178.275L121.234 178.38L120.742 164.273L97.6579 164.564C97.6579 164.564 93.2733 194.946 110.819 199.676C126.805 203.986 146.121 189.399 147.63 188.233C155.132 192.125 164.05 195.177 172.447 193.041C183.068 190.339 174.136 161.109 173.702 159.911Z" fill="white"/>
<path fill-rule="evenodd" clip-rule="evenodd" d="M175.645 189.753C174.85 191.248 173.761 192.154 172.315 192.522C159.333 195.825 145.219 186.598 136.786 181.086C133.997 179.263 132.289 178.165 131.165 177.748C131.162 177.745 131.159 177.742 131.156 177.738L131.138 177.739C130.803 177.617 130.518 177.553 130.275 177.553C128.647 177.553 123.576 177.618 121.975 177.639C121.812 175.953 121.65 172.554 122.325 171.17C123.738 168.276 127.718 166.114 131.935 167.505C139.172 169.892 159.556 171.884 160.532 171.979L164.041 172.445C164.066 172.448 164.09 172.45 164.113 172.45C164.378 172.45 164.609 172.254 164.645 171.985C164.684 171.692 164.478 171.423 164.184 171.384L161.057 170.968L159.589 162.422L173.331 160.503C173.792 161.973 175.19 166.816 176.148 172.361C177.552 180.479 177.378 186.493 175.645 189.753ZM117.037 199.928C114.983 199.928 112.941 199.694 110.959 199.159C103.916 197.261 99.6215 190.914 98.1939 180.296C97.2667 173.399 97.9229 166.843 98.1318 165.093L120.223 164.815L120.697 178.398C120.707 178.689 120.949 178.912 121.239 178.915L130.951 178.811C132.055 179.275 134.005 180.549 136.197 181.981C139.096 183.876 142.657 186.202 146.617 188.321C143.298 190.748 129.89 199.929 117.037 199.928ZM174.207 159.729C174.121 159.491 173.879 159.346 173.627 159.38L159.393 161.369L157.605 152.539C157.546 152.249 157.261 152.061 156.972 152.12C156.681 152.179 156.493 152.461 156.551 152.751L158.438 162.068L159.945 170.844C156.217 170.464 138.674 168.6 132.272 166.488C130.339 165.85 128.094 165.884 126.115 166.582C124.076 167.3 122.447 168.666 121.494 170.441L121.282 164.34C121.284 164.317 121.288 164.295 121.288 164.271L121.099 153.376C121.095 153.08 120.862 152.839 120.553 152.85C120.256 152.855 120.02 153.099 120.025 153.394L120.204 163.744L97.651 164.028C97.3865 164.032 97.1638 164.227 97.1262 164.488C97.1149 164.564 96.0322 172.251 97.1262 180.417C98.5927 191.36 103.279 198.198 110.679 200.193C112.76 200.754 114.894 200.996 117.028 200.996C123.876 200.996 130.716 198.505 135.75 196.082C141.749 193.194 146.345 189.872 147.672 188.875C153.453 191.854 160.013 194.29 166.59 194.29C168.592 194.29 170.597 194.064 172.58 193.559C174.312 193.118 175.663 192.006 176.594 190.254C181.205 181.581 174.283 159.937 174.207 159.729Z" fill="#141414"/>
<path fill-rule="evenodd" clip-rule="evenodd" d="M149.192 110.052C147.235 98.1281 141.39 97.7785 130.477 98.5958C125.353 98.9794 118.957 103.604 119.529 111.985C116.535 110.842 114.856 112.724 114.957 114.972C115.048 116.99 115.965 119.649 119.69 119.649C120.051 125.805 124.083 135.722 136.745 135.722C149.674 135.722 150.888 120.393 149.192 110.052Z" fill="white"/>
<path fill-rule="evenodd" clip-rule="evenodd" d="M145.287 131.511C139.903 137.929 127.667 135.334 123.561 129.058C121.371 126.416 120.239 121.397 120.226 119.618C120.224 119.335 119.974 119.114 119.69 119.114C115.67 119.356 114.33 114.419 116.474 112.582C117.481 111.827 118.864 112.08 119.888 112.664C120.04 112.751 124.105 112.42 126.704 104.651C131.769 107.589 141.268 109.028 147.859 106.583C149.954 114.312 150.18 125.605 145.287 131.511ZM120.804 94.0684C123.314 85.1273 137.89 82.9447 143.24 89.2525C149.161 86.5102 156.769 87.3085 157.802 93.745C158.409 99.1134 153.941 103.668 148.848 106.166C151.084 114.297 151.338 125.888 146.106 132.204C139.162 140.481 124.061 134.897 121.27 127.345C118.367 126.613 116.912 124.505 115.769 120.869C111.342 118.701 104.199 102.941 114.73 95.4259C116.648 94.1541 118.786 93.68 120.804 94.0684ZM118.068 114.296C117.274 114.268 117.274 116.472 118.068 116.444C118.862 116.472 118.862 114.268 118.068 114.296Z" fill="#141414"/>
<path fill-rule="evenodd" clip-rule="evenodd" d="M137.434 127.53C138.597 127.363 139.63 127.839 139.739 128.595C139.849 129.35 138.995 130.099 137.831 130.267C136.667 130.434 135.635 129.958 135.525 129.202C135.416 128.447 136.27 127.698 137.434 127.53ZM137.693 120.264C137.855 120.278 137.981 120.406 137.995 120.562C138.04 121.027 138.085 121.491 138.152 121.929C138.169 122.038 138.188 122.144 138.212 122.242C138.221 122.286 138.236 122.334 138.249 122.372C138.296 122.396 138.342 122.42 138.388 122.448C138.512 122.523 138.633 122.614 138.747 122.725C138.973 122.936 139.173 123.263 139.195 123.639C139.22 124.015 139.052 124.37 138.825 124.604C138.595 124.843 138.31 124.988 138.022 125.063C137.878 125.101 137.733 125.119 137.589 125.125C137.446 125.126 137.3 125.146 137.17 125.058C136.998 124.941 136.953 124.708 137.07 124.536C137.098 124.495 137.133 124.461 137.172 124.435L137.243 124.388C137.348 124.319 137.437 124.354 137.529 124.332C137.62 124.319 137.709 124.302 137.79 124.271C137.953 124.215 138.095 124.125 138.185 124.017C138.278 123.909 138.311 123.797 138.299 123.702C138.287 123.608 138.231 123.5 138.111 123.398C138.053 123.347 137.983 123.299 137.904 123.256C137.865 123.233 137.825 123.212 137.781 123.192L137.75 123.177L137.726 123.165C137.688 123.146 137.649 123.122 137.617 123.097C137.507 123.003 137.477 122.936 137.442 122.876C137.342 122.662 137.339 122.537 137.315 122.398C137.299 122.265 137.29 122.138 137.284 122.013C137.264 121.517 137.291 121.041 137.333 120.565C137.349 120.383 137.51 120.248 137.693 120.264ZM129.167 119.013C129.277 118.258 129.921 117.725 130.607 117.824C131.292 117.923 131.758 118.616 131.649 119.371C131.539 120.126 130.895 120.659 130.209 120.56C129.524 120.461 129.058 119.769 129.167 119.013ZM142.654 117.362C143.339 117.263 143.983 117.796 144.093 118.551C144.203 119.307 143.736 119.999 143.051 120.098C142.366 120.197 141.722 119.664 141.612 118.909C141.502 118.153 141.969 117.461 142.654 117.362ZM130.429 112.674C130.874 112.672 131.237 113.031 131.239 113.475C131.24 113.919 130.881 114.28 130.436 114.282C130.416 114.282 130.395 114.281 130.377 114.28C129.657 114.23 128.918 114.429 128.249 114.836C127.912 115.036 127.595 115.288 127.304 115.576C127.014 115.866 126.742 116.181 126.444 116.499L126.435 116.509C126.263 116.692 125.975 116.702 125.791 116.53C125.654 116.403 125.614 116.211 125.672 116.046C125.836 115.589 126.09 115.166 126.398 114.78C126.705 114.392 127.058 114.03 127.463 113.715C127.868 113.399 128.331 113.14 128.833 112.955C129.334 112.769 129.878 112.677 130.422 112.674H130.429ZM141.91 112.414C141.959 112.412 142.013 112.416 142.06 112.422C142.52 112.491 142.983 112.566 143.451 112.672C143.919 112.779 144.39 112.931 144.851 113.144C145.309 113.358 145.764 113.641 146.126 114.018C146.491 114.392 146.761 114.837 146.931 115.293C147.029 115.557 146.894 115.85 146.629 115.949C146.403 116.032 146.156 115.947 146.027 115.756L146.022 115.748C145.574 115.085 145.056 114.608 144.345 114.356C143.991 114.231 143.601 114.169 143.199 114.128C142.798 114.088 142.382 114.079 141.962 114.092C141.497 114.106 141.108 113.742 141.094 113.279C141.08 112.816 141.445 112.428 141.91 112.414Z" fill="#141414"/>
<path fill-rule="evenodd" clip-rule="evenodd" d="M130.942 125.86C131.598 125.555 132.072 126.571 131.417 126.876C130.76 127.181 130.286 126.165 130.942 125.86ZM128.403 126.828C127.358 126.651 128.512 125.305 128.872 126.165C129.098 126.504 128.833 126.985 128.403 126.828ZM143.392 124.26C144.055 124.255 144.065 125.282 143.401 125.287C142.737 125.293 142.728 124.266 143.392 124.26ZM129.812 123.953C130.21 123.768 130.497 124.383 130.1 124.568C129.702 124.752 129.415 124.137 129.812 123.953ZM131.785 123.274C132.327 123.022 132.718 123.861 132.177 124.112C131.635 124.364 131.243 123.526 131.785 123.274ZM144.856 123.431C144.814 122.578 146.301 123.238 145.506 123.795C145.213 124.094 144.804 123.8 144.856 123.431ZM141.901 122.397C142.449 122.392 142.457 123.24 141.908 123.245C141.361 123.25 141.353 122.401 141.901 122.397ZM143.892 121.592C144.293 121.589 144.299 122.211 143.897 122.214C143.495 122.218 143.489 121.596 143.892 121.592Z" fill="#FF8333"/>
<path fill-rule="evenodd" clip-rule="evenodd" d="M142.892 120.248C140.39 120.248 138.503 118.306 138.503 115.732C138.503 113.164 140.514 111.075 142.986 111.075C145.553 111.075 147.563 113.04 147.563 115.548C147.563 118.096 145.424 120.248 142.892 120.248ZM128.93 122.038C126.422 122.038 124.304 119.619 124.304 116.756C124.304 114.12 126.523 111.976 129.252 111.976C131.848 111.976 133.961 114.281 133.961 117.114C133.961 119.783 131.657 122.038 128.93 122.038ZM142.986 110.004C140.631 110.004 138.619 111.524 137.811 113.66C136.813 113.586 135.03 113.817 134.253 114.001C133.25 112.152 131.385 110.905 129.252 110.905C125.931 110.905 123.229 113.53 123.229 116.756C123.229 120.259 125.786 123.109 128.93 123.109C132.239 123.109 135.035 120.363 135.035 117.114C135.035 116.368 134.912 115.652 134.686 114.989C135.351 114.857 136.789 114.706 137.523 114.707C137.464 115.04 137.429 115.381 137.429 115.732C137.429 118.865 139.828 121.319 142.892 121.319C146.006 121.319 148.638 118.676 148.638 115.548C148.638 112.439 146.155 110.004 142.986 110.004Z" fill="#FF8333"/>
<path fill-rule="evenodd" clip-rule="evenodd" d="M139.067 130.241C138.696 128.898 138.08 129.541 137.899 130.515C137.737 131.384 137.523 132.02 135.54 131.849C134.495 131.76 132.111 130.774 132.333 127.091C133.166 126.831 135.07 126.831 137.422 126.807C139.832 126.782 142.702 126.045 143.179 126.463C143.561 128.144 143.144 131.173 141.335 131.39C140.454 131.496 139.465 131.684 139.067 130.241ZM137.985 123.675C131.074 123.832 130.786 126.131 130.486 128.162C130.168 130.32 130.072 133.481 130.501 134.828C130.851 135.926 133.707 138.214 138.315 138.022C142.924 137.831 144.534 136.837 145.36 135.19C145.944 134.027 145.261 127.053 145.165 126.288C145.069 125.522 144.327 123.532 137.985 123.675Z" fill="#141414"/>
</svg>
