<svg width="498" height="905" viewBox="0 0 498 905" fill="none" xmlns="http://www.w3.org/2000/svg">
<path fill-rule="evenodd" clip-rule="evenodd" d="M-113.036 -173.919C-9.60615 -160.441 66.6007 -87.6953 153.066 -35.3993C233.365 13.1671 319.368 53.5804 377.523 122.78C440.041 197.171 500.823 282.054 497.899 374.924C494.99 467.292 427.437 547.383 361.898 619.036C302.787 683.663 218.052 719.171 140.423 765.752C56.8335 815.909 -12.697 895.411 -113.036 904.02C-214.863 912.757 -310.646 861.515 -396.365 811.81C-479.145 763.808 -560.742 705.446 -596.733 623.54C-631.25 544.99 -597.768 458.852 -588.341 374.924C-579.814 299.01 -568.041 226.658 -543.931 153.448C-513.503 61.0528 -510.534 -48.6504 -428.266 -111.152C-344.943 -174.456 -221.42 -188.043 -113.036 -173.919Z" fill="#9D78FC"/>
</svg>
