<svg width="831" height="961" viewBox="0 0 831 961" fill="none" xmlns="http://www.w3.org/2000/svg">
<path fill-rule="evenodd" clip-rule="evenodd" d="M219.964 -117.919C323.394 -104.441 399.601 -31.6953 486.066 20.6007C566.365 69.1671 652.368 109.58 710.523 178.78C773.041 253.171 833.823 338.053 830.899 430.924C827.99 523.292 760.437 603.383 694.898 675.036C635.787 739.663 551.052 775.171 473.423 821.752C389.833 871.909 320.303 951.411 219.964 960.02C118.137 968.757 22.3543 917.515 -63.3647 867.81C-146.145 819.808 -227.742 761.446 -263.733 679.54C-298.25 600.99 -264.768 514.852 -255.341 430.924C-246.814 355.01 -235.041 282.658 -210.931 209.448C-180.503 117.053 -177.534 7.34964 -95.2658 -55.1523C-11.9433 -118.456 111.58 -132.043 219.964 -117.919Z" fill="#9D78FC"/>
</svg>
