<svg width="502" height="564" viewBox="0 0 502 564" fill="none" xmlns="http://www.w3.org/2000/svg">
<path fill-rule="evenodd" clip-rule="evenodd" d="M374.886 490.775C362.338 473.586 380.833 469.433 372.252 453.246C361.855 433.633 376.774 437.572 370.348 417.835C365.263 402.218 356.384 401.545 355.593 379.286C354.804 357.027 315.297 355.773 323.835 386.881C332.373 417.988 310.408 410.328 314.273 432.929C319.439 463.138 298.709 451.038 305.312 474.288C310.929 494.067 286.977 527.221 343.915 535C394.589 532.371 387.434 507.964 374.886 490.775Z" fill="#009BA0"/>
<path d="M331 455C331 455 333.077 464.326 343 474" stroke="#090E2B" stroke-width="9.107" stroke-linecap="round" stroke-linejoin="round"/>
<path d="M322 493C322 493 325.634 501.834 343 511" stroke="#090E2B" stroke-width="9.107" stroke-linecap="round" stroke-linejoin="round"/>
<path d="M361 471C361 471 358.675 485.481 343 496" stroke="#090E2B" stroke-width="9.107" stroke-linecap="round" stroke-linejoin="round"/>
<path fill-rule="evenodd" clip-rule="evenodd" d="M480.213 423.144C469.216 395.869 485.517 376.617 463.152 324.954C440.787 273.29 410.327 273.108 405.707 316.448C401.088 359.787 365.171 387.304 381.735 426.423C398.015 464.869 364.289 473.873 375.231 502.381C389.139 538.618 435.173 540 435.173 540C485.304 540 493.45 523.307 497.363 508.804C507.624 470.765 484.959 434.915 480.213 423.144Z" fill="#FFB201"/>
<path d="M459 376C459 376 455.019 396.614 436 418" stroke="#090E2B" stroke-width="9.107" stroke-linecap="round" stroke-linejoin="round"/>
<path d="M466 463C466 463 460.635 483.614 435 505" stroke="#090E2B" stroke-width="9.107" stroke-linecap="round" stroke-linejoin="round"/>
<path d="M410 420C410 420 413.23 444.33 435 462" stroke="#090E2B" stroke-width="9.107" stroke-linecap="round" stroke-linejoin="round"/>
<path d="M343 558V434" stroke="#090E2B" stroke-width="9.107" stroke-linecap="round" stroke-linejoin="round"/>
<path d="M435 557V351" stroke="#090E2B" stroke-width="9.107" stroke-linecap="round" stroke-linejoin="round"/>
<path fill-rule="evenodd" clip-rule="evenodd" d="M48.5769 452.16L45.4666 502.737H92.3238L89.2135 452.16H94.4758L96.3691 502.737H96.5223V506.537H96.5115L98.5687 561.499H95.9376L92.5577 506.537H45.2327L41.8528 561.499H39.2217L43.3146 452.16H48.5769Z" fill="#8E2420"/>
<path fill-rule="evenodd" clip-rule="evenodd" d="M34.6579 445.557L69.5399 444.378C69.6614 444.374 69.7829 444.374 69.9043 444.379L102.847 445.548C105.679 445.649 107.923 447.974 107.923 450.807V453.622C107.923 456.528 105.567 458.884 102.661 458.884H34.8355C31.9293 458.884 29.5732 456.528 29.5732 453.622V450.816C29.5732 447.979 31.8224 445.653 34.6579 445.557Z" fill="#C51230"/>
<path fill-rule="evenodd" clip-rule="evenodd" d="M338.264 230H45.7355C42.0154 230 39 226.998 39 223.295V17.7055C39 14.0025 42.0154 11 45.7355 11H338.264C341.985 11 345 14.0025 345 17.7055V223.295C345 226.998 341.985 230 338.264 230Z" fill="#090E2B"/>
<path fill-rule="evenodd" clip-rule="evenodd" d="M325.265 219H32.7355C29.0154 219 26 215.998 26 212.295V6.70548C26 3.00246 29.0154 0 32.7355 0H325.265C328.985 0 332 3.00246 332 6.70548V212.295C332 215.998 328.985 219 325.265 219Z" fill="white"/>
<path d="M326.384 0H33.616C29.4098 0 26 3.39595 26 7.58467V213.416C26 217.605 29.4096 221 33.616 221H326.384C330.59 221 334 217.605 334 213.416V7.58467C334 3.39595 330.59 0 326.384 0ZM33.616 1.7426H326.384C329.624 1.7426 332.25 4.35829 332.25 7.58467V213.416C332.25 216.642 329.624 219.257 326.384 219.257H33.616C30.3761 219.257 27.75 216.642 27.75 213.416V7.58467C27.75 4.35829 30.3763 1.7426 33.616 1.7426Z" fill="#090E2B"/>
<path fill-rule="evenodd" clip-rule="evenodd" d="M206.446 108H84.5551C73.7548 108 65 99.2695 65 88.4991C65 77.7305 73.7548 69 84.5551 69H206.446C217.245 69 226 77.7305 226 88.4991C226 99.2695 217.245 108 206.446 108Z" fill="#9D78FC"/>
<path fill-rule="evenodd" clip-rule="evenodd" d="M274.5 107C263.731 107 255 98.2695 255 87.4991C255 76.7305 263.731 68 274.5 68C285.27 68 294 76.7305 294 87.4991C294 98.2695 285.27 107 274.5 107Z" fill="#C7D2F2"/>
<path d="M313.891 15.3618C314.374 14.8794 315.156 14.8794 315.638 15.3618C316.106 15.8291 316.12 16.5778 315.682 17.0627L315.638 17.1088L304.109 28.6382C303.626 29.1206 302.844 29.1206 302.362 28.6382C301.894 28.1709 301.88 27.4222 302.318 26.9373L302.362 26.8912L313.891 15.3618Z" fill="black"/>
<path d="M302.362 15.3618C302.829 14.8945 303.578 14.8799 304.063 15.318L304.109 15.3618L315.638 26.8912C316.121 27.3736 316.121 28.1558 315.638 28.6382C315.171 29.1055 314.422 29.1201 313.937 28.682L313.891 28.6382L302.362 17.1088C301.879 16.6264 301.879 15.8442 302.362 15.3618Z" fill="black"/>
<path d="M237.759 133C240.653 133 243 135.239 243 138C243 140.731 240.705 142.95 237.855 142.999L237.759 143H69.2412C66.3466 143 64 140.761 64 138C64 135.269 66.2947 133.05 69.1449 133.001L69.2412 133H237.759Z" fill="#C7D2F2"/>
<path d="M165.746 164C168.648 164 171 166.239 171 169C171 171.731 168.7 173.95 165.842 173.999L165.746 174H69.2544C66.3525 174 64 171.761 64 169C64 166.269 66.3005 164.05 69.1578 164.001L69.2544 164H165.746Z" fill="#C7D2F2"/>
<path fill-rule="evenodd" clip-rule="evenodd" d="M460.091 346H246.909C244.198 346 242 343.793 242 341.071V189.93C242 187.207 244.198 185 246.909 185H460.091C462.802 185 465 187.207 465 189.93V341.071C465 343.793 462.802 346 460.091 346Z" fill="#090E2B"/>
<path fill-rule="evenodd" clip-rule="evenodd" d="M447.091 335H233.909C231.198 335 229 332.793 229 330.071V178.93C229 176.207 231.198 174 233.909 174H447.091C449.802 174 452 176.207 452 178.93V330.071C452 332.793 449.802 335 447.091 335Z" fill="#9D78FC"/>
<path d="M448.828 174H234.803C231.598 174 229 176.604 229 179.816V331.249C229 334.461 231.598 337.064 234.803 337.064H448.828C452.033 337.064 454.631 334.461 454.631 331.249V179.816C454.631 176.604 452.033 174 448.828 174ZM234.803 175.753H448.828C451.067 175.753 452.881 177.572 452.881 179.816V331.249C452.881 333.492 451.067 335.311 448.828 335.311H234.803C232.564 335.311 230.749 333.492 230.749 331.249V179.816C230.749 177.572 232.564 175.753 234.803 175.753Z" fill="#090E2B"/>
<path d="M405.362 273H256.638C254.629 273 253 274.567 253 276.5C253 278.433 254.629 280 256.638 280H405.362C407.371 280 409 278.433 409 276.5C409 274.567 407.371 273 405.362 273Z" fill="white"/>
<path d="M364.37 297H256.63C254.625 297 253 298.567 253 300.5C253 302.433 254.625 304 256.63 304H364.37C366.375 304 368 302.433 368 300.5C368 298.567 366.375 297 364.37 297Z" fill="white" fill-opacity="0.6"/>
<path d="M296.548 206.012C294.222 204.256 291.369 203.867 288.582 204.854C285.719 205.869 283.172 208.25 281.549 211.579C279.726 215.317 279.155 220.016 280.086 225.277C281.105 231.036 283.565 235.953 287.094 239.747L287.264 239.929L287.513 239.769C298.029 232.928 302.769 225.385 301.821 217.184L301.766 216.751C301.053 211.643 299.188 208.006 296.548 206.012ZM375.331 241.317L380.566 236.992C382.031 235.793 383.071 234.984 384.049 234.296C386.681 232.444 388.796 231.573 391.253 231.45C393.649 231.33 396.362 231.931 400.355 233.399L401.528 233.836C403.965 234.754 405.559 235.443 416.3 240.101C416.889 240.357 417.16 241.041 416.903 241.629C416.647 242.217 415.961 242.487 415.371 242.231L407.483 238.815C403.501 237.099 402.273 236.598 400.617 235.976L399.754 235.654C395.916 234.229 393.423 233.666 391.369 233.769C389.453 233.865 387.768 234.544 385.543 236.087L385.391 236.194C384.466 236.845 383.46 237.627 382.028 238.8L376.982 242.97C376.821 243.102 376.677 243.22 376.555 243.319C372.615 246.527 369.157 246.906 366.251 244.706C364.161 243.123 362.625 240.565 360.75 236.216L360.519 235.671C360.14 234.764 359.102 232.289 358.689 231.359L358.624 231.214C357.592 228.94 356.762 227.714 356.074 227.404C355.52 227.155 354.691 227.642 353.401 229.547L353.121 229.962C350.246 234.196 348.04 236.029 345.459 236.53L345.301 236.559C344.6 236.684 344.01 236.709 342.853 236.692L342.07 236.679C339.872 236.652 338.615 236.795 336.756 237.415C334.124 238.294 331.095 240.053 327.414 242.999L327.017 243.32C318.429 250.304 307.271 252.302 297.365 248.992C293.506 247.702 290.047 245.683 287.13 243.046L286.936 242.868L286.909 242.885C279.278 247.506 269.144 251.753 256.531 255.636L255.503 255.95C254.888 256.136 254.238 255.79 254.051 255.176C253.864 254.562 254.211 253.914 254.826 253.727C267.406 249.915 277.445 245.783 284.97 241.343L285.249 241.177L285.15 241.069C281.52 237.067 278.967 231.957 277.855 226.024L277.793 225.68C276.779 219.951 277.411 214.756 279.455 210.563C281.337 206.703 284.345 203.891 287.803 202.666C291.314 201.421 294.99 201.923 297.954 204.161C301.129 206.558 303.28 210.754 304.072 216.431C305.366 225.702 300.41 234 289.296 241.373L288.98 241.58L289.112 241.695C291.633 243.877 294.57 245.568 297.825 246.694L298.105 246.79C307.256 249.848 317.579 247.999 325.545 241.52C329.61 238.214 332.999 236.22 336.017 235.213C338.227 234.475 339.733 234.318 342.287 234.36L342.853 234.37C343.916 234.386 344.402 234.364 344.955 234.261L345.015 234.25C346.905 233.883 348.683 232.389 351.295 228.509L351.395 228.36C353.279 225.541 355.13 224.432 357.031 225.287C358.381 225.894 359.399 227.348 360.608 229.956L360.745 230.256C361.197 231.25 362.806 235.106 362.803 235.099L362.969 235.485C364.652 239.358 366.021 241.615 367.659 242.856C369.584 244.313 371.809 244.108 374.86 241.698L375.226 241.403C375.26 241.376 375.295 241.347 375.331 241.317Z" fill="white"/>
<path fill-rule="evenodd" clip-rule="evenodd" d="M95.4118 514.279C95.4118 514.279 92.4375 535.326 91.2236 544.319C89.9995 553.388 111.775 544.56 111.775 544.56C111.775 544.56 107.85 538.955 107.79 537.42C107.731 535.884 114.434 517.91 114.434 517.91L95.4118 514.279Z" fill="#F5C073"/>
<path fill-rule="evenodd" clip-rule="evenodd" d="M139.029 398.224C149.718 403.118 160.52 415.476 151.078 438.641C141.635 461.806 119.415 517.873 115.923 520.396C112.43 522.918 94.0115 517.91 94.0115 517.91C94.0115 517.91 96.0261 494.364 100.028 471.21C102.959 454.256 109.138 441.894 109.138 441.894C109.138 441.894 59.435 448.999 47.0946 440.659C30.8979 429.713 42.8897 400.217 52.199 396.565C64.1666 391.87 118.679 388.906 139.029 398.224Z" fill="#090E2B"/>
<path fill-rule="evenodd" clip-rule="evenodd" d="M138.467 554.383C136.905 549.537 125.58 546.337 117.402 543.914C114.649 543.099 110.803 539.069 109.018 539.117C106.419 539.188 108.966 544.607 100.266 544.135C97.9628 544.01 97.7983 541.582 92.7934 541.029C91.9801 540.939 90.7368 540.781 89.6631 542.717C89.0646 543.797 86.6144 553.544 89.0198 557.519C105.863 557.955 123.188 557.524 138.152 557.384C139.613 557.37 138.866 555.623 138.467 554.383Z" fill="#C51230"/>
<path fill-rule="evenodd" clip-rule="evenodd" d="M166.265 517.91C166.265 517.91 169.327 533.745 171.376 536.322C173.425 538.897 184.057 541.796 184.534 543.387C185.011 544.978 161.872 548.703 161.872 548.703L147.716 519.275L166.265 517.91Z" fill="#F5C073"/>
<path fill-rule="evenodd" clip-rule="evenodd" d="M205.451 553.511C203.889 548.666 192.564 545.465 184.387 543.043C181.634 542.227 177.788 538.197 176.003 538.246C173.403 538.316 175.951 543.735 167.25 543.264C164.947 543.139 164.783 540.71 159.778 540.157C158.964 540.067 157.721 539.909 156.647 541.846C156.049 542.925 153.599 552.672 156.004 556.647C172.847 557.083 190.172 556.652 205.137 556.512C206.598 556.499 205.85 554.751 205.451 553.511Z" fill="#C51230"/>
<path fill-rule="evenodd" clip-rule="evenodd" d="M185.906 546.504C186.975 544.347 187.443 543.972 186.987 543.632C185.897 542.82 180.358 545.329 179.923 546.822C179.596 547.941 183.285 544.703 186.23 544.22C185.023 545.324 183.898 548.709 185.085 548.034C190.871 544.747 191.783 545.51 191.79 545.388C191.825 544.807 189.635 544.336 185.906 546.504Z" fill="#FFB201"/>
<path fill-rule="evenodd" clip-rule="evenodd" d="M28.5773 420.593C32.0465 438.591 48.0524 445.056 61.9415 444.519C83.1571 443.698 104.784 434.259 112.094 431.104C111.45 435.746 114.893 462.141 120.642 474.357C126.39 486.572 145.109 523.32 145.109 523.32C145.109 523.32 166.23 523.445 167.134 518.308C167.728 514.929 147.899 420.549 141.339 404.207C137.573 394.823 125.382 390.773 100.307 388.638C75.1224 386.493 38.4083 390.447 38.4083 390.447C38.4083 390.447 25.1081 402.595 28.5773 420.593Z" fill="#001386"/>
<path fill-rule="evenodd" clip-rule="evenodd" d="M118.925 547.666C119.994 545.509 120.461 545.134 120.005 544.794C118.915 543.983 113.377 546.491 112.941 547.984C112.615 549.102 116.303 545.865 119.248 545.382C118.041 546.486 116.916 549.871 118.104 549.196C123.889 545.909 124.802 546.672 124.809 546.549C124.843 545.968 122.654 545.498 118.925 547.666Z" fill="#FFB201"/>
<path fill-rule="evenodd" clip-rule="evenodd" d="M134.909 559.275L94.3677 559.992C91.6553 560.1 87.5982 559.166 87.2058 556.908C86.9127 555.222 87.5645 551.549 87.6996 551.305C88.6441 549.602 96.692 551.039 99.0364 556.787C113.829 557.898 139.02 556.812 139.02 556.812C139.02 556.812 139.398 559.043 134.909 559.275Z" fill="#090E2B"/>
<path fill-rule="evenodd" clip-rule="evenodd" d="M201.859 558.227L161.318 558.944C158.606 559.053 154.548 558.118 154.156 555.861C153.863 554.174 154.515 550.502 154.65 550.257C155.594 548.555 163.642 549.991 165.986 555.74C180.779 556.85 205.97 555.765 205.97 555.765C205.97 555.765 206.348 557.996 201.859 558.227Z" fill="#090E2B"/>
<path fill-rule="evenodd" clip-rule="evenodd" d="M128 343.802C128 343.802 133.278 340.886 136.448 338.799C143.487 334.163 146.388 332.145 146.939 328.19C147.748 322.402 150.165 322.366 152.135 322.366C153.29 322.366 155.996 321.166 156.92 323.113C156.876 324.627 157.272 328.481 156.625 329.17C155.625 330.233 147.006 342.15 139.799 350.666C135.266 356.022 130.7 359 130.7 359C130.7 359 129.8 353.934 128 343.802Z" fill="#F5C073"/>
<path fill-rule="evenodd" clip-rule="evenodd" d="M101.26 331.15C102.657 345.73 106.838 350.72 107.417 353.02C107.417 353.02 125.271 343.238 133.064 339.842C136.185 351.011 137.783 369.463 138 370.547C136.051 372.93 102.218 383.78 98.5417 382.955C97.3501 382.688 91.0267 383.184 89.2398 374.079C85.4216 354.623 86.6446 319.937 91.6951 313C91.6951 313 99.8633 316.57 101.26 331.15Z" fill="#C51230"/>
<path fill-rule="evenodd" clip-rule="evenodd" d="M142.566 283.459L126 325.149L151.059 327L167 287.932L158.34 275L155.017 285.526L142.566 283.459Z" fill="#090E2B"/>
<path fill-rule="evenodd" clip-rule="evenodd" d="M55.5511 304.265C54.7376 308.028 40.1807 311.085 40.1807 311.085C40.1807 311.085 68.4197 328.434 73.2902 327.421C82.2711 325.554 86.5747 316.468 88.2223 312.156C83.3258 310.858 77.851 309.045 74.6531 307.608C71.4549 306.171 72.9543 295.617 72.7587 290.255C66.1335 288.941 56.8142 286.367 56.8142 286.367C56.8142 286.367 56.3645 300.502 55.5511 304.265Z" fill="#F5C073"/>
<path fill-rule="evenodd" clip-rule="evenodd" d="M46.8911 308C46.8911 308 63.2057 319.994 71.5345 320.191C75.6156 320.288 80.2035 311.923 81.0104 308.967C85.4416 310.451 89.7143 312.148 91.849 313.53C93.5517 320.65 95.2797 336.941 94.962 343.701C94.6578 350.18 90.4246 362.687 90.714 368.146C90.9107 371.859 91.0165 376.758 92.0503 386.767C92.2525 388.725 88.993 396.151 59.5 396.151C37.0423 396.151 30.542 409.539 24.019 406.57C23.4346 401.091 36.5507 382.28 36.8878 377.004C37.2245 371.728 35.2454 362.136 34.5364 354.983C33.8276 347.83 28.389 318.087 29.5688 314.955C30.3554 312.866 36.1295 310.548 46.8911 308Z" fill="#C51230"/>
<path fill-rule="evenodd" clip-rule="evenodd" d="M45.8927 435.691C47.7164 437.451 48.6026 438.373 49.2805 440.024C50.2207 442.313 50.518 445.182 50.7751 446.011C51.7306 449.094 48.578 447.252 47.754 445.152C46.1323 449.001 48.7204 456.695 46.1323 455.95C38.4336 453.732 39.2274 448.097 38.5662 439.075C38.3343 435.912 28.1161 426.201 26.5465 423.217C25.7125 421.631 35.476 411.927 37.1513 414.036C38.8263 416.145 42.5545 432.467 45.8927 435.691Z" fill="#F5C073"/>
<path fill-rule="evenodd" clip-rule="evenodd" d="M35.5344 312C35.5344 312 23.6654 315.204 20.4874 328.443C17.3095 341.681 2.31905 369.372 0.753945 379.134C-1.73314 394.646 1.89856 410.307 12.161 437C16.2269 434.062 37.1327 417.235 38.3435 412.665C33.5424 403.903 28.4021 388.157 29.0464 380.541C29.6907 372.925 42.1625 357.42 42.8849 348.25C43.5796 339.427 41.1294 327.344 35.5344 312Z" fill="#C51230"/>
<path fill-rule="evenodd" clip-rule="evenodd" d="M151.651 321.658C153.976 325.803 151.23 325.601 150.637 327.841C149.474 332.23 158.202 328.833 158.202 328.833C158.202 328.833 158.498 325.602 158.35 324.32C158.06 321.814 157.152 318.797 154.739 317.33C153.838 316.783 150.53 319.662 151.651 321.658Z" fill="#F5C073"/>
<path fill-rule="evenodd" clip-rule="evenodd" d="M103.572 360.908C103.456 361.191 102.516 363.347 102.2 363.894C102.096 364.075 104.771 356.128 107.389 353.72C107.506 353.612 107.386 353.891 107.31 354.038C106.158 356.237 104.548 358.524 103.572 360.908Z" fill="#090E2B"/>
<path fill-rule="evenodd" clip-rule="evenodd" d="M91.9188 363.919C92.4265 360.302 93.4866 356.789 94.1849 353.229C95.2845 347.296 94.9566 340.98 93.4619 335.366C93.4437 335.301 93.2468 334.476 93.3021 334.459C93.3574 334.443 93.6652 335.234 93.6839 335.307C97.2006 347.188 94.9373 352.741 92.5492 364.02C92.0238 367.92 91.9721 372.848 92.2341 377.749C92.3073 379.118 92.3284 380.612 92.4595 381.313C92.5003 381.531 92.509 381.642 92.4883 381.67C92.435 381.744 92.1987 381.161 91.9188 379.187C91.2671 374.59 91.2506 368.402 91.9188 363.919Z" fill="#090E2B"/>
<path fill-rule="evenodd" clip-rule="evenodd" d="M43.1015 336.185C45.0174 346.357 41.9793 356.682 36.1266 365.044C36.0665 365.132 36.1356 364.892 36.1981 364.79C40.6726 357.237 43.3831 348.918 42.9494 340.006C42.8884 338.75 42.7669 336.942 42.6267 335.7C42.5905 335.441 43.0619 335.913 43.1015 336.185Z" fill="#090E2B"/>
<path fill-rule="evenodd" clip-rule="evenodd" d="M35.1932 406.886C35.4977 407.782 33.8844 404.413 32.9246 401.84C32.073 398.954 30.7512 395.489 30.5723 392.752C32.2775 397.317 33.6179 402.25 35.1932 406.886Z" fill="#090E2B"/>
<path fill-rule="evenodd" clip-rule="evenodd" d="M150.446 329.944C149.789 327.953 150.801 326.715 152.018 325.661C152.157 325.54 152.425 325.273 152.553 325.14C152.605 325.085 152.514 325.347 152.453 325.461C151.948 326.393 150.902 326.976 150.598 328.613C150.552 328.862 150.658 330.588 150.446 329.944Z" fill="#090E2B"/>
<path fill-rule="evenodd" clip-rule="evenodd" d="M152.96 276.749L149.075 284.475L165.766 287.242L165.963 286.98L152.96 276.749Z" fill="#FFB201"/>
<path fill-rule="evenodd" clip-rule="evenodd" d="M73.2003 260.927C75.7678 256.568 80.8836 250.713 89.9306 252.743C102.491 255.561 91.5697 269.514 92.1286 276.217C94.1718 300.727 88.0504 309.876 79.5299 309.876C71.1256 309.876 67.3602 304.388 71.7742 293.544C75.742 283.795 68.4726 268.952 73.2003 260.927Z" fill="#090E2B"/>
<path fill-rule="evenodd" clip-rule="evenodd" d="M91.3037 272.667C90.748 280.747 93.1327 297.774 81.5229 300.789C73.381 302.903 54.9991 297.395 52.9485 283.643C52.5898 281.238 48.7316 266.697 58.3464 258.295C66.6777 251.014 88.7889 251.78 90.6826 255.538C94.2066 262.53 91.8594 264.587 91.3037 272.667Z" fill="#F5C073"/>
<path fill-rule="evenodd" clip-rule="evenodd" d="M91.9688 255.052C92.3836 259.508 88.3911 262.048 82.8985 262.969C74.475 264.381 65.56 262.565 59.7627 267.438C58.0618 268.867 59.7477 274.755 57.8534 276.57C56.6115 277.76 56.0438 275.204 55.9799 274.981C55.4354 273.076 54.8486 274.728 54.0775 274.342C53.849 281.505 53.849 285.786 57.3233 291.289C61.4138 297.769 70.3395 313.92 67.5371 326.228C63.9453 342.002 43.5708 345.563 47.0248 323.072C50.4787 300.58 43.1739 302.962 39.5117 290.253C37.7402 284.105 37.1595 275.602 39.8032 264.81C45.1583 242.95 62.3429 238.303 76.1723 240.488C85.9422 242.031 91.5155 250.183 91.9688 255.052Z" fill="#090E2B"/>
<path fill-rule="evenodd" clip-rule="evenodd" d="M52.6544 272.415C51.2099 272.307 48.0493 272.62 49.3665 279.076C50.2304 283.31 55.7942 284.201 56.9662 283.975C59.0635 283.57 57.1262 280.327 56.9662 277.315C56.8578 275.279 55.3324 272.615 52.6544 272.415Z" fill="#F5C073"/>
<path fill-rule="evenodd" clip-rule="evenodd" d="M70.1022 299.568C70.1763 299.596 70.2977 299.94 70.2199 299.955C68.6472 300.261 64.6614 298.734 62.2127 296.627C61.9261 296.38 60.8533 295.441 61.3469 295.566C63.5399 297.083 69.3711 299.294 70.1022 299.568Z" fill="#090E2B"/>
<path fill-rule="evenodd" clip-rule="evenodd" d="M51.6312 274.866C50.8773 274.905 50.598 275.688 51.3493 275.641C52.335 275.579 53.5945 276.492 54.1791 277.237C53.4686 277.322 52.884 277.495 52.342 278.082C52.014 278.437 52.0447 278.85 52.4132 278.539C53.3164 277.777 54.208 277.75 54.4715 277.766C54.5141 277.801 55.0409 279.023 55.1234 279.541C55.7103 279.698 54.7913 274.701 51.6312 274.866Z" fill="#090E2B"/>
<path fill-rule="evenodd" clip-rule="evenodd" d="M64.0137 268.249C64.513 265.995 71.0831 265.205 73.9742 266.95C74.9737 267.547 76.8301 269.186 75.1865 270.079C74.7525 270.268 74.3309 270.074 73.9742 269.842C70.0337 267.092 63.6657 269.821 64.0137 268.249Z" fill="#090E2B"/>
<path fill-rule="evenodd" clip-rule="evenodd" d="M69.3445 272.324C67.858 272.748 66.5838 273.948 66.4655 274.942C66.3938 275.543 68.741 276.986 71.0047 277.098C73.9826 277.245 75.4837 275.625 75.4784 275.107C75.2779 273.54 73.4814 271.146 69.3445 272.324Z" fill="white"/>
<path fill-rule="evenodd" clip-rule="evenodd" d="M73.9501 273.216C71.6611 271.478 68.1159 272.611 66.4647 274.943C66.37 275.063 66.3973 274.759 66.463 274.621C67.2597 272.941 68.6969 272.149 70.3633 271.803C71.366 271.595 72.3009 271.578 73.2789 272.018C73.6569 272.188 74.3248 272.705 74.8409 273.29C75.2435 273.746 75.5825 274.528 75.1167 274.252C74.7521 274.035 74.2537 273.447 73.9501 273.216Z" fill="#090E2B"/>
<path fill-rule="evenodd" clip-rule="evenodd" d="M70.9741 276.183C72.2466 276.183 73.2783 275.238 73.2783 274.071C73.2783 272.905 72.2466 271.959 70.9741 271.959C69.7016 271.959 68.6699 272.905 68.6699 274.071C68.6699 275.238 69.7016 276.183 70.9741 276.183Z" fill="#090E2B"/>
<path fill-rule="evenodd" clip-rule="evenodd" d="M87.4522 267.877C88.395 268.297 89.65 269.692 88.6052 269.692C87.5604 269.692 85.2974 269.394 83.7803 270.023C83.2504 270.159 82.8483 270.419 82.3162 270.483C81.1052 270.72 80.4473 269.263 81.3035 268.382C82.2708 267.387 85.5362 266.915 87.4522 267.877Z" fill="#090E2B"/>
<path fill-rule="evenodd" clip-rule="evenodd" d="M86.384 277.018C87.8938 276.666 89.0229 275.29 88.8953 274.263C88.6463 272.901 86.0362 272.032 84.5743 272.775C83.1263 273.511 82.2203 275.156 82.3373 275.806C82.5062 276.255 84.841 277.379 86.384 277.018Z" fill="white"/>
<path fill-rule="evenodd" clip-rule="evenodd" d="M85.135 276.276C86.1295 276.276 86.9357 275.499 86.9357 274.54C86.9357 273.58 86.3676 272.674 85.135 272.803C84.1458 272.906 83.334 273.58 83.334 274.54C83.334 275.499 84.1405 276.276 85.135 276.276Z" fill="#090E2B"/>
<path fill-rule="evenodd" clip-rule="evenodd" d="M82.3914 274.873C82.9618 272.735 85.5369 271.635 87.5735 272.647C87.8602 272.798 88.3257 273.135 88.6743 273.542C88.995 273.918 88.9531 274.114 88.8222 274.075C88.6051 274.01 88.1461 273.597 87.7731 273.419C85.8869 272.52 83.9246 273.024 82.4879 275.133C82.4173 275.243 82.3504 274.997 82.3914 274.873Z" fill="#090E2B"/>
<path fill-rule="evenodd" clip-rule="evenodd" d="M82.5412 282.978C82.2672 284.367 80.5682 284.502 79.4616 284.187C78.5621 283.931 78.3291 283.405 78.6332 283.236C79.1288 282.961 80.7174 283.726 81.3038 282.996C82.3494 281.694 79.1409 276.906 80.1602 277.675C81.5074 278.692 82.7241 282.051 82.5412 282.978Z" fill="#090E2B"/>
<path fill-rule="evenodd" clip-rule="evenodd" d="M83.2874 288.694C83.0715 288.857 82.5647 289.531 82.0522 289.959C80.8997 290.921 79.0248 291.142 77.92 290.921C75.8431 290.505 74.9446 289.145 74.3957 288.772C73.8467 288.399 74.8773 287.921 75.6657 287.991C76.4542 288.061 76.9834 288.291 78.4881 288.941C79.4592 289.361 81.6549 288.772 82.2753 288.399C83.4588 287.688 83.8138 288.296 83.2874 288.694Z" fill="#090E2B"/>
<path fill-rule="evenodd" clip-rule="evenodd" d="M77.8556 274.915C77.7812 279.393 74.0367 283 69.4285 283C64.7735 283 61 279.319 61 274.779C61 270.238 64.7736 266.557 69.4285 266.557C74.0366 266.557 77.7812 270.165 77.8556 274.643L77.8567 274.779L77.8556 274.915ZM76.7129 274.661C76.6486 270.791 73.4118 267.672 69.4285 267.672C65.4047 267.672 62.1428 270.854 62.1428 274.779C62.1428 278.704 65.4047 281.885 69.4285 281.885C73.4119 281.885 76.6486 278.767 76.7129 274.896L76.7139 274.779L76.7129 274.661Z" fill="#090E2B"/>
<path fill-rule="evenodd" clip-rule="evenodd" d="M94.999 273.507C94.9322 277.53 91.5685 280.77 87.4288 280.77C83.2473 280.77 79.8575 277.464 79.8575 273.385C79.8575 269.306 83.2473 266 87.4288 266C91.5685 266 94.9322 269.241 94.999 273.263L95 273.385L94.999 273.507ZM93.8563 273.282C93.7996 269.866 90.9436 267.115 87.4288 267.115C83.8784 267.115 81.0004 269.922 81.0004 273.385C81.0004 276.848 83.8784 279.656 87.4288 279.656C90.9436 279.656 93.7996 276.904 93.8563 273.489L93.8572 273.385L93.8563 273.282Z" fill="#090E2B"/>
<path fill-rule="evenodd" clip-rule="evenodd" d="M80.6725 270.31C80.9797 270.383 81.1694 270.703 81.0963 271.026C81.0232 271.349 80.7149 271.552 80.4077 271.479C79.2557 271.207 77.6434 271.591 77.0936 271.727C76.5438 271.863 76.3148 271.7 76.2175 271.387C76.1203 271.073 76.3046 270.688 76.605 270.582C76.9054 270.476 79.3537 269.999 80.6725 270.31Z" fill="#090E2B"/>
<rect x="1" y="559" width="501" height="5" rx="2.5" fill="#090E2B"/>
<path d="M104.761 88.275C104.761 89.0929 104.624 89.8562 104.352 90.565C104.079 91.2738 103.692 91.9008 103.191 92.4461C102.7 92.9804 102.111 93.4002 101.424 93.7056C100.748 94.0109 100.006 94.1636 99.1994 94.1636C98.3924 94.1636 97.6509 94.0109 96.9748 93.7056C96.2987 93.4002 95.7098 92.9804 95.2082 92.4461C94.7175 91.9008 94.3358 91.2738 94.0632 90.565C93.7906 89.8562 93.6543 89.0929 93.6543 88.275C93.6543 87.4571 93.7906 86.6938 94.0632 85.985C94.3358 85.2762 94.7175 84.6546 95.2082 84.1203C95.7098 83.575 96.2987 83.1497 96.9748 82.8444C97.6509 82.5391 98.3924 82.3864 99.1994 82.3864C100.006 82.3864 100.748 82.5391 101.424 82.8444C102.111 83.1497 102.7 83.575 103.191 84.1203C103.692 84.6546 104.079 85.2762 104.352 85.985C104.624 86.6938 104.761 87.4571 104.761 88.275ZM102.634 88.275C102.634 87.5444 102.487 86.8846 102.193 86.2958C101.898 85.696 101.495 85.2217 100.982 84.8727C100.47 84.5238 99.8755 84.3493 99.1994 84.3493C98.5233 84.3493 97.929 84.5238 97.4164 84.8727C96.9039 85.2217 96.5004 85.6906 96.206 86.2794C95.9225 86.8683 95.7807 87.5335 95.7807 88.275C95.7807 89.0056 95.9225 89.6708 96.206 90.2706C96.5004 90.8594 96.9039 91.3283 97.4164 91.6773C97.929 92.0262 98.5233 92.2007 99.1994 92.2007C99.8755 92.2007 100.47 92.0262 100.982 91.6773C101.495 91.3283 101.898 90.8594 102.193 90.2706C102.487 89.6708 102.634 89.0056 102.634 88.275ZM108.601 93.0022C108.601 93.2857 108.503 93.5256 108.307 93.7219C108.121 93.9073 107.887 94 107.603 94C107.331 94 107.102 93.9073 106.916 93.7219C106.731 93.5256 106.638 93.2857 106.638 93.0022V82.8935C106.638 82.61 106.731 82.3755 106.916 82.1901C107.113 81.9938 107.353 81.8957 107.636 81.8957C107.92 81.8957 108.149 81.9938 108.323 82.1901C108.509 82.3755 108.601 82.61 108.601 82.8935V93.0022ZM114.355 85.0853C114.813 85.0853 115.233 85.1562 115.615 85.298C115.996 85.4398 116.323 85.6197 116.596 85.8378C116.88 86.0559 117.098 86.2794 117.25 86.5084C117.414 86.7265 117.496 86.9119 117.496 87.0646L117.07 87.2772V86.0831C117.07 85.7996 117.163 85.5652 117.349 85.3798C117.534 85.1835 117.768 85.0853 118.052 85.0853C118.335 85.0853 118.57 85.178 118.755 85.3634C118.941 85.5488 119.033 85.7887 119.033 86.0831V93.3621C119.033 94.3108 118.826 95.0687 118.412 95.6357C118.008 96.2137 117.474 96.6281 116.809 96.8789C116.144 97.1406 115.429 97.2714 114.666 97.2714C114.448 97.2714 114.164 97.2442 113.815 97.1896C113.466 97.1351 113.134 97.0697 112.818 96.9934C112.501 96.917 112.261 96.8461 112.098 96.7807C111.771 96.639 111.542 96.459 111.411 96.2409C111.291 96.0337 111.269 95.8102 111.345 95.5703C111.444 95.254 111.602 95.036 111.82 94.916C112.038 94.807 112.267 94.796 112.507 94.8833C112.616 94.916 112.796 94.9814 113.047 95.0796C113.297 95.1777 113.57 95.265 113.864 95.3413C114.17 95.4285 114.437 95.4721 114.666 95.4721C115.484 95.4721 116.089 95.3086 116.482 94.9814C116.874 94.6543 117.07 94.2017 117.07 93.6238V92.2007L117.267 92.3479C117.267 92.4897 117.19 92.6642 117.038 92.8714C116.896 93.0676 116.694 93.2639 116.433 93.4602C116.182 93.6565 115.882 93.8255 115.533 93.9673C115.184 94.0981 114.813 94.1636 114.421 94.1636C113.646 94.1636 112.948 93.9727 112.327 93.5911C111.705 93.1985 111.215 92.6642 110.855 91.9881C110.495 91.3011 110.315 90.5159 110.315 89.6326C110.315 88.7384 110.495 87.9533 110.855 87.2772C111.215 86.5902 111.7 86.0559 112.311 85.6742C112.921 85.2816 113.603 85.0853 114.355 85.0853ZM114.666 86.8846C114.175 86.8846 113.745 87.0046 113.374 87.2445C113.003 87.4844 112.714 87.8115 112.507 88.2259C112.3 88.6403 112.196 89.1092 112.196 89.6326C112.196 90.1452 112.3 90.6086 112.507 91.023C112.714 91.4374 113.003 91.7645 113.374 92.0044C113.745 92.2443 114.175 92.3643 114.666 92.3643C115.168 92.3643 115.604 92.2443 115.975 92.0044C116.345 91.7645 116.634 91.4374 116.841 91.023C117.049 90.6086 117.152 90.1452 117.152 89.6326C117.152 89.1092 117.049 88.6403 116.841 88.2259C116.634 87.8115 116.345 87.4844 115.975 87.2445C115.604 87.0046 115.168 86.8846 114.666 86.8846ZM128.239 85.0853C128.523 85.0853 128.757 85.178 128.943 85.3634C129.128 85.5488 129.221 85.7887 129.221 86.0831V93.0022C129.221 93.2857 129.128 93.5256 128.943 93.7219C128.757 93.9073 128.523 94 128.239 94C127.956 94 127.721 93.9073 127.536 93.7219C127.351 93.5256 127.258 93.2857 127.258 93.0022V92.2007L127.618 92.3479C127.618 92.4897 127.541 92.6642 127.389 92.8714C127.236 93.0676 127.029 93.2639 126.767 93.4602C126.505 93.6565 126.195 93.8255 125.835 93.9673C125.486 94.0981 125.104 94.1636 124.69 94.1636C123.937 94.1636 123.256 93.9727 122.645 93.5911C122.035 93.1985 121.549 92.6642 121.189 91.9881C120.84 91.3011 120.666 90.5159 120.666 89.6326C120.666 88.7384 120.84 87.9533 121.189 87.2772C121.549 86.5902 122.029 86.0559 122.629 85.6742C123.229 85.2816 123.894 85.0853 124.624 85.0853C125.093 85.0853 125.524 85.1562 125.917 85.298C126.309 85.4398 126.647 85.6197 126.931 85.8378C127.225 86.0559 127.449 86.2794 127.601 86.5084C127.765 86.7265 127.847 86.9119 127.847 87.0646L127.258 87.2772V86.0831C127.258 85.7996 127.351 85.5652 127.536 85.3798C127.721 85.1835 127.956 85.0853 128.239 85.0853ZM124.935 92.3643C125.415 92.3643 125.835 92.2443 126.195 92.0044C126.555 91.7645 126.833 91.4374 127.029 91.023C127.236 90.6086 127.34 90.1452 127.34 89.6326C127.34 89.1092 127.236 88.6403 127.029 88.2259C126.833 87.8115 126.555 87.4844 126.195 87.2445C125.835 87.0046 125.415 86.8846 124.935 86.8846C124.466 86.8846 124.052 87.0046 123.692 87.2445C123.332 87.4844 123.049 87.8115 122.841 88.2259C122.645 88.6403 122.547 89.1092 122.547 89.6326C122.547 90.1452 122.645 90.6086 122.841 91.023C123.049 91.4374 123.332 91.7645 123.692 92.0044C124.052 92.2443 124.466 92.3643 124.935 92.3643ZM144.453 82.5173C144.725 82.5173 144.96 82.61 145.156 82.7953C145.363 82.9698 145.467 83.1934 145.467 83.466C145.467 83.6077 145.434 83.755 145.369 83.9076L141.328 93.3621C141.23 93.5802 141.088 93.7437 140.903 93.8528C140.729 93.9509 140.549 94 140.363 94C140.189 93.9891 140.02 93.9346 139.856 93.8364C139.693 93.7274 139.567 93.5747 139.48 93.3784L135.44 83.8913C135.407 83.8258 135.385 83.7604 135.374 83.695C135.363 83.6187 135.358 83.5478 135.358 83.4823C135.358 83.1661 135.473 82.9262 135.702 82.7626C135.931 82.5882 136.149 82.5009 136.356 82.5009C136.77 82.5009 137.07 82.7136 137.255 83.1388L140.838 91.5628L140.265 91.5791L143.553 83.1388C143.738 82.7245 144.038 82.5173 144.453 82.5173ZM155.122 89.6326C155.122 90.5268 154.921 91.3174 154.517 92.0044C154.125 92.6805 153.59 93.2094 152.914 93.5911C152.249 93.9727 151.502 94.1636 150.673 94.1636C149.844 94.1636 149.092 93.9727 148.416 93.5911C147.751 93.2094 147.216 92.6805 146.813 92.0044C146.42 91.3174 146.224 90.5268 146.224 89.6326C146.224 88.7384 146.42 87.9533 146.813 87.2772C147.216 86.5902 147.751 86.0559 148.416 85.6742C149.092 85.2816 149.844 85.0853 150.673 85.0853C151.502 85.0853 152.249 85.2816 152.914 85.6742C153.59 86.0559 154.125 86.5902 154.517 87.2772C154.921 87.9533 155.122 88.7384 155.122 89.6326ZM153.159 89.6326C153.159 89.0765 153.045 88.5967 152.816 88.1932C152.598 87.7788 152.298 87.4571 151.916 87.2281C151.546 86.9991 151.131 86.8846 150.673 86.8846C150.215 86.8846 149.795 86.9991 149.414 87.2281C149.043 87.4571 148.743 87.7788 148.514 88.1932C148.296 88.5967 148.187 89.0765 148.187 89.6326C148.187 90.1779 148.296 90.6577 148.514 91.0721C148.743 91.4755 149.043 91.7918 149.414 92.0208C149.795 92.2498 150.215 92.3643 150.673 92.3643C151.131 92.3643 151.546 92.2498 151.916 92.0208C152.298 91.7918 152.598 91.4755 152.816 91.0721C153.045 90.6577 153.159 90.1779 153.159 89.6326ZM162.258 92.2007C162.52 92.2007 162.738 92.288 162.913 92.4624C163.087 92.626 163.174 92.8386 163.174 93.1004C163.174 93.3512 163.087 93.5638 162.913 93.7383C162.738 93.9128 162.52 94 162.258 94H156.991C156.719 94 156.501 93.9019 156.337 93.7056C156.173 93.5093 156.097 93.313 156.108 93.1167C156.119 92.9531 156.141 92.8114 156.173 92.6914C156.206 92.5606 156.288 92.4134 156.419 92.2498L160.492 86.9828L160.459 87.2118H157.138C156.877 87.2118 156.659 87.1245 156.484 86.9501C156.31 86.7756 156.222 86.5575 156.222 86.2958C156.222 86.045 156.31 85.8378 156.484 85.6742C156.659 85.4997 156.877 85.4125 157.138 85.4125H162.176C162.427 85.4125 162.64 85.5052 162.814 85.6906C162.989 85.8759 163.065 86.1104 163.043 86.3939C163.033 86.503 163.011 86.612 162.978 86.7211C162.956 86.8301 162.885 86.961 162.765 87.1136L158.758 92.2989V92.2007H162.258ZM169.282 85.0853C170.089 85.0853 170.699 85.2544 171.114 85.5924C171.539 85.9305 171.828 86.383 171.981 86.9501C172.144 87.5062 172.226 88.1278 172.226 88.8148V93.0022C172.226 93.2857 172.133 93.5256 171.948 93.7219C171.762 93.9073 171.528 94 171.244 94C170.961 94 170.727 93.9073 170.541 93.7219C170.356 93.5256 170.263 93.2857 170.263 93.0022V88.8148C170.263 88.4549 170.214 88.1332 170.116 87.8497C170.029 87.5553 169.865 87.3208 169.625 87.1463C169.385 86.9719 169.042 86.8846 168.595 86.8846C168.158 86.8846 167.788 86.9719 167.482 87.1463C167.188 87.3208 166.959 87.5553 166.795 87.8497C166.643 88.1332 166.566 88.4549 166.566 88.8148V93.0022C166.566 93.2857 166.474 93.5256 166.288 93.7219C166.103 93.9073 165.868 94 165.585 94C165.301 94 165.067 93.9073 164.882 93.7219C164.696 93.5256 164.603 93.2857 164.603 93.0022V86.2467C164.603 85.9632 164.696 85.7287 164.882 85.5433C165.067 85.3471 165.301 85.2489 165.585 85.2489C165.868 85.2489 166.103 85.3471 166.288 85.5433C166.474 85.7287 166.566 85.9632 166.566 86.2467V86.9501L166.321 86.901C166.419 86.7156 166.561 86.5193 166.746 86.3121C166.932 86.094 167.15 85.8923 167.401 85.7069C167.651 85.5215 167.935 85.3743 168.251 85.2653C168.567 85.1453 168.911 85.0853 169.282 85.0853ZM180.841 85.2489C181.125 85.2489 181.359 85.3471 181.545 85.5433C181.73 85.7287 181.823 85.9632 181.823 86.2467V90.4014C181.823 91.5573 181.501 92.4733 180.858 93.1494C180.214 93.8255 179.287 94.1636 178.077 94.1636C176.866 94.1636 175.94 93.8255 175.296 93.1494C174.664 92.4733 174.347 91.5573 174.347 90.4014V86.2467C174.347 85.9632 174.44 85.7287 174.626 85.5433C174.811 85.3471 175.045 85.2489 175.329 85.2489C175.612 85.2489 175.847 85.3471 176.032 85.5433C176.218 85.7287 176.31 85.9632 176.31 86.2467V90.4014C176.31 91.0666 176.458 91.5628 176.752 91.8899C177.046 92.2062 177.488 92.3643 178.077 92.3643C178.677 92.3643 179.124 92.2062 179.418 91.8899C179.713 91.5628 179.86 91.0666 179.86 90.4014V86.2467C179.86 85.9632 179.953 85.7287 180.138 85.5433C180.323 85.3471 180.558 85.2489 180.841 85.2489ZM185.093 94C184.809 94 184.575 93.9073 184.389 93.7219C184.204 93.5256 184.111 93.2857 184.111 93.0022V82.8935C184.111 82.61 184.204 82.3755 184.389 82.1901C184.575 81.9938 184.809 81.8957 185.093 81.8957C185.376 81.8957 185.611 81.9938 185.796 82.1901C185.981 82.3755 186.074 82.61 186.074 82.8935V93.0022C186.074 93.2857 185.981 93.5256 185.796 93.7219C185.611 93.9073 185.376 94 185.093 94ZM190.294 85.2489C190.545 85.2489 190.763 85.3525 190.949 85.5597C191.134 85.7669 191.227 85.9686 191.227 86.1649C191.227 86.4266 191.096 86.672 190.834 86.901L185.911 91.4319L185.829 89.1746L189.575 85.5597C189.782 85.3525 190.022 85.2489 190.294 85.2489ZM190.54 93.9836C190.256 93.9836 190.016 93.8746 189.82 93.6565L186.794 90.4505L188.282 89.0765L191.227 92.2825C191.434 92.5006 191.537 92.746 191.537 93.0186C191.537 93.3021 191.423 93.5365 191.194 93.7219C190.976 93.8964 190.758 93.9836 190.54 93.9836Z" fill="white"/>
</svg>
