<svg width="38" height="38" viewBox="0 0 38 38" fill="none" xmlns="http://www.w3.org/2000/svg">
<path d="M8.83624 9.72145L9.84965 13.985L8.83624 18.23L12.6084 20.5286L14.9167 24.2545L19.2331 23.2535L23.5495 24.2545L25.8579 20.5286L29.63 18.23L28.6166 13.985L29.63 9.72145L25.8766 7.42285L23.5495 3.6969L19.2331 4.71644L14.9355 3.71544L12.5896 7.42285L8.83624 9.72145ZM19.2519 21.4739C17.261 21.4739 15.3516 20.6927 13.9438 19.3022C12.536 17.9116 11.7451 16.0257 11.7451 14.0591C11.7451 12.0926 12.536 10.2066 13.9438 8.81604C15.3516 7.4255 17.261 6.64429 19.2519 6.64429C23.3806 6.64429 26.7399 9.96243 26.7399 14.0406C26.7399 18.1558 23.3806 21.4739 19.2519 21.4739ZM19.2144 19.6202C16.099 19.6202 13.603 17.1363 13.603 14.0591C13.603 11.0005 16.099 8.498 19.2144 8.498C22.3297 8.498 24.8632 11.0005 24.8632 14.0591C24.8632 17.1363 22.3297 19.6202 19.2144 19.6202ZM26.4209 21.6593L24.0187 25.8116L20.1152 24.9404L24.8632 35.7475L27.4906 31.6693H32.1823L26.4209 21.6593ZM11.9703 21.7891L14.3162 25.9599L18.3135 25.0145L13.603 35.7475L10.9757 31.6693H6.28394L11.9703 21.7891Z" fill="black"/>
</svg>
