<svg width="26" height="27" viewBox="0 0 26 27" fill="none" xmlns="http://www.w3.org/2000/svg">
<path d="M17.3218 11.1431C17.4628 10.9941 17.5395 10.7971 17.5359 10.5935C17.5322 10.3899 17.4485 10.1957 17.3023 10.0517C17.1561 9.90772 16.9588 9.82525 16.7521 9.82166C16.5453 9.81807 16.3453 9.89364 16.194 10.0324L11.4378 14.7159L9.86944 13.1715C9.71816 13.0327 9.51808 12.9572 9.31134 12.9608C9.1046 12.9643 8.90734 13.0468 8.76113 13.1908C8.61492 13.3348 8.53117 13.529 8.52752 13.7326C8.52388 13.9362 8.60062 14.1332 8.74158 14.2822L10.8739 16.3819C11.0235 16.529 11.2263 16.6117 11.4378 16.6117C11.6493 16.6117 11.8521 16.529 12.0017 16.3819L17.3218 11.1431ZM6.64972 4.03925C5.73258 4.03925 4.85301 4.39801 4.20449 5.03661C3.55598 5.67522 3.19165 6.54135 3.19165 7.44447V19.4937C3.19165 20.3969 3.55598 21.263 4.20449 21.9016C4.85301 22.5402 5.73258 22.899 6.64972 22.899H18.8859C19.8031 22.899 20.6827 22.5402 21.3312 21.9016C21.9797 21.263 22.344 20.3969 22.344 19.4937V7.44447C22.344 6.54135 21.9797 5.67522 21.3312 5.03661C20.6827 4.39801 19.8031 4.03925 18.8859 4.03925H6.64972ZM4.78768 7.44447C4.78768 6.43233 5.62187 5.61089 6.64972 5.61089H18.8859C19.9138 5.61089 20.748 6.43233 20.748 7.44447V19.4937C20.748 19.98 20.5518 20.4464 20.2026 20.7903C19.8534 21.1341 19.3798 21.3273 18.8859 21.3273H6.64972C6.15587 21.3273 5.68226 21.1341 5.33306 20.7903C4.98386 20.4464 4.78768 19.98 4.78768 19.4937V7.44447Z" fill="#C51230"/>
</svg>
