<svg width="26" height="26" viewBox="0 0 26 26" fill="none" xmlns="http://www.w3.org/2000/svg">
<path d="M17.3218 10.2875C17.4628 10.1386 17.5395 9.94155 17.5359 9.73797C17.5322 9.53439 17.4485 9.34015 17.3023 9.19617C17.1561 9.05219 16.9588 8.96972 16.7521 8.96613C16.5453 8.96254 16.3453 9.03811 16.194 9.17691L11.4378 13.8604L9.86944 12.316C9.71816 12.1772 9.51808 12.1016 9.31134 12.1052C9.1046 12.1088 8.90734 12.1913 8.76113 12.3353C8.61492 12.4792 8.53117 12.6735 8.52752 12.8771C8.52388 13.0806 8.60062 13.2777 8.74158 13.4266L10.8739 15.5264C11.0235 15.6735 11.2263 15.7562 11.4378 15.7562C11.6493 15.7562 11.8521 15.6735 12.0017 15.5264L17.3218 10.2875ZM6.64972 3.18372C5.73258 3.18372 4.85301 3.54248 4.20449 4.18108C3.55598 4.81969 3.19165 5.68582 3.19165 6.58894V18.6382C3.19165 19.5413 3.55598 20.4075 4.20449 21.0461C4.85301 21.6847 5.73258 22.0434 6.64972 22.0434H18.8859C19.8031 22.0434 20.6827 21.6847 21.3312 21.0461C21.9797 20.4075 22.344 19.5413 22.344 18.6382V6.58894C22.344 5.68582 21.9797 4.81969 21.3312 4.18108C20.6827 3.54248 19.8031 3.18372 18.8859 3.18372H6.64972ZM4.78768 6.58894C4.78768 5.5768 5.62187 4.75536 6.64972 4.75536H18.8859C19.9138 4.75536 20.748 5.5768 20.748 6.58894V18.6382C20.748 19.1245 20.5518 19.5909 20.2026 19.9347C19.8534 20.2786 19.3798 20.4718 18.8859 20.4718H6.64972C6.15587 20.4718 5.68226 20.2786 5.33306 19.9347C4.98386 19.5909 4.78768 19.1245 4.78768 18.6382V6.58894Z" fill="#9D78FC"/>
</svg>
