<svg width="488" height="324" viewBox="0 0 488 324" fill="none" xmlns="http://www.w3.org/2000/svg">
<path d="M178.483 194C178.898 194 179.234 194.385 179.234 194.86C179.234 195.318 178.921 195.692 178.527 195.718L178.483 195.72L158.379 195.719V212.76L190.294 212.76C190.694 212.76 191.021 213.118 191.044 213.57L191.045 213.62C191.045 214.078 190.732 214.452 190.338 214.478L190.294 214.48L179.234 214.48V231.521L200.249 231.521C200.664 231.521 201 231.906 201 232.381C201 232.839 200.687 233.213 200.293 233.239L200.249 233.24L158.379 233.24V250.28L182.909 250.281C183.309 250.281 183.636 250.638 183.659 251.09L183.66 251.14C183.66 251.598 183.347 251.972 182.953 251.999L182.909 252H135.751C135.336 252 135 251.615 135 251.14C135 250.682 135.313 250.308 135.707 250.282L135.751 250.28L156.877 250.28V233.24L135.751 233.24C135.351 233.24 135.024 232.882 135.001 232.431L135 232.38C135 232.216 135.04 232.062 135.11 231.932V214.069C135.04 213.938 135 213.784 135 213.62C135 213.162 135.313 212.788 135.707 212.762L135.751 212.76L156.877 212.76V195.719H142.184C141.784 195.719 141.457 195.362 141.434 194.91L141.433 194.86C141.433 194.402 141.746 194.028 142.14 194.001L142.184 194H178.483ZM177.732 214.48H136.613V231.521H177.732V214.48Z" fill="black" fill-opacity="0.08"/>
<path d="M272.96 0H127.04C124.257 0 122 2.58034 122 5.76336V121.319C122 124.502 124.257 127.082 127.04 127.082H272.96C275.743 127.082 278 124.502 278 121.319V5.76336C278 2.58034 275.743 0 272.96 0Z" fill="#FFB201"/>
<path d="M271.951 6.91614H128.552V109.504H271.951V6.91614Z" fill="white"/>
<path d="M271 6H128.002V108H271V6Z" fill="#FBFDFF"/>
<mask id="mask0_204_36" style="mask-type:luminance" maskUnits="userSpaceOnUse" x="128" y="6" width="143" height="102">
<path d="M270.998 6.00024H128V108H270.998V6.00024Z" fill="white"/>
</mask>
<g mask="url(#mask0_204_36)">
<path fill-rule="evenodd" clip-rule="evenodd" d="M206.629 67.2183C206.629 67.2183 204.941 79.3028 206.577 82.9043C207.879 85.7721 215.564 89.6942 215.564 89.6942L216.94 98.1128L188.408 101.452C185.106 100.617 173.155 97.1254 176.97 91.668C180.785 86.2107 188.866 84.7058 190.179 82.2868C192.702 77.6427 193.163 68.2022 193.093 64.6362C193.093 63.7505 206.629 67.2183 206.629 67.2183Z" fill="#FFD099"/>
<path fill-rule="evenodd" clip-rule="evenodd" d="M183.125 85.6975C186.498 86.4591 198.151 95.6224 205.3 94.7411C208.914 94.2959 211.868 87.259 211.982 87.1017C212.058 86.9958 215.644 89.1271 218.713 91.3472L218.714 91.3389C218.733 91.3566 218.755 91.3755 218.779 91.3954C218.916 91.4945 219.052 91.5937 219.186 91.6929C220.86 92.8667 225.711 96.1345 227.344 105.184C228.007 108.856 232.291 122.597 236.075 133.713C233.108 138.9 229.856 139.055 221.254 139.06L220.44 139.06C218.412 139.06 199.682 140.088 178.907 139.06C170.247 138.632 162.84 138.202 160.96 130.963C159.93 127.002 163.986 109.564 163.706 107.149C162.871 99.9569 167.397 94.96 168.973 93.4736C174.236 88.5077 182.564 85.5712 183.125 85.6975Z" fill="#FF0057"/>
<path fill-rule="evenodd" clip-rule="evenodd" d="M224.893 115.092C225.494 117.822 225.501 120.124 225.386 122.926C225.096 127.885 224.447 127.513 223.419 133.464C222.896 136.495 222.603 138.336 222.436 138.813C222.209 139.46 222.276 137.644 222.909 133.361C223.541 128.489 224.201 129.035 224.608 124.17C225.014 119.305 224.872 118.625 224.184 115.028C223.56 111.859 222.585 109.04 221.75 105.927C221.702 105.493 220.736 102.772 221.226 103.176C222.365 107.152 223.974 111.036 224.893 115.092Z" fill="#090E2B"/>
<path fill-rule="evenodd" clip-rule="evenodd" d="M184.983 106.977C184.208 114.807 183.055 122.586 181.545 130.274C181.32 130.893 179.6 139.345 179.523 137.857C179.513 137.662 179.548 137.276 179.583 137.084C180.916 129.858 182.297 121.933 183.44 114.668L184.624 106.922C184.655 106.673 185.012 106.712 184.983 106.977Z" fill="#090E2B"/>
<path fill-rule="evenodd" clip-rule="evenodd" d="M181.317 31.3981C177.705 21.1397 180.004 14.3365 188.214 10.9885C200.53 5.96648 210.229 8.61295 211.47 20.455C213.461 39.4493 187.515 48.9978 181.317 31.3981Z" fill="#090E2B"/>
<path fill-rule="evenodd" clip-rule="evenodd" d="M200.397 67.146C177.037 67.146 158.132 62.6242 158.132 44.5681C158.132 26.5122 171.503 16.7124 196.547 12.5146C221.591 8.31687 239.558 7.24555 239.558 31.0991C239.558 49.1552 223.758 67.146 200.397 67.146Z" fill="#090E2B"/>
<path fill-rule="evenodd" clip-rule="evenodd" d="M136.95 70.938C147.057 63.5204 159.352 67.7518 165.894 65.0998C176.527 60.7897 175.092 47.2115 185.11 42.147C187.831 32.3533 195.492 27.4624 206.801 27.4624C224.547 27.4624 225.041 43.7038 225.477 46.4409C227.076 56.4982 223.754 76.092 227.11 82.8263C232.744 94.1328 230.14 101.514 227.202 104.21C224.035 107.118 214.82 104.456 212.821 102.567C209.006 98.9632 205.156 97.5489 205.156 85.5997C203.164 82.1131 203.047 81.0808 203.497 76.8481C204.038 71.7556 204.547 67.1487 194.933 65.0998C195.715 73.9051 196.998 79.9681 193.405 84.4259C189.811 88.8838 186.203 88.8838 181.771 90.5644C172.458 94.0955 169.337 123.988 140.924 111.472C125.691 104.985 126.844 78.3556 136.95 70.938Z" fill="#E3E4E6"/>
<path fill-rule="evenodd" clip-rule="evenodd" d="M222.661 48.3919C224.918 58.9391 224.125 66.1434 222.11 70.6957C219.739 76.0543 217.729 78.5887 213.58 78.7551C205.575 79.076 200.546 75.69 197.718 72.7437C194.739 69.64 193.739 66.0075 192.914 63.655C192.811 63.3603 192.717 63.046 192.631 62.7156L192.716 62.6912C189.897 63.5307 185.11 60.7151 185.11 54.1037C185.11 51.173 189.186 47.5403 191.897 50.9711C191.931 50.1804 191.965 49.7041 191.965 49.7041C193.86 41.0628 204.627 36.1368 211.545 35.0578C223.524 33.1893 220.404 37.8447 222.661 48.3919Z" fill="#FFD099"/>
<path fill-rule="evenodd" clip-rule="evenodd" d="M191.372 54.7584C190.649 53.1058 188.91 52.0818 187.408 53.2381C187.068 53.4997 187.526 53.6788 187.67 53.6605C189.454 53.3943 190.163 53.9504 190.749 55.1071C190.188 55.2638 189.628 55.8325 189.557 56.4749C189.513 56.8692 189.632 58.0361 189.896 57.668C190.079 57.4135 189.677 55.6778 191.006 55.8363C191.026 55.8414 191.044 55.8426 191.063 55.8446C191.125 56.0159 191.626 56.3706 191.841 56.0732C191.972 55.8916 191.701 55.5139 191.372 54.7584Z" fill="#090E2B"/>
<path fill-rule="evenodd" clip-rule="evenodd" d="M210.032 27.4901C202.978 28.072 192.9 36.67 191.278 42.9734C191.004 44.0412 191.256 49.5953 191.856 50.8502C192.654 52.5209 192.566 56.3305 194.945 56.7723C199.139 57.5508 194.83 50.4394 195.466 48.5814C197.864 41.5752 205.472 46.0254 210.032 44.4392C216.275 42.2674 218.588 40.7234 218.748 40.4469C219.558 43.9928 223.925 50.7812 225.438 52.1047C225.93 52.5347 225.267 44.8303 223.688 38.5966C222.733 34.8243 216.737 26.9368 210.032 27.4901Z" fill="#E3E4E6"/>
<path fill-rule="evenodd" clip-rule="evenodd" d="M190.62 71.1072C187.697 71.1072 185.319 68.3956 185.319 65.0629C185.319 63.3016 185.988 61.6058 187.16 60.4554C187.352 60.6797 187.583 60.9287 187.754 61.0958C186.749 62.0825 186.073 63.5521 186.073 65.0629C186.073 67.9217 188.113 70.2477 190.62 70.2477C193.128 70.2477 195.168 67.9217 195.168 65.0629C195.168 62.2043 193.128 59.8783 190.62 59.8783C190.412 59.8783 190.243 59.6858 190.243 59.4486C190.243 59.2111 190.412 59.0188 190.62 59.0188C193.544 59.0188 195.922 61.7301 195.922 65.0629C195.922 68.3956 193.544 71.1072 190.62 71.1072Z" fill="white"/>
<path fill-rule="evenodd" clip-rule="evenodd" d="M201.845 76.4185C200.816 75.719 198.722 74.4205 198.305 73.6728C198.087 73.2833 198.86 73.7968 199.26 74.1407C199.792 74.5981 201.992 75.9477 204.706 77.4034C204.941 77.5295 206.452 78.2534 206.49 78.3504C206.525 78.441 206.373 78.5982 206.194 78.5711C204.993 78.3886 202.979 77.1895 201.845 76.4185Z" fill="#090E2B"/>
<path fill-rule="evenodd" clip-rule="evenodd" d="M199.367 46.7791C199.813 44.4919 205.687 43.6902 208.272 45.4611C209.166 46.0666 210.825 47.7298 209.356 48.6352C208.968 48.8277 208.591 48.6303 208.272 48.3957C204.749 45.6044 199.056 48.3735 199.367 46.7791Z" fill="#090E2B"/>
<path fill-rule="evenodd" clip-rule="evenodd" d="M204.133 50.9141C202.804 51.3438 201.665 52.5615 201.559 53.5706C201.495 54.1803 203.593 55.6442 205.617 55.7579C208.28 55.9072 209.622 54.2629 209.617 53.7374C209.438 52.1472 207.832 49.7181 204.133 50.9141Z" fill="white"/>
<path fill-rule="evenodd" clip-rule="evenodd" d="M208.251 51.8186C206.205 50.0554 203.035 51.2043 201.559 53.5704C201.474 53.693 201.499 53.3844 201.557 53.2438C202.27 51.5398 203.555 50.7356 205.044 50.3849C205.941 50.1737 206.777 50.1565 207.651 50.6029C207.989 50.7751 208.586 51.3 209.048 51.8937C209.407 52.3564 209.711 53.1498 209.294 52.8693C208.968 52.6495 208.523 52.0527 208.251 51.8186Z" fill="#090E2B"/>
<path fill-rule="evenodd" clip-rule="evenodd" d="M205.591 54.8292C206.728 54.8292 207.651 53.8699 207.651 52.6863C207.651 51.503 206.728 50.5435 205.591 50.5435C204.453 50.5435 203.531 51.503 203.531 52.6863C203.531 53.8699 204.453 54.8292 205.591 54.8292Z" fill="#090E2B"/>
<path fill-rule="evenodd" clip-rule="evenodd" d="M220.323 46.4017C221.166 46.8279 222.288 48.2428 221.354 48.2428C220.42 48.2428 218.396 47.9407 217.04 48.5788C216.566 48.7169 216.207 48.9812 215.731 49.0456C214.648 49.286 214.06 47.8077 214.826 46.9139C215.69 45.9042 218.61 45.4255 220.323 46.4017Z" fill="#090E2B"/>
<path fill-rule="evenodd" clip-rule="evenodd" d="M219.367 55.6767C220.717 55.3188 221.727 53.9235 221.612 52.8808C221.39 51.4992 219.056 50.6171 217.749 51.3715C216.455 52.1184 215.645 53.7874 215.749 54.4464C215.9 54.9025 217.988 56.0425 219.367 55.6767Z" fill="white"/>
<path fill-rule="evenodd" clip-rule="evenodd" d="M218.251 54.9238C219.14 54.9238 219.861 54.1348 219.861 53.1618C219.861 52.1885 219.353 51.2688 218.251 51.3997C217.367 51.5046 216.641 52.1885 216.641 53.1618C216.641 54.1348 217.362 54.9238 218.251 54.9238Z" fill="#090E2B"/>
<path fill-rule="evenodd" clip-rule="evenodd" d="M215.798 53.5005C216.308 51.3304 218.61 50.2145 220.431 51.2419C220.688 51.3943 221.104 51.7364 221.415 52.1496C221.702 52.5306 221.665 52.7303 221.548 52.6908C221.354 52.6249 220.943 52.2052 220.61 52.0247C218.923 51.1127 217.169 51.6244 215.884 53.7644C215.821 53.8753 215.762 53.6257 215.798 53.5005Z" fill="#090E2B"/>
<path fill-rule="evenodd" clip-rule="evenodd" d="M215.932 61.7235C215.687 63.1329 214.168 63.27 213.179 62.9506C212.375 62.691 212.166 62.1569 212.438 61.9857C212.881 61.7067 214.302 62.4829 214.826 61.7419C215.761 60.4207 212.892 55.5623 213.803 56.3429C215.008 57.3746 216.096 60.783 215.932 61.7235Z" fill="#090E2B"/>
<path fill-rule="evenodd" clip-rule="evenodd" d="M216.598 67.5236C216.405 67.6893 215.952 68.3729 215.494 68.8071C214.464 69.7836 212.787 70.008 211.8 69.7836C209.943 69.3616 209.14 67.9809 208.649 67.6028C208.158 67.2248 209.079 66.7392 209.784 66.8105C210.489 66.8818 210.962 67.1151 212.308 67.775C213.176 68.2008 215.139 67.6028 215.694 67.2248C216.752 66.5035 217.069 67.1195 216.598 67.5236Z" fill="#090E2B"/>
</g>
<path d="M216.003 127.082H186.013V143.507H216.003V127.082Z" fill="#F67A49"/>
<path fill-rule="evenodd" clip-rule="evenodd" d="M171.9 143.507H229.865C231.953 143.507 233.645 145.443 233.645 147.83V151H168.12V147.83C168.12 145.443 169.813 143.507 171.9 143.507Z" fill="#FFB201"/>
<path fill-rule="evenodd" clip-rule="evenodd" d="M386.933 214.643L389.235 264.303H354.548L356.851 214.643H352.955L351.554 264.303H351.44V268.035H351.449L349.926 322H351.873L354.375 268.035H389.409L391.911 322H393.858L390.829 214.643H386.933Z" fill="#8E2420"/>
<path fill-rule="evenodd" clip-rule="evenodd" d="M397.236 208.16L371.414 207.003C371.324 206.999 371.234 206.999 371.144 207.003L346.757 208.152C344.661 208.25 343 210.533 343 213.315V216.079C343 218.933 344.744 221.246 346.896 221.246H397.104C399.256 221.246 401 218.933 401 216.079V213.324C401 210.538 399.335 208.254 397.236 208.16Z" fill="#FF0057"/>
<path d="M40.2233 322.545L202.176 322.689C202.665 322.69 203.062 323.143 203.062 323.701C203.062 324.241 202.69 324.682 202.223 324.71L202.174 324.712L40.2219 324.567C39.7322 324.567 39.3359 324.114 39.3359 323.555C39.3359 323.015 39.7076 322.575 40.1746 322.546L40.2233 322.545Z" fill="#090E2B"/>
<path d="M227.69 322.545L438.282 322.689C438.772 322.689 439.168 323.143 439.168 323.701C439.168 324.241 438.797 324.682 438.329 324.71L438.281 324.712L227.689 324.567C227.199 324.567 226.803 324.114 226.803 323.555C226.803 323.015 227.174 322.575 227.641 322.546L227.69 322.545Z" fill="#090E2B"/>
<path d="M40.2233 322.545L202.176 322.689C202.665 322.69 203.062 323.143 203.062 323.701C203.062 324.241 202.69 324.682 202.223 324.71L202.174 324.712L40.2219 324.567C39.7322 324.567 39.3359 324.114 39.3359 323.555C39.3359 323.015 39.7076 322.575 40.1746 322.546L40.2233 322.545Z" fill="#090E2B"/>
<path d="M323.716 151H63.2838C61.4702 151 60 152.681 60 154.755V158.799C60 160.873 61.4702 162.554 63.2838 162.554H323.716C325.53 162.554 327 160.873 327 158.799V154.755C327 152.681 325.53 151 323.716 151Z" fill="#F0F1FF"/>
<path d="M149.926 151H63.2838C61.4702 151 60 152.681 60 154.755V158.799C60 160.873 61.4702 162.554 63.2838 162.554H149.926C151.74 162.554 153.21 160.873 153.21 158.799V154.755C153.21 152.681 151.74 151 149.926 151Z" fill="#BACCFF"/>
<path d="M303 162H243V321H303V162Z" fill="#C7D2F2"/>
<path d="M141 162H81V321H141V162Z" fill="#C7D2F2"/>
<path fill-rule="evenodd" clip-rule="evenodd" d="M167 162.411C167 162.411 165.08 179.325 136.442 199.812C128.623 205.385 125.015 211.252 122.322 216.694C119.745 217.644 115.879 218.857 113.53 218.66C113.53 218.66 117.053 219.808 120.862 219.808C117.167 227.839 113.475 234.526 99.7 237.214C99.7 237.214 85.1702 227.237 96.5189 198.501C99.4973 201.451 103.364 207.023 103.364 207.023C102.905 202.73 99.4686 197.813 97.7505 195.583C97.7787 195.551 97.7787 195.518 97.8075 195.485C106.142 177.588 122.18 176.965 137.616 175.884C137.444 178.276 136.929 181.85 135.583 184.603C135.583 184.603 139.678 181.063 140.938 175.621C143.487 175.424 146.007 175.162 148.47 174.769C155.572 173.654 163.133 169.164 167 162.411Z" fill="#9D78FC"/>
<path d="M2.61915 166.71C6.54392 166.047 11.1832 165.94 16.3146 166.743C23.3872 167.85 30.5058 170.572 37.4462 175.264C37.5298 175.321 37.5768 175.426 37.5693 175.535L37.5647 175.571L35.7784 185.347L39.7623 177.267C39.8289 177.132 39.9755 177.083 40.0937 177.15L40.1204 177.168C42.5521 178.999 44.9517 181.103 47.343 183.506C56.3119 192.499 61.8428 201.735 64.5756 210.853C66.4484 217.101 66.8102 222.512 66.3064 226.726C66.2854 226.902 66.2636 227.067 66.2413 227.221L66.2077 227.442L66.1738 227.647L66.1398 227.834L66.1104 227.978L66.1005 228.011L66.0907 228.035L66.0762 228.063L66.0592 228.088L66.0399 228.111L66.0264 228.125L66.0017 228.145L65.9753 228.162L65.9723 228.163C65.9628 228.168 65.9542 228.172 65.9454 228.175L65.9187 228.183L65.8907 228.188L65.8624 228.189L65.8297 228.186L65.8002 228.179L65.7714 228.168L65.7504 228.156L65.726 228.14L65.717 228.132C64.6623 227.235 63.5922 226.454 62.4749 225.757L62.2162 225.597L61.9741 225.452C61.9338 225.428 61.8935 225.404 61.8532 225.38L61.6116 225.239L61.3696 225.101C61.3293 225.078 61.2888 225.056 61.2483 225.033L61.0048 224.899L60.7595 224.767L60.5118 224.637C60.4703 224.615 60.4287 224.594 60.387 224.572L60.1348 224.445C60.0925 224.423 60.05 224.402 60.0074 224.381L59.7495 224.255L59.487 224.129L59.2195 224.004C59.1744 223.984 59.1291 223.963 59.0836 223.942L58.8073 223.817C58.7608 223.796 58.7139 223.776 58.6668 223.755L58.3806 223.629L58.0871 223.503L57.7856 223.376L57.4758 223.248L56.9939 223.052L56.6605 222.919L56.3166 222.784L55.7802 222.577L55.4079 222.435L52.1306 221.196L51.0212 220.769L50.2428 220.464L49.486 220.159L48.9431 219.933L48.5005 219.742L48.137 219.58L47.6635 219.362L47.4128 219.243L47.1447 219.114L46.871 218.98L46.5889 218.84L46.2956 218.693L45.8291 218.456L45.6651 218.372C41.7598 216.374 37.9154 213.789 33.7474 210.221C33.6214 210.113 33.6132 209.904 33.7228 209.783L33.748 209.758L38.8365 205.43L32.345 208.765C32.2713 208.802 32.1868 208.797 32.1177 208.752L32.089 208.731L31.8113 208.486L31.4431 208.153L31.1142 207.85L30.7393 207.5C28.8159 205.692 26.8304 203.549 24.8438 201.188L24.4023 200.66C23.6666 199.773 22.9314 198.858 22.1998 197.92L21.7612 197.354C21.6882 197.259 21.6153 197.165 21.5423 197.069L21.1054 196.496C21.0326 196.4 20.96 196.304 20.8873 196.207L20.4523 195.627L20.0187 195.042L19.5867 194.453C19.5148 194.354 19.443 194.256 19.3713 194.157L18.942 193.562C18.8706 193.463 18.7993 193.363 18.7281 193.264L18.3018 192.664C18.2309 192.564 18.1602 192.463 18.0895 192.363L17.6665 191.759L17.246 191.152C17.1761 191.051 17.1064 190.95 17.0367 190.848L16.6201 190.238C16.4817 190.035 16.3438 189.831 16.2063 189.626L15.7955 189.013L15.3877 188.398C15.32 188.296 15.2525 188.193 15.185 188.091L14.7822 187.474C14.7153 187.372 14.6486 187.269 14.5821 187.166L14.1845 186.549C14.0526 186.344 13.9212 186.138 13.7906 185.932L13.4005 185.315L13.0145 184.699L12.6325 184.083L12.29 183.533L11.9503 182.993C11.8939 182.904 11.8376 182.815 11.7815 182.726L11.4459 182.199L11.113 181.68L10.7829 181.171L10.4556 180.67L10.1311 180.178L9.80931 179.694L9.49033 179.219L9.17412 178.752L8.86071 178.294L8.5501 177.845L8.24228 177.404C8.19121 177.331 8.14026 177.258 8.08943 177.186L7.78582 176.758L7.48503 176.337C7.43513 176.268 7.38535 176.199 7.33569 176.13L7.03913 175.722L6.74539 175.323C6.69666 175.257 6.64806 175.191 6.59958 175.126L6.31008 174.739L6.02342 174.359L5.73961 173.988L5.45864 173.625L5.18052 173.27L4.90525 172.923L4.63285 172.583L4.36331 172.252C4.31863 172.197 4.27406 172.143 4.22962 172.089L3.96439 171.769L3.70204 171.457L3.44256 171.153C3.39956 171.103 3.35668 171.053 3.31391 171.004L3.05284 170.704C2.96695 170.607 2.8822 170.511 2.79857 170.417L2.55112 170.143C2.46977 170.053 2.38956 169.966 2.31049 169.88L2.0767 169.629L1.84977 169.391C1.81252 169.352 1.77556 169.313 1.73888 169.276L1.52227 169.054L1.31255 168.845L1.10975 168.646C1.07652 168.614 1.04359 168.582 1.01094 168.551L0.827508 168.378L0.664079 168.228C0.637876 168.204 0.61219 168.181 0.587024 168.158L0.442254 168.03C0.419164 168.01 0.396595 167.991 0.374547 167.972L0.242034 167.861L0.144694 167.782L0.115356 167.76C-0.0683139 167.624 -0.0240761 167.303 0.187221 167.239L0.351525 167.192L0.568804 167.135L0.733589 167.094L0.821907 167.072C0.95048 167.041 1.08446 167.01 1.22376 166.98L1.50945 166.918L1.8092 166.857L2.12287 166.798L2.45031 166.739C2.50603 166.729 2.56231 166.719 2.61915 166.71Z" fill="#9D78FC"/>
<path fill-rule="evenodd" clip-rule="evenodd" d="M83.5562 236.929C83.5562 236.929 70.0498 232.347 60.5054 212.586C63.7566 211.506 65.8543 209.009 65.8543 209.009C63.5469 209.754 59.3514 210.066 59.3514 210.066C39.4969 181.524 49.5107 134 49.5107 134C51.7132 140.266 62.6616 149.23 71.5345 162.411C70.318 163.636 66.0404 168.598 64.9706 170.542C64.9706 170.542 69.7776 166.322 72.3366 164.905C80.4759 177.101 86.6188 192.271 88.9681 204.228C94.0866 230.446 83.5562 236.929 83.5562 236.929Z" fill="#9D78FC"/>
<path fill-rule="evenodd" clip-rule="evenodd" d="M53.7459 151.437C57.0385 161.731 60.5034 171.959 64.2779 182.033C66.1775 187.063 68.1416 192.066 70.3689 196.909C70.6522 197.511 70.9184 198.125 71.2154 198.717L72.1173 200.487C72.7132 201.668 73.3499 202.841 73.9639 204.018C75.1567 206.401 76.3304 208.801 77.3553 211.289C79.455 216.233 81.0975 221.445 82.1779 226.808C82.7264 229.487 83.1448 232.196 83.529 234.904C83.7271 236.254 83.9066 237.613 84.0694 238.979C84.2136 240.343 84.3568 241.707 84.4732 243.074C84.9602 248.535 85.304 254.007 85.6378 259.479C85.9629 264.952 86.2513 270.426 86.5074 275.904C86.517 276.103 86.3834 276.273 86.21 276.284C86.036 276.294 85.8878 276.142 85.8783 275.942V275.941C85.6388 270.467 85.3665 264.993 85.0585 259.523C84.7414 254.054 84.4142 248.584 83.9444 243.134C83.8325 241.771 83.6943 240.412 83.5547 239.054C83.3974 237.703 83.2235 236.35 83.0289 234.996C82.6538 232.291 82.2454 229.595 81.7085 226.933C80.6523 221.603 79.0386 216.428 76.9656 211.502C75.9543 209.025 74.7927 206.631 73.612 204.253C73.0015 203.074 72.3769 201.915 71.7785 200.72L70.8756 198.933C70.5781 198.336 70.313 197.72 70.0306 197.114C67.8094 192.243 65.8579 187.226 63.9719 182.183C60.2236 172.084 56.7889 161.841 53.5256 151.527C53.5035 151.458 53.5352 151.381 53.5957 151.355C53.6567 151.33 53.7243 151.367 53.7459 151.437Z" fill="black"/>
<path fill-rule="evenodd" clip-rule="evenodd" d="M14.793 174.23L38.6721 193.165C42.6553 196.327 46.4474 199.81 50.0011 203.586C50.903 204.514 51.7535 205.505 52.6282 206.466C53.4666 207.469 54.3377 208.437 55.1443 209.475C56.806 211.499 58.3471 213.649 59.8328 215.846C61.3014 218.06 62.65 220.378 63.8816 222.778C65.0678 225.208 66.1315 227.721 66.9029 230.378C67.098 231.038 67.2457 231.713 67.4196 232.38C67.5779 233.051 67.776 233.713 67.9001 234.393C68.1647 235.748 68.4818 237.093 68.7026 238.458C69.1912 241.178 69.602 243.914 69.9741 246.656C71.4265 257.63 72.3103 268.681 72.9384 279.752C72.9495 279.951 72.8179 280.123 72.6445 280.136C72.4706 280.148 72.3209 279.997 72.3093 279.798V279.797V279.791C71.7199 268.745 70.873 257.694 69.4614 246.745C69.0999 244.01 68.6991 241.28 68.2217 238.571C68.0064 237.21 67.6959 235.875 67.4373 234.525C67.3163 233.847 67.1222 233.194 66.9679 232.527C66.798 231.867 66.6533 231.195 66.4633 230.543C65.7146 227.93 64.6705 225.436 63.5035 223.024C62.291 220.641 60.9606 218.334 59.5082 216.127C58.0381 213.937 56.5126 211.791 54.8645 209.769C54.066 208.732 53.2014 207.764 52.3695 206.762C51.5014 205.8 50.6575 204.81 49.7621 203.881C46.2327 200.101 42.4657 196.614 38.5022 193.442L14.6882 174.403C14.6463 174.371 14.6357 174.305 14.665 174.257C14.6937 174.209 14.7512 174.197 14.793 174.23Z" fill="black"/>
<path fill-rule="evenodd" clip-rule="evenodd" d="M154.523 178.689C146.413 184.557 138.255 190.339 130.116 196.155L124.02 200.518C122.029 201.996 120.16 203.712 118.357 205.499C116.544 207.278 114.855 209.216 113.202 211.186C112.408 212.208 111.573 213.186 110.825 214.252L109.676 215.823L108.588 217.449C107.126 219.61 105.834 221.909 104.611 224.249C104.318 224.843 104.048 225.45 103.765 226.05C103.496 226.658 103.181 227.241 102.95 227.869L102.219 229.733L101.855 230.665L101.551 231.625L100.944 233.544C100.733 234.181 100.619 234.852 100.451 235.504C100.299 236.162 100.134 236.812 99.992 237.476L99.6053 239.485L98.0959 247.534C96.1393 258.28 94.266 269.049 92.4944 279.837C92.4626 280.033 92.2988 280.163 92.1274 280.127C91.9565 280.091 91.8431 279.902 91.8743 279.706C93.6287 268.906 95.4456 258.122 97.4299 247.374L98.9474 239.319L99.3371 237.308C99.4798 236.639 99.6497 235.971 99.8044 235.301C99.9758 234.638 100.094 233.953 100.309 233.306L100.928 231.354L101.238 230.379L101.608 229.432L102.353 227.54C102.588 226.903 102.907 226.313 103.181 225.697C103.468 225.089 103.743 224.473 104.04 223.873C105.28 221.503 106.59 219.179 108.068 216.998L109.17 215.358L110.33 213.772C111.087 212.698 111.93 211.71 112.732 210.681C114.402 208.695 116.106 206.741 117.938 204.948C119.762 203.146 121.645 201.418 123.681 199.909C125.723 198.438 127.77 197.03 129.814 195.588C137.996 189.857 146.162 184.092 154.373 178.413C154.44 178.366 154.527 178.391 154.568 178.467C154.608 178.543 154.588 178.642 154.523 178.689Z" fill="black"/>
<mask id="mask1_204_36" style="mask-type:luminance" maskUnits="userSpaceOnUse" x="54" y="257" width="56" height="65">
<path fill-rule="evenodd" clip-rule="evenodd" d="M54 257H110V322H54V257Z" fill="white"/>
</mask>
<g mask="url(#mask1_204_36)">
<path fill-rule="evenodd" clip-rule="evenodd" d="M72.2104 322H91.7916C98.7639 322 104.595 321.088 105.261 313.19L110.001 257H54.001L58.74 313.19C59.4061 321.088 65.2376 322 72.2104 322Z" fill="#F0F1FF"/>
</g>
<path fill-rule="evenodd" clip-rule="evenodd" d="M340.679 278.811C340.679 278.811 343.252 299.613 344.303 308.501C345.362 317.465 326.522 308.74 326.522 308.74C326.522 308.74 329.918 303.2 329.97 301.683C330.021 300.165 324.221 282.4 324.221 282.4L340.679 278.811Z" fill="#CA8F67"/>
<path fill-rule="evenodd" clip-rule="evenodd" d="M302.941 164.106C293.693 168.943 284.347 181.157 292.516 204.053C300.686 226.948 319.91 282.364 322.932 284.857C325.953 287.35 341.889 282.4 341.889 282.4C341.889 282.4 340.146 259.127 336.683 236.243C334.148 219.486 328.802 207.268 328.802 207.268C328.802 207.268 371.804 214.29 382.48 206.047C396.493 195.229 386.118 166.075 378.064 162.466C367.71 157.826 320.547 154.896 302.941 164.106Z" fill="#090E2B"/>
<path fill-rule="evenodd" clip-rule="evenodd" d="M303.426 318.449C304.777 313.659 314.575 310.496 321.65 308.102C324.032 307.295 327.359 303.313 328.904 303.361C331.153 303.43 328.949 308.786 336.476 308.32C338.469 308.197 338.611 305.796 342.941 305.25C343.645 305.161 344.72 305.005 345.649 306.919C346.167 307.986 348.287 317.62 346.206 321.548C331.634 321.979 316.645 321.553 303.698 321.415C302.434 321.401 303.08 319.674 303.426 318.449Z" fill="#FF0057"/>
<path fill-rule="evenodd" clip-rule="evenodd" d="M279.375 282.4C279.375 282.4 276.726 298.051 274.954 300.597C273.181 303.143 263.982 306.008 263.57 307.58C263.157 309.153 283.176 312.835 283.176 312.835L295.424 283.749L279.375 282.4Z" fill="#CA8F67"/>
<path fill-rule="evenodd" clip-rule="evenodd" d="M245.475 317.587C246.827 312.798 256.625 309.635 263.7 307.24C266.082 306.434 269.409 302.451 270.954 302.499C273.202 302.569 270.998 307.925 278.526 307.459C280.518 307.335 280.661 304.935 284.991 304.388C285.695 304.299 286.77 304.143 287.699 306.057C288.217 307.124 290.337 316.758 288.256 320.687C273.684 321.118 258.694 320.692 245.748 320.553C244.483 320.54 245.13 318.813 245.475 317.587Z" fill="#FF0057"/>
<path fill-rule="evenodd" clip-rule="evenodd" d="M262.384 310.661C261.459 308.529 261.054 308.159 261.449 307.823C262.392 307.02 267.184 309.5 267.561 310.975C267.843 312.081 264.652 308.881 262.104 308.404C263.148 309.495 264.121 312.841 263.094 312.174C258.088 308.925 257.299 309.679 257.293 309.558C257.263 308.983 259.157 308.519 262.384 310.661Z" fill="#FFB201"/>
<path fill-rule="evenodd" clip-rule="evenodd" d="M398.501 186.214C395.499 204.003 381.651 210.393 369.635 209.862C351.279 209.05 332.568 199.721 326.243 196.603C326.801 201.191 323.822 227.279 318.849 239.353C313.875 251.426 297.68 287.747 297.68 287.747C297.68 287.747 279.406 287.87 278.625 282.793C278.111 279.453 295.266 186.171 300.941 170.019C304.2 160.744 314.747 156.741 336.442 154.63C358.231 152.51 389.995 156.419 389.995 156.419C389.995 156.419 401.502 168.425 398.501 186.214Z" fill="#090E2B"/>
<path fill-rule="evenodd" clip-rule="evenodd" d="M320.334 311.81C319.409 309.678 319.004 309.308 319.399 308.972C320.342 308.169 325.134 310.649 325.511 312.124C325.793 313.23 322.602 310.03 320.054 309.553C321.098 310.644 322.072 313.989 321.044 313.323C316.039 310.074 315.249 310.827 315.243 310.706C315.213 310.132 317.108 309.667 320.334 311.81Z" fill="#FFB201"/>
<path fill-rule="evenodd" clip-rule="evenodd" d="M306.506 323.284L341.582 323.992C343.928 324.099 347.438 323.176 347.778 320.944C348.032 319.277 347.468 315.648 347.351 315.406C346.534 313.724 339.571 315.143 337.542 320.825C324.744 321.922 302.95 320.849 302.95 320.849C302.95 320.849 302.622 323.055 306.506 323.284Z" fill="#090E2B"/>
<path fill-rule="evenodd" clip-rule="evenodd" d="M248.582 322.248L283.658 322.956C286.004 323.064 289.515 322.14 289.854 319.909C290.108 318.242 289.544 314.612 289.427 314.371C288.61 312.688 281.647 314.108 279.619 319.79C266.821 320.887 245.026 319.814 245.026 319.814C245.026 319.814 244.699 322.02 248.582 322.248Z" fill="#090E2B"/>
<path fill-rule="evenodd" clip-rule="evenodd" d="M267.32 27.3148C267.32 27.3148 266.691 25.7202 266.156 24.6272C265.449 23.1843 266.014 21.5108 267.415 23.7153C267.793 24.3102 275.131 33.6463 276.919 35.3731C290.391 48.3821 306.54 63.43 310.302 65.4699C315.566 68.3238 324.587 69.9004 329.164 74.5535C331.387 76.813 322.838 95.4569 322.838 95.4569C322.838 95.4569 308.808 88.1327 304.328 84.9207C298.754 80.9233 282.111 57.2847 272.447 42.2145C270.298 38.8649 266.265 38.3388 264.83 33.5873C263.947 30.6629 267.32 27.3148 267.32 27.3148Z" fill="#CA8F67"/>
<path fill-rule="evenodd" clip-rule="evenodd" d="M362.027 64.1303C362.027 64.1303 362.812 70.8383 362.189 72.1702C361.885 72.8192 359.792 75.1392 351.859 76.3937C350.975 77.4611 355.197 88.1769 356.845 89.9561C358.492 91.7355 363.782 92.6843 373.842 83.5512C383.903 74.4179 382.451 74.5363 382.451 74.5363C382.451 74.5363 376.813 74.3965 375.501 72.0454C375.042 71.2211 374.533 58.6323 375.646 54.8332C376.76 51.0341 362.027 64.1303 362.027 64.1303Z" fill="#CA8F67"/>
<path fill-rule="evenodd" clip-rule="evenodd" d="M406.217 94.0122C406.217 94.0122 426.364 116.497 431.382 122.241C435.204 126.615 454.838 148.149 467.076 160.972C470.912 164.991 476.487 167.082 480.324 169.485C482.088 170.588 488.475 174.45 487.972 175.761C487.537 176.896 479.719 175.594 477.563 176.586C479.597 178.856 479.202 180.992 475.705 179.737C470.875 178.004 468.673 172.814 464.774 169.725C460.024 165.961 425.568 145.555 416.41 135.313C409.691 127.799 393.626 117.482 393.626 117.482L406.217 94.0122Z" fill="#CA8F67"/>
<path fill-rule="evenodd" clip-rule="evenodd" d="M400.018 124.246C396.113 120.648 388.495 114.52 388.495 114.52C388.495 114.52 404.34 165.536 401.07 171.473C400.182 173.085 392.487 166.698 381.19 164.71C362.621 161.443 341.64 159.473 343.645 152.777C349.357 133.702 344.177 106.735 344.177 106.735L321.877 97.7762C319.307 92.2951 316.66 69.6402 319.997 68.3115C320.878 67.9606 345.442 74.8745 345.442 74.8745C345.442 74.8745 355.252 74.1163 355.856 74.4889C356.46 74.8615 357.867 85.049 359.838 85.5222C365.343 86.8448 382.345 73.5301 382.345 73.5301C382.345 73.5301 390.69 75.0574 395.226 79.5442C398.336 82.6199 419.869 107.046 419.869 107.046C419.869 107.046 403.923 127.844 400.018 124.246Z" fill="#C51230"/>
<path fill-rule="evenodd" clip-rule="evenodd" d="M388.58 114.749C388.138 113.735 384.848 110.203 382.832 108.282C381.162 106.689 380.367 106.203 382.801 109.178C383.681 110.087 387.94 115.468 388.58 114.749Z" fill="black"/>
<path fill-rule="evenodd" clip-rule="evenodd" d="M343.717 98.3484C343.647 98.6165 343.555 103.827 344.104 106.504C344.149 106.725 344.176 106.985 344.234 107.01C344.573 107.159 344.376 102.614 344.226 100.375C344.04 97.6096 343.835 97.8945 343.717 98.3484Z" fill="black"/>
<path fill-rule="evenodd" clip-rule="evenodd" d="M351.119 23.7067C351.119 23.7067 350.625 21.0421 346.995 21.3443C341.124 21.8328 340.065 28.3869 341.411 34.8085C342.36 39.3319 343.628 42.8959 343.228 45.4017C342.463 50.2019 340.296 50.4272 338.623 55.6925C335.968 64.0528 342.651 64.6624 342.716 66.1628C343.028 73.4329 345.11 76.7776 348.77 78.3681C354.165 80.7133 359.828 77.6404 362.692 71.922C365.089 67.134 362.692 61.8817 362.692 61.8817L349.556 47.403L351.119 23.7067Z" fill="#090E2B"/>
<path fill-rule="evenodd" clip-rule="evenodd" d="M351.956 20.7307C351.956 20.7307 348.11 22.8946 346.295 28.9563C345.274 32.3649 345.664 36.5507 345.096 42.449C343.685 57.0925 347.46 68.5183 354.475 68.2446C362.805 67.9192 370.013 62.2282 374.012 58.9194C378.011 55.6101 378.745 51.4773 378.785 44.934C378.826 38.3907 378.617 24.3271 374.925 23.9134C371.232 23.5 359.44 14.2387 351.956 20.7307Z" fill="#CA8F67"/>
<path fill-rule="evenodd" clip-rule="evenodd" d="M376.562 47.9528C376.556 50.2029 368.707 56.1651 372.88 64.5709C370.047 67.941 370.846 81.2118 383.03 79.3265C388.377 87.5065 399.712 84.1564 398.402 75.3947C401.75 74.6502 403.389 68.3926 402.922 64.8561C401.709 55.692 394.076 54.5515 394.076 54.5515C395.034 44.0231 386.641 46.52 387.807 39.2724C388.96 32.1063 387.702 22.1684 381.109 21.0022C380.21 10.7025 368.583 6.05961 360.418 10.9568C358.491 8.9375 345.33 6.56972 345.606 20.3652C345.699 25.0498 348.879 31.3236 353.511 32.3946C356.779 33.1508 362.575 31.8329 364.562 34.6229C367.281 38.4395 367.744 39.3765 371.871 41.7856C373.472 42.7191 374.604 41.7856 374.604 41.7856C374.604 41.7856 376.577 42.4326 376.562 47.9528Z" fill="#090E2B"/>
<path fill-rule="evenodd" clip-rule="evenodd" d="M374.663 50.2401C376.435 51.4271 378.858 49.9421 380.262 48.8597C383.305 46.5142 383.187 42.7122 380.744 40.6615C378.958 39.1634 376.468 39.4653 374.208 41.6492C372.261 43.5314 372.661 48.8991 374.663 50.2401Z" fill="#CA8F67"/>
<path fill-rule="evenodd" clip-rule="evenodd" d="M379.314 42.6787C378.048 42.4135 376.627 42.6043 375.727 44.126C375.315 44.8215 375.308 45.6139 375.095 46.4106C375.072 46.4975 375.317 46.7037 375.663 45.7456C376.113 44.5004 376.928 43.7154 377.636 43.3744C378.559 42.9307 379.669 43.2304 379.836 43.0456C380.009 42.8532 379.456 42.7083 379.314 42.6787Z" fill="black"/>
<path fill-rule="evenodd" clip-rule="evenodd" d="M375.854 45.3678C376.495 44.9903 377.715 45.6652 377.765 45.5207C377.92 45.0733 376.275 44.2923 375.734 44.7956C375.338 45.1651 375.399 45.6362 375.854 45.3678Z" fill="black"/>
<path fill-rule="evenodd" clip-rule="evenodd" d="M369.988 61.9493C369.768 62.0588 368.598 62.8306 368.083 63.1446C367.137 63.7208 366.186 64.2897 365.223 64.8092C364.727 65.0784 363.533 65.5551 363.693 65.7151C364.003 66.0219 366.687 64.8745 368.386 63.5934C369.289 62.9124 370.364 61.7628 369.988 61.9493Z" fill="#090E2B"/>
<path fill-rule="evenodd" clip-rule="evenodd" d="M368.121 36.47C367.673 34.1661 361.775 33.3585 359.18 35.1424C358.283 35.7522 356.616 37.4277 358.092 38.3397C358.482 38.5336 358.86 38.3348 359.18 38.0984C362.717 35.2867 368.434 38.0761 368.121 36.47Z" fill="#090E2B"/>
<path fill-rule="evenodd" clip-rule="evenodd" d="M363.336 40.6353C364.67 41.0682 365.814 42.2948 365.92 43.3113C365.985 43.9255 363.878 45.4 361.846 45.5146C359.172 45.6649 357.825 44.0086 357.83 43.4793C358.01 41.8775 359.622 39.4306 363.336 40.6353Z" fill="white"/>
<path fill-rule="evenodd" clip-rule="evenodd" d="M359.201 41.5464C361.256 39.7702 364.438 40.9276 365.92 43.3109C366.005 43.4345 365.981 43.1236 365.922 42.9819C365.207 41.2655 363.917 40.4554 362.421 40.1021C361.521 39.8894 360.681 39.8721 359.804 40.3218C359.464 40.4952 358.865 41.024 358.401 41.622C358.04 42.0881 357.736 42.8873 358.154 42.6047C358.481 42.3833 358.928 41.7822 359.201 41.5464Z" fill="#090E2B"/>
<path fill-rule="evenodd" clip-rule="evenodd" d="M361.872 44.5791C360.73 44.5791 359.804 43.6128 359.804 42.4205C359.804 41.2285 360.73 40.262 361.872 40.262C363.014 40.262 363.94 41.2285 363.94 42.4205C363.94 43.6128 363.014 44.5791 361.872 44.5791Z" fill="#090E2B"/>
<path fill-rule="evenodd" clip-rule="evenodd" d="M347.082 36.0896C346.236 36.5189 345.109 37.9441 346.047 37.9441C346.985 37.9441 349.016 37.6398 350.378 38.2826C350.854 38.4217 351.215 38.6879 351.692 38.7528C352.779 38.995 353.37 37.5058 352.602 36.6055C351.733 35.5885 348.802 35.1062 347.082 36.0896Z" fill="#090E2B"/>
<path fill-rule="evenodd" clip-rule="evenodd" d="M348.041 45.433C346.686 45.0725 345.672 43.667 345.787 42.6167C346.01 41.225 348.353 40.3363 349.665 41.0963C350.965 41.8487 351.779 43.5299 351.674 44.1937C351.522 44.6531 349.426 45.8015 348.041 45.433Z" fill="white"/>
<path fill-rule="evenodd" clip-rule="evenodd" d="M349.163 44.6744C348.27 44.6744 347.546 43.8795 347.546 42.8994C347.546 41.919 348.056 40.9925 349.163 41.1244C350.051 41.23 350.779 41.919 350.779 42.8994C350.779 43.8795 350.055 44.6744 349.163 44.6744Z" fill="#090E2B"/>
<path fill-rule="evenodd" clip-rule="evenodd" d="M351.625 43.2402C351.113 41.0542 348.802 39.9301 346.974 40.9651C346.716 41.1186 346.298 41.4632 345.985 41.8794C345.698 42.2632 345.735 42.4644 345.853 42.4246C346.048 42.3582 346.46 41.9354 346.794 41.7536C348.488 40.8349 350.249 41.3504 351.539 43.506C351.602 43.6177 351.662 43.3663 351.625 43.2402Z" fill="#090E2B"/>
<path fill-rule="evenodd" clip-rule="evenodd" d="M350.786 56.8687C352.949 57.1573 351.197 59.9063 352.317 60.2715C355.185 61.2065 358.299 60.072 358.802 57.1573C359.099 55.4372 358.213 55.6452 357.505 55.7171C356.798 55.7889 353.302 55.9367 351.425 55.9367C349.604 55.9367 350.519 56.833 350.786 56.8687Z" fill="#090E2B"/>
<path fill-rule="evenodd" clip-rule="evenodd" d="M353.374 47.3994C353.276 47.3994 352.624 48.6757 352.385 49.1238C351.623 50.5512 350.784 52.1493 352.023 53.068C352.624 53.5134 354.511 52.8234 354.511 52.2995C354.511 51.5023 352.788 52.9038 352.383 52.0946C352.145 51.6824 353.035 49.5919 353.374 48.3522C353.563 47.6604 353.472 47.3994 353.374 47.3994Z" fill="#090E2B"/>
<path fill-rule="evenodd" clip-rule="evenodd" d="M356.027 43.3415C356.093 47.9788 359.4 51.7146 363.47 51.7146C367.581 51.7146 370.914 47.903 370.914 43.2007C370.914 38.4983 367.581 34.6864 363.47 34.6864C359.4 34.6864 356.093 38.4225 356.027 43.0599L356.026 43.2007L356.027 43.3415ZM357.036 43.079C357.093 39.0704 359.952 35.8409 363.47 35.8409C367.024 35.8409 369.905 39.1359 369.905 43.2007C369.905 47.2654 367.024 50.5602 363.47 50.5602C359.952 50.5602 357.093 47.3309 357.036 43.3224L357.036 43.2007L357.036 43.079Z" fill="#FFB201"/>
<path fill-rule="evenodd" clip-rule="evenodd" d="M340.887 41.8843C340.946 46.05 343.917 49.406 347.573 49.406C351.266 49.406 354.26 45.9818 354.26 41.7578C354.26 37.5337 351.266 34.1095 347.573 34.1095C343.917 34.1095 340.946 37.4656 340.887 41.6313L340.886 41.7578L340.887 41.8843ZM341.896 41.6504C341.946 38.1134 344.469 35.264 347.573 35.264C350.709 35.264 353.251 38.1713 353.251 41.7578C353.251 45.3442 350.709 48.2516 347.573 48.2516C344.469 48.2516 341.946 45.4021 341.896 41.8652L341.895 41.7578L341.896 41.6504Z" fill="#FFB201"/>
<path fill-rule="evenodd" clip-rule="evenodd" d="M353.539 38.5731C353.268 38.6482 353.1 38.9802 353.165 39.3146C353.229 39.649 353.502 39.8592 353.773 39.7841C354.79 39.5024 356.214 39.8993 356.7 40.0401C357.186 40.1809 357.388 40.0128 357.474 39.6881C357.56 39.3633 357.397 38.9645 357.132 38.8548C356.866 38.7451 354.704 38.2506 353.539 38.5731Z" fill="#FFB201"/>
</svg>
