<svg width="139" height="463" viewBox="0 0 139 463" fill="none" xmlns="http://www.w3.org/2000/svg">
<path fill-rule="evenodd" clip-rule="evenodd" d="M82.3312 437.632C82.3312 451.64 76.5876 463 69.5004 463C62.4133 463 56.6697 451.64 56.6697 437.632C56.6697 423.62 62.4133 412.26 69.5004 412.26C76.5876 412.26 82.3312 423.62 82.3312 437.632Z" fill="#FFB201"/>
<path fill-rule="evenodd" clip-rule="evenodd" d="M68.7881 345.312H70.5702V0H68.7881V345.312Z" fill="#090E2B"/>
<path fill-rule="evenodd" clip-rule="evenodd" d="M66.4733 325.768C60.1208 350.646 42.391 404.102 0.83467 442.121C-0.548824 443.389 -0.112723 447.497 1.41041 447.497H137.59C139.113 447.497 139.549 443.389 138.164 442.121C96.6072 404.102 78.8796 350.646 72.525 325.768C71.2618 320.82 67.7386 320.82 66.4733 325.768Z" fill="#9D78FC"/>
</svg>
