<svg width="350" height="232" viewBox="0 0 350 232" fill="none" xmlns="http://www.w3.org/2000/svg">
<path d="M127.942 138.643C128.239 138.643 128.481 138.918 128.481 139.257C128.481 139.584 128.256 139.851 127.974 139.87L127.942 139.871L113.531 139.871V152.042L136.408 152.042C136.695 152.042 136.93 152.297 136.946 152.62L136.947 152.656C136.947 152.983 136.723 153.25 136.44 153.269L136.408 153.27L128.481 153.27V165.441L143.545 165.441C143.842 165.441 144.083 165.716 144.083 166.055C144.083 166.382 143.859 166.649 143.576 166.668L143.545 166.669L113.531 166.669V178.839L131.115 178.84C131.401 178.84 131.636 179.095 131.652 179.418L131.653 179.454C131.653 179.781 131.429 180.048 131.146 180.067L131.115 180.068H97.3107C97.0133 180.068 96.7722 179.793 96.7722 179.453C96.7722 179.126 96.9964 178.859 97.2791 178.84L97.3107 178.839L112.454 178.839V166.669L97.3107 166.669C97.0239 166.669 96.7895 166.413 96.7731 166.091L96.7722 166.055C96.7722 165.937 96.8011 165.828 96.8513 165.734V152.976C96.8011 152.883 96.7722 152.773 96.7722 152.656C96.7722 152.329 96.9964 152.061 97.2791 152.043L97.3107 152.042L112.454 152.041V139.871H101.922C101.635 139.871 101.401 139.615 101.385 139.293L101.384 139.257C101.384 138.93 101.608 138.662 101.89 138.644L101.922 138.643H127.942ZM127.404 153.27H97.9284V165.441H127.404V153.27Z" fill="black" fill-opacity="0.08"/>
<path d="M232.05 107.931H45.3638C44.0638 107.931 43.0099 109.132 43.0099 110.613V113.501C43.0099 114.982 44.0638 116.183 45.3638 116.183H232.05C233.35 116.183 234.404 114.982 234.404 113.501V110.613C234.404 109.132 233.35 107.931 232.05 107.931Z" fill="#F0F1FF"/>
<path d="M107.472 107.931H45.3638C44.0638 107.931 43.0099 109.132 43.0099 110.613V113.501C43.0099 114.982 44.0638 116.183 45.3638 116.183H107.472C108.772 116.183 109.826 114.982 109.826 113.501V110.613C109.826 109.132 108.772 107.931 107.472 107.931Z" fill="#BACCFF"/>
<path d="M217.2 115.787H174.19V229.349H217.2V115.787Z" fill="#C7D2F2"/>
<path d="M101.073 115.787H58.0633V229.349H101.073V115.787Z" fill="#C7D2F2"/>
<path d="M195.666 0.083252H91.0665C89.071 0.083252 87.4534 1.92619 87.4534 4.19958V86.7319C87.4534 89.0053 89.071 90.8483 91.0665 90.8483H195.666C197.661 90.8483 199.279 89.0053 199.279 86.7319V4.19958C199.279 1.92619 197.661 0.083252 195.666 0.083252Z" fill="#FFB201"/>
<path d="M194.943 5.02295H92.1499V78.2936H194.943V5.02295Z" fill="white"/>
<path d="M194.261 4.36853H91.7557V77.2192H194.261V4.36853Z" fill="#FBFDFF"/>
<mask id="mask0_260_2495" style="mask-type:luminance" maskUnits="userSpaceOnUse" x="91" y="4" width="104" height="74">
<path d="M194.26 4.36877H91.7544V77.2194H194.26V4.36877Z" fill="white"/>
</mask>
<g mask="url(#mask0_260_2495)">
<path fill-rule="evenodd" clip-rule="evenodd" d="M148.118 48.0921C148.118 48.0921 146.908 56.7231 148.08 59.2954C149.014 61.3437 154.523 64.145 154.523 64.145L155.509 70.1577L135.057 72.5427C132.69 71.9463 124.123 69.4525 126.858 65.5547C129.592 61.6569 135.385 60.5821 136.327 58.8544C138.134 55.5375 138.465 48.7949 138.415 46.2479C138.415 45.6153 148.118 48.0921 148.118 48.0921Z" fill="#FFD099"/>
<path fill-rule="evenodd" clip-rule="evenodd" d="M131.269 61.2904C133.687 61.8343 142.04 68.379 147.166 67.7495C149.756 67.4315 151.874 62.4057 151.955 62.2933C152.01 62.2177 154.58 63.7399 156.78 65.3255L156.781 65.3196C156.795 65.3323 156.81 65.3457 156.828 65.3599C156.926 65.4307 157.023 65.5016 157.119 65.5724C158.32 66.4108 161.796 68.7447 162.967 75.2082C163.442 77.8305 166.513 87.6448 169.226 95.5841C167.099 99.2886 164.768 99.3997 158.602 99.403L158.018 99.4032C156.564 99.4032 143.138 100.137 128.246 99.4032C122.038 99.0972 116.729 98.7903 115.381 93.6202C114.643 90.7908 117.55 78.3365 117.349 76.6117C116.751 71.4748 119.995 67.9059 121.125 66.8442C124.898 63.2975 130.867 61.2002 131.269 61.2904Z" fill="#FF0057"/>
<path fill-rule="evenodd" clip-rule="evenodd" d="M161.21 82.2848C161.641 84.2346 161.646 85.8788 161.563 87.8801C161.356 91.4221 160.891 91.1563 160.154 95.4068C159.778 97.5712 159.569 98.8864 159.449 99.2267C159.286 99.6886 159.335 98.3916 159.788 95.3329C160.241 91.8535 160.714 92.243 161.006 88.7685C161.297 85.294 161.195 84.8084 160.702 82.2388C160.255 79.9757 159.556 77.9625 158.957 75.7387C158.923 75.4287 158.23 73.4858 158.581 73.7738C159.398 76.6137 160.552 79.388 161.21 82.2848Z" fill="#090E2B"/>
<path fill-rule="evenodd" clip-rule="evenodd" d="M132.601 76.489C132.046 82.0811 131.219 87.6368 130.137 93.1282C129.976 93.5702 128.743 99.607 128.688 98.5437C128.681 98.405 128.705 98.1287 128.731 97.9918C129.686 92.8311 130.676 87.1708 131.496 81.9817L132.344 76.4493C132.367 76.2715 132.622 76.2997 132.601 76.489Z" fill="#090E2B"/>
<path fill-rule="evenodd" clip-rule="evenodd" d="M129.974 22.5085C127.384 15.1817 129.032 10.3227 134.918 7.93151C143.746 4.34466 150.699 6.23483 151.588 14.6927C153.015 28.2589 134.417 35.0786 129.974 22.5085Z" fill="#090E2B"/>
<path fill-rule="evenodd" clip-rule="evenodd" d="M143.651 48.0405C126.906 48.0405 113.354 44.8109 113.354 31.9148C113.354 19.0189 122.938 12.0197 140.891 9.02151C158.843 6.02336 171.723 5.2582 171.723 22.2949C171.723 35.191 160.397 48.0405 143.651 48.0405Z" fill="#090E2B"/>
<path fill-rule="evenodd" clip-rule="evenodd" d="M98.1703 50.7488C105.415 45.451 114.228 48.4732 118.918 46.579C126.54 43.5007 125.512 33.8028 132.693 30.1856C134.643 23.1907 140.135 19.6975 148.241 19.6975C160.962 19.6975 161.317 31.2975 161.629 33.2524C162.775 40.4355 160.394 54.4299 162.799 59.2397C166.838 67.3151 164.971 72.5867 162.866 74.5128C160.595 76.5892 153.99 74.6881 152.557 73.3392C149.822 70.765 147.062 69.755 147.062 61.2206C145.635 58.7304 145.55 57.9931 145.873 54.97C146.261 51.3327 146.626 48.0424 139.734 46.579C140.294 52.868 141.215 57.1983 138.638 60.3822C136.062 63.5661 133.476 63.5661 130.299 64.7664C123.623 67.2885 121.386 88.6383 101.019 79.6995C90.0988 75.0659 90.9258 56.0466 98.1703 50.7488Z" fill="#E3E4E6"/>
<path fill-rule="evenodd" clip-rule="evenodd" d="M159.61 34.6458C161.228 42.1788 160.66 47.3243 159.215 50.5757C157.516 54.4029 156.075 56.213 153.1 56.3319C147.363 56.5611 143.758 54.1427 141.731 52.0384C139.595 49.8217 138.878 47.2272 138.287 45.547C138.213 45.3366 138.145 45.1121 138.084 44.8761L138.145 44.8587C136.124 45.4583 132.693 43.4473 132.693 38.7253C132.693 36.6321 135.615 34.0375 137.558 36.4879C137.582 35.9232 137.606 35.583 137.606 35.583C138.965 29.4112 146.683 25.8929 151.642 25.1222C160.229 23.7877 157.992 27.1127 159.61 34.6458Z" fill="#FFD099"/>
<path fill-rule="evenodd" clip-rule="evenodd" d="M137.181 39.193C136.663 38.0127 135.417 37.2813 134.34 38.1072C134.096 38.2941 134.425 38.422 134.527 38.4089C135.807 38.2187 136.314 38.6159 136.735 39.4421C136.333 39.554 135.931 39.9602 135.88 40.419C135.849 40.7006 135.934 41.5341 136.124 41.2711C136.254 41.0894 135.966 39.8497 136.919 39.9629C136.933 39.9666 136.946 39.9674 136.96 39.9688C137.005 40.0912 137.363 40.3445 137.517 40.1321C137.612 40.0024 137.417 39.7327 137.181 39.193Z" fill="#090E2B"/>
<path fill-rule="evenodd" clip-rule="evenodd" d="M150.557 19.7173C145.501 20.1329 138.277 26.2738 137.114 30.7758C136.917 31.5385 137.098 35.5053 137.528 36.4016C138.1 37.5949 138.038 40.3158 139.743 40.6313C142.749 41.1873 139.66 36.1082 140.116 34.7812C141.835 29.7772 147.289 32.9556 150.557 31.8227C155.033 30.2716 156.69 29.1688 156.805 28.9713C157.386 31.5039 160.517 36.3524 161.601 37.2976C161.954 37.6048 161.478 32.1021 160.347 27.6498C159.662 24.9556 155.364 19.3221 150.557 19.7173Z" fill="#E3E4E6"/>
<path fill-rule="evenodd" clip-rule="evenodd" d="M136.643 50.8697C134.547 50.8697 132.842 48.933 132.842 46.5527C132.842 45.2947 133.322 44.0835 134.162 43.2619C134.3 43.4221 134.465 43.5999 134.588 43.7193C133.868 44.424 133.383 45.4736 133.383 46.5527C133.383 48.5945 134.845 50.2558 136.643 50.2558C138.44 50.2558 139.903 48.5945 139.903 46.5527C139.903 44.511 138.44 42.8497 136.643 42.8497C136.493 42.8497 136.372 42.7122 136.372 42.5428C136.372 42.3732 136.493 42.2358 136.643 42.2358C138.738 42.2358 140.443 44.1723 140.443 46.5527C140.443 48.933 138.738 50.8697 136.643 50.8697Z" fill="white"/>
<path fill-rule="evenodd" clip-rule="evenodd" d="M144.689 54.6631C143.951 54.1635 142.45 53.2361 142.151 52.7021C141.995 52.4239 142.549 52.7906 142.836 53.0362C143.217 53.363 144.794 54.3269 146.739 55.3665C146.908 55.4566 147.991 55.9737 148.018 56.0429C148.043 56.1077 147.935 56.2199 147.807 56.2006C146.945 56.0702 145.502 55.2138 144.689 54.6631Z" fill="#090E2B"/>
<path fill-rule="evenodd" clip-rule="evenodd" d="M142.912 33.494C143.232 31.8604 147.443 31.2878 149.296 32.5526C149.936 32.985 151.126 34.173 150.073 34.8196C149.795 34.9571 149.524 34.8161 149.296 34.6485C146.77 32.655 142.689 34.6327 142.912 33.494Z" fill="#090E2B"/>
<path fill-rule="evenodd" clip-rule="evenodd" d="M146.329 36.4473C145.376 36.7542 144.56 37.624 144.484 38.3447C144.438 38.7802 145.942 39.8256 147.393 39.9069C149.301 40.0135 150.263 38.8391 150.26 38.4638C150.131 37.328 148.98 35.5931 146.329 36.4473Z" fill="white"/>
<path fill-rule="evenodd" clip-rule="evenodd" d="M149.281 37.0932C147.814 35.8339 145.542 36.6545 144.484 38.3444C144.423 38.432 144.44 38.2116 144.483 38.1111C144.993 36.8941 145.914 36.3197 146.982 36.0692C147.625 35.9184 148.224 35.9062 148.851 36.225C149.093 36.348 149.521 36.7229 149.852 37.1469C150.11 37.4773 150.327 38.044 150.028 37.8436C149.795 37.6867 149.475 37.2604 149.281 37.0932Z" fill="#090E2B"/>
<path fill-rule="evenodd" clip-rule="evenodd" d="M147.374 39.2436C148.189 39.2436 148.85 38.5584 148.85 37.7131C148.85 36.8679 148.189 36.1826 147.374 36.1826C146.558 36.1826 145.897 36.8679 145.897 37.7131C145.897 38.5584 146.558 39.2436 147.374 39.2436Z" fill="#090E2B"/>
<path fill-rule="evenodd" clip-rule="evenodd" d="M157.934 33.2244C158.538 33.5288 159.343 34.5394 158.673 34.5394C158.004 34.5394 156.553 34.3236 155.581 34.7793C155.241 34.8779 154.984 35.0667 154.643 35.1127C153.867 35.2844 153.445 34.2286 153.994 33.5902C154.614 32.8691 156.706 32.5272 157.934 33.2244Z" fill="#090E2B"/>
<path fill-rule="evenodd" clip-rule="evenodd" d="M157.249 39.8488C158.217 39.5932 158.94 38.5966 158.859 37.852C158.699 36.8652 157.026 36.2351 156.089 36.7739C155.161 37.3074 154.581 38.4994 154.656 38.9701C154.764 39.2959 156.26 40.1101 157.249 39.8488Z" fill="white"/>
<path fill-rule="evenodd" clip-rule="evenodd" d="M156.449 39.3111C157.087 39.3111 157.603 38.7475 157.603 38.0526C157.603 37.3574 157.239 36.7006 156.449 36.7941C155.815 36.869 155.295 37.3574 155.295 38.0526C155.295 38.7475 155.812 39.3111 156.449 39.3111Z" fill="#090E2B"/>
<path fill-rule="evenodd" clip-rule="evenodd" d="M154.691 38.2946C155.056 36.7446 156.707 35.9476 158.012 36.6814C158.196 36.7903 158.494 37.0346 158.717 37.3297C158.923 37.6019 158.896 37.7445 158.812 37.7163C158.673 37.6692 158.379 37.3694 158.14 37.2405C156.931 36.5891 155.673 36.9546 154.753 38.483C154.707 38.5622 154.665 38.384 154.691 38.2946Z" fill="#090E2B"/>
<path fill-rule="evenodd" clip-rule="evenodd" d="M154.787 44.1676C154.611 45.1742 153.522 45.2721 152.813 45.044C152.237 44.8586 152.087 44.4772 152.282 44.3549C152.6 44.1556 153.618 44.71 153.994 44.1808C154.664 43.2371 152.608 39.7671 153.261 40.3247C154.124 41.0615 154.904 43.4959 154.787 44.1676Z" fill="#090E2B"/>
<path fill-rule="evenodd" clip-rule="evenodd" d="M155.264 48.3101C155.126 48.4284 154.801 48.9167 154.473 49.2268C153.734 49.9242 152.533 50.0845 151.825 49.9242C150.494 49.6229 149.918 48.6368 149.566 48.3667C149.214 48.0967 149.875 47.7499 150.38 47.8008C150.885 47.8517 151.224 48.0183 152.189 48.4896C152.811 48.7938 154.218 48.3667 154.616 48.0967C155.374 47.5815 155.602 48.0215 155.264 48.3101Z" fill="#090E2B"/>
</g>
<path d="M154.838 90.8481H133.34V102.58H154.838V90.8481Z" fill="#F67A49"/>
<path fill-rule="evenodd" clip-rule="evenodd" d="M123.224 102.58H164.774C166.271 102.58 167.484 103.962 167.484 105.667V107.931H120.514V105.667C120.514 103.962 121.727 102.58 123.224 102.58Z" fill="#FFB201"/>
<path fill-rule="evenodd" clip-rule="evenodd" d="M277.366 153.387L279.016 188.855H254.151L255.802 153.387H253.009L252.005 188.855H251.923V191.52H251.929L250.837 230.063H252.234L254.027 191.52H279.14L280.934 230.063H282.33L280.158 153.387H277.366Z" fill="#8E2420"/>
<path fill-rule="evenodd" clip-rule="evenodd" d="M284.751 148.756L266.241 147.93C266.177 147.927 266.112 147.927 266.048 147.93L248.566 148.75C247.064 148.821 245.873 150.451 245.873 152.438V154.412C245.873 156.45 247.123 158.102 248.665 158.102H284.657C286.199 158.102 287.449 156.45 287.449 154.412V152.444C287.449 150.455 286.256 148.823 284.751 148.756Z" fill="#FF0057"/>
<path d="M28.8333 230.452L144.926 230.556C145.277 230.556 145.561 230.88 145.561 231.278C145.561 231.664 145.294 231.979 144.96 231.999L144.925 232L28.8323 231.897C28.4813 231.897 28.1972 231.573 28.1972 231.174C28.1972 230.789 28.4636 230.474 28.7984 230.453L28.8333 230.452Z" fill="#090E2B"/>
<path d="M163.215 230.452L314.174 230.555C314.525 230.556 314.809 230.879 314.809 231.278C314.809 231.664 314.543 231.979 314.208 231.999L314.173 232L163.214 231.897C162.863 231.897 162.579 231.573 162.579 231.174C162.579 230.789 162.845 230.474 163.18 230.453L163.215 230.452Z" fill="#090E2B"/>
<path d="M28.8333 230.452L144.926 230.556C145.277 230.556 145.561 230.88 145.561 231.278C145.561 231.664 145.294 231.979 144.96 231.999L144.925 232L28.8323 231.897C28.4813 231.897 28.1972 231.573 28.1972 231.174C28.1972 230.789 28.4636 230.474 28.7984 230.453L28.8333 230.452Z" fill="#090E2B"/>
<path fill-rule="evenodd" clip-rule="evenodd" d="M119.71 116.081C119.71 116.081 118.335 128.161 97.8056 142.794C92.2009 146.774 89.6145 150.965 87.6844 154.851C85.837 155.53 83.0655 156.396 81.3819 156.256C81.3819 156.256 83.9072 157.075 86.6374 157.075C83.9892 162.811 81.3425 167.587 71.4681 169.507C71.4681 169.507 61.0526 162.381 69.1877 141.858C71.3228 143.964 74.0942 147.944 74.0942 147.944C73.7657 144.878 71.3022 141.366 70.0706 139.774C70.0908 139.75 70.0908 139.727 70.1114 139.704C76.0858 126.921 87.5821 126.476 98.6473 125.704C98.524 127.412 98.1547 129.965 97.1898 131.931C97.1898 131.931 100.125 129.403 101.029 125.516C102.856 125.376 104.662 125.189 106.428 124.907C111.519 124.111 116.939 120.904 119.71 116.081Z" fill="#9D78FC"/>
<path d="M1.87749 119.151C4.69089 118.678 8.01643 118.602 11.6948 119.175C16.7647 119.965 21.8675 121.91 26.8426 125.261C26.9026 125.301 26.9362 125.377 26.9308 125.455L26.9275 125.481L25.6471 132.462L28.5029 126.692C28.5506 126.595 28.6556 126.56 28.7404 126.608L28.7596 126.621C30.5026 127.929 32.2228 129.431 33.9369 131.148C40.3661 137.571 44.3309 144.167 46.2898 150.679C47.6323 155.142 47.8916 159.007 47.5305 162.016C47.5154 162.142 47.4998 162.26 47.4838 162.37L47.4597 162.528L47.4354 162.674L47.411 162.807L47.39 162.91L47.3829 162.934L47.3759 162.951L47.3654 162.971L47.3532 162.989L47.3395 163.006L47.3298 163.015L47.312 163.03L47.2931 163.042L47.291 163.043C47.2842 163.046 47.278 163.049 47.2717 163.051L47.2526 163.057L47.2325 163.061L47.2122 163.062L47.1888 163.059L47.1676 163.054L47.1469 163.046L47.1319 163.038L47.1144 163.026L47.108 163.021C46.3519 162.38 45.5849 161.822 44.7839 161.324L44.5985 161.21L44.4249 161.106C44.396 161.089 44.3672 161.072 44.3383 161.055L44.1651 160.954L43.9917 160.856C43.9627 160.84 43.9337 160.823 43.9047 160.807L43.7301 160.711L43.5543 160.617L43.3768 160.524C43.347 160.509 43.3172 160.494 43.2872 160.478L43.1065 160.387C43.0762 160.372 43.0457 160.357 43.0152 160.342L42.8303 160.251L42.6421 160.162L42.4503 160.073C42.418 160.058 42.3856 160.043 42.353 160.028L42.1549 159.939C42.1215 159.924 42.088 159.909 42.0542 159.894L41.849 159.805L41.6386 159.715L41.4225 159.624L41.2004 159.532L40.855 159.392L40.616 159.298L40.3695 159.201L39.9849 159.053L39.7181 158.951L37.3688 158.067L36.5736 157.762L36.0156 157.544L35.4731 157.326L35.0839 157.164L34.7666 157.028L34.5061 156.913L34.1667 156.757L33.9869 156.672L33.7948 156.58L33.5986 156.484L33.3963 156.384L33.1861 156.279L32.8517 156.11L32.7341 156.05C29.9347 154.623 27.179 152.776 24.1912 150.228C24.1008 150.151 24.095 150.002 24.1735 149.915L24.1916 149.898L27.8392 146.806L23.1859 149.188C23.133 149.215 23.0725 149.211 23.0229 149.179L23.0024 149.164L22.8033 148.989L22.5394 148.751L22.3036 148.534L22.0349 148.285C20.6561 146.993 19.2328 145.463 17.8088 143.776L17.4923 143.399C16.965 142.766 16.4379 142.112 15.9135 141.442L15.5991 141.038C15.5468 140.971 15.4945 140.903 15.4422 140.835L15.129 140.425C15.0769 140.357 15.0248 140.288 14.9727 140.219L14.6608 139.805L14.35 139.387L14.0403 138.966C13.9888 138.896 13.9374 138.825 13.886 138.755L13.5782 138.33C13.527 138.259 13.4759 138.188 13.4249 138.117L13.1193 137.688C13.0685 137.617 13.0178 137.545 12.9671 137.474L12.6639 137.042L12.3625 136.609C12.3124 136.536 12.2624 136.464 12.2124 136.392L11.9138 135.956C11.8146 135.81 11.7157 135.665 11.6172 135.519L11.3227 135.081L11.0304 134.642C10.9819 134.569 10.9334 134.495 10.8851 134.422L10.5963 133.982C10.5484 133.909 10.5006 133.835 10.4529 133.762L10.1679 133.321C10.0733 133.174 9.97918 133.027 9.88551 132.88L9.60591 132.44L9.32916 131.999L9.05538 131.56L8.80988 131.167L8.56636 130.781C8.52593 130.717 8.48559 130.654 8.44533 130.591L8.20476 130.214L7.96616 129.844L7.72955 129.48L7.49492 129.122L7.26227 128.77L7.03162 128.425L6.80296 128.086L6.5763 127.752L6.35163 127.425L6.12897 127.104L5.90832 126.789C5.87172 126.737 5.83519 126.685 5.79875 126.634L5.58112 126.328L5.3655 126.028C5.32973 125.978 5.29405 125.929 5.25845 125.88L5.04586 125.588L4.8353 125.303C4.80038 125.256 4.76554 125.209 4.73078 125.163L4.52326 124.886L4.31778 124.615L4.11433 124.35L3.91292 124.09L3.71355 123.837L3.51624 123.589L3.32097 123.346L3.12776 123.11C3.09573 123.071 3.06378 123.032 3.03192 122.993L2.8418 122.765L2.65373 122.542L2.46774 122.325C2.43691 122.289 2.40617 122.254 2.37551 122.218L2.18837 122.004C2.1268 121.935 2.06605 121.866 2.0061 121.799L1.82872 121.603C1.77041 121.539 1.71291 121.477 1.65623 121.416L1.48864 121.237L1.32597 121.066C1.29927 121.038 1.27277 121.011 1.24648 120.984L1.09121 120.826L0.940878 120.676L0.795502 120.534C0.771686 120.511 0.748077 120.489 0.724676 120.467L0.593183 120.343L0.476032 120.236C0.457249 120.219 0.438837 120.202 0.420797 120.186L0.317021 120.095C0.30047 120.08 0.284292 120.066 0.268487 120.053L0.173497 119.973L0.103721 119.918L0.0826906 119.902C-0.0489695 119.805 -0.0172585 119.575 0.134206 119.529L0.251984 119.496L0.407736 119.455L0.525859 119.425L0.589168 119.41C0.681333 119.388 0.777374 119.366 0.877232 119.344L1.08202 119.3L1.29689 119.257L1.52174 119.214L1.75646 119.172C1.7964 119.165 1.83674 119.158 1.87749 119.151Z" fill="#9D78FC"/>
<path fill-rule="evenodd" clip-rule="evenodd" d="M59.8957 169.303C59.8957 169.303 50.2139 166.031 43.3722 151.917C45.7027 151.146 47.2065 149.363 47.2065 149.363C45.5524 149.894 42.545 150.117 42.545 150.117C28.3127 129.732 35.4908 95.7893 35.4908 95.7893C37.0697 100.265 44.9178 106.667 51.2781 116.081C50.4061 116.956 47.3398 120.5 46.5729 121.889C46.5729 121.889 50.0187 118.874 51.8531 117.862C57.6876 126.573 62.0911 137.407 63.7751 145.947C67.4442 164.674 59.8957 169.303 59.8957 169.303Z" fill="#9D78FC"/>
<path fill-rule="evenodd" clip-rule="evenodd" d="M38.5268 108.243C40.887 115.596 43.3707 122.901 46.0764 130.096C47.4381 133.688 48.846 137.261 50.4426 140.72C50.6457 141.151 50.8365 141.589 51.0494 142.012L51.6959 143.276C52.1231 144.12 52.5795 144.957 53.0196 145.798C53.8747 147.5 54.716 149.214 55.4507 150.991C56.9558 154.522 58.1332 158.244 58.9077 162.075C59.3008 163.988 59.6008 165.923 59.8762 167.857C60.0182 168.822 60.1468 169.792 60.2636 170.768C60.3669 171.742 60.4695 172.716 60.553 173.692C60.9021 177.593 61.1486 181.501 61.3878 185.409C61.6209 189.318 61.8276 193.228 62.0112 197.141C62.0181 197.283 61.9223 197.404 61.798 197.412C61.6733 197.419 61.5671 197.31 61.5602 197.168V197.167C61.3885 193.257 61.1934 189.348 60.9726 185.441C60.7453 181.535 60.5107 177.628 60.1739 173.735C60.0937 172.762 59.9947 171.792 59.8946 170.821C59.7818 169.856 59.6572 168.89 59.5177 167.923C59.2488 165.991 58.9561 164.065 58.5712 162.164C57.8141 158.358 56.6573 154.662 55.1713 151.143C54.4464 149.374 53.6138 147.664 52.7674 145.965C52.3298 145.123 51.882 144.296 51.4531 143.442L50.8058 142.166C50.5926 141.74 50.4025 141.299 50.2001 140.867C48.6079 137.388 47.209 133.805 45.857 130.203C43.1702 122.99 40.7081 115.674 38.3688 108.307C38.3529 108.258 38.3757 108.203 38.4191 108.185C38.4628 108.167 38.5112 108.193 38.5268 108.243Z" fill="black"/>
<path fill-rule="evenodd" clip-rule="evenodd" d="M10.6041 124.523L27.7214 138.047C30.5766 140.305 33.295 142.792 35.8423 145.49C36.4889 146.152 37.0985 146.86 37.7255 147.546C38.3265 148.263 38.951 148.954 39.5292 149.695C40.7203 151.141 41.825 152.677 42.89 154.246C43.9427 155.827 44.9094 157.482 45.7923 159.197C46.6426 160.932 47.4051 162.727 47.9581 164.625C48.0979 165.096 48.2038 165.578 48.3285 166.055C48.4419 166.534 48.584 167.007 48.6729 167.492C48.8626 168.46 49.0899 169.421 49.2482 170.396C49.5984 172.339 49.8929 174.293 50.1596 176.251C51.2007 184.089 51.8342 191.982 52.2845 199.889C52.2925 200.031 52.1982 200.154 52.0738 200.163C51.9492 200.172 51.8418 200.064 51.8335 199.922V199.921V199.917C51.4111 192.027 50.8039 184.135 49.7921 176.314C49.533 174.361 49.2457 172.411 48.9034 170.476C48.7491 169.504 48.5265 168.551 48.3411 167.587C48.2544 167.102 48.1153 166.636 48.0047 166.16C47.8829 165.688 47.7792 165.208 47.6429 164.743C47.1063 162.876 46.3578 161.095 45.5213 159.373C44.6521 157.67 43.6984 156.023 42.6573 154.446C41.6035 152.882 40.51 151.35 39.3286 149.905C38.7562 149.164 38.1364 148.473 37.5401 147.757C36.9178 147.071 36.3129 146.363 35.671 145.7C33.141 143 30.4408 140.509 27.5996 138.244L10.5289 124.646C10.499 124.623 10.4914 124.576 10.5123 124.542C10.5329 124.508 10.5741 124.499 10.6041 124.523Z" fill="black"/>
<path fill-rule="evenodd" clip-rule="evenodd" d="M110.767 127.707C104.953 131.898 99.1055 136.028 93.271 140.182L88.9015 143.298C87.4741 144.354 86.1344 145.579 84.8421 146.856C83.5422 148.126 82.332 149.51 81.1466 150.917C80.5778 151.647 79.979 152.346 79.4427 153.107L78.6195 154.229L77.8389 155.391C76.7909 156.934 75.8654 158.576 74.9883 160.248C74.7787 160.671 74.5847 161.105 74.3819 161.534C74.1893 161.968 73.9634 162.384 73.7976 162.832L73.2736 164.164L73.0126 164.83L72.7951 165.515L72.36 166.886C72.2082 167.341 72.1265 167.82 72.0062 168.286C71.8974 168.755 71.7789 169.22 71.6773 169.694L71.4002 171.129L70.3182 176.878C68.9156 184.553 67.5728 192.245 66.3029 199.95C66.2801 200.089 66.1626 200.182 66.0398 200.157C65.9173 200.131 65.836 199.996 65.8584 199.856C67.116 192.143 68.4184 184.44 69.8408 176.763L70.9286 171.011L71.2079 169.574C71.3102 169.096 71.432 168.619 71.5429 168.141C71.6658 167.667 71.7507 167.178 71.9046 166.716L72.3484 165.322L72.5707 164.625L72.8359 163.949L73.3697 162.598C73.5385 162.142 73.7672 161.721 73.9631 161.282C74.1691 160.847 74.366 160.407 74.5789 159.978C75.4682 158.286 76.4067 156.626 77.4663 155.068L78.2563 153.897L79.0882 152.764C79.6306 151.997 80.2352 151.292 80.8095 150.556C82.0067 149.138 83.2286 147.743 84.5418 146.462C85.849 145.175 87.1987 143.941 88.6583 142.863C90.1223 141.812 91.5891 140.807 93.0546 139.777C98.9202 135.683 104.773 131.566 110.659 127.51C110.707 127.477 110.77 127.494 110.799 127.549C110.828 127.603 110.813 127.673 110.767 127.707Z" fill="black"/>
<mask id="mask1_260_2495" style="mask-type:luminance" maskUnits="userSpaceOnUse" x="38" y="183" width="41" height="48">
<path fill-rule="evenodd" clip-rule="evenodd" d="M38.7089 183.639H78.8514V230.063H38.7089V183.639Z" fill="white"/>
</mask>
<g mask="url(#mask1_260_2495)">
<path fill-rule="evenodd" clip-rule="evenodd" d="M51.7626 230.063H65.799C70.797 230.063 74.9772 229.412 75.4547 223.771L78.8521 183.639H38.7096L42.1066 223.771C42.5841 229.412 46.7643 230.063 51.7626 230.063Z" fill="#F0F1FF"/>
</g>
<path fill-rule="evenodd" clip-rule="evenodd" d="M244.209 199.217C244.209 199.217 246.054 214.074 246.807 220.422C247.566 226.824 234.061 220.593 234.061 220.593C234.061 220.593 236.496 216.636 236.532 215.552C236.569 214.468 232.412 201.78 232.412 201.78L244.209 199.217Z" fill="#CA8F67"/>
<path fill-rule="evenodd" clip-rule="evenodd" d="M217.157 117.291C210.528 120.746 203.829 129.47 209.685 145.822C215.541 162.175 229.322 201.754 231.488 203.535C233.653 205.315 245.077 201.78 245.077 201.78C245.077 201.78 243.827 185.158 241.345 168.814C239.527 156.845 235.695 148.119 235.695 148.119C235.695 148.119 266.52 153.134 274.174 147.247C284.219 139.52 276.782 118.698 271.008 116.12C263.586 112.806 229.778 110.714 217.157 117.291Z" fill="#090E2B"/>
<path fill-rule="evenodd" clip-rule="evenodd" d="M217.505 227.527C218.474 224.106 225.497 221.847 230.569 220.137C232.276 219.561 234.661 216.716 235.769 216.751C237.381 216.801 235.801 220.626 241.196 220.293C242.625 220.205 242.727 218.49 245.831 218.1C246.335 218.037 247.106 217.925 247.772 219.292C248.143 220.054 249.663 226.935 248.171 229.74C237.725 230.048 226.981 229.744 217.7 229.645C216.794 229.636 217.257 228.402 217.505 227.527Z" fill="#FF0057"/>
<path fill-rule="evenodd" clip-rule="evenodd" d="M200.265 201.78C200.265 201.78 198.366 212.958 197.095 214.777C195.825 216.595 189.231 218.641 188.935 219.764C188.639 220.887 202.989 223.517 202.989 223.517L211.769 202.744L200.265 201.78Z" fill="#CA8F67"/>
<path fill-rule="evenodd" clip-rule="evenodd" d="M175.964 226.911C176.933 223.491 183.957 221.232 189.028 219.522C190.736 218.946 193.121 216.101 194.228 216.135C195.84 216.185 194.26 220.011 199.656 219.678C201.084 219.589 201.186 217.875 204.29 217.485C204.795 217.421 205.566 217.31 206.232 218.677C206.603 219.439 208.122 226.319 206.631 229.125C196.185 229.433 185.44 229.129 176.159 229.03C175.253 229.02 175.717 227.787 175.964 226.911Z" fill="#FF0057"/>
<path fill-rule="evenodd" clip-rule="evenodd" d="M188.085 221.965C187.422 220.442 187.132 220.178 187.414 219.938C188.091 219.365 191.526 221.136 191.796 222.189C191.998 222.979 189.711 220.693 187.884 220.352C188.633 221.132 189.33 223.522 188.594 223.045C185.006 220.725 184.44 221.263 184.435 221.177C184.414 220.767 185.772 220.435 188.085 221.965Z" fill="#FFB201"/>
<path fill-rule="evenodd" clip-rule="evenodd" d="M285.658 133.082C283.506 145.787 273.579 150.351 264.966 149.972C251.808 149.392 238.395 142.729 233.861 140.502C234.261 143.779 232.125 162.412 228.561 171.035C224.996 179.658 213.386 205.599 213.386 205.599C213.386 205.599 200.287 205.687 199.727 202.061C199.358 199.676 211.656 133.051 215.724 121.515C218.06 114.89 225.621 112.031 241.172 110.524C256.791 109.01 279.56 111.801 279.56 111.801C279.56 111.801 287.809 120.376 285.658 133.082Z" fill="#090E2B"/>
<path fill-rule="evenodd" clip-rule="evenodd" d="M229.625 222.786C228.962 221.263 228.672 220.998 228.955 220.758C229.631 220.185 233.066 221.956 233.336 223.01C233.538 223.799 231.251 221.514 229.425 221.173C230.173 221.952 230.871 224.342 230.134 223.866C226.546 221.545 225.98 222.083 225.976 221.997C225.955 221.587 227.313 221.255 229.625 222.786Z" fill="#FFB201"/>
<path fill-rule="evenodd" clip-rule="evenodd" d="M219.713 230.98L244.856 231.486C246.538 231.563 249.055 230.903 249.298 229.309C249.48 228.119 249.076 225.526 248.992 225.354C248.406 224.152 243.415 225.166 241.961 229.224C232.787 230.008 217.164 229.242 217.164 229.242C217.164 229.242 216.929 230.817 219.713 230.98Z" fill="#090E2B"/>
<path fill-rule="evenodd" clip-rule="evenodd" d="M178.192 230.241L203.335 230.746C205.017 230.823 207.533 230.164 207.777 228.57C207.958 227.379 207.554 224.787 207.47 224.614C206.885 223.413 201.893 224.427 200.439 228.485C191.265 229.269 175.642 228.502 175.642 228.502C175.642 228.502 175.408 230.077 178.192 230.241Z" fill="#090E2B"/>
<path fill-rule="evenodd" clip-rule="evenodd" d="M191.623 19.5921C191.623 19.5921 191.172 18.4533 190.789 17.6726C190.282 16.642 190.687 15.4468 191.691 17.0213C191.962 17.4462 197.222 24.1143 198.504 25.3476C208.161 34.639 219.737 45.3865 222.434 46.8435C226.207 48.8817 232.674 50.0078 235.955 53.3312C237.548 54.945 231.42 68.2609 231.42 68.2609C231.42 68.2609 221.363 63.0297 218.152 60.7357C214.156 57.8806 202.226 40.9974 195.298 30.2339C193.758 27.8416 190.867 27.4658 189.839 24.0722C189.205 21.9835 191.623 19.5921 191.623 19.5921Z" fill="#CA8F67"/>
<path fill-rule="evenodd" clip-rule="evenodd" d="M259.512 45.8866C259.512 45.8866 260.075 50.6777 259.628 51.6289C259.41 52.0925 257.91 53.7495 252.223 54.6455C251.59 55.4079 254.616 63.0614 255.797 64.3321C256.978 65.603 260.77 66.2806 267.982 59.7576C275.193 53.2343 274.152 53.3189 274.152 53.3189C274.152 53.3189 270.111 53.2191 269.171 51.5399C268.842 50.9511 268.477 41.9599 269.275 39.2465C270.073 36.5331 259.512 45.8866 259.512 45.8866Z" fill="#CA8F67"/>
<path fill-rule="evenodd" clip-rule="evenodd" d="M291.189 67.2291C291.189 67.2291 305.631 83.2885 309.228 87.391C311.967 90.5146 326.042 105.895 334.815 115.053C337.564 117.924 341.56 119.417 344.311 121.133C345.575 121.921 350.154 124.68 349.793 125.616C349.482 126.427 343.877 125.497 342.332 126.206C343.79 127.826 343.507 129.352 341 128.456C337.538 127.218 335.959 123.511 333.165 121.305C329.76 118.617 305.06 104.042 298.495 96.7271C293.679 91.3608 282.164 83.9921 282.164 83.9921L291.189 67.2291Z" fill="#CA8F67"/>
<path fill-rule="evenodd" clip-rule="evenodd" d="M286.745 88.8228C283.946 86.2529 278.486 81.8761 278.486 81.8761C278.486 81.8761 289.843 118.313 287.499 122.553C286.863 123.705 281.347 119.143 273.249 117.723C259.938 115.39 244.898 113.983 246.335 109.201C250.43 95.5761 246.716 76.316 246.716 76.316L230.731 69.9174C228.889 66.0027 226.992 49.822 229.384 48.873C230.016 48.6224 247.624 53.5604 247.624 53.5604C247.624 53.5604 254.655 53.0189 255.088 53.285C255.521 53.5511 256.53 60.8273 257.943 61.1653C261.889 62.1099 274.077 52.6003 274.077 52.6003C274.077 52.6003 280.059 53.6911 283.31 56.8957C285.539 59.0924 300.975 76.5382 300.975 76.5382C300.975 76.5382 289.545 91.3928 286.745 88.8228Z" fill="#C51230"/>
<path fill-rule="evenodd" clip-rule="evenodd" d="M278.546 82.0395C278.229 81.3155 275.871 78.7932 274.426 77.4212C273.229 76.2833 272.659 75.9363 274.404 78.0609C275.034 78.7101 278.087 82.5536 278.546 82.0395Z" fill="black"/>
<path fill-rule="evenodd" clip-rule="evenodd" d="M246.387 70.3261C246.337 70.5176 246.271 74.239 246.664 76.1509C246.697 76.3087 246.716 76.4942 246.758 76.5125C247.001 76.619 246.86 73.3725 246.752 71.7736C246.618 69.7984 246.472 70.0019 246.387 70.3261Z" fill="black"/>
<path fill-rule="evenodd" clip-rule="evenodd" d="M251.693 17.0152C251.693 17.0152 251.339 15.1121 248.736 15.328C244.528 15.6768 243.769 20.358 244.734 24.9444C245.414 28.1752 246.323 30.7206 246.037 32.5103C245.488 35.9388 243.935 36.0997 242.736 39.8603C240.832 45.8314 245.623 46.2668 245.669 47.3384C245.893 52.5309 247.386 54.9197 250.009 56.0557C253.876 57.7307 257.936 55.536 259.988 51.4517C261.707 48.032 259.988 44.2808 259.988 44.2808L250.572 33.9397L251.693 17.0152Z" fill="#090E2B"/>
<path fill-rule="evenodd" clip-rule="evenodd" d="M252.293 14.8896C252.293 14.8896 249.536 16.4351 248.235 20.7646C247.503 23.199 247.782 26.1886 247.375 30.4014C246.364 40.8601 249.07 49.0207 254.098 48.8252C260.07 48.5928 265.237 44.5281 268.103 42.1649C270.97 39.8013 271.496 36.8496 271.525 32.1762C271.554 27.5028 271.405 17.4583 268.758 17.1628C266.11 16.8675 257.658 10.2529 252.293 14.8896Z" fill="#CA8F67"/>
<path fill-rule="evenodd" clip-rule="evenodd" d="M269.931 34.3324C269.927 35.9394 264.301 40.1978 267.292 46.2014C265.261 48.6084 265.834 58.0867 274.568 56.7402C278.4 62.5826 286.526 60.1899 285.587 53.932C287.987 53.4003 289.162 48.931 288.827 46.4051C287.957 39.8599 282.486 39.0453 282.486 39.0453C283.173 31.5257 277.156 33.309 277.992 28.1326C278.819 23.0144 277.917 15.9166 273.191 15.0836C272.546 7.72732 264.212 4.41126 258.359 7.90897C256.977 6.46671 247.543 4.77559 247.741 14.6287C247.808 17.9745 250.087 22.4554 253.407 23.2203C255.75 23.7604 259.905 22.8191 261.329 24.8119C263.278 27.5377 263.61 28.2069 266.569 29.9276C267.716 30.5944 268.528 29.9276 268.528 29.9276C268.528 29.9276 269.942 30.3897 269.931 34.3324Z" fill="#090E2B"/>
<path fill-rule="evenodd" clip-rule="evenodd" d="M268.57 35.9659C269.84 36.8137 271.577 35.7531 272.584 34.9801C274.765 33.3048 274.68 30.5893 272.929 29.1247C271.649 28.0547 269.864 28.2703 268.244 29.8301C266.848 31.1744 267.135 35.0082 268.57 35.9659Z" fill="#CA8F67"/>
<path fill-rule="evenodd" clip-rule="evenodd" d="M271.904 30.5655C270.997 30.3761 269.978 30.5123 269.332 31.5992C269.038 32.0959 269.032 32.6619 268.88 33.2309C268.863 33.293 269.038 33.4402 269.287 32.756C269.609 31.8666 270.193 31.306 270.701 31.0624C271.363 30.7455 272.159 30.9596 272.278 30.8276C272.402 30.6901 272.006 30.5867 271.904 30.5655Z" fill="black"/>
<path fill-rule="evenodd" clip-rule="evenodd" d="M269.424 32.4862C269.883 32.2165 270.758 32.6986 270.794 32.5953C270.905 32.2758 269.725 31.718 269.338 32.0774C269.054 32.3414 269.098 32.6778 269.424 32.4862Z" fill="black"/>
<path fill-rule="evenodd" clip-rule="evenodd" d="M265.219 44.3289C265.061 44.4071 264.223 44.9584 263.853 45.1826C263.175 45.5942 262.494 46.0004 261.803 46.3715C261.448 46.5637 260.591 46.9043 260.707 47.0185C260.928 47.2376 262.853 46.4181 264.071 45.5031C264.718 45.0168 265.489 44.1957 265.219 44.3289Z" fill="#090E2B"/>
<path fill-rule="evenodd" clip-rule="evenodd" d="M263.881 26.131C263.56 24.4855 259.332 23.9087 257.471 25.1828C256.828 25.6184 255.634 26.815 256.691 27.4664C256.971 27.6049 257.242 27.4629 257.471 27.294C260.007 25.2859 264.105 27.2781 263.881 26.131Z" fill="#090E2B"/>
<path fill-rule="evenodd" clip-rule="evenodd" d="M260.451 29.1061C261.407 29.4153 262.227 30.2913 262.303 31.0174C262.349 31.456 260.839 32.5092 259.382 32.591C257.466 32.6984 256.5 31.5154 256.503 31.1373C256.632 29.9933 257.788 28.2457 260.451 29.1061Z" fill="white"/>
<path fill-rule="evenodd" clip-rule="evenodd" d="M257.486 29.7568C258.959 28.4882 261.241 29.3148 262.303 31.0171C262.364 31.1053 262.346 30.8833 262.304 30.7821C261.792 29.5562 260.867 28.9776 259.794 28.7253C259.149 28.5733 258.548 28.561 257.918 28.8821C257.675 29.006 257.245 29.3837 256.913 29.8108C256.654 30.1437 256.436 30.7145 256.736 30.5127C256.97 30.3546 257.291 29.9252 257.486 29.7568Z" fill="#090E2B"/>
<path fill-rule="evenodd" clip-rule="evenodd" d="M259.401 31.9227C258.582 31.9227 257.918 31.2326 257.918 30.381C257.918 29.5297 258.582 28.8394 259.401 28.8394C260.22 28.8394 260.884 29.5297 260.884 30.381C260.884 31.2326 260.22 31.9227 259.401 31.9227Z" fill="#090E2B"/>
<path fill-rule="evenodd" clip-rule="evenodd" d="M248.799 25.8594C248.192 26.166 247.385 27.184 248.057 27.184C248.729 27.184 250.186 26.9666 251.162 27.4257C251.503 27.525 251.762 27.7152 252.104 27.7616C252.883 27.9345 253.307 26.8709 252.756 26.2279C252.133 25.5015 250.032 25.1571 248.799 25.8594Z" fill="#090E2B"/>
<path fill-rule="evenodd" clip-rule="evenodd" d="M249.486 32.5326C248.515 32.2751 247.788 31.2712 247.87 30.5211C248.031 29.5271 249.71 28.8924 250.651 29.4352C251.583 29.9726 252.166 31.1733 252.09 31.6474C251.982 31.9756 250.479 32.7958 249.486 32.5326Z" fill="white"/>
<path fill-rule="evenodd" clip-rule="evenodd" d="M250.29 31.9909C249.651 31.9909 249.132 31.4232 249.132 30.7231C249.132 30.0229 249.497 29.3612 250.29 29.4554C250.927 29.5308 251.449 30.0229 251.449 30.7231C251.449 31.4232 250.93 31.9909 250.29 31.9909Z" fill="#090E2B"/>
<path fill-rule="evenodd" clip-rule="evenodd" d="M252.056 30.9665C251.689 29.4052 250.032 28.6023 248.721 29.3415C248.537 29.4512 248.237 29.6973 248.013 29.9945C247.807 30.2687 247.834 30.4124 247.918 30.3839C248.058 30.3365 248.353 30.0345 248.593 29.9047C249.807 29.2485 251.069 29.6167 251.994 31.1563C252.039 31.2361 252.082 31.0566 252.056 30.9665Z" fill="#090E2B"/>
<path fill-rule="evenodd" clip-rule="evenodd" d="M251.455 40.7003C253.005 40.9064 251.749 42.8698 252.552 43.1306C254.608 43.7984 256.84 42.9881 257.201 40.9064C257.413 39.6779 256.778 39.8264 256.271 39.8777C255.764 39.929 253.258 40.0346 251.912 40.0346C250.607 40.0346 251.263 40.6748 251.455 40.7003Z" fill="#090E2B"/>
<path fill-rule="evenodd" clip-rule="evenodd" d="M253.31 33.9371C253.239 33.9371 252.772 34.8487 252.601 35.1688C252.055 36.1882 251.453 37.3296 252.341 37.9858C252.771 38.3039 254.124 37.8111 254.124 37.4369C254.124 36.8675 252.89 37.8685 252.599 37.2905C252.429 36.9961 253.067 35.5031 253.31 34.6177C253.445 34.1235 253.38 33.9371 253.31 33.9371Z" fill="#090E2B"/>
<path fill-rule="evenodd" clip-rule="evenodd" d="M255.211 31.0388C255.258 34.3509 257.629 37.0191 260.547 37.0191C263.494 37.0191 265.883 34.2968 265.883 30.9383C265.883 27.5797 263.494 24.8572 260.547 24.8572C257.629 24.8572 255.258 27.5256 255.211 30.8377L255.211 30.9383L255.211 31.0388ZM255.935 30.8513C255.976 27.9883 258.025 25.6817 260.547 25.6817C263.094 25.6817 265.159 28.0351 265.159 30.9383C265.159 33.8414 263.094 36.1946 260.547 36.1946C258.025 36.1946 255.976 33.8882 255.935 31.0252L255.934 30.9383L255.935 30.8513Z" fill="#FFB201"/>
<path fill-rule="evenodd" clip-rule="evenodd" d="M244.358 29.998C244.401 32.9732 246.53 35.3702 249.151 35.3702C251.798 35.3702 253.944 32.9246 253.944 29.9076C253.944 26.8907 251.798 24.4451 249.151 24.4451C246.53 24.4451 244.401 26.8421 244.358 29.8173L244.358 29.9076L244.358 29.998ZM245.082 29.8309C245.118 27.3048 246.926 25.2696 249.151 25.2696C251.399 25.2696 253.221 27.3461 253.221 29.9076C253.221 32.4692 251.399 34.5457 249.151 34.5457C246.926 34.5457 245.118 32.5105 245.082 29.9843L245.081 29.9076L245.082 29.8309Z" fill="#FFB201"/>
<path fill-rule="evenodd" clip-rule="evenodd" d="M253.428 27.6331C253.233 27.6867 253.113 27.9239 253.159 28.1627C253.206 28.4016 253.401 28.5517 253.595 28.498C254.325 28.2968 255.346 28.5803 255.694 28.6809C256.042 28.7815 256.187 28.6613 256.248 28.4294C256.31 28.1975 256.193 27.9126 256.003 27.8343C255.813 27.7559 254.263 27.4027 253.428 27.6331Z" fill="#FFB201"/>
</svg>
